<?xml version="1.0" encoding="utf-8" standalone="no"?>
<!DOCTYPE svg PUBLIC "-//W3C//DTD SVG 1.1//EN"
  "http://www.w3.org/Graphics/SVG/1.1/DTD/svg11.dtd">
<svg xmlns:xlink="http://www.w3.org/1999/xlink" width="460.8pt" height="345.6pt" viewBox="0 0 460.8 345.6" xmlns="http://www.w3.org/2000/svg" version="1.1">
 <metadata>
  <rdf:RDF xmlns:dc="http://purl.org/dc/elements/1.1/" xmlns:cc="http://creativecommons.org/ns#" xmlns:rdf="http://www.w3.org/1999/02/22-rdf-syntax-ns#">
   <cc:Work>
    <dc:type rdf:resource="http://purl.org/dc/dcmitype/StillImage"/>
    <dc:date>2023-06-05T13:56:07.773535</dc:date>
    <dc:format>image/svg+xml</dc:format>
    <dc:creator>
     <cc:Agent>
      <dc:title>Matplotlib v3.7.1, https://matplotlib.org/</dc:title>
     </cc:Agent>
    </dc:creator>
   </cc:Work>
  </rdf:RDF>
 </metadata>
 <defs>
  <style type="text/css">*{stroke-linejoin: round; stroke-linecap: butt}</style>
 </defs>
 <g id="figure_1">
  <g id="patch_1">
   <path d="M 0 345.6 
L 460.8 345.6 
L 460.8 0 
L 0 0 
z
" style="fill: #ffffff"/>
  </g>
  <g id="axes_1">
   <g id="patch_2">
    <path d="M 57.6 307.584 
L 414.72 307.584 
L 414.72 41.472 
L 57.6 41.472 
z
" style="fill: #ffffff"/>
   </g>
   <g id="matplotlib.axis_1">
    <g id="xtick_1">
     <g id="line2d_1">
      <defs>
       <path id="m130a52f4d5" d="M 0 0 
L 0 3.5 
" style="stroke: #000000; stroke-width: 0.8"/>
      </defs>
      <g>
       <use xlink:href="#m130a52f4d5" x="73.818655" y="307.584" style="stroke: #000000; stroke-width: 0.8"/>
      </g>
     </g>
     <g id="text_1">
      <!-- 0 -->
      <g transform="translate(70.637405 322.182437) scale(0.1 -0.1)">
       <defs>
        <path id="DejaVuSans-30" d="M 2034 4250 
Q 1547 4250 1301 3770 
Q 1056 3291 1056 2328 
Q 1056 1369 1301 889 
Q 1547 409 2034 409 
Q 2525 409 2770 889 
Q 3016 1369 3016 2328 
Q 3016 3291 2770 3770 
Q 2525 4250 2034 4250 
z
M 2034 4750 
Q 2819 4750 3233 4129 
Q 3647 3509 3647 2328 
Q 3647 1150 3233 529 
Q 2819 -91 2034 -91 
Q 1250 -91 836 529 
Q 422 1150 422 2328 
Q 422 3509 836 4129 
Q 1250 4750 2034 4750 
z
" transform="scale(0.015625)"/>
       </defs>
       <use xlink:href="#DejaVuSans-30"/>
      </g>
     </g>
    </g>
    <g id="xtick_2">
     <g id="line2d_2">
      <g>
       <use xlink:href="#m130a52f4d5" x="147.493184" y="307.584" style="stroke: #000000; stroke-width: 0.8"/>
      </g>
     </g>
     <g id="text_2">
      <!-- 5 -->
      <g transform="translate(144.311934 322.182437) scale(0.1 -0.1)">
       <defs>
        <path id="DejaVuSans-35" d="M 691 4666 
L 3169 4666 
L 3169 4134 
L 1269 4134 
L 1269 2991 
Q 1406 3038 1543 3061 
Q 1681 3084 1819 3084 
Q 2600 3084 3056 2656 
Q 3513 2228 3513 1497 
Q 3513 744 3044 326 
Q 2575 -91 1722 -91 
Q 1428 -91 1123 -41 
Q 819 9 494 109 
L 494 744 
Q 775 591 1075 516 
Q 1375 441 1709 441 
Q 2250 441 2565 725 
Q 2881 1009 2881 1497 
Q 2881 1984 2565 2268 
Q 2250 2553 1709 2553 
Q 1456 2553 1204 2497 
Q 953 2441 691 2322 
L 691 4666 
z
" transform="scale(0.015625)"/>
       </defs>
       <use xlink:href="#DejaVuSans-35"/>
      </g>
     </g>
    </g>
    <g id="xtick_3">
     <g id="line2d_3">
      <g>
       <use xlink:href="#m130a52f4d5" x="221.167712" y="307.584" style="stroke: #000000; stroke-width: 0.8"/>
      </g>
     </g>
     <g id="text_3">
      <!-- 10 -->
      <g transform="translate(214.805212 322.182437) scale(0.1 -0.1)">
       <defs>
        <path id="DejaVuSans-31" d="M 794 531 
L 1825 531 
L 1825 4091 
L 703 3866 
L 703 4441 
L 1819 4666 
L 2450 4666 
L 2450 531 
L 3481 531 
L 3481 0 
L 794 0 
L 794 531 
z
" transform="scale(0.015625)"/>
       </defs>
       <use xlink:href="#DejaVuSans-31"/>
       <use xlink:href="#DejaVuSans-30" x="63.623047"/>
      </g>
     </g>
    </g>
    <g id="xtick_4">
     <g id="line2d_4">
      <g>
       <use xlink:href="#m130a52f4d5" x="294.842241" y="307.584" style="stroke: #000000; stroke-width: 0.8"/>
      </g>
     </g>
     <g id="text_4">
      <!-- 15 -->
      <g transform="translate(288.479741 322.182437) scale(0.1 -0.1)">
       <use xlink:href="#DejaVuSans-31"/>
       <use xlink:href="#DejaVuSans-35" x="63.623047"/>
      </g>
     </g>
    </g>
    <g id="xtick_5">
     <g id="line2d_5">
      <g>
       <use xlink:href="#m130a52f4d5" x="368.516769" y="307.584" style="stroke: #000000; stroke-width: 0.8"/>
      </g>
     </g>
     <g id="text_5">
      <!-- 20 -->
      <g transform="translate(362.154269 322.182437) scale(0.1 -0.1)">
       <defs>
        <path id="DejaVuSans-32" d="M 1228 531 
L 3431 531 
L 3431 0 
L 469 0 
L 469 531 
Q 828 903 1448 1529 
Q 2069 2156 2228 2338 
Q 2531 2678 2651 2914 
Q 2772 3150 2772 3378 
Q 2772 3750 2511 3984 
Q 2250 4219 1831 4219 
Q 1534 4219 1204 4116 
Q 875 4013 500 3803 
L 500 4441 
Q 881 4594 1212 4672 
Q 1544 4750 1819 4750 
Q 2544 4750 2975 4387 
Q 3406 4025 3406 3419 
Q 3406 3131 3298 2873 
Q 3191 2616 2906 2266 
Q 2828 2175 2409 1742 
Q 1991 1309 1228 531 
z
" transform="scale(0.015625)"/>
       </defs>
       <use xlink:href="#DejaVuSans-32"/>
       <use xlink:href="#DejaVuSans-30" x="63.623047"/>
      </g>
     </g>
    </g>
   </g>
   <g id="matplotlib.axis_2">
    <g id="ytick_1">
     <g id="line2d_6">
      <defs>
       <path id="ma842dc4b21" d="M 0 0 
L -3.5 0 
" style="stroke: #000000; stroke-width: 0.8"/>
      </defs>
      <g>
       <use xlink:href="#ma842dc4b21" x="57.6" y="283.532965" style="stroke: #000000; stroke-width: 0.8"/>
      </g>
     </g>
     <g id="text_6">
      <!-- 2 -->
      <g transform="translate(44.2375 287.332183) scale(0.1 -0.1)">
       <use xlink:href="#DejaVuSans-32"/>
      </g>
     </g>
    </g>
    <g id="ytick_2">
     <g id="line2d_7">
      <g>
       <use xlink:href="#ma842dc4b21" x="57.6" y="245.205471" style="stroke: #000000; stroke-width: 0.8"/>
      </g>
     </g>
     <g id="text_7">
      <!-- 3 -->
      <g transform="translate(44.2375 249.004689) scale(0.1 -0.1)">
       <defs>
        <path id="DejaVuSans-33" d="M 2597 2516 
Q 3050 2419 3304 2112 
Q 3559 1806 3559 1356 
Q 3559 666 3084 287 
Q 2609 -91 1734 -91 
Q 1441 -91 1130 -33 
Q 819 25 488 141 
L 488 750 
Q 750 597 1062 519 
Q 1375 441 1716 441 
Q 2309 441 2620 675 
Q 2931 909 2931 1356 
Q 2931 1769 2642 2001 
Q 2353 2234 1838 2234 
L 1294 2234 
L 1294 2753 
L 1863 2753 
Q 2328 2753 2575 2939 
Q 2822 3125 2822 3475 
Q 2822 3834 2567 4026 
Q 2313 4219 1838 4219 
Q 1578 4219 1281 4162 
Q 984 4106 628 3988 
L 628 4550 
Q 988 4650 1302 4700 
Q 1616 4750 1894 4750 
Q 2613 4750 3031 4423 
Q 3450 4097 3450 3541 
Q 3450 3153 3228 2886 
Q 3006 2619 2597 2516 
z
" transform="scale(0.015625)"/>
       </defs>
       <use xlink:href="#DejaVuSans-33"/>
      </g>
     </g>
    </g>
    <g id="ytick_3">
     <g id="line2d_8">
      <g>
       <use xlink:href="#ma842dc4b21" x="57.6" y="206.877976" style="stroke: #000000; stroke-width: 0.8"/>
      </g>
     </g>
     <g id="text_8">
      <!-- 4 -->
      <g transform="translate(44.2375 210.677195) scale(0.1 -0.1)">
       <defs>
        <path id="DejaVuSans-34" d="M 2419 4116 
L 825 1625 
L 2419 1625 
L 2419 4116 
z
M 2253 4666 
L 3047 4666 
L 3047 1625 
L 3713 1625 
L 3713 1100 
L 3047 1100 
L 3047 0 
L 2419 0 
L 2419 1100 
L 313 1100 
L 313 1709 
L 2253 4666 
z
" transform="scale(0.015625)"/>
       </defs>
       <use xlink:href="#DejaVuSans-34"/>
      </g>
     </g>
    </g>
    <g id="ytick_4">
     <g id="line2d_9">
      <g>
       <use xlink:href="#ma842dc4b21" x="57.6" y="168.550482" style="stroke: #000000; stroke-width: 0.8"/>
      </g>
     </g>
     <g id="text_9">
      <!-- 5 -->
      <g transform="translate(44.2375 172.349701) scale(0.1 -0.1)">
       <use xlink:href="#DejaVuSans-35"/>
      </g>
     </g>
    </g>
    <g id="ytick_5">
     <g id="line2d_10">
      <g>
       <use xlink:href="#ma842dc4b21" x="57.6" y="130.222988" style="stroke: #000000; stroke-width: 0.8"/>
      </g>
     </g>
     <g id="text_10">
      <!-- 6 -->
      <g transform="translate(44.2375 134.022207) scale(0.1 -0.1)">
       <defs>
        <path id="DejaVuSans-36" d="M 2113 2584 
Q 1688 2584 1439 2293 
Q 1191 2003 1191 1497 
Q 1191 994 1439 701 
Q 1688 409 2113 409 
Q 2538 409 2786 701 
Q 3034 994 3034 1497 
Q 3034 2003 2786 2293 
Q 2538 2584 2113 2584 
z
M 3366 4563 
L 3366 3988 
Q 3128 4100 2886 4159 
Q 2644 4219 2406 4219 
Q 1781 4219 1451 3797 
Q 1122 3375 1075 2522 
Q 1259 2794 1537 2939 
Q 1816 3084 2150 3084 
Q 2853 3084 3261 2657 
Q 3669 2231 3669 1497 
Q 3669 778 3244 343 
Q 2819 -91 2113 -91 
Q 1303 -91 875 529 
Q 447 1150 447 2328 
Q 447 3434 972 4092 
Q 1497 4750 2381 4750 
Q 2619 4750 2861 4703 
Q 3103 4656 3366 4563 
z
" transform="scale(0.015625)"/>
       </defs>
       <use xlink:href="#DejaVuSans-36"/>
      </g>
     </g>
    </g>
    <g id="ytick_6">
     <g id="line2d_11">
      <g>
       <use xlink:href="#ma842dc4b21" x="57.6" y="91.895494" style="stroke: #000000; stroke-width: 0.8"/>
      </g>
     </g>
     <g id="text_11">
      <!-- 7 -->
      <g transform="translate(44.2375 95.694713) scale(0.1 -0.1)">
       <defs>
        <path id="DejaVuSans-37" d="M 525 4666 
L 3525 4666 
L 3525 4397 
L 1831 0 
L 1172 0 
L 2766 4134 
L 525 4134 
L 525 4666 
z
" transform="scale(0.015625)"/>
       </defs>
       <use xlink:href="#DejaVuSans-37"/>
      </g>
     </g>
    </g>
    <g id="ytick_7">
     <g id="line2d_12">
      <g>
       <use xlink:href="#ma842dc4b21" x="57.6" y="53.568" style="stroke: #000000; stroke-width: 0.8"/>
      </g>
     </g>
     <g id="text_12">
      <!-- 8 -->
      <g transform="translate(44.2375 57.367219) scale(0.1 -0.1)">
       <defs>
        <path id="DejaVuSans-38" d="M 2034 2216 
Q 1584 2216 1326 1975 
Q 1069 1734 1069 1313 
Q 1069 891 1326 650 
Q 1584 409 2034 409 
Q 2484 409 2743 651 
Q 3003 894 3003 1313 
Q 3003 1734 2745 1975 
Q 2488 2216 2034 2216 
z
M 1403 2484 
Q 997 2584 770 2862 
Q 544 3141 544 3541 
Q 544 4100 942 4425 
Q 1341 4750 2034 4750 
Q 2731 4750 3128 4425 
Q 3525 4100 3525 3541 
Q 3525 3141 3298 2862 
Q 3072 2584 2669 2484 
Q 3125 2378 3379 2068 
Q 3634 1759 3634 1313 
Q 3634 634 3220 271 
Q 2806 -91 2034 -91 
Q 1263 -91 848 271 
Q 434 634 434 1313 
Q 434 1759 690 2068 
Q 947 2378 1403 2484 
z
M 1172 3481 
Q 1172 3119 1398 2916 
Q 1625 2713 2034 2713 
Q 2441 2713 2670 2916 
Q 2900 3119 2900 3481 
Q 2900 3844 2670 4047 
Q 2441 4250 2034 4250 
Q 1625 4250 1398 4047 
Q 1172 3844 1172 3481 
z
" transform="scale(0.015625)"/>
       </defs>
       <use xlink:href="#DejaVuSans-38"/>
      </g>
     </g>
    </g>
   </g>
   <g id="line2d_13">
    <path d="M 73.832727 53.568 
L 74.543407 53.568 
L 74.661949 55.072086 
L 75.900256 55.072086 
L 76.016411 56.938635 
L 76.788726 56.938635 
L 76.898884 58.919706 
L 77.678346 58.919706 
L 77.791348 61.177349 
L 78.261185 61.177349 
L 78.375307 63.746441 
L 78.970642 63.746441 
L 79.139798 66.577041 
L 79.553908 66.577041 
L 79.74359 69.569614 
L 80.030789 69.569614 
L 80.16047 72.889886 
L 80.619212 72.889886 
L 80.756247 76.370061 
L 81.028916 76.370061 
L 81.204129 79.976525 
L 81.498459 79.976525 
L 81.61513 83.957372 
L 81.908575 83.957372 
L 82.116234 87.830672 
L 82.396949 87.830672 
L 82.503615 91.829916 
L 82.799404 91.829916 
L 82.971272 96.092316 
L 83.269536 96.092316 
L 83.383525 100.321717 
L 83.685929 100.321717 
L 83.799476 104.616198 
L 84.158257 104.616198 
L 84.294216 109.0454 
L 84.585245 109.0454 
L 84.740271 113.545584 
L 85.179916 113.545584 
L 85.343916 118.134037 
L 85.626649 118.134037 
L 85.742819 122.811562 
L 86.038283 122.811562 
L 86.211566 127.582492 
L 86.511804 127.582492 
L 86.627886 132.45154 
L 87.108995 132.45154 
L 87.215411 137.424341 
L 87.510963 137.424341 
L 87.629167 142.503807 
L 88.099033 142.503807 
L 88.272272 147.598221 
L 88.689034 147.598221 
L 88.868225 152.723872 
L 89.159004 152.723872 
L 89.310213 157.859373 
L 89.76228 157.859373 
L 89.870921 162.957888 
L 90.389604 162.957888 
L 90.5577 167.963305 
L 90.927222 167.963305 
L 91.0446 172.910925 
L 91.54544 172.910925 
L 91.711988 177.789861 
L 92.12682 177.789861 
L 92.234783 182.699192 
L 92.713372 182.699192 
L 92.821364 187.213787 
L 93.286162 187.213787 
L 93.4397 191.292293 
L 93.88493 191.292293 
L 93.99917 194.945401 
L 94.57918 194.945401 
L 94.759078 198.132677 
L 95.345852 198.132677 
L 95.471467 201.007891 
L 95.937532 201.007891 
L 96.055603 203.421488 
L 96.651998 203.421488 
L 96.823984 205.372051 
L 97.416843 205.372051 
L 97.529447 206.924468 
L 98.119992 206.924468 
L 98.235558 208.067432 
L 98.885323 208.067432 
L 98.999843 208.683355 
L 99.594735 208.683355 
L 99.768961 209.069274 
L 100.368981 209.069274 
L 100.481659 209.347647 
L 101.113153 209.347647 
L 101.256789 209.52288 
L 105.493192 209.483824 
L 105.664338 209.354393 
L 106.254795 209.354393 
L 106.370744 209.158961 
L 106.956427 209.158961 
L 107.1369 208.910675 
L 107.752539 208.910675 
L 107.893302 208.276317 
L 108.443871 208.276317 
L 108.619688 207.225952 
L 109.207788 207.225952 
L 109.318845 205.671619 
L 110.097688 205.671619 
L 110.206888 203.751411 
L 110.672659 203.751411 
L 110.788681 201.619253 
L 111.41739 201.619253 
L 111.570397 199.036899 
L 112.154916 199.036899 
L 112.263557 196.17786 
L 112.853498 196.17786 
L 113.029035 193.149643 
L 113.63604 193.149643 
L 113.746537 189.645437 
L 114.329626 189.645437 
L 114.505635 185.832158 
L 115.090345 185.832158 
L 115.209683 182.047433 
L 115.680478 182.047433 
L 115.798564 178.266042 
L 116.433432 178.266042 
L 116.569406 174.528345 
L 116.980598 174.528345 
L 117.097505 170.815867 
L 117.786524 170.815867 
L 117.951422 166.951229 
L 118.335885 166.951229 
L 118.448887 163.210313 
L 118.944157 163.210313 
L 119.074782 159.405887 
L 119.525758 159.405887 
L 119.63375 155.566086 
L 120.11343 155.566086 
L 120.234036 151.620538 
L 120.708131 151.620538 
L 120.825878 147.652378 
L 121.286078 147.652378 
L 121.40244 143.77835 
L 121.872837 143.77835 
L 121.985043 139.81912 
L 122.460524 139.81912 
L 122.578182 135.926043 
L 123.048403 135.926043 
L 123.170098 131.967541 
L 123.464561 131.967541 
L 123.635957 127.928513 
L 124.102833 127.928513 
L 124.286223 123.856217 
L 124.64297 123.856217 
L 124.817549 119.682391 
L 125.137459 119.682391 
L 125.314248 115.481429 
L 125.713593 115.481429 
L 125.825564 111.231638 
L 126.125581 111.231638 
L 126.29241 106.992924 
L 126.589819 106.992924 
L 126.705518 102.763178 
L 127.186391 102.763178 
L 127.298568 98.446506 
L 127.586282 98.446506 
L 127.764928 94.339907 
L 128.101252 94.339907 
L 128.263926 90.21376 
L 128.474561 90.21376 
L 128.647814 86.151544 
L 128.963878 86.151544 
L 129.15384 82.243673 
L 129.35982 82.243673 
L 129.534443 78.459561 
L 129.828213 78.459561 
L 129.945267 74.59293 
L 130.266517 74.59293 
L 130.425212 70.699815 
L 130.708609 70.699815 
L 130.830231 66.956522 
L 131.120096 66.956522 
L 131.281458 63.195062 
L 131.610061 63.195062 
L 131.721707 60.47929 
L 131.892779 60.47929 
L 132.016007 64.228026 
L 132.305475 64.228026 
L 132.482868 67.968943 
L 132.774192 67.968943 
L 132.892941 71.644971 
L 133.190085 71.644971 
L 133.361039 75.605543 
L 133.489631 75.605543 
L 133.599774 79.60678 
L 133.95767 79.60678 
L 134.075299 83.455473 
L 134.364928 83.455473 
L 134.541099 87.238589 
L 134.83478 87.238589 
L 134.955945 90.704851 
L 135.137848 90.704851 
L 135.250599 94.268809 
L 135.549261 94.268809 
L 135.720908 97.795092 
L 136.019157 97.795092 
L 136.133264 101.068835 
L 136.432265 101.068835 
L 136.603013 104.331999 
L 136.897461 104.331999 
L 137.013572 107.447028 
L 137.309463 107.447028 
L 137.430717 110.60598 
L 137.795907 110.60598 
L 137.914169 113.822309 
L 138.197462 113.822309 
L 138.317434 117.013111 
L 138.697152 117.013111 
L 138.816741 120.250711 
L 139.130845 120.250711 
L 139.28702 123.566039 
L 139.555269 123.566039 
L 139.671027 126.963273 
L 139.986118 126.963273 
L 140.152755 130.428692 
L 140.570769 130.428692 
L 140.738865 134.09487 
L 141.027227 134.09487 
L 141.145858 137.7351 
L 141.47203 137.7351 
L 141.633097 141.61001 
L 142.037394 141.61001 
L 142.205917 145.750453 
L 142.512137 145.750453 
L 142.631549 149.750617 
L 143.097069 149.750617 
L 143.208435 154.097529 
L 143.510221 154.097529 
L 143.618346 158.84895 
L 144.093222 158.84895 
L 144.273887 163.716695 
L 144.680762 163.716695 
L 144.855577 169.054336 
L 145.274932 169.054336 
L 145.388258 174.869 
L 145.872153 174.869 
L 145.977861 180.681019 
L 146.452045 180.681019 
L 146.621835 186.464561 
L 147.038185 186.464561 
L 147.216669 192.246647 
L 147.62736 192.246647 
L 147.80468 198.079862 
L 148.391763 198.079862 
L 148.509671 203.984979 
L 148.987362 203.984979 
L 149.169751 210.05866 
L 149.692265 210.05866 
L 149.808332 216.38515 
L 150.460219 216.38515 
L 150.574267 222.827465 
L 151.344387 222.827465 
L 151.456918 228.929547 
L 152.048701 228.929547 
L 152.220819 234.535978 
L 152.930482 234.535978 
L 153.104192 239.582214 
L 153.86998 239.582214 
L 153.995433 243.831775 
L 154.891418 243.831775 
L 155.003005 247.263197 
L 155.771976 247.263197 
L 155.898505 249.876251 
L 156.775939 249.876251 
L 156.951019 251.705162 
L 157.859352 251.705162 
L 158.041947 252.82053 
L 158.830942 252.82053 
L 159.003945 253.254551 
L 160.892459 253.326492 
L 161.12253 253.370262 
L 168.161983 253.31346 
L 168.440753 253.258959 
L 170.49667 253.192844 
L 170.681284 253.129718 
L 171.503506 253.129718 
L 171.680841 252.955903 
L 172.709013 252.955903 
L 172.85953 252.221625 
L 173.855345 252.221625 
L 174.034035 250.778901 
L 174.913267 250.778901 
L 175.060748 248.823164 
L 175.927706 248.823164 
L 176.100311 246.09693 
L 177.097982 246.09693 
L 177.274845 242.447692 
L 178.158674 242.447692 
L 178.274814 238.109518 
L 179.040838 238.109518 
L 179.157406 233.223836 
L 180.040307 233.223836 
L 180.18493 227.818011 
L 180.933905 227.818011 
L 181.069437 221.914274 
L 181.811914 221.914274 
L 181.986729 215.834039 
L 182.700738 215.834039 
L 182.814064 210.678684 
L 183.583668 210.678684 
L 183.761224 205.310037 
L 184.468028 205.310037 
L 184.652052 200.057369 
L 185.238074 200.057369 
L 185.35224 195.236115 
L 185.977089 195.236115 
L 186.11928 190.56867 
L 186.703239 190.56867 
L 186.823123 185.996698 
L 187.419636 185.996698 
L 187.586243 181.581715 
L 188.185114 181.581715 
L 188.296672 177.343001 
L 188.893318 177.343001 
L 189.061325 173.148019 
L 189.472724 173.148019 
L 189.593727 168.859785 
L 190.24193 168.859785 
L 190.359323 164.647095 
L 190.846739 164.647095 
L 190.987399 160.589747 
L 191.45339 160.589747 
L 191.563813 156.417646 
L 192.036966 156.417646 
L 192.237243 152.226151 
L 192.603921 152.226151 
L 192.734929 148.083256 
L 193.212458 148.083256 
L 193.313687 143.882524 
L 193.79344 143.882524 
L 193.913102 139.645266 
L 194.38736 139.645266 
L 194.517941 135.501987 
L 194.971142 135.501987 
L 195.112509 131.291175 
L 195.598289 131.291175 
L 195.727411 127.078907 
L 196.004354 127.078907 
L 196.179935 122.862385 
L 196.583863 122.862385 
L 196.716963 118.469709 
L 197.057134 118.469709 
L 197.179168 114.1745 
L 197.656594 114.1745 
L 197.8016 109.873312 
L 198.074151 109.873312 
L 198.201284 105.433762 
L 198.540983 105.433762 
L 198.704452 101.233911 
L 199.08361 101.233911 
L 199.211288 97.145403 
L 199.50052 97.145403 
L 199.618767 93.159727 
L 199.969149 93.159727 
L 200.089621 90.217325 
L 200.376878 90.217325 
L 200.564763 94.083496 
L 200.848764 94.083496 
L 200.971579 98.012332 
L 201.266395 98.012332 
L 201.447458 102.008625 
L 201.741994 102.008625 
L 201.858458 106.087974 
L 202.16045 106.087974 
L 202.327559 110.150381 
L 202.634634 110.150381 
L 202.736379 114.444325 
L 203.214025 114.444325 
L 203.333688 118.949339 
L 203.629756 118.949339 
L 203.797439 123.27682 
L 204.103292 123.27682 
L 204.215749 127.781795 
L 204.505982 127.781795 
L 204.689152 132.50999 
L 205.028997 132.50999 
L 205.159563 137.180425 
L 205.42821 137.180425 
L 205.603452 141.996696 
L 206.064817 141.996696 
L 206.190756 147.075319 
L 206.477173 147.075319 
L 206.627956 152.315147 
L 207.048284 152.315147 
L 207.169346 157.734272 
L 207.630106 157.734272 
L 207.746276 163.316863 
L 208.046028 163.316863 
L 208.217557 168.971127 
L 208.643367 168.971127 
L 208.809797 174.866662 
L 209.222331 174.866662 
L 209.402981 180.874458 
L 209.818048 180.874458 
L 209.996385 186.902453 
L 210.397911 186.902453 
L 210.5808 193.337179 
L 211.163743 193.337179 
L 211.284098 199.824223 
L 211.751238 199.824223 
L 211.872123 206.329855 
L 212.496692 206.329855 
L 212.690161 212.675087 
L 213.25162 212.675087 
L 213.368821 218.577981 
L 213.943247 218.577981 
L 214.11815 224.396631 
L 214.831305 224.396631 
L 215.006149 229.978034 
L 215.608586 229.978034 
L 215.725463 234.866821 
L 216.485151 234.866821 
L 216.600275 239.281305 
L 217.379177 239.281305 
L 217.479536 243.32681 
L 218.24525 243.32681 
L 218.358488 246.921239 
L 219.239282 246.921239 
L 219.358281 250.120205 
L 220.303024 250.120205 
L 220.426576 252.862921 
L 221.31652 252.862921 
L 221.491055 255.366894 
L 222.370994 255.366894 
L 222.49269 257.392464 
L 223.379495 257.392464 
L 223.552439 258.958295 
L 224.547369 258.958295 
L 224.663819 260.487371 
L 225.433777 260.487371 
L 225.604555 261.634168 
L 226.314379 261.634168 
L 226.436753 262.588139 
L 227.496266 262.588139 
L 227.672407 263.326556 
L 228.675957 263.326556 
L 228.798905 263.678403 
L 232.972685 263.69427 
L 233.095014 263.486382 
L 234.271464 263.486382 
L 234.448813 263.073633 
L 235.331965 263.073633 
L 235.449417 262.577369 
L 236.213525 262.577369 
L 236.332362 261.738725 
L 237.389842 261.738725 
L 237.520879 260.556858 
L 238.573541 260.556858 
L 238.68501 259.076306 
L 239.753026 259.076306 
L 239.865998 257.160238 
L 240.751021 257.160238 
L 240.9392 255.174835 
L 241.935368 255.174835 
L 242.106794 253.011708 
L 242.993791 253.011708 
L 243.110212 250.199466 
L 244.215683 250.199466 
L 244.354265 247.453301 
L 245.184577 247.453301 
L 245.357594 244.456935 
L 246.244547 244.456935 
L 246.369499 241.055216 
L 247.24574 241.055216 
L 247.421483 237.610954 
L 248.131205 237.610954 
L 248.242939 234.363504 
L 249.187388 234.363504 
L 249.31125 230.530218 
L 250.077332 230.530218 
L 250.188404 226.746643 
L 250.957256 226.746643 
L 251.077832 222.821064 
L 251.835707 222.821064 
L 251.958876 218.437395 
L 252.720008 218.437395 
L 252.863187 214.322632 
L 253.625453 214.322632 
L 253.824934 210.187977 
L 254.491762 210.187977 
L 254.612544 205.89434 
L 255.201233 205.89434 
L 255.368298 201.660838 
L 255.973239 201.660838 
L 256.084842 197.150458 
L 256.850865 197.150458 
L 256.967787 192.416438 
L 257.56318 192.416438 
L 257.727032 187.394923 
L 258.324061 187.394923 
L 258.436812 192.213341 
L 259.031012 192.213341 
L 259.204 198.629516 
L 259.615914 198.629516 
L 259.787915 204.708525 
L 260.385798 204.708525 
L 260.503339 210.362252 
L 261.088653 210.362252 
L 261.275787 216.032383 
L 261.857462 216.032383 
L 261.973042 221.816309 
L 262.561319 221.816309 
L 262.734822 226.711267 
L 263.532496 226.711267 
L 263.652704 231.182667 
L 264.389302 231.182667 
L 264.551754 235.153127 
L 265.237546 235.153127 
L 265.40632 238.504177 
L 266.124808 238.504177 
L 266.287158 241.427606 
L 266.989379 241.427606 
L 267.122804 243.936792 
L 267.887383 243.936792 
L 268.073058 245.659306 
L 268.943434 245.659306 
L 269.064039 246.860912 
L 269.939337 246.860912 
L 270.114829 247.554103 
L 270.81126 247.554103 
L 270.98911 247.885291 
L 271.872114 247.885291 
L 271.991099 248.089959 
L 272.870905 248.089959 
L 273.049463 248.234722 
L 276.998226 248.147451 
L 277.179612 247.86605 
L 278.06185 247.86605 
L 278.179479 247.468556 
L 279.098613 247.468556 
L 279.291404 247.052473 
L 279.964613 247.052473 
L 280.132517 246.596835 
L 281.018173 246.596835 
L 281.127683 246.054923 
L 282.014076 246.054923 
L 282.131322 244.907474 
L 283.10023 244.907474 
L 283.243291 243.297796 
L 284.099787 243.297796 
L 284.270462 241.290854 
L 284.994299 241.290854 
L 285.154423 238.848817 
L 286.040536 238.848817 
L 286.148853 235.978011 
L 286.912519 235.978011 
L 287.019686 232.808673 
L 287.905696 232.808673 
L 288.08552 229.322749 
L 288.799765 229.322749 
L 288.973608 225.569452 
L 289.676802 225.569452 
L 289.85172 222.643455 
L 290.566554 222.643455 
L 290.739115 225.223317 
L 291.465752 225.223317 
L 291.646726 227.807931 
L 292.322911 227.807931 
L 292.444194 230.103211 
L 293.209436 230.103211 
L 293.386314 231.948144 
L 293.99628 231.948144 
L 294.106055 233.453609 
L 294.862575 233.453609 
L 294.980263 234.584884 
L 295.747229 234.584884 
L 295.864607 235.246953 
L 296.630469 235.246953 
L 296.745622 235.694235 
L 297.511145 235.694235 
L 297.648607 236.161102 
L 298.519012 236.161102 
L 298.636803 236.507122 
L 299.397006 236.507122 
L 299.580043 236.675917 
L 303.716721 236.679673 
L 303.830725 236.536098 
L 304.590678 236.536098 
L 304.702353 236.245806 
L 305.467213 236.245806 
L 305.585608 235.695039 
L 306.352073 235.695039 
L 306.469629 234.673803 
L 307.35835 234.673803 
L 307.537644 233.158066 
L 308.262616 233.158066 
L 308.435707 231.075005 
L 309.145885 231.075005 
L 309.308559 228.183962 
L 310.005225 228.183962 
L 310.121483 224.815857 
L 310.891677 224.815857 
L 311.064164 220.798676 
L 311.772692 220.798676 
L 311.89231 216.080868 
L 312.569482 216.080868 
L 312.676251 210.601186 
L 313.431076 210.601186 
L 313.551106 204.430919 
L 314.13757 204.430919 
L 314.308746 197.721768 
L 315.016743 197.721768 
L 315.196907 191.422261 
L 315.821858 191.422261 
L 315.905582 186.140388 
L 316.496349 186.140388 
L 316.665329 181.839621 
L 317.282618 181.839621 
L 317.409265 178.234614 
L 317.872825 178.234614 
L 318.004525 175.461389 
L 318.559236 175.461389 
L 318.670499 173.321834 
L 319.142487 173.321834 
L 319.322622 171.428609 
L 319.911944 171.428609 
L 320.024327 169.911415 
L 320.499248 169.911415 
L 320.618247 168.583636 
L 321.119956 168.583636 
L 321.288332 167.299281 
L 321.810198 167.299281 
L 321.987017 166.117875 
L 322.413401 166.117875 
L 322.576162 164.735747 
L 322.974182 164.735747 
L 323.151354 163.289114 
L 323.562222 163.289114 
L 323.740868 161.777822 
L 324.15707 161.777822 
L 324.330397 160.091068 
L 324.739659 160.091068 
L 324.91972 158.185348 
L 325.353073 158.185348 
L 325.517544 155.904939 
L 325.928648 155.904939 
L 326.099249 153.473979 
L 326.515539 153.473979 
L 326.687127 150.769093 
L 327.107853 150.769093 
L 327.284539 147.864597 
L 327.699563 147.864597 
L 327.891618 144.714269 
L 328.29559 144.714269 
L 328.462418 141.340606 
L 328.772013 141.340606 
L 328.954432 137.66339 
L 329.343743 137.66339 
L 329.455698 133.734553 
L 329.941729 133.734553 
L 330.076509 129.584989 
L 330.343123 129.584989 
L 330.528532 125.338379 
L 330.927583 125.338379 
L 331.106553 121.068236 
L 331.402621 121.068236 
L 331.519425 116.770076 
L 332.023211 116.770076 
L 332.188346 112.452714 
L 332.419521 112.452714 
L 332.588855 108.086561 
L 332.88597 108.086561 
L 333.015401 103.701934 
L 333.462768 103.701934 
L 333.587292 102.439349 
L 333.90617 102.439349 
L 334.0707 106.824705 
L 334.361184 106.824705 
L 334.480301 111.289321 
L 334.769783 111.289321 
L 334.944569 115.835997 
L 335.242376 115.835997 
L 335.376346 120.469024 
L 335.833864 120.469024 
L 335.946999 125.193386 
L 336.236717 125.193386 
L 336.412887 130.014717 
L 336.704624 130.014717 
L 336.862154 134.939186 
L 337.134986 134.939186 
L 337.312144 139.973809 
L 337.713169 139.973809 
L 337.889502 145.126213 
L 338.183242 145.126213 
L 338.300768 150.405135 
L 338.768837 150.405135 
L 338.889722 155.820312 
L 339.183889 155.820312 
L 339.355448 161.382819 
L 339.792603 161.382819 
L 339.969555 167.105536 
L 340.360914 167.105536 
L 340.477732 173.001224 
L 340.949057 173.001224 
L 341.12956 178.999937 
L 341.579505 178.999937 
L 341.725115 185.072354 
L 342.126023 185.072354 
L 342.303092 191.131509 
L 342.715699 191.131509 
L 342.83349 196.967215 
L 343.485362 196.967215 
L 343.600943 202.33958 
L 344.099159 202.33958 
L 344.220855 207.227523 
L 344.778114 207.227523 
L 344.96096 211.651819 
L 345.572797 211.651819 
L 345.695333 215.485642 
L 346.264763 215.485642 
L 346.431872 218.731444 
L 347.021459 218.731444 
L 347.13701 221.423031 
L 347.90685 221.423031 
L 348.022505 223.633799 
L 348.614141 223.633799 
L 348.786377 225.316414 
L 349.495214 225.316414 
L 349.675363 226.43642 
L 350.378587 226.43642 
L 350.497011 227.511775 
L 351.167626 227.511775 
L 351.270358 228.479467 
L 352.048493 228.479467 
L 352.152404 229.273153 
L 352.93023 229.273153 
L 353.039696 230.108577 
L 353.805587 230.108577 
L 353.915774 230.849448 
L 354.24787 230.849448 
L 354.415317 231.226974 
L 354.977277 231.226974 
L 355.095893 231.672991 
L 355.859942 231.672991 
L 355.977777 232.074509 
L 356.74548 232.074509 
L 356.862019 232.368021 
L 357.636058 232.368021 
L 357.748043 232.699784 
L 358.514391 232.699784 
L 358.630487 232.988658 
L 359.409492 232.988658 
L 359.522347 233.255724 
L 360.278734 233.255724 
L 360.398485 233.414094 
L 363.819281 233.465836 
L 364.003026 233.562574 
L 371.012509 233.53885 
L 371.185275 233.443414 
L 372.481328 233.346791 
L 372.661153 233.23108 
L 373.413105 233.23108 
L 373.595213 233.056307 
L 374.248618 233.056307 
L 374.428428 232.880345 
L 375.18897 232.880345 
L 375.317444 232.632136 
L 376.028138 232.632136 
L 376.199579 232.409952 
L 376.909447 232.409952 
L 377.08771 231.85175 
L 377.810811 231.85175 
L 377.992537 230.70066 
L 378.670121 230.70066 
L 378.789135 229.064766 
L 379.56229 229.064766 
L 379.66984 226.884047 
L 380.467146 226.884047 
L 380.623808 224.146276 
L 381.346967 224.146276 
L 381.516065 221.021588 
L 382.234598 221.021588 
L 382.403003 217.576943 
L 382.996069 217.576943 
L 383.102469 213.58387 
L 383.85756 213.58387 
L 383.982246 209.232588 
L 384.564216 209.232588 
L 384.742612 204.211188 
L 385.456695 204.211188 
L 385.629196 199.292812 
L 386.223175 199.292812 
L 386.335204 194.673008 
L 386.927739 194.673008 
L 387.100211 190.011349 
L 387.691685 190.011349 
L 387.816593 185.226008 
L 388.414742 185.226008 
L 388.57351 180.581291 
L 389.178319 180.581291 
L 389.286429 176.020971 
L 389.758167 176.020971 
L 389.879553 171.453138 
L 390.471116 171.453138 
L 390.641864 167.045822 
L 391.05198 167.045822 
L 391.223259 162.787867 
L 391.817532 162.787867 
L 391.9294 158.563909 
L 392.399635 158.563909 
L 392.522406 154.45179 
L 393.061026 154.45179 
L 393.24421 150.346264 
L 393.587003 150.346264 
L 393.727854 146.536933 
L 394.173217 146.536933 
L 394.29338 142.940587 
L 394.798492 142.940587 
L 394.969373 139.278664 
L 395.351921 139.278664 
L 395.508302 135.729423 
L 395.763658 135.729423 
L 395.939401 132.335523 
L 396.379194 132.335523 
L 396.559372 128.932003 
L 396.960457 128.932003 
L 397.137128 125.495139 
L 397.426315 125.495139 
L 397.548762 122.16103 
L 398.01328 122.16103 
L 398.123424 118.946158 
L 398.413981 118.946158 
L 398.487273 53.568 
L 398.487273 53.568 
" clip-path="url(#pf5b8cc9fcc)" style="fill: none; stroke: #1f77b4; stroke-width: 1.5; stroke-linecap: square"/>
   </g>
   <g id="line2d_14">
    <path d="M 73.832727 285.830966 
L 73.850114 284.553166 
L 73.879614 291.843055 
L 73.887202 291.843055 
L 73.912635 295.488 
L 73.952316 291.843055 
L 74.191935 284.553166 
L 74.252908 284.553166 
L 74.481549 277.263277 
L 74.543407 277.263277 
L 74.661949 273.618332 
L 74.722053 273.618332 
L 74.900242 266.328442 
L 75.011579 266.328442 
L 75.287431 259.038553 
L 75.341979 259.038553 
L 75.55428 251.748664 
L 75.613485 251.748664 
L 75.788373 244.458774 
L 75.900256 244.458774 
L 76.097689 237.168885 
L 76.198313 237.168885 
L 76.38832 229.878996 
L 76.488105 229.878996 
L 76.6754 222.589106 
L 76.788726 222.589106 
L 76.96528 215.299217 
L 77.079416 215.299217 
L 77.195012 211.654272 
L 77.627098 200.719438 
L 77.678346 200.719438 
L 77.860882 193.429549 
L 77.965102 193.429549 
L 78.198975 186.139659 
L 78.261185 186.139659 
L 78.375307 182.494715 
L 78.666322 175.204825 
L 78.717393 175.204825 
L 78.926275 167.914936 
L 78.970642 167.914936 
L 79.196955 160.625046 
L 79.282064 160.625046 
L 79.499875 153.335157 
L 79.553908 153.335157 
L 79.925375 142.408832 
L 80.030789 142.408832 
L 80.231507 135.804391 
L 80.332545 135.804391 
L 80.51374 129.963473 
L 80.619212 129.963473 
L 80.823924 124.83031 
L 80.925212 124.83031 
L 81.093927 120.331314 
L 81.204129 120.331314 
L 81.387446 116.584801 
L 81.498459 116.584801 
L 81.688834 113.37541 
L 81.797636 113.37541 
L 81.908575 111.97661 
L 82.199251 109.559486 
L 82.252886 109.559486 
L 82.503615 107.542195 
L 82.863604 105.405744 
L 82.971272 105.405744 
L 83.158773 104.541076 
L 83.269536 104.541076 
L 83.451305 103.957808 
L 83.560373 103.957808 
L 83.799476 103.620258 
L 83.861083 103.620258 
L 84.041261 103.963097 
L 84.158257 103.963097 
L 84.294216 104.087317 
L 84.543545 105.794002 
L 84.585245 105.794002 
L 84.975145 108.867828 
L 85.03295 108.867828 
L 85.179916 109.757524 
L 86.211566 118.168493 
L 86.396297 121.409006 
L 86.511804 121.409006 
L 86.742892 124.460143 
L 86.801257 124.460143 
L 87.049481 127.210984 
L 87.108995 127.210984 
L 87.329871 129.960713 
L 87.393924 129.960713 
L 87.573911 132.529882 
L 87.686058 132.529882 
L 87.869803 135.963144 
L 87.981714 135.963144 
L 88.168008 138.214616 
L 88.272272 138.214616 
L 88.460702 141.444665 
L 88.573217 141.444665 
L 88.766466 143.562873 
L 88.868225 143.562873 
L 89.047195 146.716305 
L 89.159004 146.716305 
L 89.414139 149.761042 
L 89.503329 149.761042 
L 89.700585 152.548677 
L 89.76228 152.548677 
L 90.103938 156.794175 
L 90.18999 156.794175 
L 90.334142 157.966498 
L 90.389604 157.966498 
L 90.588481 159.684643 
L 90.640318 159.684643 
L 90.820305 162.534369 
L 90.927222 162.534369 
L 91.162759 165.344157 
L 91.224749 165.344157 
L 91.370006 166.783355 
L 91.757666 170.584867 
L 91.816444 170.584867 
L 91.928798 171.955267 
L 92.461288 176.97065 
L 92.546986 176.97065 
L 92.766094 178.942561 
L 92.821364 178.942561 
L 93.054441 181.789719 
L 93.110787 181.789719 
L 93.225366 182.82138 
L 93.286162 182.82138 
L 93.553571 185.109071 
L 93.601666 185.109071 
L 93.76795 187.237474 
L 93.88493 187.237474 
L 94.111818 189.328047 
L 94.173852 189.328047 
L 94.355401 191.261669 
L 94.468108 191.261669 
L 94.654711 192.529696 
L 94.759078 192.529696 
L 94.949733 194.458374 
L 95.052126 194.458374 
L 95.249176 195.723143 
L 95.345852 195.723143 
L 95.707756 197.842845 
L 95.762245 197.842845 
L 95.937532 198.444816 
L 96.175368 199.786164 
L 96.234941 199.786164 
L 96.424329 201.037518 
L 96.530184 201.037518 
L 96.722151 201.858148 
L 96.823984 201.858148 
L 97.005798 203.067725 
L 97.122704 203.067725 
L 97.308364 203.860913 
L 97.416843 203.860913 
L 97.643613 204.676369 
L 97.703319 204.676369 
L 97.889214 205.450201 
L 97.998297 205.450201 
L 98.181879 205.957695 
L 98.297857 205.957695 
L 98.476607 206.683924 
L 98.588798 206.683924 
L 98.776152 207.160143 
L 98.885323 207.160143 
L 99.118651 207.589603 
L 99.178607 207.589603 
L 99.363132 207.966094 
L 99.474395 207.966094 
L 99.661661 208.213 
L 99.768961 208.213 
L 99.884188 208.375853 
L 100.286392 208.701024 
L 100.481659 208.771086 
L 100.714632 208.969546 
L 100.993196 209.041449 
L 101.361347 209.218368 
L 101.888887 209.391915 
L 102.42173 209.491605 
L 102.904122 209.555995 
L 106.956427 209.458567 
L 108.619688 209.101393 
L 108.855373 208.927271 
L 109.032605 208.8464 
L 109.435074 208.552121 
L 109.492805 208.552121 
L 109.728416 208.28471 
L 109.79101 208.28471 
L 110.017397 208.042097 
L 110.097688 208.042097 
L 110.319021 207.730725 
L 110.378255 207.730725 
L 110.564873 207.361286 
L 110.672659 207.361286 
L 110.906722 206.924774 
L 110.967047 206.924774 
L 111.150585 206.432228 
L 111.261068 206.432228 
L 111.41739 206.203374 
L 111.695069 205.777786 
L 111.747172 205.777786 
L 112.045053 204.861184 
L 112.154916 204.861184 
L 112.383013 204.184512 
L 112.444929 204.184512 
L 112.628909 203.441188 
L 112.733998 203.441188 
L 112.924594 202.766854 
L 113.029035 202.766854 
L 113.1769 202.309569 
L 113.517718 201.064041 
L 113.63604 201.064041 
L 113.859995 200.162655 
L 113.920806 200.162655 
L 114.096388 199.186262 
L 114.205868 199.186262 
L 114.445634 198.300475 
L 114.505635 198.300475 
L 114.685091 197.142946 
L 114.799714 197.142946 
L 114.980069 196.09285 
L 115.090345 196.09285 
L 115.325603 194.96031 
L 115.383717 194.96031 
L 115.57007 193.761503 
L 115.680478 193.761503 
L 115.914233 192.494166 
L 115.97385 192.494166 
L 116.124677 191.817609 
L 116.514179 189.974938 
L 116.569406 189.974938 
L 116.8007 188.540915 
L 116.857635 188.540915 
L 117.047332 187.240003 
L 117.159627 187.240003 
L 117.27786 186.459042 
L 117.583816 185.006737 
L 117.641842 185.006737 
L 118.277947 181.413304 
L 118.335885 181.413304 
L 118.568093 179.892776 
L 118.626251 179.892776 
L 118.809642 178.344 
L 118.944157 178.344 
L 119.180313 176.758124 
L 119.225019 176.758124 
L 119.439176 175.147142 
L 119.525758 175.147142 
L 119.733417 173.503161 
L 119.81499 173.503161 
L 120.004127 171.837908 
L 120.11343 171.837908 
L 120.347494 170.139617 
L 120.409248 170.139617 
L 120.628754 168.420322 
L 120.708131 168.420322 
L 120.931645 166.671975 
L 120.991587 166.671975 
L 121.192011 164.906228 
L 121.286078 164.906228 
L 121.504111 163.120166 
L 121.597589 163.120166 
L 121.767099 161.324485 
L 121.872837 161.324485 
L 122.052382 159.507263 
L 122.161494 159.507263 
L 122.353961 157.679425 
L 122.460524 157.679425 
L 122.694279 155.836179 
L 122.756018 155.836179 
L 122.939173 153.987759 
L 123.048403 153.987759 
L 123.286298 152.122705 
L 123.344501 152.122705 
L 123.527611 150.251519 
L 123.635957 150.251519 
L 123.824947 148.179074 
L 123.966255 148.179074 
L 124.229243 146.299034 
L 124.286223 146.299034 
L 124.468391 144.215475 
L 124.528391 144.215475 
L 124.724203 142.325316 
L 124.817549 142.325316 
L 125.039928 140.223168 
L 125.137459 140.223168 
L 125.373364 138.116421 
L 125.425025 138.116421 
L 125.62956 136.015039 
L 125.713593 136.015039 
L 125.92249 133.906644 
L 126.006612 133.906644 
L 126.230641 131.801506 
L 126.29241 131.801506 
L 126.47751 129.498292 
L 126.589819 129.498292 
L 126.772237 127.207803 
L 126.908005 127.207803 
L 127.126082 124.938393 
L 127.186391 124.938393 
L 127.412057 122.674388 
L 127.469641 122.674388 
L 127.660458 120.425101 
L 127.764928 120.425101 
L 127.87986 119.184747 
L 128.300409 115.610286 
L 128.36181 115.610286 
L 128.540603 113.252494 
L 128.647814 113.252494 
L 128.765885 111.963847 
L 129.189057 108.268233 
L 129.248718 108.268233 
L 129.428027 105.852144 
L 129.534443 105.852144 
L 129.715284 103.309039 
L 129.828213 103.309039 
L 130.016039 100.818173 
L 130.147739 100.818173 
L 130.369175 98.383457 
L 130.425212 98.383457 
L 130.609752 95.813331 
L 130.708609 95.813331 
L 130.944986 93.3038 
L 131.003336 93.3038 
L 131.120096 92.050989 
L 131.281458 90.857777 
L 131.361527 90.857777 
L 131.660041 87.096355 
L 131.721707 87.096355 
L 131.954106 84.625228 
L 132.016007 84.625228 
L 132.128936 83.655351 
L 132.191692 83.655351 
L 132.378943 81.851736 
L 132.482868 81.851736 
L 132.669073 80.562859 
L 132.774192 80.562859 
L 132.959144 79.568452 
L 133.066459 79.568452 
L 133.263671 78.832833 
L 133.361039 78.832833 
L 133.599774 78.533227 
L 133.668777 78.533227 
L 133.841309 78.90278 
L 133.95767 78.90278 
L 134.075299 79.036658 
L 134.192353 79.877103 
L 134.253385 79.877103 
L 134.435567 81.108872 
L 134.541099 81.108872 
L 134.727569 83.218878 
L 134.83478 83.218878 
L 135.079424 85.261848 
L 135.137848 85.261848 
L 135.369392 87.813309 
L 135.426033 87.813309 
L 135.611811 90.035461 
L 135.720908 90.035461 
L 135.903311 92.706504 
L 136.019157 92.706504 
L 136.252823 95.080777 
L 136.309037 95.080777 
L 136.496715 97.141991 
L 136.603013 97.141991 
L 136.786065 99.616989 
L 136.897461 99.616989 
L 137.133912 101.832472 
L 137.193514 101.832472 
L 137.381252 103.765136 
L 137.516268 103.765136 
L 137.71121 106.1199 
L 137.795907 106.1199 
L 138.02278 108.27586 
L 138.080688 108.27586 
L 138.267365 110.185106 
L 138.37854 110.185106 
L 138.557451 112.535463 
L 138.697152 112.535463 
L 138.963663 114.692573 
L 139.010991 114.692573 
L 139.245424 116.605804 
L 139.28702 116.605804 
L 139.49994 119.001694 
L 139.555269 119.001694 
L 139.789377 121.219017 
L 139.872821 121.219017 
L 140.108182 123.196332 
L 140.152755 123.196332 
L 140.339402 125.685856 
L 140.465636 125.685856 
L 140.679557 127.318454 
L 140.738865 127.318454 
L 140.916377 129.651065 
L 141.027227 129.651065 
L 141.264003 131.873102 
L 141.356773 131.873102 
L 141.591545 133.890929 
L 141.633097 133.890929 
L 141.803109 136.548021 
L 141.930742 136.548021 
L 142.108769 138.290504 
L 142.205917 138.290504 
L 142.386419 140.85837 
L 142.512137 140.85837 
L 142.738024 143.303204 
L 142.79963 143.303204 
L 142.976449 145.522557 
L 143.097069 145.522557 
L 143.328672 147.80473 
L 143.387818 147.80473 
L 143.571224 149.970885 
L 143.683341 149.970885 
L 143.873245 153.026927 
L 143.97857 153.026927 
L 144.165025 155.030995 
L 144.273887 155.030995 
L 144.455185 158.020847 
L 144.561925 158.020847 
L 144.753655 159.98149 
L 144.855577 159.98149 
L 145.051625 163.104567 
L 145.154371 163.104567 
L 145.335552 165.152635 
L 145.448406 165.152635 
L 145.628054 168.497245 
L 145.741572 168.497245 
L 145.92592 170.690536 
L 146.03823 170.690536 
L 146.222018 174.129509 
L 146.32752 174.129509 
L 146.513799 176.384699 
L 146.621835 176.384699 
L 146.809528 179.85441 
L 146.923252 179.85441 
L 147.113141 182.129799 
L 147.216669 182.129799 
L 147.398851 185.612273 
L 147.513489 185.612273 
L 147.698986 187.895978 
L 147.80468 187.895978 
L 148.002614 191.401526 
L 148.100822 191.401526 
L 148.286246 193.700371 
L 148.391763 193.700371 
L 148.747832 197.78681 
L 148.812356 197.78681 
L 148.924533 198.965725 
L 148.987362 198.965725 
L 149.510378 204.674759 
L 149.571144 204.674759 
L 149.755596 206.528008 
L 149.880622 206.528008 
L 150.059297 209.921065 
L 150.169411 209.921065 
L 150.346466 212.146167 
L 150.460219 212.146167 
L 150.69474 214.830663 
L 150.753827 214.830663 
L 150.942213 217.583344 
L 151.045254 217.583344 
L 151.227466 219.388492 
L 151.344387 219.388492 
L 151.868847 224.210129 
L 151.927831 224.210129 
L 152.11131 225.834678 
L 152.220819 225.834678 
L 152.404446 228.829857 
L 152.519201 228.829857 
L 152.698422 230.794026 
L 152.809479 230.794026 
L 153.002624 232.082098 
L 153.104192 232.082098 
L 153.289837 234.663838 
L 153.40415 234.663838 
L 153.58483 236.35684 
L 153.726005 236.35684 
L 153.995433 237.467111 
L 154.055787 237.467111 
L 154.349056 240.451826 
L 154.410014 240.451826 
L 154.646303 241.615296 
L 154.708646 241.615296 
L 154.824006 242.03686 
L 154.891418 242.03686 
L 155.23673 244.059747 
L 155.29676 244.059747 
L 155.413859 244.669039 
L 155.497745 244.669039 
L 155.83653 245.885592 
L 155.898505 245.885592 
L 156.124892 247.259249 
L 156.186042 247.259249 
L 156.420651 248.160099 
L 156.479266 248.160099 
L 156.716336 248.75084 
L 156.775939 248.75084 
L 157.47041 250.526707 
L 157.529629 250.526707 
L 157.71912 250.932365 
L 157.859352 250.932365 
L 158.6543 252.214151 
L 158.712253 252.214151 
L 158.893286 252.422883 
L 159.003945 252.422883 
L 159.188367 252.709151 
L 159.415432 252.812903 
L 159.855372 253.020025 
L 160.186318 253.114426 
L 160.446507 253.18744 
L 161.17895 253.286363 
L 161.871829 253.341056 
L 171.680841 253.235579 
L 172.456693 253.164673 
L 173.151945 253.059541 
L 173.516015 252.945631 
L 174.034035 252.847168 
L 174.265358 252.655147 
L 174.449618 252.565921 
L 174.811139 252.322963 
L 175.060748 252.249527 
L 175.404116 251.783618 
L 175.523572 251.783618 
L 175.703131 251.508772 
L 175.815942 251.508772 
L 176.036052 251.259452 
L 176.100311 251.259452 
L 176.283348 250.780166 
L 176.418938 250.780166 
L 176.761864 250.143355 
L 176.807748 250.143355 
L 177.0428 249.767707 
L 177.097982 249.767707 
L 177.531247 248.929792 
L 177.611832 248.929792 
L 177.805537 248.327973 
L 177.865066 248.327973 
L 178.051212 247.782075 
L 178.158674 247.782075 
L 178.394344 247.080567 
L 178.453991 247.080567 
L 178.639312 246.247672 
L 178.745388 246.247672 
L 178.934334 245.49216 
L 179.040838 245.49216 
L 179.277186 244.574447 
L 179.338085 244.574447 
L 179.523789 243.520671 
L 179.632945 243.520671 
L 179.816027 242.564706 
L 179.928439 242.564706 
L 180.106967 241.697508 
L 180.245107 241.697508 
L 180.47898 240.408938 
L 180.527148 240.408938 
L 180.640754 239.810263 
L 180.999623 238.179619 
L 181.122306 238.179619 
L 181.341546 236.669554 
L 181.402018 236.669554 
L 181.583729 235.299691 
L 181.694373 235.299691 
L 181.878177 234.056999 
L 181.986729 234.056999 
L 182.175571 232.365185 
L 182.283342 232.365185 
L 182.474808 230.830476 
L 182.579116 230.830476 
L 182.765631 229.438191 
L 182.877071 229.438191 
L 183.05666 227.69659 
L 183.172992 227.69659 
L 183.356088 226.116654 
L 183.464404 226.116654 
L 183.655442 224.683435 
L 183.761224 224.683435 
L 183.878676 223.762196 
L 184.180314 222.049148 
L 184.217107 222.049148 
L 184.410694 220.495084 
L 184.468028 220.495084 
L 184.703094 218.835541 
L 184.763257 218.835541 
L 185.043072 217.092215 
L 185.08629 217.092215 
L 185.293802 215.510708 
L 185.35224 215.510708 
L 185.469574 214.546656 
L 185.532212 214.546656 
L 185.651712 213.628445 
L 186.064702 211.127537 
L 186.11928 211.127537 
L 186.298206 209.218866 
L 186.412313 209.218866 
L 186.600626 207.487422 
L 186.703239 207.487422 
L 186.89472 205.699291 
L 187.023724 205.699291 
L 187.202443 203.87015 
L 187.296481 203.87015 
L 187.481036 202.210799 
L 187.586243 202.210799 
L 187.776265 200.295613 
L 187.893717 200.295613 
L 188.076518 198.558227 
L 188.185114 198.558227 
L 188.369919 196.780598 
L 188.478545 196.780598 
L 188.667948 194.976025 
L 188.768543 194.976025 
L 188.965828 193.338981 
L 189.061325 193.338981 
L 189.299412 191.46446 
L 189.365557 191.46446 
L 189.593727 189.763984 
L 189.653477 189.763984 
L 189.849437 187.823271 
L 189.950827 187.823271 
L 190.133069 186.062698 
L 190.24193 186.062698 
L 190.474329 184.265292 
L 190.533652 184.265292 
L 190.693201 183.332439 
L 190.942 181.597736 
L 190.987399 181.597736 
L 191.293118 179.647365 
L 191.68296 176.857622 
L 191.728284 176.857622 
L 192.036966 174.959989 
L 192.548031 171.287794 
L 192.603921 171.287794 
L 192.820038 169.321133 
L 192.908226 169.321133 
L 193.034784 168.311242 
L 193.258681 166.43331 
L 193.313687 166.43331 
L 193.558757 164.339709 
L 193.622736 164.339709 
L 193.850568 162.440505 
L 193.913102 162.440505 
L 194.147049 160.324214 
L 194.207388 160.324214 
L 194.451545 158.40439 
L 194.517941 158.40439 
L 194.796961 156.278172 
L 194.844658 156.278172 
L 195.057297 154.349303 
L 195.112509 154.349303 
L 195.372477 152.399315 
L 195.414413 152.399315 
L 195.666542 150.439668 
L 195.727411 150.439668 
L 196.076083 147.444911 
L 196.179935 147.444911 
L 196.422413 145.162662 
L 196.485611 145.162662 
L 196.862368 141.921536 
L 196.916312 141.921536 
L 197.256011 138.732688 
L 197.363413 138.732688 
L 197.59204 136.452739 
L 197.656594 136.452739 
L 197.88164 134.384434 
L 197.947829 134.384434 
L 198.201284 132.108854 
L 198.445029 129.833428 
L 198.540983 129.833428 
L 198.741937 127.368471 
L 198.805401 127.368471 
L 199.034101 124.942188 
L 199.08361 124.942188 
L 199.317601 122.546719 
L 199.375465 122.546719 
L 199.618767 120.188467 
L 199.681641 120.188467 
L 199.869364 117.679166 
L 199.969149 117.679166 
L 200.170413 115.262886 
L 200.271288 115.262886 
L 200.458156 112.937672 
L 200.564763 112.937672 
L 200.756759 111.187293 
L 200.848764 111.187293 
L 201.050131 109.786193 
L 201.154248 109.786193 
L 201.342884 108.693132 
L 201.447458 108.693132 
L 201.64327 108.072533 
L 201.741994 108.072533 
L 201.858458 107.784195 
L 202.227907 107.553579 
L 202.327559 107.553579 
L 202.521544 108.447452 
L 202.634634 108.447452 
L 203.160273 111.431708 
L 203.214025 111.431708 
L 203.564142 114.395228 
L 203.629756 114.395228 
L 204.032211 118.020511 
L 204.103292 118.020511 
L 204.335985 120.686724 
L 204.390622 120.686724 
L 204.588601 123.128991 
L 204.689152 123.128991 
L 204.871584 126.358159 
L 205.028997 126.358159 
L 205.373883 130.131386 
L 205.42821 130.131386 
L 205.650354 132.557823 
L 205.734917 132.557823 
L 205.998466 135.806921 
L 206.064817 135.806921 
L 206.190756 136.984226 
L 206.314662 137.937585 
L 206.573599 141.083007 
L 206.627956 141.083007 
L 207.169346 146.955584 
L 207.393832 150.665877 
L 207.4509 150.665877 
L 207.68937 153.098983 
L 207.746276 153.098983 
L 207.983346 156.616221 
L 208.046028 156.616221 
L 208.282686 159.9982 
L 208.345456 159.9982 
L 208.576102 163.086898 
L 208.643367 163.086898 
L 208.865407 166.2337 
L 208.925437 166.2337 
L 209.16124 169.205384 
L 209.222331 169.205384 
L 209.636411 173.92829 
L 209.694658 173.92829 
L 209.889277 176.319312 
L 209.996385 176.319312 
L 210.184004 179.962302 
L 210.28348 179.962302 
L 210.4819 182.351255 
L 210.5808 182.351255 
L 210.777659 186.132875 
L 210.879654 186.132875 
L 211.056429 188.612779 
L 211.163743 188.612779 
L 211.64217 194.347607 
L 211.751238 194.347607 
L 211.996899 197.470148 
L 212.047881 197.470148 
L 212.1858 199.155293 
L 212.370443 200.519867 
L 212.580121 202.519834 
L 212.690161 202.519834 
L 212.918803 206.015493 
L 212.970758 206.015493 
L 213.130219 208.307899 
L 213.25162 208.307899 
L 213.786821 213.565204 
L 213.844965 213.565204 
L 214.058017 215.290708 
L 214.11815 215.290708 
L 214.31495 218.425207 
L 214.420452 218.425207 
L 214.608602 220.480711 
L 214.716594 220.480711 
L 214.90915 221.82865 
L 215.006149 221.82865 
L 215.200591 224.633878 
L 215.308082 224.633878 
L 215.510835 226.473483 
L 215.608586 226.473483 
L 215.850931 228.609666 
L 215.892646 228.609666 
L 216.078939 230.763517 
L 216.186563 230.763517 
L 216.383524 232.175962 
L 216.485151 232.175962 
L 216.72225 233.941863 
L 216.780217 233.941863 
L 216.964713 235.77982 
L 217.068697 235.77982 
L 217.281558 236.985105 
L 217.379177 236.985105 
L 217.711434 239.454468 
L 217.767486 239.454468 
L 217.891377 240.191008 
L 217.949609 240.191008 
L 218.136094 241.270425 
L 218.24525 241.270425 
L 218.475881 242.661943 
L 218.541422 242.661943 
L 218.722808 244.128085 
L 218.836282 244.128085 
L 219.013454 245.089568 
L 219.12401 245.089568 
L 219.311615 245.720056 
L 219.422761 245.720056 
L 219.534039 246.556975 
L 219.829415 247.783493 
L 219.879896 247.783493 
L 220.131421 248.587834 
L 220.362347 249.115335 
L 220.426576 249.115335 
L 220.661819 250.405323 
L 220.721363 250.405323 
L 220.969307 251.251288 
L 221.018197 251.251288 
L 221.246677 251.806078 
L 221.31652 251.806078 
L 221.61334 252.646102 
L 221.726003 253.1636 
L 221.792119 253.1636 
L 221.970942 253.922024 
L 222.075132 253.922024 
L 222.26309 254.419362 
L 222.370994 254.419362 
L 223.01491 256.191395 
L 223.083309 256.191395 
L 223.66802 257.173767 
L 223.894642 257.788042 
L 223.961966 257.788042 
L 224.193393 258.190864 
L 224.249061 258.190864 
L 224.490154 258.455017 
L 224.727002 258.550759 
L 224.916361 259.217389 
L 225.020625 259.217389 
L 225.209379 259.654553 
L 225.311964 259.654553 
L 225.50169 259.941204 
L 225.604555 259.941204 
L 225.790612 260.523973 
L 225.897676 260.523973 
L 226.089716 260.906137 
L 226.205547 260.906137 
L 226.384503 261.156722 
L 226.497195 261.156722 
L 226.69756 261.64946 
L 226.791378 261.64946 
L 227.021949 261.972561 
L 227.081596 261.972561 
L 227.267713 262.184474 
L 227.496266 262.261244 
L 228.4482 263.043661 
L 228.878267 263.141051 
L 229.043564 263.32602 
L 229.267947 263.393055 
L 229.638706 263.526856 
L 230.450143 263.634671 
L 231.318854 263.677483 
L 233.567784 263.664873 
L 236.623125 263.098508 
L 236.92665 262.972257 
L 237.290587 262.804536 
L 237.520879 262.753867 
L 237.747222 262.549888 
L 237.986753 262.455143 
L 238.223926 262.278913 
L 238.398814 262.197007 
L 238.809447 261.90361 
L 238.867252 261.90361 
L 239.059734 261.641105 
L 239.160918 261.641105 
L 239.393406 261.403015 
L 239.570018 261.292363 
L 239.810065 261.086621 
L 239.865998 261.086621 
L 240.106855 260.722127 
L 240.166443 260.722127 
L 240.401921 260.391437 
L 240.463204 260.391437 
L 240.702013 260.091448 
L 240.751021 260.091448 
L 241.171025 259.508563 
L 241.227076 259.508563 
L 241.411616 259.106201 
L 241.514878 259.106201 
L 241.754409 258.741247 
L 241.815677 258.741247 
L 242.002854 258.410136 
L 242.106794 258.410136 
L 242.340151 257.908965 
L 242.403791 257.908965 
L 242.590821 257.454286 
L 242.70039 257.454286 
L 242.882941 257.041844 
L 242.993791 257.041844 
L 243.225616 256.533966 
L 243.286441 256.533966 
L 243.528713 255.945869 
L 243.5911 255.945869 
L 243.873362 255.412389 
L 243.942263 255.412389 
L 244.294338 254.70356 
L 244.354265 254.70356 
L 245.118815 252.968245 
L 245.184577 252.968245 
L 245.424432 252.313764 
L 245.474516 252.313764 
L 245.592174 251.940186 
L 245.654974 251.940186 
L 245.853881 251.245462 
L 245.944353 251.245462 
L 246.145455 250.615205 
L 246.244547 250.615205 
L 246.472717 249.881731 
L 246.530434 249.881731 
L 246.771188 249.06229 
L 246.838187 249.06229 
L 247.027708 248.318928 
L 247.128701 248.318928 
L 247.321978 247.644556 
L 247.421483 247.644556 
L 247.618017 246.713044 
L 247.720646 246.713044 
L 247.946252 245.868038 
L 248.010894 245.868038 
L 248.242939 245.10145 
L 248.311722 245.10145 
L 248.48583 244.104552 
L 248.597447 244.104552 
L 248.80235 243.200214 
L 248.890214 243.200214 
L 249.083286 242.379814 
L 249.187388 242.379814 
L 249.417577 241.453324 
L 249.476782 241.453324 
L 249.681788 240.439217 
L 249.782531 240.439217 
L 249.975293 239.51928 
L 250.077332 239.51928 
L 250.308862 238.504828 
L 250.364103 238.504828 
L 250.564247 237.413223 
L 250.657106 237.413223 
L 250.860964 236.422955 
L 250.957256 236.422955 
L 251.193472 235.337942 
L 251.258939 235.337942 
L 251.449181 234.175891 
L 251.55072 234.175891 
L 251.742701 233.121732 
L 251.835707 233.121732 
L 252.073175 231.956959 
L 252.132041 231.956959 
L 252.319572 230.70181 
L 252.424883 230.70181 
L 252.628593 229.563215 
L 252.720008 229.563215 
L 252.966184 228.334628 
L 253.065718 228.334628 
L 253.284149 227.033792 
L 253.334011 227.033792 
L 253.563125 225.853689 
L 253.625453 225.853689 
L 254.144873 223.428172 
L 254.202148 223.428172 
L 254.379762 222.198971 
L 254.491762 222.198971 
L 254.733032 220.8797 
L 254.787492 220.8797 
L 254.9738 219.488489 
L 255.080054 219.488489 
L 255.263621 218.226403 
L 255.368298 218.226403 
L 255.607327 216.688473 
L 255.700703 216.688473 
L 256.204194 213.813222 
L 256.258993 213.813222 
L 256.451534 212.266286 
L 256.555106 212.266286 
L 256.738688 210.862924 
L 256.850865 210.862924 
L 257.085415 209.364779 
L 257.149895 209.364779 
L 257.326582 207.791321 
L 257.443046 207.791321 
L 257.628957 206.363928 
L 257.727032 206.363928 
L 257.964441 204.602856 
L 258.023336 204.602856 
L 258.208952 203.00529 
L 258.324061 203.00529 
L 258.508454 201.785172 
L 258.61316 201.785172 
L 258.801619 200.896511 
L 258.908035 200.896511 
L 259.143469 200.090407 
L 259.318284 200.020919 
L 259.691475 199.831735 
L 259.787915 199.831735 
L 259.983403 201.510441 
L 260.098424 201.510441 
L 260.283185 202.611283 
L 260.385798 202.611283 
L 261.21502 207.801899 
L 261.275787 207.801899 
L 261.453048 210.635029 
L 261.561379 210.635029 
L 261.752107 212.492916 
L 261.857462 212.492916 
L 262.389952 217.222644 
L 262.445488 217.222644 
L 262.631987 218.803883 
L 262.734822 218.803883 
L 262.860688 220.307892 
L 263.152675 222.512068 
L 263.220367 222.512068 
L 263.460649 223.957551 
L 263.532496 223.957551 
L 264.218465 228.300784 
L 264.260813 228.300784 
L 264.501258 229.292815 
L 264.551754 229.292815 
L 264.748156 231.310068 
L 264.858122 231.310068 
L 265.04639 232.632941 
L 265.105123 232.632941 
L 265.299831 233.500446 
L 265.40632 233.500446 
L 265.594691 235.222845 
L 265.700826 235.222845 
L 265.908839 236.352356 
L 266.00936 236.352356 
L 266.188743 237.093073 
L 266.287158 237.093073 
L 266.492665 238.585124 
L 266.58632 238.585124 
L 266.776194 239.563587 
L 266.876907 239.563587 
L 267.065676 240.205227 
L 267.180653 240.205227 
L 267.359608 241.489735 
L 267.463445 241.489735 
L 267.662514 242.332058 
L 267.758747 242.332058 
L 268.009108 242.884473 
L 268.073058 242.884473 
L 268.291783 243.839632 
L 268.357972 243.839632 
L 268.542571 244.466018 
L 268.646835 244.466018 
L 268.837166 244.876774 
L 268.943434 244.876774 
L 269.484175 245.886282 
L 269.526936 245.886282 
L 269.718372 246.221762 
L 269.823476 246.221762 
L 270.017255 246.441762 
L 270.114829 246.441762 
L 270.31935 246.824654 
L 270.408201 246.824654 
L 270.635134 247.075737 
L 270.81126 247.166727 
L 271.223896 247.462385 
L 271.397665 247.542834 
L 271.694411 247.660692 
L 272.227004 247.859151 
L 272.765624 247.967388 
L 273.283983 248.087085 
L 274.051038 248.183325 
L 274.81771 248.242043 
L 276.123076 248.261897 
L 279.291404 247.934618 
L 280.030979 247.711016 
L 280.417225 247.60757 
L 280.654457 247.513744 
L 281.018173 247.428619 
L 281.36297 247.26519 
L 281.60561 247.207661 
L 281.833352 247.10065 
L 282.198012 247.003567 
L 282.382375 246.80894 
L 282.603502 246.718525 
L 282.892527 246.550421 
L 283.990867 245.727683 
L 284.209017 245.502087 
L 284.270462 245.502087 
L 284.505145 245.111108 
L 284.566663 245.111108 
L 284.808183 244.756464 
L 284.861302 244.756464 
L 285.390786 243.916134 
L 285.451685 243.916134 
L 285.636181 243.445664 
L 285.734772 243.445664 
L 285.939573 243.018925 
L 286.040536 243.018925 
L 286.265052 242.495257 
L 286.326762 242.495257 
L 286.563699 241.890181 
L 286.618395 241.890181 
L 286.807724 241.341331 
L 286.912519 241.341331 
L 287.141779 240.692676 
L 287.201397 240.692676 
L 287.391904 239.960736 
L 287.496124 239.960736 
L 287.688724 239.296751 
L 287.788524 239.296751 
L 287.976585 238.694396 
L 288.08552 238.694396 
L 288.275232 237.824362 
L 288.379054 237.824362 
L 288.569768 237.035084 
L 288.674696 237.035084 
L 288.869123 236.319049 
L 288.973608 236.319049 
L 289.154582 235.321078 
L 289.26365 235.321078 
L 289.451372 234.415744 
L 289.560912 234.415744 
L 289.747338 233.594463 
L 289.85172 233.594463 
L 290.041859 232.577788 
L 290.147906 232.577788 
L 290.33638 231.655475 
L 290.441293 231.655475 
L 290.632169 230.818824 
L 290.739115 230.818824 
L 290.921916 230.299333 
L 291.033666 230.299333 
L 291.221256 229.828097 
L 291.32801 229.828097 
L 291.553484 229.400592 
L 291.745111 229.324857 
L 292.098734 229.118578 
L 292.322911 229.056258 
L 292.504032 228.996888 
L 292.69202 229.37771 
L 292.79571 229.37771 
L 292.987072 229.627452 
L 293.209436 229.717943 
L 293.386314 229.791226 
L 293.570692 230.533706 
L 293.701347 230.533706 
L 293.899457 231.02058 
L 293.99628 231.02058 
L 294.457468 232.255224 
L 294.56574 232.255224 
L 294.75 232.667742 
L 294.862575 232.667742 
L 295.396701 233.646167 
L 295.451573 233.646167 
L 295.637086 233.969306 
L 295.747229 233.969306 
L 296.096358 234.485884 
L 296.158436 234.485884 
L 296.395153 234.747852 
L 296.630469 234.842789 
L 296.983208 235.18628 
L 297.220705 235.282904 
L 297.453281 235.424486 
L 297.648607 235.475806 
L 297.895328 235.711712 
L 298.108601 235.797182 
L 298.337213 235.922437 
L 298.700149 236.004572 
L 298.881034 236.177583 
L 299.106198 236.240248 
L 299.466113 236.365426 
L 299.874859 236.472283 
L 300.230486 236.567795 
L 301.054168 236.676607 
L 301.700175 236.720032 
L 305.176685 236.617774 
L 306.295094 236.378649 
L 306.469629 236.346147 
L 306.714036 236.190882 
L 306.956367 236.11875 
L 307.185185 235.984604 
L 307.35835 235.922283 
L 308.536125 234.982263 
L 308.767051 234.619532 
L 308.829645 234.619532 
L 308.94496 234.450967 
L 309.031763 234.450967 
L 309.260994 234.137563 
L 309.308559 234.137563 
L 309.487278 233.584843 
L 309.592574 233.584843 
L 309.773578 233.083404 
L 309.883323 233.083404 
L 310.068231 232.628572 
L 310.181675 232.628572 
L 310.367939 231.903224 
L 310.483078 231.903224 
L 310.662932 231.245256 
L 310.773709 231.245256 
L 310.961682 230.648343 
L 311.064164 230.648343 
L 311.24947 229.733926 
L 311.359024 229.733926 
L 311.550077 228.904366 
L 311.654297 228.904366 
L 311.838409 228.151844 
L 311.951161 228.151844 
L 312.094016 227.577889 
L 312.385664 226.510507 
L 312.436175 226.510507 
L 312.790461 224.831763 
L 312.845776 224.831763 
L 312.985757 224.155129 
L 313.236855 222.896799 
L 313.268918 222.896799 
L 313.490737 221.755253 
L 313.551106 221.755253 
L 313.783977 220.146878 
L 313.840205 220.146878 
L 314.075919 218.687827 
L 314.13757 218.687827 
L 314.372312 217.045226 
L 314.429852 217.045226 
L 314.66617 215.251269 
L 314.72816 215.251269 
L 314.960544 213.623845 
L 315.016743 213.623845 
L 315.256333 211.847941 
L 315.316171 211.847941 
L 315.543546 210.876722 
L 315.653247 209.95165 
L 315.735011 209.070577 
L 315.821858 209.070577 
L 316.022017 207.180994 
L 316.089459 207.180994 
L 316.261828 205.227595 
L 316.371957 205.227595 
L 316.566207 203.455561 
L 316.665329 203.455561 
L 316.812663 202.427733 
L 317.077346 200.516341 
L 317.149783 200.516341 
L 317.491986 197.80536 
L 317.607714 197.80536 
L 317.952452 195.144244 
L 318.004525 195.144244 
L 318.206423 193.316904 
L 318.263742 193.316904 
L 318.500163 191.659202 
L 318.559236 191.659202 
L 318.670499 190.889011 
L 318.765259 190.889011 
L 318.974436 189.258099 
L 319.030944 189.258099 
L 319.222542 187.778581 
L 319.322622 187.778581 
L 319.505054 186.260659 
L 319.611529 186.260659 
L 319.79626 184.883667 
L 319.911944 184.883667 
L 320.095379 183.562365 
L 320.202708 183.562365 
L 320.390224 182.295028 
L 320.499248 182.295028 
L 320.681592 181.082231 
L 320.795994 181.082231 
L 320.942061 180.487925 
L 321.189844 179.382714 
L 321.222334 179.382714 
L 321.439644 178.260906 
L 321.515883 178.260906 
L 321.748179 177.243235 
L 321.810198 177.243235 
L 322.157308 175.781424 
L 322.267849 175.781424 
L 322.413401 175.321916 
L 322.636075 174.401711 
L 322.701114 174.401711 
L 322.921357 173.504349 
L 322.974182 173.504349 
L 323.213462 172.621475 
L 323.270722 172.621475 
L 323.387776 172.17772 
L 323.448852 172.17772 
L 323.640524 171.352529 
L 323.740868 171.352529 
L 323.927677 170.463599 
L 324.033592 170.463599 
L 324.220401 169.657227 
L 324.330397 169.657227 
L 324.515497 168.769102 
L 324.624417 168.769102 
L 324.809016 167.963458 
L 324.91972 167.963458 
L 325.104996 167.055672 
L 325.211972 167.055672 
L 325.353073 166.633878 
L 325.771662 165.273405 
L 325.831884 165.273405 
L 326.046689 164.403639 
L 326.099249 164.403639 
L 326.332488 163.388919 
L 326.393873 163.388919 
L 326.580432 162.468446 
L 326.687127 162.468446 
L 326.83343 161.912122 
L 327.225615 160.39696 
L 327.284539 160.39696 
L 327.484934 159.23349 
L 327.577469 159.23349 
L 327.799068 158.177989 
L 327.891618 158.177989 
L 328.102577 156.928053 
L 328.159351 156.928053 
L 328.372712 155.794134 
L 328.462418 155.794134 
L 328.674218 154.452289 
L 328.772013 154.452289 
L 329.105671 152.328026 
L 329.162562 152.328026 
L 329.282003 151.630733 
L 329.343743 151.630733 
L 329.575169 150.147191 
L 329.630808 150.147191 
L 329.905025 148.623482 
L 329.941729 148.623482 
L 330.150051 147.043891 
L 330.23211 147.043891 
L 330.45026 145.423021 
L 330.528532 145.423021 
L 330.707856 143.558388 
L 330.816688 143.558388 
L 330.997691 141.866843 
L 331.106553 141.866843 
L 331.343225 139.935942 
L 331.402621 139.935942 
L 331.635978 137.979898 
L 331.737561 137.979898 
L 332.188346 134.019212 
L 332.287069 134.019212 
L 332.488319 132.016983 
L 332.588855 132.016983 
L 332.799034 129.79533 
L 332.88597 129.79533 
L 333.089297 127.571416 
L 333.184897 127.571416 
L 333.362202 125.355396 
L 333.462768 125.355396 
L 333.647808 123.28506 
L 333.759529 123.28506 
L 333.977355 121.34979 
L 334.0707 121.34979 
L 334.270417 120.001276 
L 334.361184 120.001276 
L 334.545312 118.990273 
L 334.647984 118.990273 
L 334.841748 118.275312 
L 334.944569 118.275312 
L 335.14486 118.048873 
L 335.376346 117.943626 
L 335.591976 118.812932 
L 335.646083 118.812932 
L 335.890829 119.382976 
L 335.946999 119.382976 
L 336.174093 121.383058 
L 336.236717 121.383058 
L 336.645802 124.829543 
L 336.704624 124.829543 
L 336.978236 127.551025 
L 337.037574 127.551025 
L 337.240783 130.094208 
L 337.312144 130.094208 
L 337.487415 133.495006 
L 337.596115 133.495006 
L 337.791264 135.725168 
L 337.889502 135.725168 
L 338.063963 138.961235 
L 338.183242 138.961235 
L 338.417645 142.087417 
L 338.474978 142.087417 
L 338.67135 144.950558 
L 338.768837 144.950558 
L 339.00374 147.85812 
L 339.063034 147.85812 
L 339.249003 150.598919 
L 339.355448 150.598919 
L 339.539575 154.310975 
L 339.651634 154.310975 
L 339.872805 156.745269 
L 339.969555 156.745269 
L 340.14269 160.311528 
L 340.245392 160.311528 
L 340.427044 162.650195 
L 340.540886 162.650195 
L 340.72239 166.213272 
L 340.830427 166.213272 
L 341.023439 168.549869 
L 341.12956 168.549869 
L 341.27713 170.537456 
L 341.406871 172.147019 
L 341.466105 172.147019 
L 341.673823 174.505962 
L 341.725115 174.505962 
L 341.910171 178.143164 
L 342.012269 178.143164 
L 342.192168 180.528361 
L 342.303092 180.528361 
L 342.487986 184.178211 
L 342.598615 184.178211 
L 342.781078 186.571687 
L 342.897601 186.571687 
L 343.080137 190.150095 
L 343.186479 190.150095 
L 343.375749 192.496696 
L 343.485362 192.496696 
L 343.722063 195.057394 
L 343.779589 195.057394 
L 343.969743 197.564089 
L 344.099159 197.564089 
L 344.608928 202.57813 
L 344.664375 202.57813 
L 344.850905 204.178571 
L 344.96096 204.178571 
L 345.144114 206.751036 
L 345.249042 206.751036 
L 345.436735 208.437982 
L 345.572797 208.437982 
L 346.09456 212.067596 
L 346.14401 212.067596 
L 346.327769 213.244173 
L 346.431872 213.244173 
L 346.615159 215.133029 
L 346.727365 215.133029 
L 346.905893 216.371697 
L 347.021459 216.371697 
L 347.256953 217.695912 
L 347.314006 217.695912 
L 347.502362 218.978886 
L 347.607761 218.978886 
L 347.793922 219.820213 
L 347.90685 219.820213 
L 348.139426 220.792428 
L 348.199825 220.792428 
L 348.381108 221.770508 
L 348.498192 221.770508 
L 348.683719 222.411918 
L 348.786377 222.411918 
L 348.971595 223.411691 
L 349.08666 223.411691 
L 349.269151 224.067359 
L 349.381785 224.067359 
L 349.564969 224.497317 
L 349.675363 224.497317 
L 349.857133 225.16479 
L 349.966466 225.16479 
L 350.156148 225.602529 
L 350.266896 225.602529 
L 350.445984 225.889563 
L 350.560518 225.889563 
L 350.703933 226.1981 
L 350.948636 226.650326 
L 350.995758 226.650326 
L 351.385644 227.238346 
L 351.442624 227.238346 
L 351.655189 227.665583 
L 351.743672 227.665583 
L 351.946101 227.945718 
L 352.152404 228.047248 
L 352.384862 228.469234 
L 352.451051 228.469234 
L 352.679707 228.745958 
L 352.93023 228.846223 
L 353.441148 229.481348 
L 353.537529 229.481348 
L 353.750125 229.697247 
L 353.915774 229.775473 
L 354.149691 230.14518 
L 354.24787 230.14518 
L 354.634646 230.605417 
L 354.688473 230.605417 
L 354.869683 230.819361 
L 355.095893 230.896897 
L 355.32813 231.16404 
L 355.565097 231.260855 
L 355.80056 231.402705 
L 355.977777 231.454102 
L 356.21551 231.667663 
L 356.448646 231.745046 
L 356.68657 231.858457 
L 356.862019 231.899544 
L 357.099678 232.060788 
L 357.453669 232.166534 
L 358.113661 232.453453 
L 358.514391 232.538234 
L 359.32873 232.842477 
L 359.700212 232.943585 
L 359.925907 233.051056 
L 360.398485 233.147028 
L 360.66053 233.238975 
L 361.295767 233.33878 
L 361.998681 233.397268 
L 364.40629 233.505888 
L 365.229736 233.556289 
L 373.595213 233.452 
L 374.658514 233.307965 
L 375.436148 233.203714 
L 376.092824 233.080146 
L 376.612156 232.989003 
L 377.315645 232.812007 
L 377.693978 232.722857 
L 377.930075 232.641986 
L 378.105067 232.549655 
L 378.324661 232.377987 
L 378.551608 232.298227 
L 378.789135 232.149938 
L 378.851552 232.149938 
L 379.031966 231.863517 
L 379.141491 231.863517 
L 379.377131 231.603656 
L 379.436189 231.603656 
L 379.66984 231.36798 
L 379.733112 231.36798 
L 379.917814 230.951667 
L 380.023699 230.951667 
L 380.174953 230.758267 
L 380.557589 230.231455 
L 380.623808 230.231455 
L 380.801982 229.666546 
L 380.911462 229.666546 
L 381.145379 229.154031 
L 381.228882 229.154031 
L 381.415131 228.689119 
L 381.516065 228.689119 
L 381.693134 227.977262 
L 381.794864 227.977262 
L 381.97936 227.33152 
L 382.088413 227.33152 
L 382.322212 226.745723 
L 382.403003 226.745723 
L 382.579807 225.894508 
L 382.682672 225.894508 
L 382.82563 225.499006 
L 383.215442 224.231938 
L 383.268871 224.231938 
L 383.451922 223.243357 
L 383.568343 223.243357 
L 383.750113 222.346608 
L 383.85756 222.346608 
L 384.093126 221.326177 
L 384.150239 221.326177 
L 384.337137 220.203411 
L 384.450301 220.203411 
L 384.640086 219.184896 
L 384.742612 219.184896 
L 384.933974 217.794758 
L 385.035689 217.794758 
L 385.269355 216.533669 
L 385.35386 216.533669 
L 385.531798 215.38967 
L 385.629196 215.38967 
L 385.778446 214.62427 
L 386.044116 213.200901 
L 386.085919 213.200901 
L 386.278372 211.909687 
L 386.335204 211.909687 
L 386.573247 210.309437 
L 386.631568 210.309437 
L 386.749904 209.565922 
L 386.815032 209.565922 
L 386.996566 208.183296 
L 387.100211 208.183296 
L 387.301741 206.496235 
L 387.396619 206.496235 
L 387.584106 204.965779 
L 387.691685 204.965779 
L 387.927267 203.349892 
L 387.989861 203.349892 
L 388.215644 201.667277 
L 388.322118 201.667277 
L 388.518181 200.140885 
L 388.57351 200.140885 
L 388.760953 198.325005 
L 388.868665 198.325005 
L 389.012213 197.481301 
L 389.233295 195.912327 
L 389.286429 195.912327 
L 389.521628 194.065632 
L 389.585901 194.065632 
L 389.817461 192.390375 
L 389.879553 192.390375 
L 390.10874 190.446596 
L 390.169919 190.446596 
L 390.282391 189.543447 
L 390.361517 189.543447 
L 390.584958 187.863975 
L 390.641864 187.863975 
L 390.854651 185.931234 
L 390.942205 185.931234 
L 391.121927 184.177905 
L 391.223259 184.177905 
L 391.371595 183.160808 
L 391.711529 180.390612 
L 391.817532 180.390612 
L 392.051744 178.55553 
L 392.109711 178.55553 
L 392.300381 176.699559 
L 392.399635 176.699559 
L 392.635275 174.820324 
L 392.732703 174.820324 
L 393.006006 172.929322 
L 393.061026 172.929322 
L 393.483196 169.099485 
L 393.587003 169.099485 
L 393.727854 168.207758 
L 394.113835 165.261063 
L 394.173217 165.261063 
L 394.41173 163.351741 
L 394.471289 163.351741 
L 394.624856 162.381174 
L 394.868999 160.576332 
L 394.914088 160.576332 
L 395.117208 158.599093 
L 395.173584 158.599093 
L 395.407309 156.805405 
L 395.508302 156.805405 
L 395.707813 154.84871 
L 395.763658 154.84871 
L 396.000934 152.912328 
L 396.069761 152.912328 
L 396.237282 151.933904 
L 396.379194 151.002009 
L 396.641284 149.107175 
L 396.678563 149.107175 
L 397.040585 146.363884 
L 397.137128 146.363884 
L 397.327429 144.426429 
L 397.426315 144.426429 
L 397.659009 142.510323 
L 397.720689 142.510323 
L 397.917975 140.621122 
L 398.01328 140.621122 
L 398.193886 138.754458 
L 398.296353 138.754458 
L 398.487273 136.915467 
L 398.487273 136.915467 
" clip-path="url(#pf5b8cc9fcc)" style="fill: none; stroke: #ff7f0e; stroke-width: 1.5; stroke-linecap: square"/>
   </g>
   <g id="patch_3">
    <path d="M 57.6 307.584 
L 57.6 41.472 
" style="fill: none; stroke: #000000; stroke-width: 0.8; stroke-linejoin: miter; stroke-linecap: square"/>
   </g>
   <g id="patch_4">
    <path d="M 414.72 307.584 
L 414.72 41.472 
" style="fill: none; stroke: #000000; stroke-width: 0.8; stroke-linejoin: miter; stroke-linecap: square"/>
   </g>
   <g id="patch_5">
    <path d="M 57.6 307.584 
L 414.72 307.584 
" style="fill: none; stroke: #000000; stroke-width: 0.8; stroke-linejoin: miter; stroke-linecap: square"/>
   </g>
   <g id="patch_6">
    <path d="M 57.6 41.472 
L 414.72 41.472 
" style="fill: none; stroke: #000000; stroke-width: 0.8; stroke-linejoin: miter; stroke-linecap: square"/>
   </g>
   <g id="legend_1">
    <g id="patch_7">
     <path d="M 307.080938 302.584 
L 407.72 302.584 
Q 409.72 302.584 409.72 300.584 
L 409.72 272.22775 
Q 409.72 270.22775 407.72 270.22775 
L 307.080938 270.22775 
Q 305.080938 270.22775 305.080938 272.22775 
L 305.080938 300.584 
Q 305.080938 302.584 307.080938 302.584 
z
" style="fill: #ffffff; opacity: 0.8; stroke: #cccccc; stroke-linejoin: miter"/>
    </g>
    <g id="line2d_15">
     <path d="M 309.080938 278.326187 
L 319.080938 278.326187 
L 329.080938 278.326187 
" style="fill: none; stroke: #1f77b4; stroke-width: 1.5; stroke-linecap: square"/>
    </g>
    <g id="text_13">
     <!-- Speed Profile -->
     <g transform="translate(337.080938 281.826187) scale(0.1 -0.1)">
      <defs>
       <path id="DejaVuSans-53" d="M 3425 4513 
L 3425 3897 
Q 3066 4069 2747 4153 
Q 2428 4238 2131 4238 
Q 1616 4238 1336 4038 
Q 1056 3838 1056 3469 
Q 1056 3159 1242 3001 
Q 1428 2844 1947 2747 
L 2328 2669 
Q 3034 2534 3370 2195 
Q 3706 1856 3706 1288 
Q 3706 609 3251 259 
Q 2797 -91 1919 -91 
Q 1588 -91 1214 -16 
Q 841 59 441 206 
L 441 856 
Q 825 641 1194 531 
Q 1563 422 1919 422 
Q 2459 422 2753 634 
Q 3047 847 3047 1241 
Q 3047 1584 2836 1778 
Q 2625 1972 2144 2069 
L 1759 2144 
Q 1053 2284 737 2584 
Q 422 2884 422 3419 
Q 422 4038 858 4394 
Q 1294 4750 2059 4750 
Q 2388 4750 2728 4690 
Q 3069 4631 3425 4513 
z
" transform="scale(0.015625)"/>
       <path id="DejaVuSans-70" d="M 1159 525 
L 1159 -1331 
L 581 -1331 
L 581 3500 
L 1159 3500 
L 1159 2969 
Q 1341 3281 1617 3432 
Q 1894 3584 2278 3584 
Q 2916 3584 3314 3078 
Q 3713 2572 3713 1747 
Q 3713 922 3314 415 
Q 2916 -91 2278 -91 
Q 1894 -91 1617 61 
Q 1341 213 1159 525 
z
M 3116 1747 
Q 3116 2381 2855 2742 
Q 2594 3103 2138 3103 
Q 1681 3103 1420 2742 
Q 1159 2381 1159 1747 
Q 1159 1113 1420 752 
Q 1681 391 2138 391 
Q 2594 391 2855 752 
Q 3116 1113 3116 1747 
z
" transform="scale(0.015625)"/>
       <path id="DejaVuSans-65" d="M 3597 1894 
L 3597 1613 
L 953 1613 
Q 991 1019 1311 708 
Q 1631 397 2203 397 
Q 2534 397 2845 478 
Q 3156 559 3463 722 
L 3463 178 
Q 3153 47 2828 -22 
Q 2503 -91 2169 -91 
Q 1331 -91 842 396 
Q 353 884 353 1716 
Q 353 2575 817 3079 
Q 1281 3584 2069 3584 
Q 2775 3584 3186 3129 
Q 3597 2675 3597 1894 
z
M 3022 2063 
Q 3016 2534 2758 2815 
Q 2500 3097 2075 3097 
Q 1594 3097 1305 2825 
Q 1016 2553 972 2059 
L 3022 2063 
z
" transform="scale(0.015625)"/>
       <path id="DejaVuSans-64" d="M 2906 2969 
L 2906 4863 
L 3481 4863 
L 3481 0 
L 2906 0 
L 2906 525 
Q 2725 213 2448 61 
Q 2172 -91 1784 -91 
Q 1150 -91 751 415 
Q 353 922 353 1747 
Q 353 2572 751 3078 
Q 1150 3584 1784 3584 
Q 2172 3584 2448 3432 
Q 2725 3281 2906 2969 
z
M 947 1747 
Q 947 1113 1208 752 
Q 1469 391 1925 391 
Q 2381 391 2643 752 
Q 2906 1113 2906 1747 
Q 2906 2381 2643 2742 
Q 2381 3103 1925 3103 
Q 1469 3103 1208 2742 
Q 947 2381 947 1747 
z
" transform="scale(0.015625)"/>
       <path id="DejaVuSans-20" transform="scale(0.015625)"/>
       <path id="DejaVuSans-50" d="M 1259 4147 
L 1259 2394 
L 2053 2394 
Q 2494 2394 2734 2622 
Q 2975 2850 2975 3272 
Q 2975 3691 2734 3919 
Q 2494 4147 2053 4147 
L 1259 4147 
z
M 628 4666 
L 2053 4666 
Q 2838 4666 3239 4311 
Q 3641 3956 3641 3272 
Q 3641 2581 3239 2228 
Q 2838 1875 2053 1875 
L 1259 1875 
L 1259 0 
L 628 0 
L 628 4666 
z
" transform="scale(0.015625)"/>
       <path id="DejaVuSans-72" d="M 2631 2963 
Q 2534 3019 2420 3045 
Q 2306 3072 2169 3072 
Q 1681 3072 1420 2755 
Q 1159 2438 1159 1844 
L 1159 0 
L 581 0 
L 581 3500 
L 1159 3500 
L 1159 2956 
Q 1341 3275 1631 3429 
Q 1922 3584 2338 3584 
Q 2397 3584 2469 3576 
Q 2541 3569 2628 3553 
L 2631 2963 
z
" transform="scale(0.015625)"/>
       <path id="DejaVuSans-6f" d="M 1959 3097 
Q 1497 3097 1228 2736 
Q 959 2375 959 1747 
Q 959 1119 1226 758 
Q 1494 397 1959 397 
Q 2419 397 2687 759 
Q 2956 1122 2956 1747 
Q 2956 2369 2687 2733 
Q 2419 3097 1959 3097 
z
M 1959 3584 
Q 2709 3584 3137 3096 
Q 3566 2609 3566 1747 
Q 3566 888 3137 398 
Q 2709 -91 1959 -91 
Q 1206 -91 779 398 
Q 353 888 353 1747 
Q 353 2609 779 3096 
Q 1206 3584 1959 3584 
z
" transform="scale(0.015625)"/>
       <path id="DejaVuSans-66" d="M 2375 4863 
L 2375 4384 
L 1825 4384 
Q 1516 4384 1395 4259 
Q 1275 4134 1275 3809 
L 1275 3500 
L 2222 3500 
L 2222 3053 
L 1275 3053 
L 1275 0 
L 697 0 
L 697 3053 
L 147 3053 
L 147 3500 
L 697 3500 
L 697 3744 
Q 697 4328 969 4595 
Q 1241 4863 1831 4863 
L 2375 4863 
z
" transform="scale(0.015625)"/>
       <path id="DejaVuSans-69" d="M 603 3500 
L 1178 3500 
L 1178 0 
L 603 0 
L 603 3500 
z
M 603 4863 
L 1178 4863 
L 1178 4134 
L 603 4134 
L 603 4863 
z
" transform="scale(0.015625)"/>
       <path id="DejaVuSans-6c" d="M 603 4863 
L 1178 4863 
L 1178 0 
L 603 0 
L 603 4863 
z
" transform="scale(0.015625)"/>
      </defs>
      <use xlink:href="#DejaVuSans-53"/>
      <use xlink:href="#DejaVuSans-70" x="63.476562"/>
      <use xlink:href="#DejaVuSans-65" x="126.953125"/>
      <use xlink:href="#DejaVuSans-65" x="188.476562"/>
      <use xlink:href="#DejaVuSans-64" x="250"/>
      <use xlink:href="#DejaVuSans-20" x="313.476562"/>
      <use xlink:href="#DejaVuSans-50" x="345.263672"/>
      <use xlink:href="#DejaVuSans-72" x="403.816406"/>
      <use xlink:href="#DejaVuSans-6f" x="442.679688"/>
      <use xlink:href="#DejaVuSans-66" x="503.861328"/>
      <use xlink:href="#DejaVuSans-69" x="539.066406"/>
      <use xlink:href="#DejaVuSans-6c" x="566.849609"/>
      <use xlink:href="#DejaVuSans-65" x="594.632812"/>
     </g>
    </g>
    <g id="line2d_16">
     <path d="M 309.080938 293.004312 
L 319.080938 293.004312 
L 329.080938 293.004312 
" style="fill: none; stroke: #ff7f0e; stroke-width: 1.5; stroke-linecap: square"/>
    </g>
    <g id="text_14">
     <!-- Acttual speed -->
     <g transform="translate(337.080938 296.504312) scale(0.1 -0.1)">
      <defs>
       <path id="DejaVuSans-41" d="M 2188 4044 
L 1331 1722 
L 3047 1722 
L 2188 4044 
z
M 1831 4666 
L 2547 4666 
L 4325 0 
L 3669 0 
L 3244 1197 
L 1141 1197 
L 716 0 
L 50 0 
L 1831 4666 
z
" transform="scale(0.015625)"/>
       <path id="DejaVuSans-63" d="M 3122 3366 
L 3122 2828 
Q 2878 2963 2633 3030 
Q 2388 3097 2138 3097 
Q 1578 3097 1268 2742 
Q 959 2388 959 1747 
Q 959 1106 1268 751 
Q 1578 397 2138 397 
Q 2388 397 2633 464 
Q 2878 531 3122 666 
L 3122 134 
Q 2881 22 2623 -34 
Q 2366 -91 2075 -91 
Q 1284 -91 818 406 
Q 353 903 353 1747 
Q 353 2603 823 3093 
Q 1294 3584 2113 3584 
Q 2378 3584 2631 3529 
Q 2884 3475 3122 3366 
z
" transform="scale(0.015625)"/>
       <path id="DejaVuSans-74" d="M 1172 4494 
L 1172 3500 
L 2356 3500 
L 2356 3053 
L 1172 3053 
L 1172 1153 
Q 1172 725 1289 603 
Q 1406 481 1766 481 
L 2356 481 
L 2356 0 
L 1766 0 
Q 1100 0 847 248 
Q 594 497 594 1153 
L 594 3053 
L 172 3053 
L 172 3500 
L 594 3500 
L 594 4494 
L 1172 4494 
z
" transform="scale(0.015625)"/>
       <path id="DejaVuSans-75" d="M 544 1381 
L 544 3500 
L 1119 3500 
L 1119 1403 
Q 1119 906 1312 657 
Q 1506 409 1894 409 
Q 2359 409 2629 706 
Q 2900 1003 2900 1516 
L 2900 3500 
L 3475 3500 
L 3475 0 
L 2900 0 
L 2900 538 
Q 2691 219 2414 64 
Q 2138 -91 1772 -91 
Q 1169 -91 856 284 
Q 544 659 544 1381 
z
M 1991 3584 
L 1991 3584 
z
" transform="scale(0.015625)"/>
       <path id="DejaVuSans-61" d="M 2194 1759 
Q 1497 1759 1228 1600 
Q 959 1441 959 1056 
Q 959 750 1161 570 
Q 1363 391 1709 391 
Q 2188 391 2477 730 
Q 2766 1069 2766 1631 
L 2766 1759 
L 2194 1759 
z
M 3341 1997 
L 3341 0 
L 2766 0 
L 2766 531 
Q 2569 213 2275 61 
Q 1981 -91 1556 -91 
Q 1019 -91 701 211 
Q 384 513 384 1019 
Q 384 1609 779 1909 
Q 1175 2209 1959 2209 
L 2766 2209 
L 2766 2266 
Q 2766 2663 2505 2880 
Q 2244 3097 1772 3097 
Q 1472 3097 1187 3025 
Q 903 2953 641 2809 
L 641 3341 
Q 956 3463 1253 3523 
Q 1550 3584 1831 3584 
Q 2591 3584 2966 3190 
Q 3341 2797 3341 1997 
z
" transform="scale(0.015625)"/>
       <path id="DejaVuSans-73" d="M 2834 3397 
L 2834 2853 
Q 2591 2978 2328 3040 
Q 2066 3103 1784 3103 
Q 1356 3103 1142 2972 
Q 928 2841 928 2578 
Q 928 2378 1081 2264 
Q 1234 2150 1697 2047 
L 1894 2003 
Q 2506 1872 2764 1633 
Q 3022 1394 3022 966 
Q 3022 478 2636 193 
Q 2250 -91 1575 -91 
Q 1294 -91 989 -36 
Q 684 19 347 128 
L 347 722 
Q 666 556 975 473 
Q 1284 391 1588 391 
Q 1994 391 2212 530 
Q 2431 669 2431 922 
Q 2431 1156 2273 1281 
Q 2116 1406 1581 1522 
L 1381 1569 
Q 847 1681 609 1914 
Q 372 2147 372 2553 
Q 372 3047 722 3315 
Q 1072 3584 1716 3584 
Q 2034 3584 2315 3537 
Q 2597 3491 2834 3397 
z
" transform="scale(0.015625)"/>
      </defs>
      <use xlink:href="#DejaVuSans-41"/>
      <use xlink:href="#DejaVuSans-63" x="66.658203"/>
      <use xlink:href="#DejaVuSans-74" x="121.638672"/>
      <use xlink:href="#DejaVuSans-74" x="160.847656"/>
      <use xlink:href="#DejaVuSans-75" x="200.056641"/>
      <use xlink:href="#DejaVuSans-61" x="263.435547"/>
      <use xlink:href="#DejaVuSans-6c" x="324.714844"/>
      <use xlink:href="#DejaVuSans-20" x="352.498047"/>
      <use xlink:href="#DejaVuSans-73" x="384.285156"/>
      <use xlink:href="#DejaVuSans-70" x="436.384766"/>
      <use xlink:href="#DejaVuSans-65" x="499.861328"/>
      <use xlink:href="#DejaVuSans-65" x="561.384766"/>
      <use xlink:href="#DejaVuSans-64" x="622.908203"/>
     </g>
    </g>
   </g>
  </g>
 </g>
 <defs>
  <clipPath id="pf5b8cc9fcc">
   <rect x="57.6" y="41.472" width="357.12" height="266.112"/>
  </clipPath>
 </defs>
</svg>
