<?xml version="1.0" encoding="utf-8" standalone="no"?>
<!DOCTYPE svg PUBLIC "-//W3C//DTD SVG 1.1//EN"
  "http://www.w3.org/Graphics/SVG/1.1/DTD/svg11.dtd">
<svg xmlns:xlink="http://www.w3.org/1999/xlink" width="460.8pt" height="345.6pt" viewBox="0 0 460.8 345.6" xmlns="http://www.w3.org/2000/svg" version="1.1">
 <metadata>
  <rdf:RDF xmlns:dc="http://purl.org/dc/elements/1.1/" xmlns:cc="http://creativecommons.org/ns#" xmlns:rdf="http://www.w3.org/1999/02/22-rdf-syntax-ns#">
   <cc:Work>
    <dc:type rdf:resource="http://purl.org/dc/dcmitype/StillImage"/>
    <dc:date>2023-06-05T13:56:08.162241</dc:date>
    <dc:format>image/svg+xml</dc:format>
    <dc:creator>
     <cc:Agent>
      <dc:title>Matplotlib v3.7.1, https://matplotlib.org/</dc:title>
     </cc:Agent>
    </dc:creator>
   </cc:Work>
  </rdf:RDF>
 </metadata>
 <defs>
  <style type="text/css">*{stroke-linejoin: round; stroke-linecap: butt}</style>
 </defs>
 <g id="figure_1">
  <g id="patch_1">
   <path d="M 0 345.6 
L 460.8 345.6 
L 460.8 0 
L 0 0 
z
" style="fill: #ffffff"/>
  </g>
  <g id="axes_1">
   <g id="patch_2">
    <path d="M 57.6 307.584 
L 414.72 307.584 
L 414.72 41.472 
L 57.6 41.472 
z
" style="fill: #ffffff"/>
   </g>
   <g id="matplotlib.axis_1">
    <g id="xtick_1">
     <g id="line2d_1">
      <defs>
       <path id="mf5c56d99b2" d="M 0 0 
L 0 3.5 
" style="stroke: #000000; stroke-width: 0.8"/>
      </defs>
      <g>
       <use xlink:href="#mf5c56d99b2" x="73.822557" y="307.584" style="stroke: #000000; stroke-width: 0.8"/>
      </g>
     </g>
     <g id="text_1">
      <!-- 0 -->
      <g transform="translate(70.641307 322.182437) scale(0.1 -0.1)">
       <defs>
        <path id="DejaVuSans-30" d="M 2034 4250 
Q 1547 4250 1301 3770 
Q 1056 3291 1056 2328 
Q 1056 1369 1301 889 
Q 1547 409 2034 409 
Q 2525 409 2770 889 
Q 3016 1369 3016 2328 
Q 3016 3291 2770 3770 
Q 2525 4250 2034 4250 
z
M 2034 4750 
Q 2819 4750 3233 4129 
Q 3647 3509 3647 2328 
Q 3647 1150 3233 529 
Q 2819 -91 2034 -91 
Q 1250 -91 836 529 
Q 422 1150 422 2328 
Q 422 3509 836 4129 
Q 1250 4750 2034 4750 
z
" transform="scale(0.015625)"/>
       </defs>
       <use xlink:href="#DejaVuSans-30"/>
      </g>
     </g>
    </g>
    <g id="xtick_2">
     <g id="line2d_2">
      <g>
       <use xlink:href="#mf5c56d99b2" x="147.844726" y="307.584" style="stroke: #000000; stroke-width: 0.8"/>
      </g>
     </g>
     <g id="text_2">
      <!-- 5 -->
      <g transform="translate(144.663476 322.182437) scale(0.1 -0.1)">
       <defs>
        <path id="DejaVuSans-35" d="M 691 4666 
L 3169 4666 
L 3169 4134 
L 1269 4134 
L 1269 2991 
Q 1406 3038 1543 3061 
Q 1681 3084 1819 3084 
Q 2600 3084 3056 2656 
Q 3513 2228 3513 1497 
Q 3513 744 3044 326 
Q 2575 -91 1722 -91 
Q 1428 -91 1123 -41 
Q 819 9 494 109 
L 494 744 
Q 775 591 1075 516 
Q 1375 441 1709 441 
Q 2250 441 2565 725 
Q 2881 1009 2881 1497 
Q 2881 1984 2565 2268 
Q 2250 2553 1709 2553 
Q 1456 2553 1204 2497 
Q 953 2441 691 2322 
L 691 4666 
z
" transform="scale(0.015625)"/>
       </defs>
       <use xlink:href="#DejaVuSans-35"/>
      </g>
     </g>
    </g>
    <g id="xtick_3">
     <g id="line2d_3">
      <g>
       <use xlink:href="#mf5c56d99b2" x="221.866896" y="307.584" style="stroke: #000000; stroke-width: 0.8"/>
      </g>
     </g>
     <g id="text_3">
      <!-- 10 -->
      <g transform="translate(215.504396 322.182437) scale(0.1 -0.1)">
       <defs>
        <path id="DejaVuSans-31" d="M 794 531 
L 1825 531 
L 1825 4091 
L 703 3866 
L 703 4441 
L 1819 4666 
L 2450 4666 
L 2450 531 
L 3481 531 
L 3481 0 
L 794 0 
L 794 531 
z
" transform="scale(0.015625)"/>
       </defs>
       <use xlink:href="#DejaVuSans-31"/>
       <use xlink:href="#DejaVuSans-30" x="63.623047"/>
      </g>
     </g>
    </g>
    <g id="xtick_4">
     <g id="line2d_4">
      <g>
       <use xlink:href="#mf5c56d99b2" x="295.889066" y="307.584" style="stroke: #000000; stroke-width: 0.8"/>
      </g>
     </g>
     <g id="text_4">
      <!-- 15 -->
      <g transform="translate(289.526566 322.182437) scale(0.1 -0.1)">
       <use xlink:href="#DejaVuSans-31"/>
       <use xlink:href="#DejaVuSans-35" x="63.623047"/>
      </g>
     </g>
    </g>
    <g id="xtick_5">
     <g id="line2d_5">
      <g>
       <use xlink:href="#mf5c56d99b2" x="369.911236" y="307.584" style="stroke: #000000; stroke-width: 0.8"/>
      </g>
     </g>
     <g id="text_5">
      <!-- 20 -->
      <g transform="translate(363.548736 322.182437) scale(0.1 -0.1)">
       <defs>
        <path id="DejaVuSans-32" d="M 1228 531 
L 3431 531 
L 3431 0 
L 469 0 
L 469 531 
Q 828 903 1448 1529 
Q 2069 2156 2228 2338 
Q 2531 2678 2651 2914 
Q 2772 3150 2772 3378 
Q 2772 3750 2511 3984 
Q 2250 4219 1831 4219 
Q 1534 4219 1204 4116 
Q 875 4013 500 3803 
L 500 4441 
Q 881 4594 1212 4672 
Q 1544 4750 1819 4750 
Q 2544 4750 2975 4387 
Q 3406 4025 3406 3419 
Q 3406 3131 3298 2873 
Q 3191 2616 2906 2266 
Q 2828 2175 2409 1742 
Q 1991 1309 1228 531 
z
" transform="scale(0.015625)"/>
       </defs>
       <use xlink:href="#DejaVuSans-32"/>
       <use xlink:href="#DejaVuSans-30" x="63.623047"/>
      </g>
     </g>
    </g>
   </g>
   <g id="matplotlib.axis_2">
    <g id="ytick_1">
     <g id="line2d_6">
      <defs>
       <path id="m877ff7799f" d="M 0 0 
L -3.5 0 
" style="stroke: #000000; stroke-width: 0.8"/>
      </defs>
      <g>
       <use xlink:href="#m877ff7799f" x="57.6" y="274.201702" style="stroke: #000000; stroke-width: 0.8"/>
      </g>
     </g>
     <g id="text_6">
      <!-- 3 -->
      <g transform="translate(44.2375 278.00092) scale(0.1 -0.1)">
       <defs>
        <path id="DejaVuSans-33" d="M 2597 2516 
Q 3050 2419 3304 2112 
Q 3559 1806 3559 1356 
Q 3559 666 3084 287 
Q 2609 -91 1734 -91 
Q 1441 -91 1130 -33 
Q 819 25 488 141 
L 488 750 
Q 750 597 1062 519 
Q 1375 441 1716 441 
Q 2309 441 2620 675 
Q 2931 909 2931 1356 
Q 2931 1769 2642 2001 
Q 2353 2234 1838 2234 
L 1294 2234 
L 1294 2753 
L 1863 2753 
Q 2328 2753 2575 2939 
Q 2822 3125 2822 3475 
Q 2822 3834 2567 4026 
Q 2313 4219 1838 4219 
Q 1578 4219 1281 4162 
Q 984 4106 628 3988 
L 628 4550 
Q 988 4650 1302 4700 
Q 1616 4750 1894 4750 
Q 2613 4750 3031 4423 
Q 3450 4097 3450 3541 
Q 3450 3153 3228 2886 
Q 3006 2619 2597 2516 
z
" transform="scale(0.015625)"/>
       </defs>
       <use xlink:href="#DejaVuSans-33"/>
      </g>
     </g>
    </g>
    <g id="ytick_2">
     <g id="line2d_7">
      <g>
       <use xlink:href="#m877ff7799f" x="57.6" y="230.074961" style="stroke: #000000; stroke-width: 0.8"/>
      </g>
     </g>
     <g id="text_7">
      <!-- 4 -->
      <g transform="translate(44.2375 233.87418) scale(0.1 -0.1)">
       <defs>
        <path id="DejaVuSans-34" d="M 2419 4116 
L 825 1625 
L 2419 1625 
L 2419 4116 
z
M 2253 4666 
L 3047 4666 
L 3047 1625 
L 3713 1625 
L 3713 1100 
L 3047 1100 
L 3047 0 
L 2419 0 
L 2419 1100 
L 313 1100 
L 313 1709 
L 2253 4666 
z
" transform="scale(0.015625)"/>
       </defs>
       <use xlink:href="#DejaVuSans-34"/>
      </g>
     </g>
    </g>
    <g id="ytick_3">
     <g id="line2d_8">
      <g>
       <use xlink:href="#m877ff7799f" x="57.6" y="185.948221" style="stroke: #000000; stroke-width: 0.8"/>
      </g>
     </g>
     <g id="text_8">
      <!-- 5 -->
      <g transform="translate(44.2375 189.74744) scale(0.1 -0.1)">
       <use xlink:href="#DejaVuSans-35"/>
      </g>
     </g>
    </g>
    <g id="ytick_4">
     <g id="line2d_9">
      <g>
       <use xlink:href="#m877ff7799f" x="57.6" y="141.821481" style="stroke: #000000; stroke-width: 0.8"/>
      </g>
     </g>
     <g id="text_9">
      <!-- 6 -->
      <g transform="translate(44.2375 145.620699) scale(0.1 -0.1)">
       <defs>
        <path id="DejaVuSans-36" d="M 2113 2584 
Q 1688 2584 1439 2293 
Q 1191 2003 1191 1497 
Q 1191 994 1439 701 
Q 1688 409 2113 409 
Q 2538 409 2786 701 
Q 3034 994 3034 1497 
Q 3034 2003 2786 2293 
Q 2538 2584 2113 2584 
z
M 3366 4563 
L 3366 3988 
Q 3128 4100 2886 4159 
Q 2644 4219 2406 4219 
Q 1781 4219 1451 3797 
Q 1122 3375 1075 2522 
Q 1259 2794 1537 2939 
Q 1816 3084 2150 3084 
Q 2853 3084 3261 2657 
Q 3669 2231 3669 1497 
Q 3669 778 3244 343 
Q 2819 -91 2113 -91 
Q 1303 -91 875 529 
Q 447 1150 447 2328 
Q 447 3434 972 4092 
Q 1497 4750 2381 4750 
Q 2619 4750 2861 4703 
Q 3103 4656 3366 4563 
z
" transform="scale(0.015625)"/>
       </defs>
       <use xlink:href="#DejaVuSans-36"/>
      </g>
     </g>
    </g>
    <g id="ytick_5">
     <g id="line2d_10">
      <g>
       <use xlink:href="#m877ff7799f" x="57.6" y="97.69474" style="stroke: #000000; stroke-width: 0.8"/>
      </g>
     </g>
     <g id="text_10">
      <!-- 7 -->
      <g transform="translate(44.2375 101.493959) scale(0.1 -0.1)">
       <defs>
        <path id="DejaVuSans-37" d="M 525 4666 
L 3525 4666 
L 3525 4397 
L 1831 0 
L 1172 0 
L 2766 4134 
L 525 4134 
L 525 4666 
z
" transform="scale(0.015625)"/>
       </defs>
       <use xlink:href="#DejaVuSans-37"/>
      </g>
     </g>
    </g>
    <g id="ytick_6">
     <g id="line2d_11">
      <g>
       <use xlink:href="#m877ff7799f" x="57.6" y="53.568" style="stroke: #000000; stroke-width: 0.8"/>
      </g>
     </g>
     <g id="text_11">
      <!-- 8 -->
      <g transform="translate(44.2375 57.367219) scale(0.1 -0.1)">
       <defs>
        <path id="DejaVuSans-38" d="M 2034 2216 
Q 1584 2216 1326 1975 
Q 1069 1734 1069 1313 
Q 1069 891 1326 650 
Q 1584 409 2034 409 
Q 2484 409 2743 651 
Q 3003 894 3003 1313 
Q 3003 1734 2745 1975 
Q 2488 2216 2034 2216 
z
M 1403 2484 
Q 997 2584 770 2862 
Q 544 3141 544 3541 
Q 544 4100 942 4425 
Q 1341 4750 2034 4750 
Q 2731 4750 3128 4425 
Q 3525 4100 3525 3541 
Q 3525 3141 3298 2862 
Q 3072 2584 2669 2484 
Q 3125 2378 3379 2068 
Q 3634 1759 3634 1313 
Q 3634 634 3220 271 
Q 2806 -91 2034 -91 
Q 1263 -91 848 271 
Q 434 634 434 1313 
Q 434 1759 690 2068 
Q 947 2378 1403 2484 
z
M 1172 3481 
Q 1172 3119 1398 2916 
Q 1625 2713 2034 2713 
Q 2441 2713 2670 2916 
Q 2900 3119 2900 3481 
Q 2900 3844 2670 4047 
Q 2441 4250 2034 4250 
Q 1625 4250 1398 4047 
Q 1172 3844 1172 3481 
z
" transform="scale(0.015625)"/>
       </defs>
       <use xlink:href="#DejaVuSans-38"/>
      </g>
     </g>
    </g>
   </g>
   <g id="line2d_12">
    <path d="M 73.832727 53.568 
L 73.887415 53.568 
L 73.964205 55.299666 
L 74.812766 55.299666 
L 74.973986 57.448638 
L 75.624508 57.448638 
L 75.800547 59.729461 
L 76.392147 59.729461 
L 76.510864 62.328702 
L 77.019471 62.328702 
L 77.184821 65.286518 
L 77.57591 65.286518 
L 77.69322 68.54541 
L 78.167229 68.54541 
L 78.322379 71.990782 
L 78.763226 71.990782 
L 78.877353 75.813437 
L 79.17547 75.813437 
L 79.291344 79.820189 
L 79.770519 79.820189 
L 79.946041 83.972339 
L 80.24287 83.972339 
L 80.365687 88.555519 
L 80.657823 88.555519 
L 80.778272 93.014879 
L 81.129936 93.014879 
L 81.246521 97.619239 
L 81.540833 97.619239 
L 81.718812 102.526574 
L 82.015493 102.526574 
L 82.141479 107.395916 
L 82.432682 107.395916 
L 82.610187 112.340185 
L 82.904707 112.340185 
L 83.023527 117.439559 
L 83.321081 117.439559 
L 83.499401 122.620656 
L 83.797222 122.620656 
L 83.911305 127.903377 
L 84.257418 127.903377 
L 84.438609 133.288649 
L 84.70574 133.288649 
L 84.874274 138.781457 
L 85.100352 138.781457 
L 85.273668 144.38723 
L 85.687067 144.38723 
L 85.864335 150.112454 
L 86.16411 150.112454 
L 86.285166 155.960483 
L 86.578812 155.960483 
L 86.754156 161.825721 
L 87.168828 161.825721 
L 87.286345 167.726922 
L 87.645294 167.726922 
L 87.758104 173.639464 
L 88.244222 173.639464 
L 88.355507 179.509424 
L 88.823401 179.509424 
L 88.945552 185.272199 
L 89.41922 185.272199 
L 89.539092 190.968432 
L 89.833833 190.968432 
L 90.010687 196.58559 
L 90.604789 196.58559 
L 90.724216 202.23774 
L 91.195101 202.23774 
L 91.316142 207.435428 
L 91.790565 207.435428 
L 91.902679 212.131043 
L 92.378271 212.131043 
L 92.497462 216.336895 
L 93.112571 216.336895 
L 93.276693 220.006431 
L 93.685222 220.006431 
L 93.857471 223.316686 
L 94.44919 223.316686 
L 94.572792 226.09548 
L 95.159181 226.09548 
L 95.279437 228.341178 
L 95.928745 228.341178 
L 96.052154 230.128487 
L 96.640823 230.128487 
L 96.762841 231.444391 
L 97.441358 231.444391 
L 97.570201 232.153507 
L 98.127692 232.153507 
L 98.297262 232.59782 
L 98.923223 232.59782 
L 99.090276 232.918312 
L 99.626152 232.918312 
L 99.838699 233.120059 
L 104.045823 233.075094 
L 104.220027 232.926078 
L 104.83151 232.926078 
L 104.937761 232.701076 
L 105.533728 232.701076 
L 105.704335 232.415223 
L 106.322731 232.415223 
L 106.47036 231.684881 
L 107.008516 231.684881 
L 107.183283 230.475588 
L 107.773639 230.475588 
L 107.920543 228.686072 
L 108.483882 228.686072 
L 108.669959 226.475323 
L 109.255193 226.475323 
L 109.383355 224.020552 
L 109.969225 224.020552 
L 110.091036 221.047469 
L 110.739071 221.047469 
L 110.88864 217.755835 
L 111.473045 217.755835 
L 111.644036 214.269425 
L 112.218167 214.269425 
L 112.340348 210.235005 
L 112.92992 210.235005 
L 113.107025 205.844748 
L 113.699217 205.844748 
L 113.842598 201.487364 
L 114.294237 201.487364 
L 114.444191 197.13382 
L 115.003917 197.13382 
L 115.177573 192.83058 
L 115.589477 192.83058 
L 115.708608 188.556376 
L 116.362535 188.556376 
L 116.478335 184.106989 
L 116.971249 184.106989 
L 117.097575 179.800042 
L 117.545202 179.800042 
L 117.663652 175.419978 
L 118.137009 175.419978 
L 118.255208 170.999185 
L 118.732814 170.999185 
L 118.847326 166.456646 
L 119.352779 166.456646 
L 119.519507 161.888072 
L 119.91705 161.888072 
L 120.036389 157.427873 
L 120.507747 157.427873 
L 120.62713 152.869581 
L 121.100842 152.869581 
L 121.249094 148.387451 
L 121.701621 148.387451 
L 121.839495 143.829998 
L 122.120187 143.829998 
L 122.286159 139.179833 
L 122.733949 139.179833 
L 122.899537 134.491367 
L 123.315097 134.491367 
L 123.479752 129.686009 
L 123.773146 129.686009 
L 123.890753 124.84941 
L 124.353806 124.84941 
L 124.476327 119.956593 
L 124.766006 119.956593 
L 124.887742 115.076528 
L 125.24259 115.076528 
L 125.364786 110.206789 
L 125.838202 110.206789 
L 125.954787 105.236971 
L 126.249884 105.236971 
L 126.428218 100.509011 
L 126.726409 100.509011 
L 126.845955 95.758547 
L 127.140859 95.758547 
L 127.260183 91.081686 
L 127.618894 91.081686 
L 127.730771 86.582524 
L 128.048844 86.582524 
L 128.218651 82.225847 
L 128.502363 82.225847 
L 128.617512 77.774165 
L 128.912742 77.774165 
L 129.033546 73.291991 
L 129.387565 73.291991 
L 129.50677 68.982309 
L 129.803954 68.982309 
L 129.979402 64.651711 
L 130.30923 64.651711 
L 130.426155 61.525022 
L 130.603956 61.525022 
L 130.697639 65.84097 
L 131.022315 65.84097 
L 131.195867 70.147917 
L 131.464627 70.147917 
L 131.582559 74.380156 
L 131.878589 74.380156 
L 132.059602 78.939993 
L 132.204567 78.939993 
L 132.356742 83.546648 
L 132.648212 83.546648 
L 132.796212 87.977679 
L 133.063728 87.977679 
L 133.178966 92.333209 
L 133.536656 92.333209 
L 133.656779 96.323943 
L 133.830553 96.323943 
L 133.952334 100.427156 
L 134.267225 100.427156 
L 134.449897 104.486993 
L 134.724252 104.486993 
L 134.837284 108.256079 
L 135.131019 108.256079 
L 135.24978 112.012985 
L 135.604346 112.012985 
L 135.723419 115.599342 
L 136.021965 115.599342 
L 136.198611 119.236268 
L 136.495825 119.236268 
L 136.614468 122.939251 
L 136.940876 122.939251 
L 137.117019 126.612847 
L 137.39287 126.612847 
L 137.529234 130.340321 
L 137.820333 130.340321 
L 137.981998 134.157284 
L 138.269855 134.157284 
L 138.390363 138.068546 
L 138.726172 138.068546 
L 138.921428 142.058309 
L 139.278763 142.058309 
L 139.39708 146.279208 
L 139.752327 146.279208 
L 139.895604 150.470234 
L 140.175763 150.470234 
L 140.349789 154.931447 
L 140.760301 154.931447 
L 140.938517 159.69837 
L 141.230801 159.69837 
L 141.350273 164.30379 
L 141.862136 164.30379 
L 141.992623 169.308424 
L 142.273433 169.308424 
L 142.424113 174.778772 
L 142.830776 174.778772 
L 143.008384 180.383045 
L 143.448535 180.383045 
L 143.614241 186.528311 
L 144.046294 186.528311 
L 144.203902 193.222779 
L 144.608388 193.222779 
L 144.727209 199.914202 
L 145.202194 199.914202 
L 145.37924 206.572839 
L 145.835706 206.572839 
L 145.981855 213.229799 
L 146.383188 213.229799 
L 146.56059 219.945624 
L 147.177091 219.945624 
L 147.289442 226.744231 
L 147.758002 226.744231 
L 147.872381 233.736907 
L 148.493294 233.736907 
L 148.705131 241.020643 
L 149.245433 241.020643 
L 149.354053 248.437731 
L 150.139902 248.437731 
L 150.246568 255.463105 
L 150.834408 255.463105 
L 151.008745 261.917832 
L 151.714487 261.917832 
L 151.833159 267.727603 
L 152.632199 267.727603 
L 152.812961 272.620155 
L 153.682292 272.620155 
L 153.795028 276.570778 
L 154.558848 276.570778 
L 154.700867 279.579207 
L 155.57652 279.579207 
L 155.750191 281.684847 
L 156.634089 281.684847 
L 156.754168 282.968979 
L 157.64122 282.968979 
L 157.814906 283.46867 
L 159.712331 283.551496 
L 159.948832 283.601889 
L 166.812922 283.536493 
L 167.021339 283.473745 
L 169.185836 283.397626 
L 169.363504 283.324949 
L 170.249994 283.324949 
L 170.369392 283.124835 
L 171.433371 283.124835 
L 171.550371 282.279455 
L 172.617238 282.279455 
L 172.735407 280.618436 
L 173.842082 280.618436 
L 174.006101 278.366781 
L 174.816022 278.366781 
L 174.990477 275.228046 
L 175.88696 275.228046 
L 176.000347 271.02665 
L 176.87896 271.02665 
L 177.062017 266.032077 
L 177.953229 266.032077 
L 178.06749 260.407153 
L 178.835944 260.407153 
L 178.957666 254.183385 
L 179.723766 254.183385 
L 179.852742 247.386367 
L 180.736729 247.386367 
L 180.912873 240.386145 
L 181.624196 240.386145 
L 181.736502 234.450745 
L 182.391273 234.450745 
L 182.507665 228.269781 
L 183.282515 228.269781 
L 183.410114 222.222343 
L 183.987295 222.222343 
L 184.170455 216.671596 
L 184.761714 216.671596 
L 184.87861 211.29793 
L 185.646501 211.29793 
L 185.768964 206.034184 
L 186.359542 206.034184 
L 186.538306 200.95118 
L 186.953615 200.95118 
L 187.128499 196.071116 
L 187.724585 196.071116 
L 187.836699 191.2414 
L 188.313387 191.2414 
L 188.432726 186.304324 
L 189.022312 186.304324 
L 189.141147 181.454221 
L 189.649931 181.454221 
L 189.829272 176.782965 
L 190.389753 176.782965 
L 190.527583 171.979592 
L 190.978304 171.979592 
L 191.096621 167.153892 
L 191.595145 167.153892 
L 191.763501 162.384145 
L 192.173406 162.384145 
L 192.302619 157.54781 
L 192.753859 157.54781 
L 192.905915 152.669422 
L 193.354415 152.669422 
L 193.464101 147.899233 
L 193.772019 147.899233 
L 193.93731 143.051293 
L 194.350472 143.051293 
L 194.532611 138.201676 
L 194.980238 138.201676 
L 195.147469 133.347161 
L 195.420655 133.347161 
L 195.542274 128.289839 
L 196.017614 128.289839 
L 196.126072 123.344732 
L 196.45131 123.344732 
L 196.616395 118.392741 
L 196.898123 118.392741 
L 197.045235 113.281452 
L 197.500649 113.281452 
L 197.613858 108.446132 
L 197.911649 108.446132 
L 198.083277 103.739001 
L 198.399633 103.739001 
L 198.501073 99.150261 
L 198.794127 99.150261 
L 198.971602 95.762651 
L 199.387296 95.762651 
L 199.563439 100.213804 
L 199.893874 100.213804 
L 200.05431 104.737103 
L 200.277842 104.737103 
L 200.449263 109.338066 
L 200.775908 109.338066 
L 200.936269 114.034652 
L 201.160453 114.034652 
L 201.33707 118.711733 
L 201.649117 118.711733 
L 201.759499 123.655384 
L 202.050332 123.655384 
L 202.173861 128.842041 
L 202.552158 128.842041 
L 202.730419 133.824303 
L 202.967112 133.824303 
L 203.138621 139.010916 
L 203.420927 139.010916 
L 203.540798 144.454523 
L 204.03272 144.454523 
L 204.13983 149.831631 
L 204.425837 149.831631 
L 204.601433 155.376642 
L 204.888461 155.376642 
L 205.013085 161.2237 
L 205.504088 161.2237 
L 205.603574 167.256354 
L 205.898493 167.256354 
L 206.077153 173.495434 
L 206.564945 173.495434 
L 206.697652 179.922715 
L 207.086149 179.922715 
L 207.26059 186.432512 
L 207.558855 186.432512 
L 207.680992 193.220087 
L 208.174971 193.220087 
L 208.274042 200.13691 
L 208.747873 200.13691 
L 208.868381 207.076987 
L 209.459108 207.076987 
L 209.634511 214.485337 
L 210.051877 214.485337 
L 210.164776 221.95392 
L 210.821264 221.95392 
L 210.968227 229.443905 
L 211.423523 229.443905 
L 211.540537 236.749219 
L 212.122041 236.749219 
L 212.295326 243.545267 
L 212.886393 243.545267 
L 213.038672 250.244324 
L 213.774008 250.244324 
L 213.891763 256.670236 
L 214.71446 256.670236 
L 214.848173 262.298734 
L 215.376973 262.298734 
L 215.551354 267.381164 
L 216.261553 267.381164 
L 216.439265 272.038785 
L 217.333364 272.038785 
L 217.444916 276.177079 
L 218.241572 276.177079 
L 218.423163 279.860074 
L 219.226925 279.860074 
L 219.341053 283.017783 
L 220.296383 283.017783 
L 220.411162 285.900627 
L 221.296363 285.900627 
L 221.474608 288.232681 
L 222.482835 288.232681 
L 222.661658 290.035435 
L 223.566357 290.035435 
L 223.670165 291.795872 
L 224.560326 291.795872 
L 224.73342 293.116188 
L 225.367301 293.116188 
L 225.524894 294.214502 
L 226.504489 294.214502 
L 226.622199 295.064648 
L 227.836932 295.064648 
L 227.994333 295.469732 
L 232.141558 295.488 
L 232.252222 295.248657 
L 233.322079 295.248657 
L 233.441225 294.773456 
L 234.507277 294.773456 
L 234.627045 294.202103 
L 235.390007 294.202103 
L 235.524845 293.236565 
L 236.571711 293.236565 
L 236.695299 291.875873 
L 237.584024 291.875873 
L 237.811834 290.171301 
L 238.770273 290.171301 
L 238.948045 287.965317 
L 239.954643 287.965317 
L 240.128255 285.679508 
L 241.03584 285.679508 
L 241.143276 283.189083 
L 242.201734 283.189083 
L 242.344523 279.951328 
L 243.212818 279.951328 
L 243.3322 276.789647 
L 244.273348 276.789647 
L 244.392183 273.339906 
L 245.282803 273.339906 
L 245.457525 269.423482 
L 246.349122 269.423482 
L 246.463664 265.458076 
L 247.372405 265.458076 
L 247.559992 261.719262 
L 248.241869 261.719262 
L 248.415658 257.30597 
L 249.306086 257.30597 
L 249.425321 252.949911 
L 250.201354 252.949911 
L 250.347918 248.430362 
L 251.081685 248.430362 
L 251.220965 243.38341 
L 251.997384 243.38341 
L 252.094146 238.646051 
L 252.863384 238.646051 
L 253.00407 233.885791 
L 253.569822 233.885791 
L 253.759733 228.942493 
L 254.461478 228.942493 
L 254.581513 224.068429 
L 255.232153 224.068429 
L 255.34779 218.875595 
L 255.94768 218.875595 
L 256.135327 213.42528 
L 256.705742 213.42528 
L 256.827982 207.643971 
L 257.416369 207.643971 
L 257.5783 213.191453 
L 258.186777 213.191453 
L 258.306086 220.578446 
L 258.90343 220.578446 
L 259.026011 227.577255 
L 259.673986 227.577255 
L 259.790986 234.086435 
L 260.385354 234.086435 
L 260.554998 240.614501 
L 261.151572 240.614501 
L 261.269608 247.273579 
L 261.873066 247.273579 
L 262.039957 252.909182 
L 262.7596 252.909182 
L 262.930251 258.057139 
L 263.523598 258.057139 
L 263.634972 262.628361 
L 264.414188 262.628361 
L 264.523637 266.48645 
L 265.294741 266.48645 
L 265.441305 269.852217 
L 266.306787 269.852217 
L 266.42238 272.741062 
L 267.220783 272.741062 
L 267.375504 274.724206 
L 268.087627 274.724206 
L 268.265488 276.107624 
L 269.146648 276.107624 
L 269.262359 276.9057 
L 270.150566 276.9057 
L 270.326072 277.286999 
L 271.038447 277.286999 
L 271.216988 277.522636 
L 272.115011 277.522636 
L 272.245349 277.689303 
L 276.260074 277.588826 
L 276.378584 277.264848 
L 277.255613 277.264848 
L 277.435635 276.807209 
L 278.332444 276.807209 
L 278.451101 276.328169 
L 279.334008 276.328169 
L 279.505917 275.803591 
L 280.396552 275.803591 
L 280.538689 275.179683 
L 281.400707 275.179683 
L 281.578819 273.858616 
L 282.473629 273.858616 
L 282.584529 272.005381 
L 283.355233 272.005381 
L 283.481692 269.694773 
L 284.369588 269.694773 
L 284.550972 266.883238 
L 285.253309 266.883238 
L 285.438779 263.578057 
L 286.313025 263.578057 
L 286.444755 259.929172 
L 287.210959 259.929172 
L 287.32251 255.915801 
L 288.210954 255.915801 
L 288.399148 251.594602 
L 289.108413 251.594602 
L 289.279286 248.225878 
L 289.876334 248.225878 
L 289.991898 251.196093 
L 290.757953 251.196093 
L 290.891371 254.17178 
L 291.657929 254.17178 
L 291.768711 256.814354 
L 292.537283 256.814354 
L 292.653424 258.938439 
L 293.425001 258.938439 
L 293.557442 260.671693 
L 294.322757 260.671693 
L 294.43305 261.974138 
L 295.203147 261.974138 
L 295.330643 262.736383 
L 296.094019 262.736383 
L 296.212928 263.251342 
L 296.99324 263.251342 
L 297.103622 263.78885 
L 297.997677 263.78885 
L 298.159637 264.187226 
L 298.875772 264.187226 
L 299.055291 264.38156 
L 303.208201 264.385885 
L 303.317043 264.220586 
L 304.088887 264.220586 
L 304.216679 263.88637 
L 304.984836 263.88637 
L 305.094419 263.252269 
L 305.875412 263.252269 
L 305.98646 262.076512 
L 306.876591 262.076512 
L 307.053371 260.331432 
L 307.641788 260.331432 
L 307.754139 257.933187 
L 308.657594 257.933187 
L 308.763343 254.604707 
L 309.531456 254.604707 
L 309.720212 250.726982 
L 310.427997 250.726982 
L 310.552222 246.10197 
L 311.324939 246.10197 
L 311.485167 240.670321 
L 312.086213 240.670321 
L 312.20339 234.361521 
L 312.965818 234.361521 
L 313.090679 227.257646 
L 313.681287 227.257646 
L 313.799026 219.533348 
L 314.573313 219.533348 
L 314.681859 212.280677 
L 315.345586 212.280677 
L 315.469988 206.199615 
L 316.056747 206.199615 
L 316.161651 201.248109 
L 316.818539 201.248109 
L 316.936634 197.097636 
L 317.412241 197.097636 
L 317.527553 193.904802 
L 318.119108 193.904802 
L 318.297531 191.441515 
L 318.716808 191.441515 
L 318.887784 189.26183 
L 319.488874 189.26183 
L 319.606465 187.515073 
L 320.073205 187.515073 
L 320.205186 185.986391 
L 320.679772 185.986391 
L 320.803774 184.507704 
L 321.380333 184.507704 
L 321.564352 183.147541 
L 321.974716 183.147541 
L 322.148002 181.556287 
L 322.578796 181.556287 
L 322.746012 179.890767 
L 323.15041 179.890767 
L 323.327708 178.150805 
L 323.751574 178.150805 
L 323.925082 176.208832 
L 324.40359 176.208832 
L 324.534536 174.014762 
L 324.929577 174.014762 
L 325.105676 171.389309 
L 325.517062 171.389309 
L 325.634949 168.590526 
L 326.118092 168.590526 
L 326.298366 165.47637 
L 326.708004 165.47637 
L 326.882326 162.132401 
L 327.296362 162.132401 
L 327.475836 158.505404 
L 327.770237 158.505404 
L 327.889546 154.62128 
L 328.36089 154.62128 
L 328.480983 150.387672 
L 328.983535 150.387672 
L 329.091281 145.864373 
L 329.549449 145.864373 
L 329.666359 141.086947 
L 329.970665 141.086947 
L 330.146097 136.197792 
L 330.555854 136.197792 
L 330.669686 131.281544 
L 331.026813 131.281544 
L 331.145056 126.333039 
L 331.617998 126.333039 
L 331.737544 121.362426 
L 332.034299 121.362426 
L 332.210131 116.335641 
L 332.505628 116.335641 
L 332.623723 111.287586 
L 333.102942 111.287586 
L 333.216566 109.833962 
L 333.511559 109.833962 
L 333.630928 114.882856 
L 334.023674 114.882856 
L 334.18642 120.023003 
L 334.407998 120.023003 
L 334.520408 125.257626 
L 334.88094 125.257626 
L 334.995378 130.591667 
L 335.470379 130.591667 
L 335.590591 136.030861 
L 335.881231 136.030861 
L 336.063948 141.581696 
L 336.359074 141.581696 
L 336.476281 147.251276 
L 336.777003 147.251276 
L 336.950348 153.047676 
L 337.36357 153.047676 
L 337.539165 158.979678 
L 337.839014 158.979678 
L 337.95739 165.057342 
L 338.441332 165.057342 
L 338.547954 171.291877 
L 338.840534 171.291877 
L 339.02633 177.696035 
L 339.448833 177.696035 
L 339.617175 184.284643 
L 340.035237 184.284643 
L 340.208271 191.072395 
L 340.625949 191.072395 
L 340.801307 197.978759 
L 341.287248 197.978759 
L 341.431103 204.969979 
L 341.865169 204.969979 
L 342.003827 211.945931 
L 342.412133 211.945931 
L 342.591918 218.664625 
L 343.003467 218.664625 
L 343.18414 224.84987 
L 343.769196 224.84987 
L 343.887854 230.477397 
L 344.479528 230.477397 
L 344.657181 235.571123 
L 345.244518 235.571123 
L 345.359163 239.985033 
L 345.949416 239.985033 
L 346.126714 243.72195 
L 346.725538 243.72195 
L 346.836705 246.820795 
L 347.628076 246.820795 
L 347.732018 249.366069 
L 348.32304 249.366069 
L 348.543863 251.303277 
L 349.209989 251.303277 
L 349.352215 252.592749 
L 350.100505 252.592749 
L 350.283784 253.830813 
L 350.873282 253.830813 
L 350.993819 254.944925 
L 351.760437 254.944925 
L 351.876119 255.858701 
L 352.640946 255.858701 
L 352.762357 256.820532 
L 353.526769 256.820532 
L 353.647189 257.673502 
L 353.975432 257.673502 
L 354.143951 258.10815 
L 354.716809 258.10815 
L 354.860264 258.621653 
L 355.61529 258.621653 
L 355.728263 259.083925 
L 356.49038 259.083925 
L 356.611851 259.421847 
L 357.378957 259.421847 
L 357.498932 259.803808 
L 358.263448 259.803808 
L 358.383393 260.136391 
L 359.156141 260.136391 
L 359.277478 260.443867 
L 360.056502 260.443867 
L 360.249374 260.626198 
L 363.626991 260.685769 
L 363.847266 260.797145 
L 370.827216 260.769831 
L 371.065567 260.659955 
L 371.415381 260.659955 
L 371.591702 260.548712 
L 372.180845 260.548712 
L 372.338823 260.415493 
L 373.190611 260.415493 
L 373.367213 260.214275 
L 374.092097 260.214275 
L 374.26032 260.011689 
L 374.970829 260.011689 
L 375.143612 259.725925 
L 375.855868 259.725925 
L 376.036541 259.470122 
L 376.769449 259.470122 
L 376.951041 258.82746 
L 377.643696 258.82746 
L 377.813665 257.502202 
L 378.554834 257.502202 
L 378.723205 255.618784 
L 379.446372 255.618784 
L 379.59301 253.108105 
L 380.305503 253.108105 
L 380.471357 249.956088 
L 381.189106 249.956088 
L 381.366197 246.358611 
L 382.073182 246.358611 
L 382.248837 242.392764 
L 382.853302 242.392764 
L 382.963773 237.795508 
L 383.734003 237.795508 
L 383.849359 232.785844 
L 384.449072 232.785844 
L 384.629109 227.004667 
L 385.349833 227.004667 
L 385.514902 221.342103 
L 386.100921 221.342103 
L 386.215389 216.023286 
L 386.809106 216.023286 
L 386.990756 210.656283 
L 387.58545 210.656283 
L 387.702583 205.146883 
L 388.366325 205.146883 
L 388.493984 199.799384 
L 389.065509 199.799384 
L 389.211259 194.549052 
L 389.674919 194.549052 
L 389.7759 189.290071 
L 390.35992 189.290071 
L 390.481316 184.215893 
L 390.954851 184.215893 
L 391.072191 179.313677 
L 391.729537 179.313677 
L 391.842495 174.450602 
L 392.316666 174.450602 
L 392.462149 169.716288 
L 392.915742 169.716288 
L 393.06241 164.989564 
L 393.507461 164.989564 
L 393.627717 160.603851 
L 394.100497 160.603851 
L 394.242901 156.463351 
L 394.696583 156.463351 
L 394.829615 152.24735 
L 395.277819 152.24735 
L 395.423569 148.161081 
L 395.693676 148.161081 
L 395.816893 144.253658 
L 396.286564 144.253658 
L 396.461123 140.33516 
L 396.884619 140.33516 
L 397.065218 136.378271 
L 397.356703 136.378271 
L 397.4708 132.539686 
L 397.942692 132.539686 
L 398.058033 128.838379 
L 398.355883 128.838379 
L 398.487273 53.568 
L 398.487273 53.568 
" clip-path="url(#p3e81365d6f)" style="fill: none; stroke: #1f77b4; stroke-width: 1.5; stroke-linecap: square"/>
   </g>
   <g id="line2d_13">
    <path d="M 73.832727 285.724076 
L 73.85483 281.527623 
L 73.892611 294.116982 
L 73.918549 289.920529 
L 74.023941 289.920529 
L 74.215141 281.527623 
L 74.318209 281.527623 
L 74.468874 277.33117 
L 74.75263 268.938264 
L 74.812766 268.938264 
L 75.104428 256.348905 
L 75.216231 256.348905 
L 75.395794 247.955999 
L 75.503496 247.955999 
L 75.696176 239.563093 
L 75.800547 239.563093 
L 75.985988 231.170187 
L 76.096059 231.170187 
L 76.32948 222.777281 
L 76.392147 222.777281 
L 76.578343 214.384375 
L 76.687185 214.384375 
L 76.838694 210.187922 
L 77.184821 197.598563 
L 77.281909 197.598563 
L 77.462908 189.205657 
L 77.57591 189.205657 
L 77.763438 180.812751 
L 77.872546 180.812751 
L 78.061096 172.419845 
L 78.167229 172.419845 
L 78.322379 168.223392 
L 78.659165 155.653713 
L 78.763226 155.653713 
L 78.949066 148.068283 
L 79.056561 148.068283 
L 79.240239 141.360224 
L 79.357683 141.360224 
L 79.539437 135.646914 
L 79.657354 135.646914 
L 79.835141 130.464008 
L 79.946041 130.464008 
L 80.129023 126.147795 
L 80.24287 126.147795 
L 80.428946 122.450195 
L 80.536915 122.450195 
L 80.722474 119.303429 
L 80.836379 119.303429 
L 81.018459 116.862823 
L 81.129936 116.862823 
L 81.320144 114.867765 
L 81.425951 114.867765 
L 81.658484 113.266405 
L 81.718812 113.266405 
L 81.907643 112.269317 
L 82.015493 112.269317 
L 82.20989 111.596384 
L 82.322093 111.596384 
L 82.499643 111.206392 
L 82.610187 111.206392 
L 82.800202 111.596693 
L 82.904707 111.596693 
L 83.023527 111.73812 
L 83.259984 113.700656 
L 83.321081 113.700656 
L 84.380812 122.782999 
L 84.438609 122.782999 
L 84.655464 126.399273 
L 84.70574 126.399273 
L 85.035864 131.520843 
L 85.100352 131.520843 
L 85.333256 135.086328 
L 85.391689 135.086328 
L 85.510554 136.855369 
L 85.568187 136.855369 
L 85.757773 139.447992 
L 85.864335 139.447992 
L 86.052381 143.118939 
L 86.16411 143.118939 
L 86.398583 146.638576 
L 86.456483 146.638576 
L 86.647223 149.847385 
L 86.754156 149.847385 
L 86.943889 153.970631 
L 87.052791 153.970631 
L 87.234708 156.674541 
L 87.347443 156.674541 
L 87.532514 160.479061 
L 87.645294 160.479061 
L 87.875902 164.098513 
L 87.962346 164.098513 
L 88.189386 167.382733 
L 88.244222 167.382733 
L 88.475763 170.652922 
L 88.530555 170.652922 
L 88.714366 173.70155 
L 88.823401 173.70155 
L 89.064417 176.79682 
L 89.120437 176.79682 
L 89.304382 179.71426 
L 89.41922 179.71426 
L 89.653219 182.710863 
L 89.714643 182.710863 
L 89.902881 185.553287 
L 90.010687 185.553287 
L 90.197208 189.350878 
L 90.308834 189.350878 
L 90.494644 191.841215 
L 90.604789 191.841215 
L 90.842148 194.549405 
L 90.901914 194.549405 
L 91.08691 197.195907 
L 91.195101 197.195907 
L 91.433319 199.920027 
L 91.489606 199.920027 
L 91.674232 202.507001 
L 91.790565 202.507001 
L 92.025023 205.096579 
L 92.085188 205.096579 
L 92.271191 207.517989 
L 92.378271 207.517989 
L 92.614831 209.905864 
L 92.704798 209.905864 
L 92.950122 212.11957 
L 92.987326 212.11957 
L 93.180849 213.571296 
L 93.276693 213.571296 
L 93.474421 215.786414 
L 93.572486 215.786414 
L 93.749873 217.239022 
L 93.857471 217.239022 
L 94.043933 219.331115 
L 94.156491 219.331115 
L 94.343412 220.70306 
L 94.44919 220.70306 
L 94.689762 222.131266 
L 94.746181 222.131266 
L 94.929623 223.495841 
L 95.046741 223.495841 
L 95.227814 224.390687 
L 95.339291 224.390687 
L 95.532933 225.750541 
L 95.633988 225.750541 
L 95.818511 226.642298 
L 95.928745 226.642298 
L 96.166637 227.567062 
L 96.22923 227.567062 
L 96.411236 228.448759 
L 96.529968 228.448759 
L 96.706007 229.026951 
L 96.818447 229.026951 
L 97.010579 229.859093 
L 97.114758 229.859093 
L 97.303248 230.404809 
L 97.441358 230.404809 
L 97.824556 231.136386 
L 97.867371 231.136386 
L 98.065632 231.486532 
L 98.127692 231.486532 
L 98.360521 231.800626 
L 98.420642 231.800626 
L 98.656743 232.075006 
L 98.923223 232.174468 
L 99.253658 232.483311 
L 99.485007 232.566048 
L 99.72885 232.687309 
L 99.920361 232.769605 
L 100.198536 232.890247 
L 100.612053 233.015876 
L 101.084789 233.108807 
L 101.614402 233.16882 
L 105.410955 233.063268 
L 106.235473 232.920827 
L 106.784111 232.81735 
L 107.07678 232.663392 
L 107.3016 232.559341 
L 107.537109 232.365889 
L 107.773639 232.276003 
L 108.314223 231.713917 
L 108.376254 231.713917 
L 108.565499 231.432785 
L 108.669959 231.432785 
L 108.869656 230.972543 
L 108.964241 230.972543 
L 109.155988 230.555016 
L 109.255193 230.555016 
L 109.500754 230.059561 
L 109.554509 230.059561 
L 109.74901 229.498887 
L 109.851797 229.498887 
L 110.036216 228.990282 
L 110.148566 228.990282 
L 110.333977 228.25288 
L 110.444418 228.25288 
L 110.625684 227.583963 
L 110.739071 227.583963 
L 110.97834 226.820614 
L 111.064043 226.820614 
L 111.273777 225.979029 
L 111.335097 225.979029 
L 111.549007 225.215592 
L 111.644036 225.215592 
L 111.837501 224.199354 
L 111.941546 224.199354 
L 112.117778 223.277458 
L 112.218167 223.277458 
L 112.45227 222.249349 
L 112.513397 222.249349 
L 112.705544 221.133957 
L 112.812091 221.133957 
L 112.996939 220.122087 
L 113.107025 220.122087 
L 113.292036 218.796608 
L 113.401219 218.796608 
L 113.5927 217.594154 
L 113.699217 217.594154 
L 113.921388 216.296166 
L 114.024841 216.296166 
L 114.236737 214.921309 
L 114.294237 214.921309 
L 114.528606 213.467112 
L 114.600274 213.467112 
L 114.776477 211.950741 
L 114.87959 211.950741 
L 115.073039 210.575178 
L 115.177573 210.575178 
L 115.362185 208.927795 
L 115.47492 208.927795 
L 115.659428 207.433354 
L 115.773185 207.433354 
L 115.956553 205.680817 
L 116.065469 205.680817 
L 116.251457 204.091019 
L 116.362535 204.091019 
L 116.597748 202.437192 
L 116.687033 202.437192 
L 116.932091 200.735445 
L 116.971249 200.735445 
L 117.20735 198.986879 
L 117.25881 198.986879 
L 117.445924 197.205614 
L 117.545202 197.205614 
L 117.782354 195.381415 
L 117.845406 195.381415 
L 118.027901 193.528224 
L 118.137009 193.528224 
L 118.374502 191.636864 
L 118.436266 191.636864 
L 118.624105 189.720881 
L 118.732814 189.720881 
L 118.964725 187.766772 
L 119.051316 187.766772 
L 119.29704 185.78835 
L 119.352779 185.78835 
L 119.562543 183.776391 
L 119.620132 183.776391 
L 119.805425 181.744311 
L 119.91705 181.744311 
L 120.154306 179.688799 
L 120.217047 179.688799 
L 120.406026 177.622123 
L 120.507747 177.622123 
L 120.74484 175.53056 
L 120.805375 175.53056 
L 120.994768 173.426729 
L 121.100842 173.426729 
L 121.249094 172.449233 
L 121.64868 169.177456 
L 121.701621 169.177456 
L 121.839495 168.188885 
L 122.224958 164.876688 
L 122.286159 164.876688 
L 122.474042 162.49102 
L 122.583033 162.49102 
L 122.733949 161.382556 
L 122.965046 159.098379 
L 123.013694 159.098379 
L 123.235775 156.81385 
L 123.315097 156.81385 
L 123.537534 154.512993 
L 123.611911 154.512993 
L 123.830395 152.208077 
L 123.890753 152.208077 
L 124.117468 149.668098 
L 124.176523 149.668098 
L 124.413927 147.363976 
L 124.476327 147.363976 
L 124.588308 146.060737 
L 124.653536 146.060737 
L 124.833232 143.637252 
L 124.947671 143.637252 
L 125.130298 140.98572 
L 125.24259 140.98572 
L 125.480542 138.348794 
L 125.539907 138.348794 
L 125.724045 135.736094 
L 125.838202 135.736094 
L 126.072793 133.12966 
L 126.133728 133.12966 
L 126.319612 130.540127 
L 126.428218 130.540127 
L 126.616915 127.752067 
L 126.726409 127.752067 
L 126.95798 124.99697 
L 127.017997 124.99697 
L 127.207908 122.282513 
L 127.321547 122.282513 
L 127.505773 119.385857 
L 127.618894 119.385857 
L 127.805252 116.544184 
L 127.931623 116.544184 
L 128.165296 113.762566 
L 128.218651 113.762566 
L 128.397859 110.834757 
L 128.502363 110.834757 
L 128.689802 107.967048 
L 128.797283 107.967048 
L 128.981657 105.163985 
L 129.093771 105.163985 
L 129.279167 102.205023 
L 129.387565 102.205023 
L 129.573523 99.315824 
L 129.690937 99.315824 
L 129.876393 96.4997 
L 129.979402 96.4997 
L 130.173207 93.542944 
L 130.30923 93.542944 
L 130.539898 90.712037 
L 130.603956 90.712037 
L 130.778367 88.207579 
L 130.873575 88.207579 
L 131.022315 87.144037 
L 131.293177 85.371068 
L 131.522187 83.957777 
L 131.582559 83.957777 
L 131.819164 83.068623 
L 131.878589 83.068623 
L 132.059602 82.655465 
L 132.204567 82.478781 
L 132.356742 82.310526 
L 132.552783 82.73604 
L 132.648212 82.73604 
L 132.796212 82.890219 
L 133.063728 84.641433 
L 133.178966 85.275975 
L 133.25734 85.275975 
L 133.436282 87.705241 
L 133.536656 87.705241 
L 133.770225 90.057328 
L 133.830553 90.057328 
L 134.070459 92.994889 
L 134.126227 92.994889 
L 134.267225 94.40849 
L 134.662414 98.628462 
L 134.724252 98.628462 
L 134.954698 101.361981 
L 135.014123 101.361981 
L 135.197772 103.735073 
L 135.310701 103.735073 
L 135.49392 106.584558 
L 135.604346 106.584558 
L 135.848975 109.13526 
L 135.902523 109.13526 
L 136.088274 111.360351 
L 136.198611 111.360351 
L 136.383667 114.071409 
L 136.495825 114.071409 
L 136.735213 116.553583 
L 136.79865 116.553583 
L 136.940876 117.768127 
L 137.348309 121.457696 
L 137.39287 121.457696 
L 137.647758 123.941193 
L 137.704281 123.941193 
L 137.926466 126.143912 
L 137.981998 126.143912 
L 138.170888 128.902318 
L 138.269855 128.902318 
L 138.508503 131.455139 
L 138.59086 131.455139 
L 138.813563 133.731637 
L 138.921428 133.731637 
L 139.111754 136.597845 
L 139.168692 136.597845 
L 139.346138 138.477468 
L 139.457482 138.477468 
L 139.643263 141.163021 
L 139.752327 141.163021 
L 139.974245 143.721269 
L 140.084139 143.721269 
L 140.29217 146.04441 
L 140.349789 146.04441 
L 140.5348 149.10354 
L 140.642917 149.10354 
L 140.828506 151.109674 
L 140.938517 151.109674 
L 141.124224 154.066077 
L 141.230801 154.066077 
L 141.469626 156.880834 
L 141.53561 156.880834 
L 141.713959 159.435993 
L 141.862136 159.435993 
L 142.366361 164.557387 
L 142.424113 164.557387 
L 142.606636 168.075832 
L 142.712074 168.075832 
L 142.898891 170.383131 
L 143.008384 170.383131 
L 143.151662 172.285126 
L 143.393892 175.072612 
L 143.448535 175.072612 
L 144.114083 182.036253 
L 144.203902 182.036253 
L 144.3865 185.886929 
L 144.489109 185.886929 
L 144.674609 188.412082 
L 144.814777 188.412082 
L 145.041359 192.371398 
L 145.092864 192.371398 
L 145.273344 194.967815 
L 145.37924 194.967815 
L 145.565688 198.962521 
L 145.706581 198.962521 
L 145.935606 201.582193 
L 145.981855 201.582193 
L 146.159849 205.591593 
L 146.270393 205.591593 
L 146.449956 208.22084 
L 146.56059 208.22084 
L 146.751671 212.256804 
L 146.86075 212.256804 
L 147.002695 213.719209 
L 147.243592 215.862488 
L 147.289442 215.862488 
L 147.51253 219.608231 
L 147.585649 219.608231 
L 147.812246 222.064634 
L 147.872381 222.064634 
L 148.041122 224.284695 
L 148.228221 227.53838 
L 148.339802 227.53838 
L 148.493294 228.717314 
L 148.657416 229.67204 
L 148.845773 233.578492 
L 148.936968 233.578492 
L 149.126095 236.14027 
L 149.245433 236.14027 
L 149.776069 242.400134 
L 149.830549 242.400134 
L 149.968156 243.548488 
L 150.202007 245.231482 
L 150.246568 245.231482 
L 150.484846 248.753458 
L 150.537431 248.753458 
L 150.766456 251.063051 
L 150.834408 251.063051 
L 151.242936 255.348331 
L 151.300303 255.348331 
L 151.488986 257.609694 
L 151.595385 257.609694 
L 151.780426 259.092662 
L 151.921675 259.092662 
L 152.156562 262.065039 
L 152.206364 262.065039 
L 152.395062 264.014205 
L 152.494725 264.014205 
L 152.632199 264.720498 
L 153.436095 270.068306 
L 153.520095 270.068306 
L 153.738105 270.946693 
L 153.795028 270.946693 
L 154.025148 272.882621 
L 154.121244 272.882621 
L 154.329202 274.152192 
L 154.385666 274.152192 
L 154.558848 274.612213 
L 154.825772 275.858573 
L 154.871577 275.858573 
L 155.062258 277.139307 
L 155.156888 277.139307 
L 155.341721 277.979171 
L 155.453998 277.979171 
L 155.639631 278.529917 
L 155.750191 278.529917 
L 155.933736 279.61592 
L 156.040905 279.61592 
L 156.236205 280.328082 
L 156.337749 280.328082 
L 156.525573 280.795119 
L 156.634089 280.795119 
L 157.164236 281.904421 
L 157.252263 281.904421 
L 157.421774 282.27085 
L 157.521556 282.27085 
L 157.704346 282.511164 
L 157.814906 282.511164 
L 157.999073 282.840747 
L 158.114592 282.840747 
L 158.299899 283.056924 
L 158.526659 283.135249 
L 158.762271 283.250022 
L 159.142493 283.353764 
L 159.712331 283.466464 
L 160.831857 283.574663 
L 169.956303 283.46867 
L 172.44108 283.07453 
L 173.945195 282.231798 
L 174.161414 281.872959 
L 174.223859 281.872959 
L 174.45201 281.547436 
L 174.53909 281.547436 
L 174.893271 281.11495 
L 174.990477 281.11495 
L 175.174052 280.56844 
L 175.282006 280.56844 
L 175.471296 280.072632 
L 175.616127 280.072632 
L 175.938805 279.413908 
L 176.000347 279.413908 
L 176.228705 278.635248 
L 176.290721 278.635248 
L 176.5266 277.928867 
L 176.587417 277.928867 
L 176.821726 277.288058 
L 176.87896 277.288058 
L 177.293973 275.972993 
L 177.379409 275.972993 
L 177.616266 275.050082 
L 177.680576 275.050082 
L 177.897653 274.212866 
L 177.953229 274.212866 
L 178.183571 273.185904 
L 178.243145 273.185904 
L 178.429251 271.999513 
L 178.539544 271.999513 
L 178.723208 270.923306 
L 178.835944 270.923306 
L 179.072148 269.651043 
L 179.130878 269.651043 
L 179.316777 268.215027 
L 179.431467 268.215027 
L 179.618891 266.912361 
L 179.723766 266.912361 
L 179.972495 265.407419 
L 180.031491 265.407419 
L 180.233245 263.734354 
L 180.340059 263.734354 
L 180.526669 262.216614 
L 180.615674 262.216614 
L 180.809241 260.839816 
L 180.912873 260.839816 
L 181.111874 258.94091 
L 181.209627 258.94091 
L 181.394268 257.21829 
L 181.501216 257.21829 
L 181.687855 255.65563 
L 181.802515 255.65563 
L 181.982952 253.68696 
L 182.098234 253.68696 
L 182.283719 251.901106 
L 182.391273 251.901106 
L 182.633696 249.987109 
L 182.693876 249.987109 
L 182.876414 247.970914 
L 182.988824 247.970914 
L 183.171644 246.141861 
L 183.282515 246.141861 
L 183.535996 244.195077 
L 183.588211 244.195077 
L 183.80859 242.155142 
L 183.875832 242.155142 
L 184.059451 240.304643 
L 184.170455 240.304643 
L 184.358738 238.110573 
L 184.464515 238.110573 
L 184.658587 236.120192 
L 184.761714 236.120192 
L 185.001147 234.059077 
L 185.054753 234.059077 
L 185.243392 231.945935 
L 185.351005 231.945935 
L 185.543981 230.029025 
L 185.646501 230.029025 
L 185.884187 228.039748 
L 185.945729 228.039748 
L 186.13755 225.996768 
L 186.240781 225.996768 
L 186.429079 224.143489 
L 186.538306 224.143489 
L 186.722547 221.990325 
L 186.83358 221.990325 
L 187.02244 220.037055 
L 187.128499 220.037055 
L 187.326435 217.812096 
L 187.428911 217.812096 
L 187.607971 215.793695 
L 187.724585 215.793695 
L 187.90782 213.73302 
L 188.018971 213.73302 
L 188.203923 211.644899 
L 188.313387 211.644899 
L 188.546024 209.515916 
L 188.606219 209.515916 
L 188.793391 207.360942 
L 188.908259 207.360942 
L 189.088029 205.406084 
L 189.199284 205.406084 
L 189.482227 203.182405 
L 189.531703 203.182405 
L 189.780521 201.165195 
L 189.829272 201.165195 
L 190.038089 198.901582 
L 190.095708 198.901582 
L 190.28399 196.8481 
L 190.389753 196.8481 
L 190.609273 194.756889 
L 190.687441 194.756889 
L 190.920018 192.642248 
L 190.978304 192.642248 
L 191.214079 190.494511 
L 191.274748 190.494511 
L 191.420127 189.384635 
L 191.807633 186.13501 
L 191.869975 186.13501 
L 192.073772 183.929996 
L 192.173406 183.929996 
L 192.372274 181.699743 
L 192.465335 181.699743 
L 192.651619 179.457486 
L 192.753859 179.457486 
L 192.905915 178.415698 
L 193.263398 174.914859 
L 193.354415 174.914859 
L 193.464101 173.857097 
L 194.174566 167.795186 
L 194.233665 167.795186 
L 194.424095 165.497992 
L 194.532611 165.497992 
L 194.727038 162.963838 
L 194.82337 162.963838 
L 195.077237 160.664923 
L 195.147469 160.664923 
L 195.315262 158.128782 
L 195.420655 158.128782 
L 195.542274 156.950422 
L 195.955954 153.053281 
L 196.017614 153.053281 
L 196.201263 150.519126 
L 196.303888 150.519126 
L 196.45131 149.227007 
L 196.793885 145.247922 
L 196.898123 145.247922 
L 197.131145 142.511667 
L 197.206647 142.511667 
L 197.399312 139.797961 
L 197.500649 139.797961 
L 197.678553 137.106274 
L 197.787425 137.106274 
L 197.976271 134.44552 
L 198.083277 134.44552 
L 198.348869 131.594756 
L 198.399633 131.594756 
L 198.616844 128.790457 
L 198.677616 128.790457 
L 198.865129 126.038669 
L 198.971602 126.038669 
L 199.156199 123.227884 
L 199.271037 123.227884 
L 199.452895 120.678065 
L 199.563439 120.678065 
L 199.70833 119.704982 
L 199.970309 117.895433 
L 200.004863 117.895433 
L 200.160517 117.26976 
L 200.339725 116.106226 
L 200.449263 116.106226 
L 200.595678 115.784409 
L 200.873306 115.185962 
L 201.160453 115.079043 
L 201.33707 115.029401 
L 201.58494 116.296941 
L 201.649117 116.296941 
L 202.173861 119.991629 
L 202.230295 119.991629 
L 202.378325 121.674976 
L 202.619474 124.142058 
L 202.67539 124.142058 
L 202.884177 127.474907 
L 202.967112 127.474907 
L 203.314957 132.237859 
L 203.420927 132.237859 
L 203.657916 135.604685 
L 203.714647 135.604685 
L 203.935455 138.651019 
L 204.03272 138.651019 
L 204.496203 144.480382 
L 204.601433 144.480382 
L 204.778716 148.231154 
L 204.888461 148.231154 
L 205.120609 151.802905 
L 205.220095 151.802905 
L 205.438534 155.045779 
L 205.504088 155.045779 
L 205.724023 158.319763 
L 205.778785 158.319763 
L 205.969214 161.395926 
L 206.077153 161.395926 
L 206.218195 163.697268 
L 206.342967 165.560873 
L 206.420646 165.560873 
L 206.656732 168.292141 
L 206.697652 168.292141 
L 206.91353 172.295672 
L 206.975575 172.295672 
L 207.154516 174.921081 
L 207.26059 174.921081 
L 207.448932 178.883574 
L 207.558855 178.883574 
L 207.791892 182.773126 
L 207.856987 182.773126 
L 208.006038 184.760109 
L 208.236306 187.672253 
L 208.274042 187.672253 
L 208.511965 191.962872 
L 208.569687 191.962872 
L 208.747873 193.51759 
L 208.985751 197.116125 
L 209.045368 197.116125 
L 209.235872 200.544861 
L 209.342538 200.544861 
L 209.526453 202.793384 
L 209.634511 202.793384 
L 209.83027 206.818051 
L 209.935218 206.818051 
L 210.114263 209.457316 
L 210.22996 209.457316 
L 210.342607 211.834158 
L 210.628155 215.317611 
L 210.666321 215.317611 
L 210.87943 217.602009 
L 210.968227 217.602009 
L 211.183306 221.67826 
L 211.236795 221.67826 
L 211.490054 224.351414 
L 211.540537 224.351414 
L 211.762633 228.619 
L 211.85035 228.619 
L 212.005367 230.165377 
L 212.185226 232.431682 
L 212.295326 232.431682 
L 212.478857 236.25725 
L 212.594554 236.25725 
L 212.778321 238.765988 
L 212.886393 238.765988 
L 213.666617 246.56358 
L 213.774008 246.56358 
L 214.305991 251.674913 
L 214.365356 251.674913 
L 214.618364 253.394399 
L 214.71446 253.394399 
L 214.930856 254.522058 
L 214.984878 254.522058 
L 215.20234 257.198963 
L 215.2644 257.198963 
L 215.444896 258.954413 
L 215.551354 258.954413 
L 215.735181 261.855084 
L 215.851426 261.855084 
L 216.033076 263.757299 
L 216.145619 263.757299 
L 216.330156 265.004718 
L 216.439265 265.004718 
L 216.600204 266.342597 
L 216.836216 268.303369 
L 216.871747 268.303369 
L 217.095901 269.589178 
L 217.15617 269.589178 
L 217.333364 270.055112 
L 217.859884 273.126377 
L 217.924002 273.126377 
L 218.079286 273.7066 
L 218.241572 274.176505 
L 218.361562 274.55701 
L 218.575471 276.382445 
L 218.63195 276.382445 
L 218.866615 277.579515 
L 218.926321 277.579515 
L 219.102139 278.013281 
L 219.287949 278.648971 
L 219.40181 278.648971 
L 219.646009 280.152855 
L 219.719498 280.152855 
L 219.93471 281.139043 
L 219.991515 281.139043 
L 220.237165 281.785765 
L 220.296383 281.785765 
L 220.938481 284.231798 
L 221.016752 284.231798 
L 221.241557 284.80624 
L 221.296363 284.80624 
L 222.311636 287.325083 
L 222.368397 287.325083 
L 222.552534 287.6375 
L 222.661658 287.6375 
L 222.810013 288.093594 
L 223.027386 288.762026 
L 223.079335 288.762026 
L 223.366423 289.200337 
L 223.426114 289.200337 
L 224.379031 290.992103 
L 224.442157 290.992103 
L 224.629108 291.268778 
L 224.73342 291.268778 
L 224.926336 291.904688 
L 225.028013 291.904688 
L 225.145235 292.135118 
L 225.978043 293.465495 
L 226.052569 293.465495 
L 226.274384 293.723328 
L 226.504489 293.816744 
L 227.199587 294.560544 
L 227.3969 294.656432 
L 227.639649 294.796931 
L 227.994333 294.889112 
L 228.196976 295.088962 
L 228.406267 295.161374 
L 228.641094 295.267543 
L 229.178466 295.368637 
L 229.589911 295.424634 
L 230.516283 295.470129 
L 232.75159 295.454243 
L 235.812703 294.791239 
L 236.040958 294.646944 
L 236.279398 294.579872 
L 236.513456 294.45517 
L 236.695299 294.397187 
L 236.927462 294.163139 
L 237.170255 294.054366 
L 237.401367 293.852133 
L 237.584024 293.758144 
L 238.071208 293.34397 
L 238.291202 293.049424 
L 238.349043 293.049424 
L 238.592028 292.782237 
L 238.655509 292.782237 
L 238.843777 292.539804 
L 238.948045 292.539804 
L 239.145832 292.115128 
L 239.243586 292.115128 
L 239.396782 291.917794 
L 239.681412 291.55088 
L 239.726181 291.55088 
L 239.896832 291.217988 
L 239.954643 291.217988 
L 240.361854 290.5635 
L 240.421427 290.5635 
L 240.610124 290.110054 
L 240.716849 290.110054 
L 240.983122 289.698748 
L 241.03584 289.698748 
L 241.255568 289.207176 
L 241.313187 289.207176 
L 241.503261 288.648444 
L 241.609645 288.648444 
L 241.794775 288.141604 
L 241.908813 288.141604 
L 242.090967 287.681847 
L 242.201734 287.681847 
L 242.445504 287.110759 
L 242.526292 287.110759 
L 242.735449 286.446078 
L 242.792372 286.446078 
L 243.01959 285.84313 
L 243.100896 285.84313 
L 243.280651 285.296135 
L 243.39204 285.296135 
L 243.502748 284.891669 
L 243.813359 284.139485 
L 243.861341 284.139485 
L 244.04382 283.457109 
L 244.102608 283.457109 
L 244.338887 282.838099 
L 244.392183 282.838099 
L 244.770066 281.546598 
L 244.869078 281.546598 
L 245.049308 280.784705 
L 245.160119 280.784705 
L 245.346729 280.093548 
L 245.457525 280.093548 
L 245.680894 279.102947 
L 245.777286 279.102947 
L 245.994763 278.204306 
L 246.058881 278.204306 
L 246.247445 277.389109 
L 246.349122 277.389109 
L 246.581863 276.461035 
L 246.640399 276.461035 
L 246.876056 275.439545 
L 246.937806 275.439545 
L 247.127954 274.512839 
L 247.23197 274.512839 
L 247.456405 273.672225 
L 247.559992 273.672225 
L 247.770525 272.562526 
L 247.829728 272.562526 
L 248.043149 271.555862 
L 248.134078 271.555862 
L 248.308252 270.642615 
L 248.415658 270.642615 
L 248.608382 269.404463 
L 248.714071 269.404463 
L 248.905285 268.281261 
L 249.014749 268.281261 
L 249.195719 267.262331 
L 249.306086 267.262331 
L 249.550625 266.130833 
L 249.603433 266.130833 
L 249.824315 264.907154 
L 249.917553 264.907154 
L 250.142892 263.797058 
L 250.201354 263.797058 
L 250.347918 263.28126 
L 250.733322 261.261932 
L 250.790571 261.261932 
L 250.977269 260.070643 
L 251.081685 260.070643 
L 251.340393 258.749973 
L 251.390757 258.749973 
L 251.566249 257.323356 
L 251.67709 257.323356 
L 251.813676 256.660528 
L 252.051316 255.427892 
L 252.094146 255.427892 
L 252.330469 253.869909 
L 252.389331 253.869909 
L 252.624988 252.456529 
L 252.68465 252.456529 
L 252.800761 251.799835 
L 252.863384 251.799835 
L 253.00407 251.174383 
L 253.400133 248.823575 
L 253.457338 248.823575 
L 253.669752 247.43676 
L 253.759733 247.43676 
L 253.985901 245.719788 
L 254.0442 245.719788 
L 254.235681 244.162203 
L 254.34664 244.162203 
L 254.52755 242.74922 
L 254.641663 242.74922 
L 254.828036 241.014907 
L 254.939469 241.014907 
L 255.116782 239.441612 
L 255.232153 239.441612 
L 255.468846 237.767444 
L 255.524466 237.767444 
L 255.77472 236.013538 
L 255.86297 236.013538 
L 256.042192 234.422504 
L 256.135327 234.422504 
L 256.303253 232.473117 
L 256.412969 232.473117 
L 256.60895 230.704738 
L 256.705742 230.704738 
L 256.946284 228.825645 
L 257.007663 228.825645 
L 257.190143 226.859137 
L 257.297904 226.859137 
L 257.530423 225.075225 
L 257.642921 225.075225 
L 257.952763 223.459348 
L 258.011996 223.459348 
L 258.248497 222.506078 
L 258.535392 222.414427 
L 258.770797 222.243965 
L 258.90343 222.164758 
L 259.086931 222.089345 
L 259.195166 223.133163 
L 259.475459 224.662905 
L 259.520967 224.662905 
L 259.731116 225.666082 
L 259.790986 225.666082 
L 260.032505 228.564591 
L 260.106142 228.564591 
L 260.323072 230.465351 
L 260.385354 230.465351 
L 261.038126 236.546104 
L 261.151572 236.546104 
L 261.511616 240.746219 
L 261.608911 240.746219 
L 261.832813 242.993065 
L 261.873066 242.993065 
L 262.278367 246.940334 
L 262.335883 246.940334 
L 262.474556 248.075627 
L 262.715587 249.739425 
L 262.7596 249.739425 
L 263.461523 254.739426 
L 263.523598 254.739426 
L 263.878312 257.868807 
L 263.932778 257.868807 
L 264.110342 258.774067 
L 264.305538 260.100825 
L 264.414188 260.100825 
L 264.64382 261.704656 
L 264.705377 261.704656 
L 264.88602 263.350672 
L 264.998312 263.350672 
L 265.185692 264.4301 
L 265.294741 264.4301 
L 265.561591 265.778084 
L 265.620439 265.778084 
L 265.836791 267.18052 
L 265.892944 267.18052 
L 266.03477 267.688683 
L 266.245674 268.43341 
L 266.306787 268.43341 
L 266.963408 271.004675 
L 267.078394 271.004675 
L 267.275441 271.602372 
L 267.375504 271.602372 
L 267.558976 272.67699 
L 267.660593 272.67699 
L 267.908597 273.381695 
L 267.971649 273.381695 
L 268.158748 273.84379 
L 268.265488 273.84379 
L 268.470544 274.623068 
L 268.557328 274.623068 
L 268.75926 275.1341 
L 268.858864 275.1341 
L 269.040056 275.469198 
L 269.146648 275.469198 
L 269.383178 275.840745 
L 269.443995 275.840745 
L 269.593061 276.043287 
L 269.858993 276.340172 
L 270.090593 276.534815 
L 270.326072 276.605374 
L 270.563402 276.839995 
L 270.739664 276.925028 
L 270.978371 277.049597 
L 271.216988 277.094783 
L 271.452779 277.242034 
L 271.821779 277.338628 
L 272.115011 277.401994 
L 272.764762 277.575632 
L 273.761856 277.678139 
L 274.595123 277.718162 
L 276.378584 277.688067 
L 277.032422 277.596548 
L 277.757795 277.495366 
L 278.275298 277.373488 
L 278.634306 277.298163 
L 278.863775 277.208101 
L 279.213914 277.126422 
L 279.564483 276.992939 
L 279.948851 276.882489 
L 280.2275 276.782322 
L 280.887067 276.485922 
L 281.106706 276.423792 
L 281.527862 276.25461 
L 281.578819 276.25461 
L 281.776177 276.032167 
L 282.000464 275.928822 
L 282.237883 275.73665 
L 282.473629 275.647338 
L 282.829068 275.232061 
L 282.884052 275.232061 
L 283.125616 274.932485 
L 283.194975 274.932485 
L 283.355233 274.793309 
L 283.890324 273.985525 
L 283.956515 273.985525 
L 284.190499 273.587149 
L 284.247896 273.587149 
L 284.440635 273.225795 
L 284.550972 273.225795 
L 284.732282 272.636968 
L 284.839525 272.636968 
L 285.076293 272.102769 
L 285.153054 272.102769 
L 285.330425 271.618213 
L 285.438779 271.618213 
L 285.633916 270.871766 
L 285.72788 270.871766 
L 285.925268 270.194641 
L 286.024013 270.194641 
L 286.209972 269.580352 
L 286.313025 269.580352 
L 286.553568 268.849614 
L 286.623608 268.849614 
L 286.797456 268.021443 
L 286.918068 268.021443 
L 287.111947 267.270141 
L 287.210959 267.270141 
L 287.451501 266.397799 
L 287.499275 266.397799 
L 287.735273 265.424628 
L 287.794816 265.424628 
L 288.031628 264.541873 
L 288.105443 264.541873 
L 288.290172 263.741017 
L 288.399148 263.741017 
L 288.597127 262.613358 
L 288.689122 262.613358 
L 288.887665 261.590412 
L 288.985611 261.590412 
L 289.170163 260.662382 
L 289.279286 260.662382 
L 289.515402 259.507806 
L 289.584613 259.507806 
L 289.757899 258.460414 
L 289.876334 258.460414 
L 290.071116 257.651482 
L 290.165124 257.651482 
L 290.409486 257.052153 
L 290.46105 257.052153 
L 290.65179 256.508467 
L 290.757953 256.508467 
L 290.947139 256.156777 
L 291.17831 256.06239 
L 291.420644 255.886854 
L 291.657929 255.805308 
L 291.768711 255.727645 
L 292.005197 256.101707 
L 292.068294 256.101707 
L 292.234903 256.237264 
L 292.476792 256.435923 
L 292.653424 256.507894 
L 292.78847 256.970165 
L 292.839234 256.970165 
L 293.033676 257.647732 
L 293.131104 257.647732 
L 293.333081 258.092 
L 293.425001 258.092 
L 293.954763 259.387252 
L 294.024181 259.387252 
L 294.211502 259.829402 
L 294.322757 259.829402 
L 294.676021 260.672708 
L 294.726592 260.672708 
L 294.967076 261.120683 
L 295.034258 261.120683 
L 295.262691 261.414478 
L 295.330643 261.414478 
L 295.570342 261.869513 
L 295.622542 261.869513 
L 295.740992 262.034371 
L 295.800299 262.034371 
L 295.989958 262.276009 
L 296.212928 262.363556 
L 296.444928 262.669178 
L 296.680659 262.779892 
L 296.916701 262.94219 
L 297.103622 263.001011 
L 297.216328 263.150822 
L 297.286087 263.150822 
L 297.465783 263.37044 
L 297.695592 263.450045 
L 297.940191 263.566672 
L 298.159637 263.608901 
L 298.398655 263.808001 
L 298.58331 263.880104 
L 298.819944 263.985832 
L 299.166413 264.092133 
L 299.540684 264.227867 
L 300.132965 264.314664 
L 300.867723 264.408742 
L 302.253344 264.452957 
L 304.389476 264.356143 
L 304.878511 264.272965 
L 305.275403 264.206907 
L 305.570071 264.1183 
L 306.109959 263.909051 
L 306.275369 263.821901 
L 306.653474 263.584587 
L 306.876591 263.512881 
L 308.055543 262.322342 
L 308.295034 261.914876 
L 308.361269 261.914876 
L 308.600583 261.545226 
L 308.657594 261.545226 
L 308.763343 261.373441 
L 308.864827 261.373441 
L 309.023782 260.745076 
L 309.132787 260.745076 
L 309.61251 259.657837 
L 309.720212 259.657837 
L 309.907207 258.82874 
L 310.004028 258.82874 
L 310.241758 258.076555 
L 310.322072 258.076555 
L 310.486638 257.394223 
L 310.608138 257.394223 
L 310.804933 256.34586 
L 310.904138 256.34586 
L 311.092791 255.394841 
L 311.189641 255.394841 
L 311.431738 254.532075 
L 311.485167 254.532075 
L 311.720884 253.245163 
L 311.796134 253.245163 
L 311.982167 252.077746 
L 312.086213 252.077746 
L 312.326281 250.718686 
L 312.388608 250.718686 
L 312.576239 249.200108 
L 312.67192 249.200108 
L 312.906733 247.822516 
L 312.965818 247.822516 
L 313.201978 246.235012 
L 313.275201 246.235012 
L 313.450515 244.473164 
L 313.578396 244.473164 
L 313.752777 242.874893 
L 313.868281 242.874893 
L 314.059836 240.707917 
L 314.155724 240.707917 
L 314.348389 238.742071 
L 314.453812 238.742071 
L 314.681859 236.958777 
L 314.754164 236.958777 
L 314.933209 234.667673 
L 315.044701 234.667673 
L 315.241023 232.589303 
L 315.345586 232.589303 
L 315.577483 230.414693 
L 315.63032 230.414693 
L 315.840824 228.166612 
L 315.927786 228.166612 
L 316.161651 226.127207 
L 316.233541 226.127207 
L 316.411905 223.817437 
L 316.526062 223.817437 
L 316.717676 221.722122 
L 316.818539 221.722122 
L 317.052197 219.623984 
L 317.116019 219.623984 
L 317.308299 217.532686 
L 317.412241 217.532686 
L 317.642317 215.483705 
L 317.714651 215.483705 
L 317.901735 213.480306 
L 318.004833 213.480306 
L 318.210155 211.662947 
L 318.297531 211.662947 
L 318.487428 209.785619 
L 318.592539 209.785619 
L 318.789527 208.082547 
L 318.887784 208.082547 
L 319.076067 206.33526 
L 319.19465 206.33526 
L 319.368706 204.750184 
L 319.488874 204.750184 
L 319.671886 203.229223 
L 319.777871 203.229223 
L 319.961861 201.770305 
L 320.073205 201.770305 
L 320.28322 200.374179 
L 320.389368 200.374179 
L 320.587644 199.038419 
L 320.679772 199.038419 
L 320.884295 197.756404 
L 320.984536 197.756404 
L 321.213353 196.526371 
L 321.268663 196.526371 
L 321.479123 195.410583 
L 321.564352 195.410583 
L 321.794768 194.272113 
L 321.856902 194.272113 
L 322.046754 193.239326 
L 322.148002 193.239326 
L 322.363569 192.154647 
L 322.461412 192.154647 
L 322.689045 191.170709 
L 322.746012 191.170709 
L 322.930831 190.123493 
L 323.036519 190.123493 
L 323.217252 189.173489 
L 323.327708 189.173489 
L 323.52135 188.150145 
L 323.626121 188.150145 
L 323.814122 187.221851 
L 323.925082 187.221851 
L 324.106984 186.19939 
L 324.254347 186.19939 
L 324.755832 184.226793 
L 324.818722 184.226793 
L 324.997145 183.27873 
L 325.105676 183.27873 
L 325.295439 182.174899 
L 325.400565 182.174899 
L 325.585058 181.173575 
L 325.711399 181.173575 
L 325.91348 180.005408 
L 326.006289 180.005408 
L 326.197932 178.94566 
L 326.298366 178.94566 
L 326.4767 177.695153 
L 326.583647 177.695153 
L 326.77649 176.560787 
L 326.882326 176.560787 
L 327.071586 175.221275 
L 327.17806 175.221275 
L 327.365232 174.006113 
L 327.475836 174.006113 
L 327.660906 172.567052 
L 327.770237 172.567052 
L 328.004606 171.076892 
L 328.062862 171.076892 
L 328.255245 169.54918 
L 328.36089 169.54918 
L 328.597524 167.961985 
L 328.662589 167.961985 
L 328.84498 166.330399 
L 328.983535 166.330399 
L 329.202981 164.635182 
L 329.259015 164.635182 
L 329.494643 162.892529 
L 329.549449 162.892529 
L 329.784602 161.08448 
L 329.869994 161.08448 
L 330.092475 159.227935 
L 330.146097 159.227935 
L 330.323795 157.089818 
L 330.432874 157.089818 
L 330.61596 155.150227 
L 330.730576 155.150227 
L 330.919644 152.934315 
L 331.026813 152.934315 
L 331.261685 150.688793 
L 331.31926 150.688793 
L 331.510503 148.427607 
L 331.617998 148.427607 
L 331.858378 146.140032 
L 331.919505 146.140032 
L 332.101763 143.839705 
L 332.210131 143.839705 
L 332.394254 141.286267 
L 332.505628 141.286267 
L 332.740352 138.729829 
L 332.799644 138.729829 
L 332.988474 136.182127 
L 333.102942 136.182127 
L 333.283941 133.801799 
L 333.39721 133.801799 
L 333.58647 131.576664 
L 333.719651 131.576664 
L 333.984768 130.0268 
L 334.023674 130.0268 
L 334.236237 128.865296 
L 334.291457 128.865296 
L 334.472841 128.044362 
L 334.604689 128.044362 
L 334.826223 127.785647 
L 334.88094 127.785647 
L 334.995378 127.665446 
L 335.232012 128.672727 
L 335.293347 128.672727 
L 335.470379 129.037699 
L 335.590591 129.33326 
L 335.822694 131.638706 
L 335.881231 131.638706 
L 336.29922 135.609142 
L 336.359074 135.609142 
L 336.594094 138.74342 
L 336.655577 138.74342 
L 336.841743 141.672023 
L 336.950348 141.672023 
L 337.138276 145.587786 
L 337.251026 145.587786 
L 337.432588 148.155654 
L 337.539165 148.155654 
L 337.731711 151.881539 
L 337.839014 151.881539 
L 338.075382 155.480869 
L 338.142934 155.480869 
L 338.332431 158.777313 
L 338.441332 158.777313 
L 338.685872 162.124856 
L 338.728864 162.124856 
L 338.921233 165.280359 
L 339.02633 165.280359 
L 339.221393 169.554122 
L 339.317163 169.554122 
L 339.51495 172.356788 
L 339.617175 172.356788 
L 339.809617 176.462649 
L 339.915114 176.462649 
L 340.102671 179.155174 
L 340.208271 179.155174 
L 340.403186 183.257372 
L 340.511496 183.257372 
L 340.692302 185.947515 
L 340.801307 185.947515 
L 340.945858 188.23584 
L 341.235951 191.589604 
L 341.287248 191.589604 
L 341.537206 193.788925 
L 341.602967 193.788925 
L 341.812687 197.637703 
L 341.865169 197.637703 
L 342.091839 200.161621 
L 342.157971 200.161621 
L 342.412133 204.218059 
L 342.78975 210.154783 
L 342.888851 210.154783 
L 343.128446 213.084092 
L 343.18414 213.084092 
L 343.380328 217.134133 
L 343.474499 217.134133 
L 343.711356 219.790077 
L 343.769196 219.790077 
L 344.005194 222.602142 
L 344.064619 222.602142 
L 344.257195 225.31298 
L 344.362884 225.31298 
L 344.55164 227.090714 
L 344.657181 227.090714 
L 344.839587 230.009874 
L 344.944358 230.009874 
L 345.141405 231.924181 
L 345.244518 231.924181 
L 345.504054 234.019054 
L 345.553975 234.019054 
L 345.733582 236.072668 
L 345.834756 236.072668 
L 346.016554 237.419416 
L 346.126714 237.419416 
L 346.245608 238.618163 
L 346.508994 240.374981 
L 346.554458 240.374981 
L 346.77805 241.527086 
L 346.836705 241.527086 
L 346.990449 242.53397 
L 347.05051 242.53397 
L 347.223115 244.009612 
L 347.318619 244.009612 
L 347.432717 244.544296 
L 348.150746 247.221642 
L 348.203509 247.221642 
L 348.32304 247.629505 
L 349.278874 250.360377 
L 349.408916 250.360377 
L 349.63076 251.1288 
L 349.688365 251.1288 
L 349.9022 251.632727 
L 349.987947 251.632727 
L 350.200361 251.963193 
L 350.283784 251.963193 
L 350.468691 252.606075 
L 350.584729 252.606075 
L 350.762915 253.027662 
L 350.873282 253.027662 
L 351.110834 253.516013 
L 351.170466 253.516013 
L 351.361295 254.007893 
L 351.467606 254.007893 
L 351.64782 254.330416 
L 351.760437 254.330416 
L 352.109023 254.933143 
L 352.169602 254.933143 
L 352.40674 255.251738 
L 352.471568 255.251738 
L 352.640946 255.367173 
L 353.29431 256.23572 
L 353.352077 256.23572 
L 353.586046 256.437026 
L 353.647189 256.437026 
L 353.824042 256.672222 
L 354.061431 257.016896 
L 354.143951 257.016896 
L 354.361177 257.392547 
L 354.421875 257.392547 
L 354.600653 257.638862 
L 354.860264 257.728131 
L 355.083722 258.035694 
L 355.136441 258.035694 
L 355.363245 258.237397 
L 355.61529 258.310471 
L 356.136584 258.704611 
L 356.313141 258.776758 
L 356.550782 258.882486 
L 356.790155 258.985081 
L 356.977801 259.135421 
L 357.378957 259.234 
L 358.203431 259.617814 
L 358.383393 259.653204 
L 358.562024 259.745076 
L 359.064368 259.968092 
L 359.277478 260.000128 
L 359.509063 260.152851 
L 359.911004 260.253018 
L 360.881731 260.519103 
L 362.236766 260.628669 
L 367.100407 260.876794 
L 372.338823 260.766565 
L 373.011181 260.690667 
L 373.95865 260.585293 
L 375.927418 260.239736 
L 376.447334 260.135112 
L 376.905014 260.044652 
L 377.072393 259.986802 
L 377.337066 259.879177 
L 377.712625 259.736162 
L 377.933626 259.629949 
L 378.164797 259.432393 
L 378.405265 259.34061 
L 378.637636 259.169928 
L 378.723205 259.169928 
L 378.942563 258.840257 
L 378.997161 258.840257 
L 379.226038 258.541166 
L 379.316537 258.541166 
L 379.826328 257.790658 
L 379.880616 257.790658 
L 380.12517 257.355921 
L 380.187038 257.355921 
L 380.413931 256.961561 
L 380.471357 256.961561 
L 380.67859 256.311177 
L 380.781703 256.311177 
L 380.967469 255.721202 
L 381.067325 255.721202 
L 381.26073 255.185945 
L 381.366197 255.185945 
L 381.547906 254.366423 
L 381.658762 254.366423 
L 381.848555 253.62302 
L 381.95488 253.62302 
L 382.141727 252.948587 
L 382.248837 252.948587 
L 382.54349 251.968576 
L 382.596697 251.968576 
L 383.080905 250.05449 
L 383.144283 250.05449 
L 383.323802 248.916373 
L 383.436034 248.916373 
L 383.622422 247.88394 
L 383.734003 247.88394 
L 383.969867 246.70911 
L 384.027664 246.70911 
L 384.17066 246.047076 
L 384.524974 244.243881 
L 384.629109 244.243881 
L 384.837066 242.643404 
L 384.930556 242.643404 
L 385.168182 241.191546 
L 385.223788 241.191546 
L 385.415949 239.874451 
L 385.514902 239.874451 
L 385.726428 238.153906 
L 385.819977 238.153906 
L 385.995987 236.593143 
L 386.100921 236.593143 
L 386.335586 234.924314 
L 386.394967 234.924314 
L 386.587572 233.16957 
L 386.692092 233.16957 
L 386.882417 231.577742 
L 386.990756 231.577742 
L 387.170749 229.635415 
L 387.282892 229.635415 
L 387.473144 227.87339 
L 387.58545 227.87339 
L 387.815112 226.013007 
L 387.877468 226.013007 
L 387.995444 225.020817 
L 388.297218 223.175746 
L 388.366325 223.175746 
L 388.714718 220.227815 
L 388.772396 220.227815 
L 388.969695 218.331291 
L 389.065509 218.331291 
L 389.27055 216.361121 
L 389.367549 216.361121 
L 389.474585 215.323966 
L 389.893639 212.249038 
L 389.951362 212.249038 
L 390.130792 210.117584 
L 390.246547 210.117584 
L 390.427428 208.18395 
L 390.539231 208.18395 
L 390.726374 205.958771 
L 390.835112 205.958771 
L 391.016778 203.940193 
L 391.137523 203.940193 
L 391.354807 201.653899 
L 391.469645 201.653899 
L 391.785069 198.616214 
L 391.842495 198.616214 
L 392.211125 195.330272 
L 392.316666 195.330272 
L 392.539695 193.166738 
L 392.628833 193.166738 
L 392.851314 190.989613 
L 392.915742 190.989613 
L 393.147373 188.789851 
L 393.222816 188.789851 
L 393.410966 186.580248 
L 393.507461 186.580248 
L 393.740246 184.367248 
L 393.804482 184.367248 
L 393.98976 182.161088 
L 394.100497 182.161088 
L 394.297973 179.96287 
L 394.397785 179.96287 
L 394.513526 178.845449 
L 394.93221 175.601604 
L 394.990717 175.601604 
L 395.168829 173.433392 
L 395.277819 173.433392 
L 395.493268 171.272197 
L 395.585411 171.272197 
L 395.759748 169.126578 
L 395.873861 169.126578 
L 396.08093 166.817426 
L 396.173932 166.817426 
L 396.361785 164.722597 
L 396.461123 164.722597 
L 396.580995 163.56299 
L 396.979811 160.404619 
L 397.065218 160.404619 
L 397.25923 158.174012 
L 397.356703 158.174012 
L 397.59008 155.967984 
L 397.644323 155.967984 
L 397.833405 153.792933 
L 397.942692 153.792933 
L 398.176394 151.643828 
L 398.240586 151.643828 
L 398.355883 150.559414 
L 398.487273 149.526583 
L 398.487273 149.526583 
" clip-path="url(#p3e81365d6f)" style="fill: none; stroke: #ff7f0e; stroke-width: 1.5; stroke-linecap: square"/>
   </g>
   <g id="patch_3">
    <path d="M 57.6 307.584 
L 57.6 41.472 
" style="fill: none; stroke: #000000; stroke-width: 0.8; stroke-linejoin: miter; stroke-linecap: square"/>
   </g>
   <g id="patch_4">
    <path d="M 414.72 307.584 
L 414.72 41.472 
" style="fill: none; stroke: #000000; stroke-width: 0.8; stroke-linejoin: miter; stroke-linecap: square"/>
   </g>
   <g id="patch_5">
    <path d="M 57.6 307.584 
L 414.72 307.584 
" style="fill: none; stroke: #000000; stroke-width: 0.8; stroke-linejoin: miter; stroke-linecap: square"/>
   </g>
   <g id="patch_6">
    <path d="M 57.6 41.472 
L 414.72 41.472 
" style="fill: none; stroke: #000000; stroke-width: 0.8; stroke-linejoin: miter; stroke-linecap: square"/>
   </g>
   <g id="legend_1">
    <g id="patch_7">
     <path d="M 307.080938 302.584 
L 407.72 302.584 
Q 409.72 302.584 409.72 300.584 
L 409.72 272.22775 
Q 409.72 270.22775 407.72 270.22775 
L 307.080938 270.22775 
Q 305.080938 270.22775 305.080938 272.22775 
L 305.080938 300.584 
Q 305.080938 302.584 307.080938 302.584 
z
" style="fill: #ffffff; opacity: 0.8; stroke: #cccccc; stroke-linejoin: miter"/>
    </g>
    <g id="line2d_14">
     <path d="M 309.080938 278.326187 
L 319.080938 278.326187 
L 329.080938 278.326187 
" style="fill: none; stroke: #1f77b4; stroke-width: 1.5; stroke-linecap: square"/>
    </g>
    <g id="text_12">
     <!-- Speed Profile -->
     <g transform="translate(337.080938 281.826187) scale(0.1 -0.1)">
      <defs>
       <path id="DejaVuSans-53" d="M 3425 4513 
L 3425 3897 
Q 3066 4069 2747 4153 
Q 2428 4238 2131 4238 
Q 1616 4238 1336 4038 
Q 1056 3838 1056 3469 
Q 1056 3159 1242 3001 
Q 1428 2844 1947 2747 
L 2328 2669 
Q 3034 2534 3370 2195 
Q 3706 1856 3706 1288 
Q 3706 609 3251 259 
Q 2797 -91 1919 -91 
Q 1588 -91 1214 -16 
Q 841 59 441 206 
L 441 856 
Q 825 641 1194 531 
Q 1563 422 1919 422 
Q 2459 422 2753 634 
Q 3047 847 3047 1241 
Q 3047 1584 2836 1778 
Q 2625 1972 2144 2069 
L 1759 2144 
Q 1053 2284 737 2584 
Q 422 2884 422 3419 
Q 422 4038 858 4394 
Q 1294 4750 2059 4750 
Q 2388 4750 2728 4690 
Q 3069 4631 3425 4513 
z
" transform="scale(0.015625)"/>
       <path id="DejaVuSans-70" d="M 1159 525 
L 1159 -1331 
L 581 -1331 
L 581 3500 
L 1159 3500 
L 1159 2969 
Q 1341 3281 1617 3432 
Q 1894 3584 2278 3584 
Q 2916 3584 3314 3078 
Q 3713 2572 3713 1747 
Q 3713 922 3314 415 
Q 2916 -91 2278 -91 
Q 1894 -91 1617 61 
Q 1341 213 1159 525 
z
M 3116 1747 
Q 3116 2381 2855 2742 
Q 2594 3103 2138 3103 
Q 1681 3103 1420 2742 
Q 1159 2381 1159 1747 
Q 1159 1113 1420 752 
Q 1681 391 2138 391 
Q 2594 391 2855 752 
Q 3116 1113 3116 1747 
z
" transform="scale(0.015625)"/>
       <path id="DejaVuSans-65" d="M 3597 1894 
L 3597 1613 
L 953 1613 
Q 991 1019 1311 708 
Q 1631 397 2203 397 
Q 2534 397 2845 478 
Q 3156 559 3463 722 
L 3463 178 
Q 3153 47 2828 -22 
Q 2503 -91 2169 -91 
Q 1331 -91 842 396 
Q 353 884 353 1716 
Q 353 2575 817 3079 
Q 1281 3584 2069 3584 
Q 2775 3584 3186 3129 
Q 3597 2675 3597 1894 
z
M 3022 2063 
Q 3016 2534 2758 2815 
Q 2500 3097 2075 3097 
Q 1594 3097 1305 2825 
Q 1016 2553 972 2059 
L 3022 2063 
z
" transform="scale(0.015625)"/>
       <path id="DejaVuSans-64" d="M 2906 2969 
L 2906 4863 
L 3481 4863 
L 3481 0 
L 2906 0 
L 2906 525 
Q 2725 213 2448 61 
Q 2172 -91 1784 -91 
Q 1150 -91 751 415 
Q 353 922 353 1747 
Q 353 2572 751 3078 
Q 1150 3584 1784 3584 
Q 2172 3584 2448 3432 
Q 2725 3281 2906 2969 
z
M 947 1747 
Q 947 1113 1208 752 
Q 1469 391 1925 391 
Q 2381 391 2643 752 
Q 2906 1113 2906 1747 
Q 2906 2381 2643 2742 
Q 2381 3103 1925 3103 
Q 1469 3103 1208 2742 
Q 947 2381 947 1747 
z
" transform="scale(0.015625)"/>
       <path id="DejaVuSans-20" transform="scale(0.015625)"/>
       <path id="DejaVuSans-50" d="M 1259 4147 
L 1259 2394 
L 2053 2394 
Q 2494 2394 2734 2622 
Q 2975 2850 2975 3272 
Q 2975 3691 2734 3919 
Q 2494 4147 2053 4147 
L 1259 4147 
z
M 628 4666 
L 2053 4666 
Q 2838 4666 3239 4311 
Q 3641 3956 3641 3272 
Q 3641 2581 3239 2228 
Q 2838 1875 2053 1875 
L 1259 1875 
L 1259 0 
L 628 0 
L 628 4666 
z
" transform="scale(0.015625)"/>
       <path id="DejaVuSans-72" d="M 2631 2963 
Q 2534 3019 2420 3045 
Q 2306 3072 2169 3072 
Q 1681 3072 1420 2755 
Q 1159 2438 1159 1844 
L 1159 0 
L 581 0 
L 581 3500 
L 1159 3500 
L 1159 2956 
Q 1341 3275 1631 3429 
Q 1922 3584 2338 3584 
Q 2397 3584 2469 3576 
Q 2541 3569 2628 3553 
L 2631 2963 
z
" transform="scale(0.015625)"/>
       <path id="DejaVuSans-6f" d="M 1959 3097 
Q 1497 3097 1228 2736 
Q 959 2375 959 1747 
Q 959 1119 1226 758 
Q 1494 397 1959 397 
Q 2419 397 2687 759 
Q 2956 1122 2956 1747 
Q 2956 2369 2687 2733 
Q 2419 3097 1959 3097 
z
M 1959 3584 
Q 2709 3584 3137 3096 
Q 3566 2609 3566 1747 
Q 3566 888 3137 398 
Q 2709 -91 1959 -91 
Q 1206 -91 779 398 
Q 353 888 353 1747 
Q 353 2609 779 3096 
Q 1206 3584 1959 3584 
z
" transform="scale(0.015625)"/>
       <path id="DejaVuSans-66" d="M 2375 4863 
L 2375 4384 
L 1825 4384 
Q 1516 4384 1395 4259 
Q 1275 4134 1275 3809 
L 1275 3500 
L 2222 3500 
L 2222 3053 
L 1275 3053 
L 1275 0 
L 697 0 
L 697 3053 
L 147 3053 
L 147 3500 
L 697 3500 
L 697 3744 
Q 697 4328 969 4595 
Q 1241 4863 1831 4863 
L 2375 4863 
z
" transform="scale(0.015625)"/>
       <path id="DejaVuSans-69" d="M 603 3500 
L 1178 3500 
L 1178 0 
L 603 0 
L 603 3500 
z
M 603 4863 
L 1178 4863 
L 1178 4134 
L 603 4134 
L 603 4863 
z
" transform="scale(0.015625)"/>
       <path id="DejaVuSans-6c" d="M 603 4863 
L 1178 4863 
L 1178 0 
L 603 0 
L 603 4863 
z
" transform="scale(0.015625)"/>
      </defs>
      <use xlink:href="#DejaVuSans-53"/>
      <use xlink:href="#DejaVuSans-70" x="63.476562"/>
      <use xlink:href="#DejaVuSans-65" x="126.953125"/>
      <use xlink:href="#DejaVuSans-65" x="188.476562"/>
      <use xlink:href="#DejaVuSans-64" x="250"/>
      <use xlink:href="#DejaVuSans-20" x="313.476562"/>
      <use xlink:href="#DejaVuSans-50" x="345.263672"/>
      <use xlink:href="#DejaVuSans-72" x="403.816406"/>
      <use xlink:href="#DejaVuSans-6f" x="442.679688"/>
      <use xlink:href="#DejaVuSans-66" x="503.861328"/>
      <use xlink:href="#DejaVuSans-69" x="539.066406"/>
      <use xlink:href="#DejaVuSans-6c" x="566.849609"/>
      <use xlink:href="#DejaVuSans-65" x="594.632812"/>
     </g>
    </g>
    <g id="line2d_15">
     <path d="M 309.080938 293.004312 
L 319.080938 293.004312 
L 329.080938 293.004312 
" style="fill: none; stroke: #ff7f0e; stroke-width: 1.5; stroke-linecap: square"/>
    </g>
    <g id="text_13">
     <!-- Acttual speed -->
     <g transform="translate(337.080938 296.504312) scale(0.1 -0.1)">
      <defs>
       <path id="DejaVuSans-41" d="M 2188 4044 
L 1331 1722 
L 3047 1722 
L 2188 4044 
z
M 1831 4666 
L 2547 4666 
L 4325 0 
L 3669 0 
L 3244 1197 
L 1141 1197 
L 716 0 
L 50 0 
L 1831 4666 
z
" transform="scale(0.015625)"/>
       <path id="DejaVuSans-63" d="M 3122 3366 
L 3122 2828 
Q 2878 2963 2633 3030 
Q 2388 3097 2138 3097 
Q 1578 3097 1268 2742 
Q 959 2388 959 1747 
Q 959 1106 1268 751 
Q 1578 397 2138 397 
Q 2388 397 2633 464 
Q 2878 531 3122 666 
L 3122 134 
Q 2881 22 2623 -34 
Q 2366 -91 2075 -91 
Q 1284 -91 818 406 
Q 353 903 353 1747 
Q 353 2603 823 3093 
Q 1294 3584 2113 3584 
Q 2378 3584 2631 3529 
Q 2884 3475 3122 3366 
z
" transform="scale(0.015625)"/>
       <path id="DejaVuSans-74" d="M 1172 4494 
L 1172 3500 
L 2356 3500 
L 2356 3053 
L 1172 3053 
L 1172 1153 
Q 1172 725 1289 603 
Q 1406 481 1766 481 
L 2356 481 
L 2356 0 
L 1766 0 
Q 1100 0 847 248 
Q 594 497 594 1153 
L 594 3053 
L 172 3053 
L 172 3500 
L 594 3500 
L 594 4494 
L 1172 4494 
z
" transform="scale(0.015625)"/>
       <path id="DejaVuSans-75" d="M 544 1381 
L 544 3500 
L 1119 3500 
L 1119 1403 
Q 1119 906 1312 657 
Q 1506 409 1894 409 
Q 2359 409 2629 706 
Q 2900 1003 2900 1516 
L 2900 3500 
L 3475 3500 
L 3475 0 
L 2900 0 
L 2900 538 
Q 2691 219 2414 64 
Q 2138 -91 1772 -91 
Q 1169 -91 856 284 
Q 544 659 544 1381 
z
M 1991 3584 
L 1991 3584 
z
" transform="scale(0.015625)"/>
       <path id="DejaVuSans-61" d="M 2194 1759 
Q 1497 1759 1228 1600 
Q 959 1441 959 1056 
Q 959 750 1161 570 
Q 1363 391 1709 391 
Q 2188 391 2477 730 
Q 2766 1069 2766 1631 
L 2766 1759 
L 2194 1759 
z
M 3341 1997 
L 3341 0 
L 2766 0 
L 2766 531 
Q 2569 213 2275 61 
Q 1981 -91 1556 -91 
Q 1019 -91 701 211 
Q 384 513 384 1019 
Q 384 1609 779 1909 
Q 1175 2209 1959 2209 
L 2766 2209 
L 2766 2266 
Q 2766 2663 2505 2880 
Q 2244 3097 1772 3097 
Q 1472 3097 1187 3025 
Q 903 2953 641 2809 
L 641 3341 
Q 956 3463 1253 3523 
Q 1550 3584 1831 3584 
Q 2591 3584 2966 3190 
Q 3341 2797 3341 1997 
z
" transform="scale(0.015625)"/>
       <path id="DejaVuSans-73" d="M 2834 3397 
L 2834 2853 
Q 2591 2978 2328 3040 
Q 2066 3103 1784 3103 
Q 1356 3103 1142 2972 
Q 928 2841 928 2578 
Q 928 2378 1081 2264 
Q 1234 2150 1697 2047 
L 1894 2003 
Q 2506 1872 2764 1633 
Q 3022 1394 3022 966 
Q 3022 478 2636 193 
Q 2250 -91 1575 -91 
Q 1294 -91 989 -36 
Q 684 19 347 128 
L 347 722 
Q 666 556 975 473 
Q 1284 391 1588 391 
Q 1994 391 2212 530 
Q 2431 669 2431 922 
Q 2431 1156 2273 1281 
Q 2116 1406 1581 1522 
L 1381 1569 
Q 847 1681 609 1914 
Q 372 2147 372 2553 
Q 372 3047 722 3315 
Q 1072 3584 1716 3584 
Q 2034 3584 2315 3537 
Q 2597 3491 2834 3397 
z
" transform="scale(0.015625)"/>
      </defs>
      <use xlink:href="#DejaVuSans-41"/>
      <use xlink:href="#DejaVuSans-63" x="66.658203"/>
      <use xlink:href="#DejaVuSans-74" x="121.638672"/>
      <use xlink:href="#DejaVuSans-74" x="160.847656"/>
      <use xlink:href="#DejaVuSans-75" x="200.056641"/>
      <use xlink:href="#DejaVuSans-61" x="263.435547"/>
      <use xlink:href="#DejaVuSans-6c" x="324.714844"/>
      <use xlink:href="#DejaVuSans-20" x="352.498047"/>
      <use xlink:href="#DejaVuSans-73" x="384.285156"/>
      <use xlink:href="#DejaVuSans-70" x="436.384766"/>
      <use xlink:href="#DejaVuSans-65" x="499.861328"/>
      <use xlink:href="#DejaVuSans-65" x="561.384766"/>
      <use xlink:href="#DejaVuSans-64" x="622.908203"/>
     </g>
    </g>
   </g>
  </g>
 </g>
 <defs>
  <clipPath id="p3e81365d6f">
   <rect x="57.6" y="41.472" width="357.12" height="266.112"/>
  </clipPath>
 </defs>
</svg>
