<?xml version="1.0" encoding="utf-8" standalone="no"?>
<!DOCTYPE svg PUBLIC "-//W3C//DTD SVG 1.1//EN"
  "http://www.w3.org/Graphics/SVG/1.1/DTD/svg11.dtd">
<svg xmlns:xlink="http://www.w3.org/1999/xlink" width="460.8pt" height="345.6pt" viewBox="0 0 460.8 345.6" xmlns="http://www.w3.org/2000/svg" version="1.1">
 <metadata>
  <rdf:RDF xmlns:dc="http://purl.org/dc/elements/1.1/" xmlns:cc="http://creativecommons.org/ns#" xmlns:rdf="http://www.w3.org/1999/02/22-rdf-syntax-ns#">
   <cc:Work>
    <dc:type rdf:resource="http://purl.org/dc/dcmitype/StillImage"/>
    <dc:date>2023-06-05T13:56:09.402616</dc:date>
    <dc:format>image/svg+xml</dc:format>
    <dc:creator>
     <cc:Agent>
      <dc:title>Matplotlib v3.7.1, https://matplotlib.org/</dc:title>
     </cc:Agent>
    </dc:creator>
   </cc:Work>
  </rdf:RDF>
 </metadata>
 <defs>
  <style type="text/css">*{stroke-linejoin: round; stroke-linecap: butt}</style>
 </defs>
 <g id="figure_1">
  <g id="patch_1">
   <path d="M 0 345.6 
L 460.8 345.6 
L 460.8 0 
L 0 0 
z
" style="fill: #ffffff"/>
  </g>
  <g id="axes_1">
   <g id="patch_2">
    <path d="M 57.6 307.584 
L 414.72 307.584 
L 414.72 41.472 
L 57.6 41.472 
z
" style="fill: #ffffff"/>
   </g>
   <g id="matplotlib.axis_1">
    <g id="xtick_1">
     <g id="line2d_1">
      <defs>
       <path id="mc11f09e01e" d="M 0 0 
L 0 3.5 
" style="stroke: #000000; stroke-width: 0.8"/>
      </defs>
      <g>
       <use xlink:href="#mc11f09e01e" x="73.815665" y="307.584" style="stroke: #000000; stroke-width: 0.8"/>
      </g>
     </g>
     <g id="text_1">
      <!-- 0 -->
      <g transform="translate(70.634415 322.182437) scale(0.1 -0.1)">
       <defs>
        <path id="DejaVuSans-30" d="M 2034 4250 
Q 1547 4250 1301 3770 
Q 1056 3291 1056 2328 
Q 1056 1369 1301 889 
Q 1547 409 2034 409 
Q 2525 409 2770 889 
Q 3016 1369 3016 2328 
Q 3016 3291 2770 3770 
Q 2525 4250 2034 4250 
z
M 2034 4750 
Q 2819 4750 3233 4129 
Q 3647 3509 3647 2328 
Q 3647 1150 3233 529 
Q 2819 -91 2034 -91 
Q 1250 -91 836 529 
Q 422 1150 422 2328 
Q 422 3509 836 4129 
Q 1250 4750 2034 4750 
z
" transform="scale(0.015625)"/>
       </defs>
       <use xlink:href="#DejaVuSans-30"/>
      </g>
     </g>
    </g>
    <g id="xtick_2">
     <g id="line2d_2">
      <g>
       <use xlink:href="#mc11f09e01e" x="147.804717" y="307.584" style="stroke: #000000; stroke-width: 0.8"/>
      </g>
     </g>
     <g id="text_2">
      <!-- 5 -->
      <g transform="translate(144.623467 322.182437) scale(0.1 -0.1)">
       <defs>
        <path id="DejaVuSans-35" d="M 691 4666 
L 3169 4666 
L 3169 4134 
L 1269 4134 
L 1269 2991 
Q 1406 3038 1543 3061 
Q 1681 3084 1819 3084 
Q 2600 3084 3056 2656 
Q 3513 2228 3513 1497 
Q 3513 744 3044 326 
Q 2575 -91 1722 -91 
Q 1428 -91 1123 -41 
Q 819 9 494 109 
L 494 744 
Q 775 591 1075 516 
Q 1375 441 1709 441 
Q 2250 441 2565 725 
Q 2881 1009 2881 1497 
Q 2881 1984 2565 2268 
Q 2250 2553 1709 2553 
Q 1456 2553 1204 2497 
Q 953 2441 691 2322 
L 691 4666 
z
" transform="scale(0.015625)"/>
       </defs>
       <use xlink:href="#DejaVuSans-35"/>
      </g>
     </g>
    </g>
    <g id="xtick_3">
     <g id="line2d_3">
      <g>
       <use xlink:href="#mc11f09e01e" x="221.793768" y="307.584" style="stroke: #000000; stroke-width: 0.8"/>
      </g>
     </g>
     <g id="text_3">
      <!-- 10 -->
      <g transform="translate(215.431268 322.182437) scale(0.1 -0.1)">
       <defs>
        <path id="DejaVuSans-31" d="M 794 531 
L 1825 531 
L 1825 4091 
L 703 3866 
L 703 4441 
L 1819 4666 
L 2450 4666 
L 2450 531 
L 3481 531 
L 3481 0 
L 794 0 
L 794 531 
z
" transform="scale(0.015625)"/>
       </defs>
       <use xlink:href="#DejaVuSans-31"/>
       <use xlink:href="#DejaVuSans-30" x="63.623047"/>
      </g>
     </g>
    </g>
    <g id="xtick_4">
     <g id="line2d_4">
      <g>
       <use xlink:href="#mc11f09e01e" x="295.782819" y="307.584" style="stroke: #000000; stroke-width: 0.8"/>
      </g>
     </g>
     <g id="text_4">
      <!-- 15 -->
      <g transform="translate(289.420319 322.182437) scale(0.1 -0.1)">
       <use xlink:href="#DejaVuSans-31"/>
       <use xlink:href="#DejaVuSans-35" x="63.623047"/>
      </g>
     </g>
    </g>
    <g id="xtick_5">
     <g id="line2d_5">
      <g>
       <use xlink:href="#mc11f09e01e" x="369.77187" y="307.584" style="stroke: #000000; stroke-width: 0.8"/>
      </g>
     </g>
     <g id="text_5">
      <!-- 20 -->
      <g transform="translate(363.40937 322.182437) scale(0.1 -0.1)">
       <defs>
        <path id="DejaVuSans-32" d="M 1228 531 
L 3431 531 
L 3431 0 
L 469 0 
L 469 531 
Q 828 903 1448 1529 
Q 2069 2156 2228 2338 
Q 2531 2678 2651 2914 
Q 2772 3150 2772 3378 
Q 2772 3750 2511 3984 
Q 2250 4219 1831 4219 
Q 1534 4219 1204 4116 
Q 875 4013 500 3803 
L 500 4441 
Q 881 4594 1212 4672 
Q 1544 4750 1819 4750 
Q 2544 4750 2975 4387 
Q 3406 4025 3406 3419 
Q 3406 3131 3298 2873 
Q 3191 2616 2906 2266 
Q 2828 2175 2409 1742 
Q 1991 1309 1228 531 
z
" transform="scale(0.015625)"/>
       </defs>
       <use xlink:href="#DejaVuSans-32"/>
       <use xlink:href="#DejaVuSans-30" x="63.623047"/>
      </g>
     </g>
    </g>
   </g>
   <g id="matplotlib.axis_2">
    <g id="ytick_1">
     <g id="line2d_6">
      <defs>
       <path id="me3fbd13976" d="M 0 0 
L -3.5 0 
" style="stroke: #000000; stroke-width: 0.8"/>
      </defs>
      <g>
       <use xlink:href="#me3fbd13976" x="57.6" y="271.654622" style="stroke: #000000; stroke-width: 0.8"/>
      </g>
     </g>
     <g id="text_6">
      <!-- 3 -->
      <g transform="translate(44.2375 275.45384) scale(0.1 -0.1)">
       <defs>
        <path id="DejaVuSans-33" d="M 2597 2516 
Q 3050 2419 3304 2112 
Q 3559 1806 3559 1356 
Q 3559 666 3084 287 
Q 2609 -91 1734 -91 
Q 1441 -91 1130 -33 
Q 819 25 488 141 
L 488 750 
Q 750 597 1062 519 
Q 1375 441 1716 441 
Q 2309 441 2620 675 
Q 2931 909 2931 1356 
Q 2931 1769 2642 2001 
Q 2353 2234 1838 2234 
L 1294 2234 
L 1294 2753 
L 1863 2753 
Q 2328 2753 2575 2939 
Q 2822 3125 2822 3475 
Q 2822 3834 2567 4026 
Q 2313 4219 1838 4219 
Q 1578 4219 1281 4162 
Q 984 4106 628 3988 
L 628 4550 
Q 988 4650 1302 4700 
Q 1616 4750 1894 4750 
Q 2613 4750 3031 4423 
Q 3450 4097 3450 3541 
Q 3450 3153 3228 2886 
Q 3006 2619 2597 2516 
z
" transform="scale(0.015625)"/>
       </defs>
       <use xlink:href="#DejaVuSans-33"/>
      </g>
     </g>
    </g>
    <g id="ytick_2">
     <g id="line2d_7">
      <g>
       <use xlink:href="#me3fbd13976" x="57.6" y="228.037297" style="stroke: #000000; stroke-width: 0.8"/>
      </g>
     </g>
     <g id="text_7">
      <!-- 4 -->
      <g transform="translate(44.2375 231.836516) scale(0.1 -0.1)">
       <defs>
        <path id="DejaVuSans-34" d="M 2419 4116 
L 825 1625 
L 2419 1625 
L 2419 4116 
z
M 2253 4666 
L 3047 4666 
L 3047 1625 
L 3713 1625 
L 3713 1100 
L 3047 1100 
L 3047 0 
L 2419 0 
L 2419 1100 
L 313 1100 
L 313 1709 
L 2253 4666 
z
" transform="scale(0.015625)"/>
       </defs>
       <use xlink:href="#DejaVuSans-34"/>
      </g>
     </g>
    </g>
    <g id="ytick_3">
     <g id="line2d_8">
      <g>
       <use xlink:href="#me3fbd13976" x="57.6" y="184.419973" style="stroke: #000000; stroke-width: 0.8"/>
      </g>
     </g>
     <g id="text_8">
      <!-- 5 -->
      <g transform="translate(44.2375 188.219192) scale(0.1 -0.1)">
       <use xlink:href="#DejaVuSans-35"/>
      </g>
     </g>
    </g>
    <g id="ytick_4">
     <g id="line2d_9">
      <g>
       <use xlink:href="#me3fbd13976" x="57.6" y="140.802649" style="stroke: #000000; stroke-width: 0.8"/>
      </g>
     </g>
     <g id="text_9">
      <!-- 6 -->
      <g transform="translate(44.2375 144.601867) scale(0.1 -0.1)">
       <defs>
        <path id="DejaVuSans-36" d="M 2113 2584 
Q 1688 2584 1439 2293 
Q 1191 2003 1191 1497 
Q 1191 994 1439 701 
Q 1688 409 2113 409 
Q 2538 409 2786 701 
Q 3034 994 3034 1497 
Q 3034 2003 2786 2293 
Q 2538 2584 2113 2584 
z
M 3366 4563 
L 3366 3988 
Q 3128 4100 2886 4159 
Q 2644 4219 2406 4219 
Q 1781 4219 1451 3797 
Q 1122 3375 1075 2522 
Q 1259 2794 1537 2939 
Q 1816 3084 2150 3084 
Q 2853 3084 3261 2657 
Q 3669 2231 3669 1497 
Q 3669 778 3244 343 
Q 2819 -91 2113 -91 
Q 1303 -91 875 529 
Q 447 1150 447 2328 
Q 447 3434 972 4092 
Q 1497 4750 2381 4750 
Q 2619 4750 2861 4703 
Q 3103 4656 3366 4563 
z
" transform="scale(0.015625)"/>
       </defs>
       <use xlink:href="#DejaVuSans-36"/>
      </g>
     </g>
    </g>
    <g id="ytick_5">
     <g id="line2d_10">
      <g>
       <use xlink:href="#me3fbd13976" x="57.6" y="97.185324" style="stroke: #000000; stroke-width: 0.8"/>
      </g>
     </g>
     <g id="text_10">
      <!-- 7 -->
      <g transform="translate(44.2375 100.984543) scale(0.1 -0.1)">
       <defs>
        <path id="DejaVuSans-37" d="M 525 4666 
L 3525 4666 
L 3525 4397 
L 1831 0 
L 1172 0 
L 2766 4134 
L 525 4134 
L 525 4666 
z
" transform="scale(0.015625)"/>
       </defs>
       <use xlink:href="#DejaVuSans-37"/>
      </g>
     </g>
    </g>
    <g id="ytick_6">
     <g id="line2d_11">
      <g>
       <use xlink:href="#me3fbd13976" x="57.6" y="53.568" style="stroke: #000000; stroke-width: 0.8"/>
      </g>
     </g>
     <g id="text_11">
      <!-- 8 -->
      <g transform="translate(44.2375 57.367219) scale(0.1 -0.1)">
       <defs>
        <path id="DejaVuSans-38" d="M 2034 2216 
Q 1584 2216 1326 1975 
Q 1069 1734 1069 1313 
Q 1069 891 1326 650 
Q 1584 409 2034 409 
Q 2484 409 2743 651 
Q 3003 894 3003 1313 
Q 3003 1734 2745 1975 
Q 2488 2216 2034 2216 
z
M 1403 2484 
Q 997 2584 770 2862 
Q 544 3141 544 3541 
Q 544 4100 942 4425 
Q 1341 4750 2034 4750 
Q 2731 4750 3128 4425 
Q 3525 4100 3525 3541 
Q 3525 3141 3298 2862 
Q 3072 2584 2669 2484 
Q 3125 2378 3379 2068 
Q 3634 1759 3634 1313 
Q 3634 634 3220 271 
Q 2806 -91 2034 -91 
Q 1263 -91 848 271 
Q 434 634 434 1313 
Q 434 1759 690 2068 
Q 947 2378 1403 2484 
z
M 1172 3481 
Q 1172 3119 1398 2916 
Q 1625 2713 2034 2713 
Q 2441 2713 2670 2916 
Q 2900 3119 2900 3481 
Q 2900 3844 2670 4047 
Q 2441 4250 2034 4250 
Q 1625 4250 1398 4047 
Q 1172 3844 1172 3481 
z
" transform="scale(0.015625)"/>
       </defs>
       <use xlink:href="#DejaVuSans-38"/>
      </g>
     </g>
    </g>
   </g>
   <g id="line2d_12">
    <path d="M 73.832727 53.568 
L 73.890468 53.568 
L 74.000964 55.279675 
L 74.64128 55.279675 
L 74.81983 57.403838 
L 75.551064 57.403838 
L 75.717421 59.658331 
L 76.427316 59.658331 
L 76.598823 62.227565 
L 77.033745 62.227565 
L 77.203668 65.151235 
L 77.601182 65.151235 
L 77.777838 68.372505 
L 78.191925 68.372505 
L 78.312409 71.778102 
L 78.78551 71.778102 
L 78.961974 75.556627 
L 79.380352 75.556627 
L 79.554153 79.517124 
L 79.881554 79.517124 
L 80.056864 83.62134 
L 80.277499 83.62134 
L 80.448325 88.151609 
L 80.749638 88.151609 
L 80.860045 92.559489 
L 81.155379 92.559489 
L 81.332302 97.110695 
L 81.657232 97.110695 
L 81.76459 101.961378 
L 82.044225 101.961378 
L 82.219727 106.774506 
L 82.519575 106.774506 
L 82.63775 111.661696 
L 82.958626 111.661696 
L 83.150139 116.702201 
L 83.406674 116.702201 
L 83.523192 121.823486 
L 83.818482 121.823486 
L 83.941748 127.045221 
L 84.321696 127.045221 
L 84.41692 132.368323 
L 84.705182 132.368323 
L 84.882607 137.79772 
L 85.329161 137.79772 
L 85.507415 143.338778 
L 85.786176 143.338778 
L 85.891359 148.997908 
L 86.187611 148.997908 
L 86.306038 154.778424 
L 86.785857 154.778424 
L 86.956106 160.575952 
L 87.251204 160.575952 
L 87.369601 166.409028 
L 87.877003 166.409028 
L 87.995149 172.253313 
L 88.268243 172.253313 
L 88.436494 178.055507 
L 88.848864 178.055507 
L 89.02706 183.751756 
L 89.46398 183.751756 
L 89.627022 189.382229 
L 90.038002 189.382229 
L 90.162969 194.93454 
L 90.637535 194.93454 
L 90.867256 200.521439 
L 91.219977 200.521439 
L 91.341556 205.659124 
L 91.812333 205.659124 
L 91.989892 210.30053 
L 92.58142 210.30053 
L 92.695674 214.457828 
L 93.17382 214.457828 
L 93.289436 218.085002 
L 93.879469 218.085002 
L 94.067283 221.357042 
L 94.653084 221.357042 
L 94.770045 224.103756 
L 95.254555 224.103756 
L 95.368572 226.323529 
L 95.96195 226.323529 
L 96.073377 228.090205 
L 96.720278 228.090205 
L 96.846504 229.390917 
L 97.449633 229.390917 
L 97.562466 230.091848 
L 98.231268 230.091848 
L 98.363871 230.531031 
L 98.914054 230.531031 
L 99.093566 230.847823 
L 99.685774 230.847823 
L 99.802248 231.047242 
L 104.119805 231.002796 
L 104.238543 230.8555 
L 104.840858 230.8555 
L 105.010544 230.633095 
L 105.602634 230.633095 
L 105.806622 230.350542 
L 106.494247 230.350542 
L 106.606829 229.628632 
L 107.205104 229.628632 
L 107.379334 228.433299 
L 107.970033 228.433299 
L 108.090442 226.664442 
L 108.761715 226.664442 
L 108.969195 224.479214 
L 109.477648 224.479214 
L 109.591591 222.052782 
L 110.166945 222.052782 
L 110.352998 219.114021 
L 110.933723 219.114021 
L 111.053748 215.860387 
L 111.690024 215.860387 
L 111.877675 212.414226 
L 112.269211 212.414226 
L 112.406771 208.426381 
L 113.015168 208.426381 
L 113.152255 204.086806 
L 113.713699 204.086806 
L 113.890873 199.779727 
L 114.480166 199.779727 
L 114.598874 195.476441 
L 115.008137 195.476441 
L 115.199429 191.22288 
L 115.785925 191.22288 
L 115.960332 186.998019 
L 116.410156 186.998019 
L 116.52293 182.599997 
L 116.970904 182.599997 
L 117.147797 178.342771 
L 117.773463 178.342771 
L 117.939273 174.013272 
L 118.349379 174.013272 
L 118.451322 169.643514 
L 118.915795 169.643514 
L 119.038676 165.153416 
L 119.532893 165.153416 
L 119.712021 160.637583 
L 120.105865 160.637583 
L 120.22256 156.228875 
L 120.714129 156.228875 
L 120.843994 151.723205 
L 121.109038 151.723205 
L 121.224387 147.292819 
L 121.707757 147.292819 
L 121.883629 142.787978 
L 122.302452 142.787978 
L 122.416676 138.191498 
L 122.769249 138.191498 
L 122.891256 133.557157 
L 123.360184 133.557157 
L 123.481482 128.807274 
L 123.954035 128.807274 
L 124.073587 124.02651 
L 124.367116 124.02651 
L 124.478573 119.190177 
L 124.837583 119.190177 
L 124.980471 114.36645 
L 125.473238 114.36645 
L 125.64026 109.552929 
L 125.853956 109.552929 
L 126.033083 104.640485 
L 126.322425 104.640485 
L 126.443915 99.967106 
L 126.742831 99.967106 
L 126.915861 95.271483 
L 127.327462 95.271483 
L 127.507833 90.648614 
L 127.804233 90.648614 
L 127.921905 86.201392 
L 128.21724 86.201392 
L 128.390641 81.89501 
L 128.692768 81.89501 
L 128.807673 77.494719 
L 129.097458 77.494719 
L 129.216728 73.06429 
L 129.390973 73.06429 
L 129.569967 68.80436 
L 129.868409 68.80436 
L 129.989071 64.523756 
L 130.28587 64.523756 
L 130.407419 61.433163 
L 130.754295 61.433163 
L 130.877339 65.699286 
L 131.216904 65.699286 
L 131.356995 69.956512 
L 131.552992 69.956512 
L 131.650465 74.139893 
L 132.001232 74.139893 
L 132.116049 78.647089 
L 132.43873 78.647089 
L 132.628008 83.200563 
L 132.846439 83.200563 
L 132.960426 87.580441 
L 133.127479 87.580441 
L 133.243523 91.885689 
L 133.538976 91.885689 
L 133.714183 95.830352 
L 134.012536 95.830352 
L 134.128669 99.886196 
L 134.428251 99.886196 
L 134.544665 103.899165 
L 134.72841 103.899165 
L 134.905199 107.624738 
L 135.201333 107.624738 
L 135.316578 111.338274 
L 135.611439 111.338274 
L 135.729777 114.883228 
L 136.085783 114.883228 
L 136.20529 118.478168 
L 136.497799 118.478168 
L 136.674484 122.138403 
L 136.977055 122.138403 
L 137.097214 125.769589 
L 137.389293 125.769589 
L 137.566363 129.454032 
L 137.865871 129.454032 
L 137.978852 133.22693 
L 138.454158 133.22693 
L 138.57217 137.093039 
L 138.863909 137.093039 
L 139.044339 141.036743 
L 139.338845 141.036743 
L 139.460335 145.208914 
L 139.751807 145.208914 
L 139.935226 149.351557 
L 140.347301 149.351557 
L 140.464248 153.761268 
L 140.827889 153.761268 
L 140.936402 158.473161 
L 141.413853 158.473161 
L 141.528684 163.025414 
L 141.828355 163.025414 
L 141.945183 167.972273 
L 142.416967 167.972273 
L 142.535039 173.379469 
L 142.890467 173.379469 
L 143.009619 178.919043 
L 143.518309 178.919043 
L 143.660886 184.993366 
L 144.10886 184.993366 
L 144.215878 191.610551 
L 144.689511 191.610551 
L 144.810365 198.224725 
L 145.296295 198.224725 
L 145.469326 204.806492 
L 145.856082 204.806492 
L 145.979999 211.386602 
L 146.568863 211.386602 
L 146.741272 218.024897 
L 147.161471 218.024897 
L 147.279335 224.745018 
L 147.932067 224.745018 
L 148.043834 231.656968 
L 148.632269 231.656968 
L 148.789674 238.856618 
L 149.416124 238.856618 
L 149.535291 246.18808 
L 150.119671 246.18808 
L 150.290423 253.13235 
L 150.998099 253.13235 
L 151.116659 259.512562 
L 151.885272 259.512562 
L 152.002767 265.255262 
L 152.775582 265.255262 
L 152.889866 270.091333 
L 153.662977 270.091333 
L 153.822557 273.996349 
L 154.736544 273.996349 
L 154.85608 276.970047 
L 155.615371 276.970047 
L 155.743046 279.051378 
L 156.621089 279.051378 
L 156.738317 280.320686 
L 157.71851 280.320686 
L 157.81727 280.814609 
L 159.879907 280.896478 
L 160.115148 280.946289 
L 167.004032 280.881649 
L 167.221219 280.819625 
L 169.359429 280.744385 
L 169.524277 280.672547 
L 170.418893 280.672547 
L 170.539525 280.474742 
L 171.607512 280.474742 
L 171.720538 279.639122 
L 172.807052 279.639122 
L 172.928572 277.997278 
L 173.98632 277.997278 
L 174.099316 275.771617 
L 174.976027 275.771617 
L 175.093566 272.669117 
L 176.04579 272.669117 
L 176.162619 268.516224 
L 177.047631 268.516224 
L 177.223888 263.57931 
L 178.109226 263.57931 
L 178.226085 258.019323 
L 179.009244 258.019323 
L 179.119976 251.867404 
L 180.005388 251.867404 
L 180.1267 245.148853 
L 180.891081 245.148853 
L 181.0138 238.229445 
L 181.862661 238.229445 
L 182.008064 232.362566 
L 182.760178 232.362566 
L 182.968235 226.252956 
L 183.451931 226.252956 
L 183.57166 220.275333 
L 184.334576 220.275333 
L 184.464457 214.788666 
L 185.043362 214.788666 
L 185.22351 209.477035 
L 185.80829 209.477035 
L 185.921271 204.274056 
L 186.570289 204.274056 
L 186.699252 199.249732 
L 187.325376 199.249732 
L 187.474272 194.426005 
L 187.9139 194.426005 
L 188.076262 189.652046 
L 188.624713 189.652046 
L 188.782413 184.771965 
L 189.190626 184.771965 
L 189.367903 179.977854 
L 189.948629 179.977854 
L 190.081321 175.360524 
L 190.536797 175.360524 
L 190.655224 170.612604 
L 191.155819 170.612604 
L 191.273255 165.842613 
L 191.726704 165.842613 
L 191.854542 161.127929 
L 192.343832 161.127929 
L 192.454386 156.347427 
L 192.920073 156.347427 
L 193.04143 151.525357 
L 193.509574 151.525357 
L 193.634882 146.810237 
L 194.111031 146.810237 
L 194.219913 142.018263 
L 194.522661 142.018263 
L 194.69803 137.224632 
L 195.108492 137.224632 
L 195.298422 132.42616 
L 195.695196 132.42616 
L 195.815635 127.427222 
L 196.168134 127.427222 
L 196.294388 122.539203 
L 196.587666 122.539203 
L 196.768599 117.644379 
L 197.175272 117.644379 
L 197.34888 112.592097 
L 197.652206 112.592097 
L 197.838644 107.812598 
L 198.064784 107.812598 
L 198.180073 103.159807 
L 198.661816 103.159807 
L 198.82764 98.624042 
L 199.15994 98.624042 
L 199.294881 95.27554 
L 199.604777 95.27554 
L 199.780649 99.675307 
L 200.045115 99.675307 
L 200.215808 104.146388 
L 200.43267 104.146388 
L 200.609607 108.694235 
L 200.929891 108.694235 
L 201.061385 113.336601 
L 201.346953 113.336601 
L 201.504549 117.959689 
L 201.817849 117.959689 
L 202.009125 122.846269 
L 202.207712 122.846269 
L 202.390879 127.973049 
L 202.999794 127.973049 
L 203.061664 132.897794 
L 203.41363 132.897794 
L 203.512583 138.02453 
L 203.704865 138.02453 
L 203.807888 143.405294 
L 204.165181 143.405294 
L 204.278532 148.720327 
L 204.56629 148.720327 
L 204.686537 154.201324 
L 205.212777 154.201324 
L 205.375671 159.980881 
L 205.686544 159.980881 
L 205.822684 165.943892 
L 206.052775 165.943892 
L 206.235898 172.110946 
L 206.65657 172.110946 
L 206.837429 178.464027 
L 207.244975 178.464027 
L 207.420226 184.898673 
L 207.833691 184.898673 
L 208.01165 191.60789 
L 208.42405 191.60789 
L 208.603103 198.444862 
L 209.016702 198.444862 
L 209.191405 205.30482 
L 209.602755 205.30482 
L 209.715396 212.627646 
L 210.24896 212.627646 
L 210.415761 220.010009 
L 210.985403 220.010009 
L 211.094774 227.413526 
L 211.68386 227.413526 
L 211.794266 234.634505 
L 212.453938 234.634505 
L 212.564403 241.352096 
L 213.181635 241.352096 
L 213.303199 247.973817 
L 213.962397 247.973817 
L 214.091064 254.325546 
L 214.845219 254.325546 
L 214.959473 259.889066 
L 215.701421 259.889066 
L 215.815896 264.912823 
L 216.593314 264.912823 
L 216.711564 269.516675 
L 217.475441 269.516675 
L 217.597523 273.607195 
L 218.474885 273.607195 
L 218.655152 277.247671 
L 219.363228 277.247671 
L 219.491317 280.368927 
L 220.439783 280.368927 
L 220.560474 283.21849 
L 221.641188 283.21849 
L 221.753503 285.523622 
L 222.627077 285.523622 
L 222.747857 287.305564 
L 223.812308 287.305564 
L 223.986211 289.045678 
L 224.719798 289.045678 
L 224.90736 290.350752 
L 225.465045 290.350752 
L 225.581549 291.436387 
L 226.650676 291.436387 
L 226.763923 292.276718 
L 227.946875 292.276718 
L 228.076356 292.677125 
L 232.272083 292.695183 
L 232.385626 292.458602 
L 233.4561 292.458602 
L 233.571094 291.988887 
L 234.648271 291.988887 
L 234.757893 291.42413 
L 235.374739 291.42413 
L 235.565024 290.46974 
L 236.536767 290.46974 
L 236.709487 289.124756 
L 237.718254 289.124756 
L 237.892172 287.439862 
L 238.900658 287.439862 
L 239.046801 285.259345 
L 240.088981 285.259345 
L 240.295322 282.999924 
L 241.153802 282.999924 
L 241.274626 280.538249 
L 242.161607 280.538249 
L 242.330761 277.337872 
L 243.338107 277.337872 
L 243.465102 274.21269 
L 244.401374 274.21269 
L 244.520422 270.802775 
L 245.412109 270.802775 
L 245.589224 266.931563 
L 246.484269 266.931563 
L 246.593388 263.011936 
L 247.378235 263.011936 
L 247.489647 259.316284 
L 248.403989 259.316284 
L 248.556333 254.953941 
L 249.440665 254.953941 
L 249.579394 250.648169 
L 250.332721 250.648169 
L 250.440183 246.180796 
L 251.214256 246.180796 
L 251.329901 241.192108 
L 252.134236 241.192108 
L 252.307075 236.509439 
L 252.809046 236.509439 
L 252.98807 231.804133 
L 253.699193 231.804133 
L 253.87397 226.917902 
L 254.609333 226.917902 
L 254.799277 222.100107 
L 255.352124 222.100107 
L 255.474398 216.96722 
L 256.068693 216.96722 
L 256.248042 211.579827 
L 256.840458 211.579827 
L 256.983804 205.865259 
L 257.569339 205.865259 
L 257.745551 211.348698 
L 258.320239 211.348698 
L 258.431977 218.650413 
L 259.046367 218.650413 
L 259.211023 225.568426 
L 259.615151 225.568426 
L 259.792414 232.002461 
L 260.394847 232.002461 
L 260.516826 238.455164 
L 261.097684 238.455164 
L 261.216851 245.037368 
L 261.986233 245.037368 
L 262.160315 250.607911 
L 262.789296 250.607911 
L 262.959397 255.696438 
L 263.645112 255.696438 
L 263.756851 260.214888 
L 264.527521 260.214888 
L 264.6458 264.028438 
L 265.421871 264.028438 
L 265.533801 267.355349 
L 266.325706 267.355349 
L 266.460499 270.210845 
L 267.328909 270.210845 
L 267.494378 272.171094 
L 268.248489 272.171094 
L 268.405612 273.538541 
L 269.274821 273.538541 
L 269.392626 274.327404 
L 270.278586 274.327404 
L 270.458453 274.704301 
L 271.166899 274.704301 
L 271.349578 274.937218 
L 272.235034 274.937218 
L 272.363228 275.10196 
L 276.542958 275.002644 
L 276.670707 274.682405 
L 277.564406 274.682405 
L 277.680303 274.23005 
L 278.442479 274.23005 
L 278.560136 273.75654 
L 279.478666 273.75654 
L 279.663979 273.238018 
L 280.514749 273.238018 
L 280.633369 272.621312 
L 281.521829 272.621312 
L 281.696843 271.315497 
L 282.598488 271.315497 
L 282.707208 269.483657 
L 283.476694 269.483657 
L 283.588654 267.199723 
L 284.480222 267.199723 
L 284.665609 264.420645 
L 285.361846 264.420645 
L 285.482093 261.15362 
L 286.427451 261.15362 
L 286.550066 257.54686 
L 287.314979 257.54686 
L 287.43166 253.579821 
L 288.330154 253.579821 
L 288.500462 249.308507 
L 289.210401 249.308507 
L 289.387723 245.978673 
L 290.100608 245.978673 
L 290.220026 248.914599 
L 291.003778 248.914599 
L 291.179161 251.855933 
L 291.892371 251.855933 
L 292.05639 254.468 
L 292.644322 254.468 
L 292.760455 256.567564 
L 293.531806 256.567564 
L 293.649093 258.280809 
L 294.420444 258.280809 
L 294.540351 259.568217 
L 295.30923 259.568217 
L 295.429033 260.321663 
L 296.203033 260.321663 
L 296.353955 260.830677 
L 297.088844 260.830677 
L 297.20409 261.36198 
L 298.117544 261.36198 
L 298.281888 261.755757 
L 298.982165 261.755757 
L 299.160538 261.947848 
L 303.30317 261.952122 
L 303.445554 261.788732 
L 304.186229 261.788732 
L 304.302584 261.458374 
L 305.072204 261.458374 
L 305.196343 260.831593 
L 305.968048 260.831593 
L 306.091018 259.66941 
L 306.8509 259.66941 
L 306.969461 257.944475 
L 307.7376 257.944475 
L 307.852875 255.573917 
L 308.625291 255.573917 
L 308.754284 252.283863 
L 309.640125 252.283863 
L 309.816278 248.450903 
L 310.403174 248.450903 
L 310.526529 243.879284 
L 311.319173 243.879284 
L 311.428189 238.51034 
L 312.264783 238.51034 
L 312.278589 232.274371 
L 313.067076 232.274371 
L 313.182469 225.252506 
L 313.809512 225.252506 
L 313.963986 217.61738 
L 314.58613 217.61738 
L 314.74713 210.448437 
L 315.436338 210.448437 
L 315.557237 204.437577 
L 316.039127 204.437577 
L 316.147847 199.543233 
L 316.734669 199.543233 
L 316.918901 195.440675 
L 317.507677 195.440675 
L 317.619371 192.2847 
L 318.260826 192.2847 
L 318.421575 189.84985 
L 318.837556 189.84985 
L 319.01032 187.695329 
L 319.593665 187.695329 
L 319.702887 185.968737 
L 320.177586 185.968737 
L 320.295111 184.457702 
L 320.775122 184.457702 
L 320.885617 182.996085 
L 321.358052 182.996085 
L 321.479424 181.651625 
L 321.957038 181.651625 
L 322.0773 180.078741 
L 322.654651 180.078741 
L 322.800217 178.432448 
L 323.249656 178.432448 
L 323.363229 176.712574 
L 323.836419 176.712574 
L 323.958101 174.793019 
L 324.428465 174.793019 
L 324.547543 172.624278 
L 325.031475 172.624278 
L 325.212275 170.029135 
L 325.615367 170.029135 
L 325.80287 167.262662 
L 326.208523 167.262662 
L 326.339232 164.184457 
L 326.79573 164.184457 
L 326.914896 160.879092 
L 327.298115 160.879092 
L 327.407086 157.293966 
L 327.880779 157.293966 
L 327.995048 153.454682 
L 328.456162 153.454682 
L 328.603149 149.269949 
L 329.049155 149.269949 
L 329.182957 144.798868 
L 329.461422 144.798868 
L 329.58195 140.076595 
L 330.06535 140.076595 
L 330.243545 135.243882 
L 330.529572 135.243882 
L 330.645084 130.384389 
L 331.12107 130.384389 
L 331.238313 125.493011 
L 331.53094 125.493011 
L 331.652312 120.579782 
L 332.125472 120.579782 
L 332.303075 115.611027 
L 332.597611 115.611027 
L 332.722593 110.621249 
L 333.014272 110.621249 
L 333.189449 109.184407 
L 333.607502 109.184407 
L 333.780577 114.175014 
L 334.080765 114.175014 
L 334.198083 119.255821 
L 334.504738 119.255821 
L 334.607257 124.430014 
L 334.967376 124.430014 
L 335.081615 129.702476 
L 335.38392 129.702476 
L 335.587656 135.078878 
L 335.869258 135.078878 
L 335.984459 140.565632 
L 336.454615 140.565632 
L 336.572569 146.16976 
L 336.864322 146.16976 
L 337.038567 151.899245 
L 337.338296 151.899245 
L 337.448229 157.762765 
L 337.951828 157.762765 
L 338.06404 163.770267 
L 338.35569 163.770267 
L 338.466481 169.932828 
L 338.943637 169.932828 
L 339.114655 176.263054 
L 339.531894 176.263054 
L 339.711865 182.7756 
L 340.001517 182.7756 
L 340.11731 189.484991 
L 340.586726 189.484991 
L 340.708779 196.311626 
L 341.181347 196.311626 
L 341.300114 203.222137 
L 341.945047 203.222137 
L 342.124056 210.117556 
L 342.48826 210.117556 
L 342.668823 216.758686 
L 343.082347 216.758686 
L 343.254106 222.872526 
L 343.866439 222.872526 
L 344.017613 228.435087 
L 344.567308 228.435087 
L 344.747234 233.47001 
L 345.325178 233.47001 
L 345.444966 237.832963 
L 346.039808 237.832963 
L 346.220075 241.52674 
L 346.810449 241.52674 
L 346.928284 244.58981 
L 347.718427 244.58981 
L 347.894077 247.105701 
L 348.404099 247.105701 
L 348.530664 249.020545 
L 349.296466 249.020545 
L 349.405467 250.295131 
L 350.066825 250.295131 
L 350.18136 251.518902 
L 350.957431 251.518902 
L 351.097744 252.620152 
L 351.848896 252.620152 
L 351.964378 253.52338 
L 352.554248 253.52338 
L 352.727753 254.474107 
L 353.457891 254.474107 
L 353.648901 255.317229 
L 353.923001 255.317229 
L 354.035761 255.74686 
L 354.799387 255.74686 
L 354.915431 256.254435 
L 355.701979 256.254435 
L 355.931804 256.71137 
L 356.569856 256.71137 
L 356.686892 257.045391 
L 357.474076 257.045391 
L 357.592104 257.422943 
L 358.343196 257.422943 
L 358.487904 257.751687 
L 359.233477 257.751687 
L 359.353324 258.055612 
L 360.123979 258.055612 
L 360.240157 258.235839 
L 363.682438 258.294722 
L 363.7961 258.404813 
L 370.896696 258.377813 
L 371.074033 258.269206 
L 372.284627 258.159247 
L 372.401634 258.027566 
L 373.263695 258.027566 
L 373.441713 257.828671 
L 374.182654 257.828671 
L 374.363513 257.628424 
L 375.036709 257.628424 
L 375.21853 257.345958 
L 375.978856 257.345958 
L 376.109832 257.093109 
L 376.832424 257.093109 
L 376.997153 256.457866 
L 377.705332 256.457866 
L 377.880774 255.147907 
L 378.591188 255.147907 
L 378.766527 253.286232 
L 379.477799 253.286232 
L 379.654085 250.804537 
L 380.38193 250.804537 
L 380.546822 247.688908 
L 381.252026 247.688908 
L 381.372466 244.132962 
L 382.048385 244.132962 
L 382.152769 240.212899 
L 382.937645 240.212899 
L 383.073267 235.668715 
L 383.807075 235.668715 
L 383.920234 230.716884 
L 384.513804 230.716884 
L 384.625853 225.002448 
L 385.398639 225.002448 
L 385.522526 219.405254 
L 386.169709 219.405254 
L 386.291139 214.14784 
L 386.879086 214.14784 
L 387.056763 208.842796 
L 387.686129 208.842796 
L 387.831488 203.396998 
L 388.3982 203.396998 
L 388.56654 198.111233 
L 388.958992 198.111233 
L 389.141035 192.921513 
L 389.723521 192.921513 
L 389.844035 187.723244 
L 390.439173 187.723244 
L 390.548632 182.707644 
L 391.079888 182.707644 
L 391.222214 177.862021 
L 391.652623 177.862021 
L 391.794223 173.055087 
L 392.386017 173.055087 
L 392.506575 168.375427 
L 393.02 168.375427 
L 393.193504 163.703271 
L 393.573127 163.703271 
L 393.691613 159.368188 
L 394.16467 159.368188 
L 394.276822 155.275488 
L 394.755709 155.275488 
L 394.876178 151.108157 
L 395.169115 151.108157 
L 395.287853 147.069062 
L 395.759148 147.069062 
L 395.935598 143.206748 
L 396.35843 143.206748 
L 396.528383 139.333486 
L 396.833292 139.333486 
L 396.940517 135.422277 
L 397.415201 135.422277 
L 397.543572 131.628006 
L 397.837516 131.628006 
L 398.004864 127.969429 
L 398.426824 127.969429 
L 398.487273 53.568 
L 398.487273 53.568 
" clip-path="url(#pe1ae34a040)" style="fill: none; stroke: #1f77b4; stroke-width: 1.5; stroke-linecap: square"/>
   </g>
   <g id="line2d_13">
    <path d="M 73.832727 278.89597 
L 73.8439 278.89597 
L 73.933293 295.488 
L 74.171967 287.191985 
L 74.230418 287.191985 
L 74.4173 278.89597 
L 74.523119 278.89597 
L 74.71373 270.599955 
L 74.81983 270.599955 
L 75.015339 262.30394 
L 75.117902 262.30394 
L 75.26665 258.155932 
L 75.516555 249.859917 
L 75.551064 249.859917 
L 75.771803 241.563902 
L 75.828301 241.563902 
L 75.945633 237.415894 
L 76.009752 237.415894 
L 76.223565 229.119879 
L 76.312811 229.119879 
L 76.501039 220.823864 
L 76.598823 220.823864 
L 76.785911 212.527849 
L 76.898197 212.527849 
L 77.115947 204.231834 
L 77.203668 204.231834 
L 77.388848 195.935819 
L 77.488408 195.935819 
L 77.668571 187.639804 
L 77.777838 187.639804 
L 77.965016 179.343789 
L 78.0756 179.343789 
L 78.258072 171.047774 
L 78.375803 171.047774 
L 78.553895 162.751759 
L 78.666432 162.751759 
L 78.859025 154.475197 
L 78.961974 154.475197 
L 79.147627 147.14849 
L 79.258359 147.14849 
L 79.443613 140.501951 
L 79.554153 140.501951 
L 79.69963 137.60214 
L 79.954863 132.209556 
L 79.987151 132.209556 
L 80.212774 127.698696 
L 80.277499 127.698696 
L 80.505326 123.822032 
L 80.563822 123.822032 
L 80.680932 122.125885 
L 80.749638 122.125885 
L 80.931858 119.181323 
L 81.044662 119.181323 
L 81.227208 116.709791 
L 81.332302 116.709791 
L 81.552567 114.890251 
L 81.657232 114.890251 
L 81.833681 113.470245 
L 81.930119 113.470245 
L 82.112087 112.401795 
L 82.219727 112.401795 
L 82.456876 111.879347 
L 82.519575 111.879347 
L 82.63775 111.636616 
L 83.150139 111.648393 
L 83.348548 113.388026 
L 83.406674 113.388026 
L 83.887173 117.678575 
L 84.001057 117.678575 
L 84.148014 119.460125 
L 84.374273 122.071101 
L 84.41692 122.071101 
L 84.647781 125.61562 
L 84.705182 125.61562 
L 84.941429 128.972758 
L 85.007042 128.972758 
L 85.179673 130.65124 
L 85.329161 132.01053 
L 85.891359 137.907462 
L 86.122767 141.725068 
L 86.187611 141.725068 
L 86.306038 143.108348 
L 86.370941 143.108348 
L 86.508813 145.32799 
L 86.748744 148.581057 
L 86.785857 148.581057 
L 87.189053 153.48299 
L 87.251204 153.48299 
L 87.483663 157.034007 
L 87.543165 157.034007 
L 87.688805 158.817127 
L 87.877003 160.261122 
L 88.381416 166.505858 
L 88.436494 166.505858 
L 88.621156 170.481534 
L 88.734906 170.481534 
L 88.91618 173.088672 
L 89.02706 173.088672 
L 89.171102 175.11679 
L 89.435612 178.089136 
L 89.46398 178.089136 
L 89.812468 182.682782 
L 89.921868 182.682782 
L 90.110659 184.988874 
L 90.223714 184.988874 
L 90.423988 188.412398 
L 90.519404 188.412398 
L 90.637535 189.652918 
L 90.810655 190.657468 
L 90.990522 194.052903 
L 91.106389 194.052903 
L 91.286508 196.279523 
L 91.401354 196.279523 
L 91.516998 198.063516 
L 91.752609 200.678113 
L 91.812333 200.678113 
L 92.222691 204.611654 
L 92.286573 204.611654 
L 92.47748 206.569897 
L 92.58142 206.569897 
L 92.814737 208.644773 
L 92.87156 208.644773 
L 93.064124 210.645762 
L 93.17382 210.645762 
L 93.407241 212.64784 
L 93.466699 212.64784 
L 93.651671 214.51946 
L 93.76085 214.51946 
L 93.965725 215.746808 
L 94.067283 215.746808 
L 94.244812 217.677965 
L 94.358045 217.677965 
L 94.540709 218.944394 
L 94.653084 218.944394 
L 94.891106 220.297316 
L 94.953168 220.297316 
L 95.141559 221.60758 
L 95.254555 221.60758 
L 95.487236 222.889014 
L 95.53709 222.889014 
L 95.732495 224.071261 
L 95.840963 224.071261 
L 96.0212 224.846559 
L 96.133087 224.846559 
L 96.327219 225.963075 
L 96.428776 225.963075 
L 96.609502 226.695279 
L 96.720278 226.695279 
L 97.00743 227.42286 
L 97.065067 227.42286 
L 97.319279 228.100324 
L 97.365315 228.100324 
L 97.562466 228.544567 
L 97.645334 228.544567 
L 97.933995 229.077178 
L 98.481381 229.739027 
L 98.517265 229.739027 
L 98.696348 230.011635 
L 98.914054 230.110429 
L 99.327371 230.41671 
L 99.505729 230.49871 
L 99.874343 230.700353 
L 100.101682 230.766302 
L 100.386258 230.863002 
L 100.697308 230.944087 
L 101.22232 231.055834 
L 105.728756 230.958786 
L 106.401272 230.827279 
L 106.791461 230.748681 
L 107.02136 230.644697 
L 107.379334 230.550397 
L 107.616972 230.353813 
L 107.79783 230.262522 
L 108.030482 230.092676 
L 108.090442 230.092676 
L 108.264169 229.929679 
L 108.570069 229.626538 
L 108.636126 229.626538 
L 109.333621 228.783284 
L 109.539414 228.383706 
L 109.591591 228.383706 
L 109.806382 227.795963 
L 109.866032 227.795963 
L 109.98582 227.522875 
L 110.053905 227.522875 
L 110.242636 227.015038 
L 110.352998 227.015038 
L 110.588431 226.281482 
L 110.647223 226.281482 
L 110.832536 225.6161 
L 110.933723 225.6161 
L 111.165871 224.857725 
L 111.227593 224.857725 
L 111.344629 224.429883 
L 111.647821 223.634303 
L 111.690024 223.634303 
L 112.058519 222.257304 
L 112.132982 222.257304 
L 112.406771 221.343521 
L 112.472577 221.343521 
L 113.072096 218.550965 
L 113.152255 218.550965 
L 113.390589 217.208119 
L 113.437705 217.208119 
L 113.656002 215.989931 
L 113.713699 215.989931 
L 113.947208 214.680059 
L 114.007302 214.680059 
L 114.244112 213.296735 
L 114.306307 213.296735 
L 114.536146 212.041821 
L 114.598874 212.041821 
L 114.718337 211.254136 
L 114.779526 211.254136 
L 114.900439 210.503918 
L 115.327563 208.258324 
L 115.37428 208.258324 
L 115.563144 206.67676 
L 115.663355 206.67676 
L 115.851169 205.242055 
L 115.960332 205.242055 
L 116.184652 203.548263 
L 116.309398 203.548263 
L 116.800448 200.209619 
L 116.85776 200.209619 
L 117.036947 198.574754 
L 117.147797 198.574754 
L 117.335108 196.696418 
L 117.441179 196.696418 
L 117.561426 195.823722 
L 118.285305 191.455796 
L 118.349379 191.455796 
L 118.566522 189.628667 
L 118.623642 189.628667 
L 118.804649 187.773273 
L 118.915795 187.773273 
L 119.159219 185.876617 
L 119.214223 185.876617 
L 119.382918 184.891258 
L 119.611292 183.058807 
L 119.646141 183.058807 
L 119.8749 180.977258 
L 119.923674 180.977258 
L 120.048449 180.010087 
L 120.105865 180.010087 
L 120.291296 178.001945 
L 120.396553 178.001945 
L 120.781 175.041332 
L 120.843994 175.041332 
L 121.05214 172.876517 
L 121.109038 172.876517 
L 121.224387 171.870658 
L 121.288935 171.870658 
L 121.471895 169.588905 
L 121.589952 169.588905 
L 121.779497 167.518958 
L 121.883629 167.518958 
L 122.075557 165.222942 
L 122.179482 165.222942 
L 122.375612 163.140084 
L 122.491923 163.140084 
L 122.669275 160.823916 
L 122.769249 160.823916 
L 123.003172 158.502384 
L 123.07176 158.502384 
L 123.249008 156.186479 
L 123.360184 156.186479 
L 123.602232 153.859756 
L 123.665966 153.859756 
L 123.844665 151.533906 
L 123.954035 151.533906 
L 124.190179 149.196628 
L 124.252063 149.196628 
L 124.478573 146.859874 
L 124.541804 146.859874 
L 124.730447 144.291031 
L 124.837583 144.291031 
L 125.113695 141.731349 
L 125.160116 141.731349 
L 125.473238 139.190814 
L 125.975623 134.140931 
L 126.033083 134.140931 
L 126.219698 131.402112 
L 126.322425 131.402112 
L 126.518007 128.695395 
L 126.626283 128.695395 
L 126.860606 126.028283 
L 126.915861 126.028283 
L 127.109165 123.172831 
L 127.223893 123.172831 
L 127.398018 120.582529 
L 127.507833 120.582529 
L 127.695336 117.803495 
L 127.804233 117.803495 
L 128.035893 115.071001 
L 128.099583 115.071001 
L 128.285251 112.39076 
L 128.390641 112.39076 
L 128.578765 109.559559 
L 128.692768 109.559559 
L 128.920743 106.781964 
L 128.983722 106.781964 
L 129.162702 104.062991 
L 129.276201 104.062991 
L 129.45959 101.185077 
L 129.569967 101.185077 
L 129.760992 98.178883 
L 129.868409 98.178883 
L 130.060958 95.248235 
L 130.16546 95.248235 
L 130.351439 92.395837 
L 130.465087 92.395837 
L 130.64636 89.521281 
L 130.754295 89.521281 
L 130.948531 87.116483 
L 131.081696 87.116483 
L 131.306002 85.1281 
L 131.356995 85.1281 
L 131.935338 82.640779 
L 132.001232 82.640779 
L 132.43873 81.484876 
L 132.673319 81.221384 
L 132.895834 81.902686 
L 132.960426 81.902686 
L 133.192071 83.857091 
L 133.243523 83.857091 
L 133.477122 86.620729 
L 133.538976 86.620729 
L 133.783052 89.183334 
L 133.837182 89.183334 
L 134.012536 90.447582 
L 134.253696 93.071905 
L 134.308285 93.071905 
L 134.493628 95.417558 
L 134.605026 95.417558 
L 134.797826 98.337127 
L 134.905199 98.337127 
L 135.082995 101.534146 
L 135.201333 101.534146 
L 135.430832 104.336995 
L 135.494433 104.336995 
L 135.677763 106.746983 
L 135.793245 106.746983 
L 135.973675 109.547695 
L 136.085783 109.547695 
L 136.321616 112.068035 
L 136.381221 112.068035 
L 136.566446 114.274548 
L 136.674484 114.274548 
L 136.86477 116.981483 
L 136.977055 116.981483 
L 137.210594 119.447258 
L 137.265524 119.447258 
L 137.456578 121.623588 
L 137.566363 121.623588 
L 137.760718 124.319008 
L 137.865871 124.319008 
L 138.101689 126.804235 
L 138.154828 126.804235 
L 138.343633 129.015067 
L 138.454158 129.015067 
L 138.688259 131.200251 
L 138.750602 131.200251 
L 138.946022 133.228675 
L 139.044339 133.228675 
L 139.230495 135.916374 
L 139.338845 135.916374 
L 139.579561 138.47248 
L 139.636755 138.47248 
L 139.824568 140.791352 
L 139.935226 140.791352 
L 140.123602 143.737964 
L 140.230502 143.737964 
L 140.413654 145.670298 
L 140.527228 145.670298 
L 140.716462 148.455395 
L 140.827889 148.455395 
L 141.061754 151.178032 
L 141.112629 151.178032 
L 141.315773 153.689169 
L 141.413853 153.689169 
L 141.647659 156.201789 
L 141.706539 156.201789 
L 141.890964 158.550625 
L 142.004626 158.550625 
L 142.190709 161.793791 
L 142.304341 161.793791 
L 142.482063 163.920572 
L 142.59497 163.920572 
L 142.792935 167.176562 
L 142.890467 167.176562 
L 143.125945 170.365381 
L 143.187548 170.365381 
L 143.307751 171.992307 
L 143.597403 174.376648 
L 143.660886 174.376648 
L 143.89222 178.031169 
L 143.955392 178.031169 
L 144.338936 182.554722 
L 144.396485 182.554722 
L 144.596625 185.671921 
L 144.689511 185.671921 
L 145.237755 192.158428 
L 145.296295 192.158428 
L 145.796787 198.702509 
L 145.856082 198.702509 
L 146.209705 203.830031 
L 146.267417 203.830031 
L 146.385577 205.267266 
L 146.448823 205.267266 
L 146.635571 207.373677 
L 146.741272 207.373677 
L 146.941368 211.040106 
L 147.045056 211.040106 
L 147.225146 213.444424 
L 147.337328 213.444424 
L 147.528397 217.334347 
L 147.663472 217.334347 
L 147.871144 219.885307 
L 147.932067 219.885307 
L 148.160175 222.872788 
L 148.24251 222.872788 
L 148.4189 225.896515 
L 148.51917 225.896515 
L 148.698371 227.879403 
L 148.840238 227.879403 
L 149.008459 231.658015 
L 149.110535 231.658015 
L 149.300731 234.135959 
L 149.416124 234.135959 
L 149.935024 240.264629 
L 150.000874 240.264629 
L 150.195022 242.303652 
L 150.290423 242.303652 
L 150.474582 246.031145 
L 150.590375 246.031145 
L 150.775466 248.475547 
L 150.881122 248.475547 
L 151.066332 250.078527 
L 151.178395 250.078527 
L 151.366032 253.325924 
L 151.473878 253.325924 
L 151.664814 255.455496 
L 151.774954 255.455496 
L 151.954807 256.852036 
L 152.067936 256.852036 
L 152.259124 259.74465 
L 152.368021 259.74465 
L 152.563826 261.641523 
L 152.655957 261.641523 
L 152.84895 262.885489 
L 152.960866 262.885489 
L 153.140733 265.365919 
L 153.24673 265.365919 
L 153.437192 266.992497 
L 153.541961 266.992497 
L 153.731832 268.059202 
L 153.87759 268.059202 
L 154.08177 270.102892 
L 154.155034 270.102892 
L 154.517669 271.928713 
L 154.573812 271.928713 
L 154.79498 272.64046 
L 154.85608 272.64046 
L 154.970275 273.463955 
L 155.039795 273.463955 
L 155.225952 274.670803 
L 155.330232 274.670803 
L 155.520946 275.46224 
L 155.615371 275.46224 
L 156.104646 277.297657 
L 156.208941 277.297657 
L 156.393114 277.90132 
L 156.504645 277.90132 
L 156.692577 278.297191 
L 156.804834 278.297191 
L 156.917504 278.68207 
L 157.20578 279.24613 
L 157.249404 279.24613 
L 157.439704 279.450477 
L 157.787112 279.858561 
L 157.81727 279.858561 
L 158.065844 280.187653 
L 158.109838 280.187653 
L 158.354179 280.403472 
L 158.601732 280.481678 
L 158.923614 280.596304 
L 159.586437 280.785211 
L 160.296007 280.874888 
L 170.839891 280.765539 
L 173.104178 280.240081 
L 173.574926 279.842989 
L 173.805328 279.755231 
L 174.049062 279.592015 
L 174.099316 279.592015 
L 174.326432 279.237319 
L 174.388509 279.237319 
L 174.626014 278.915554 
L 174.678384 278.915554 
L 174.912973 278.62371 
L 174.976027 278.62371 
L 175.399954 277.94786 
L 175.47276 277.94786 
L 175.640389 277.457776 
L 175.751373 277.457776 
L 175.937189 277.013184 
L 176.04579 277.013184 
L 176.280232 276.412443 
L 176.343359 276.412443 
L 176.525298 275.679367 
L 176.636992 275.679367 
L 176.845212 275.014333 
L 176.931661 275.014333 
L 177.113748 274.411062 
L 177.223888 274.411062 
L 177.412013 273.405465 
L 177.527879 273.405465 
L 177.712186 272.493208 
L 177.815948 272.493208 
L 177.996289 271.665657 
L 178.109226 271.665657 
L 178.345473 270.650551 
L 178.403422 270.650551 
L 178.589977 269.477855 
L 178.702544 269.477855 
L 178.899518 268.414073 
L 179.009244 268.414073 
L 179.241303 267.156498 
L 179.302581 267.156498 
L 179.503609 265.737059 
L 179.597605 265.737059 
L 179.792329 264.449432 
L 179.89325 264.449432 
L 180.080043 263.281317 
L 180.193069 263.281317 
L 180.368008 261.597906 
L 180.48278 261.597906 
L 180.667886 260.07082 
L 180.773232 260.07082 
L 180.962644 258.68549 
L 181.075862 258.68549 
L 181.192187 257.71278 
L 181.480922 255.90397 
L 181.528512 255.90397 
L 181.71492 255.063551 
L 181.946091 253.500699 
L 182.008064 253.500699 
L 182.532884 249.999013 
L 182.59428 249.999013 
L 182.968235 247.600932 
L 183.028758 247.600932 
L 183.39746 244.698156 
L 183.451931 244.698156 
L 183.683635 242.701485 
L 183.738358 242.701485 
L 183.935923 240.619456 
L 184.037895 240.619456 
L 184.416231 237.853158 
L 184.464457 237.853158 
L 184.691721 235.711896 
L 184.743884 235.711896 
L 184.861201 234.716985 
L 184.975899 234.716985 
L 185.160694 232.866869 
L 185.22351 232.866869 
L 185.41196 230.695381 
L 185.505542 230.695381 
L 185.744571 228.725491 
L 185.80829 228.725491 
L 186.037286 226.691092 
L 186.13069 226.691092 
L 186.328256 224.609892 
L 186.435703 224.609892 
L 186.778035 221.844728 
L 186.841828 221.844728 
L 187.117571 219.74704 
L 187.172145 219.74704 
L 187.424078 217.844103 
L 187.474272 217.844103 
L 188.011433 213.895907 
L 188.076262 213.895907 
L 188.585839 209.799455 
L 188.624713 209.799455 
L 188.969043 206.606841 
L 189.069313 206.606841 
L 189.260309 204.579726 
L 189.367903 204.579726 
L 189.554519 202.295705 
L 189.657349 202.295705 
L 189.846109 200.223751 
L 189.948629 200.223751 
L 190.19627 198.12458 
L 190.245325 198.12458 
L 190.426272 196.01119 
L 190.536797 196.01119 
L 190.773562 193.868227 
L 190.835299 193.868227 
L 191.023201 191.709213 
L 191.155819 191.709213 
L 191.399554 189.523811 
L 191.450088 189.523811 
L 191.801078 186.303762 
L 191.923722 186.303762 
L 192.249363 182.8805 
L 192.343832 182.8805 
L 192.574041 180.633684 
L 192.615209 180.633684 
L 192.806234 178.378974 
L 192.920073 178.378974 
L 193.153405 176.104286 
L 193.221505 176.104286 
L 193.418523 173.822403 
L 193.509574 173.822403 
L 193.751651 171.528175 
L 193.811701 171.528175 
L 193.996392 169.23338 
L 194.111031 169.23338 
L 194.295367 166.923799 
L 194.404782 166.923799 
L 194.635406 164.611558 
L 194.69803 164.611558 
L 194.89055 162.069017 
L 194.990968 162.069017 
L 195.227644 159.762489 
L 195.298422 159.762489 
L 195.462707 157.224615 
L 195.582851 157.224615 
L 195.757258 154.922318 
L 195.869011 154.922318 
L 196.066754 152.369701 
L 196.168134 152.369701 
L 196.404262 149.821665 
L 196.466191 149.821665 
L 196.714262 147.288763 
L 196.768599 147.288763 
L 197.001768 144.536641 
L 197.057482 144.536641 
L 197.252236 142.039985 
L 197.34888 142.039985 
L 197.55056 139.306051 
L 197.652206 139.306051 
L 197.883777 136.59868 
L 197.968465 136.59868 
L 198.131833 133.926247 
L 198.244666 133.926247 
L 198.433856 131.069923 
L 198.533386 131.069923 
L 198.771497 128.478748 
L 198.82764 128.478748 
L 198.945564 127.059179 
L 199.241269 124.419284 
L 199.294881 124.419284 
L 199.696538 120.456475 
L 199.780649 120.456475 
L 200.113822 117.630771 
L 200.139895 117.630771 
L 200.380833 116.378866 
L 200.43267 116.378866 
L 200.609607 115.797229 
L 200.83301 115.137779 
L 200.929891 115.137779 
L 201.192316 114.539567 
L 201.346953 114.482385 
L 201.504549 114.427907 
L 201.614305 115.099657 
L 201.901131 116.084144 
L 201.933982 116.084144 
L 202.152679 118.411826 
L 202.207712 118.411826 
L 202.505828 120.913367 
L 202.999794 122.256126 
L 203.061664 124.937109 
L 203.41363 124.937109 
L 203.512583 128.670315 
L 203.574822 128.670315 
L 203.755548 131.890234 
L 203.882839 131.890234 
L 204.059317 135.854002 
L 204.165181 135.854002 
L 204.40091 139.464251 
L 204.460234 139.464251 
L 204.630113 142.650409 
L 204.74564 142.650409 
L 204.884562 144.847414 
L 205.155776 148.067245 
L 205.212777 148.067245 
L 205.484924 150.17876 
L 205.535665 150.17876 
L 205.776973 153.552865 
L 205.822684 153.552865 
L 206.47722 163.26387 
L 206.542597 163.26387 
L 206.735324 166.309231 
L 206.837429 166.309231 
L 207.022742 170.493223 
L 207.133518 170.493223 
L 207.309272 173.236971 
L 207.420226 173.236971 
L 207.605139 177.251204 
L 207.716433 177.251204 
L 207.907592 179.88364 
L 208.01165 179.88364 
L 208.20195 183.919421 
L 208.310477 183.919421 
L 208.495494 186.565989 
L 208.603103 186.565989 
L 208.784909 190.654982 
L 208.891128 190.654982 
L 209.081058 193.336445 
L 209.191405 193.336445 
L 209.377961 197.456232 
L 209.477521 197.456232 
L 209.715396 200.157889 
L 209.800453 200.157889 
L 210.003124 204.45027 
L 210.104874 204.45027 
L 210.345782 207.265114 
L 210.415761 207.265114 
L 210.657173 211.652231 
L 210.717119 211.652231 
L 210.965574 214.529186 
L 210.985403 214.529186 
L 211.201066 217.823952 
L 211.260761 217.823952 
L 211.459702 221.124911 
L 211.566616 221.124911 
L 211.761592 223.289595 
L 211.873745 223.289595 
L 212.044453 227.194785 
L 212.154104 227.194785 
L 212.350782 229.755733 
L 212.453938 229.755733 
L 212.684591 232.712813 
L 212.75272 232.712813 
L 212.932884 235.686642 
L 213.067203 235.686642 
L 213.303199 237.63686 
L 213.358557 237.63686 
L 213.71591 242.484402 
L 213.768205 242.484402 
L 213.884131 243.52847 
L 213.962397 243.52847 
L 214.214448 245.058653 
L 214.251176 245.058653 
L 214.477938 248.248562 
L 214.534007 248.248562 
L 214.754849 250.340405 
L 214.845219 250.340405 
L 215.357194 255.220792 
L 215.405376 255.220792 
L 215.586471 256.827697 
L 215.701421 256.827697 
L 216.232558 260.928467 
L 216.295834 260.928467 
L 216.487466 262.29997 
L 216.593314 262.29997 
L 217.123816 265.948167 
L 217.179751 265.948167 
L 217.3632 267.176518 
L 217.475441 267.176518 
L 218.002184 270.428582 
L 218.068878 270.428582 
L 218.256928 271.522723 
L 218.357139 271.522723 
L 218.549822 272.240228 
L 218.655152 272.240228 
L 218.838882 273.963897 
L 218.953476 273.963897 
L 219.138848 275.09424 
L 219.247953 275.09424 
L 219.430128 275.835517 
L 219.578669 275.835517 
L 219.796256 277.396014 
L 219.854426 277.396014 
L 220.094743 278.419363 
L 220.145854 278.419363 
L 220.33642 279.090459 
L 220.439783 279.090459 
L 220.960252 281.155434 
L 221.023897 281.155434 
L 221.204134 281.865568 
L 221.315739 281.865568 
L 221.501363 282.33127 
L 221.641188 282.33127 
L 222.337528 284.223346 
L 222.627077 284.670947 
L 223.633284 286.608298 
L 223.69323 286.608298 
L 223.892704 286.848324 
L 223.986211 286.848324 
L 224.168343 287.604692 
L 224.284195 287.604692 
L 224.46168 288.100708 
L 224.595866 288.100708 
L 224.81221 288.426006 
L 224.90736 288.426006 
L 225.112739 289.088553 
L 225.169962 289.088553 
L 225.351517 289.523026 
L 225.465045 289.523026 
L 225.816567 290.284889 
L 225.894389 290.284889 
L 226.129778 290.68124 
L 226.184219 290.68124 
L 226.414073 290.941199 
L 226.650676 291.035369 
L 227.174947 291.658006 
L 227.234671 291.658006 
L 227.418638 291.87099 
L 227.6475 291.948149 
L 227.946875 292.061249 
L 228.956248 292.515 
L 229.602602 292.617718 
L 230.254727 292.668184 
L 233.86702 292.559489 
L 234.281181 292.481894 
L 234.757893 292.414854 
L 235.132721 292.280164 
L 235.565024 292.200693 
L 236.063711 291.894194 
L 236.236312 291.826456 
L 236.476155 291.700533 
L 236.709487 291.641999 
L 236.94569 291.408297 
L 237.124891 291.29969 
L 237.366776 291.097785 
L 237.596275 291.003965 
L 237.835615 290.829495 
L 237.892172 290.829495 
L 238.126881 290.51484 
L 238.194758 290.51484 
L 238.384555 290.229365 
L 238.490847 290.229365 
L 238.67952 289.970365 
L 238.789911 289.970365 
L 238.965206 289.735442 
L 239.110757 289.735442 
L 239.367958 289.3199 
L 239.422503 289.3199 
L 239.744503 288.767748 
L 239.793099 288.767748 
L 240.029539 288.442057 
L 240.088981 288.442057 
L 241.274626 286.761874 
L 241.503504 286.184076 
L 241.562459 286.184076 
L 241.685147 285.915655 
L 241.74493 285.915655 
L 241.927017 285.416411 
L 242.035101 285.416411 
L 242.22398 284.963532 
L 242.330761 284.963532 
L 242.515438 284.255579 
L 242.63274 284.255579 
L 242.817846 283.613314 
L 242.922466 283.613314 
L 243.116909 283.030718 
L 243.217845 283.030718 
L 243.40489 282.502207 
L 243.523183 282.502207 
L 243.714785 281.732623 
L 243.817748 281.732623 
L 243.997823 281.034484 
L 244.113172 281.034484 
L 244.290938 280.40116 
L 244.401374 280.40116 
L 244.638642 279.664463 
L 244.697641 279.664463 
L 244.984955 278.841753 
L 245.037562 278.841753 
L 245.243591 278.095417 
L 245.297367 278.095417 
L 245.479247 277.418389 
L 245.589224 277.418389 
L 245.772968 276.444807 
L 245.879986 276.444807 
L 246.083885 275.5616 
L 246.190962 275.5616 
L 246.378524 274.760393 
L 246.484269 274.760393 
L 246.709566 273.847177 
L 246.769512 273.847177 
L 247.008452 272.841275 
L 247.073577 272.841275 
L 247.291179 271.928713 
L 247.378235 271.928713 
L 247.604789 270.925166 
L 247.663714 270.925166 
L 247.892148 269.847425 
L 248.000483 269.847425 
L 248.201215 268.869699 
L 248.254073 268.869699 
L 248.464009 267.982784 
L 248.556333 267.982784 
L 248.739885 266.773189 
L 248.854509 266.773189 
L 249.036122 265.675908 
L 249.140447 265.675908 
L 249.341949 264.680473 
L 249.440665 264.680473 
L 249.696696 263.572768 
L 249.759765 263.572768 
L 250.091354 261.815338 
L 250.149051 261.815338 
L 250.383788 260.778598 
L 250.440183 260.778598 
L 250.563715 260.084472 
L 250.617461 260.084472 
L 250.803839 258.793661 
L 250.911952 258.793661 
L 251.096836 257.62271 
L 251.214256 257.62271 
L 251.444954 256.323219 
L 251.506276 256.323219 
L 251.693543 254.91848 
L 251.800028 254.91848 
L 251.953052 254.26579 
L 252.210149 253.052051 
L 252.235586 253.052051 
L 252.453469 251.516241 
L 252.51053 251.516241 
L 252.748922 250.123017 
L 252.809046 250.123017 
L 253.046891 248.635404 
L 253.108864 248.635404 
L 253.340317 247.072814 
L 253.399138 247.072814 
L 253.519163 246.346803 
L 253.581773 246.346803 
L 253.764467 244.996673 
L 253.87397 244.996673 
L 254.07676 243.318234 
L 254.169705 243.318234 
L 254.354292 241.795641 
L 254.467777 241.795641 
L 254.697099 240.414411 
L 254.799277 240.414411 
L 255.121515 237.924167 
L 255.177687 237.924167 
L 255.412647 236.455048 
L 255.474398 236.455048 
L 255.588252 235.528398 
L 255.672171 235.528398 
L 255.90639 233.805209 
L 255.962015 233.805209 
L 256.141306 232.241964 
L 256.248042 232.241964 
L 256.442722 230.323717 
L 256.543658 230.323717 
L 256.731516 228.583561 
L 256.840458 228.583561 
L 257.075181 226.733227 
L 257.162473 226.733227 
L 257.37417 224.795876 
L 257.430298 224.795876 
L 257.569339 223.895702 
L 257.795198 222.482544 
L 257.849846 222.482544 
L 258.07498 221.448857 
L 258.136672 221.448857 
L 258.258236 220.96863 
L 258.320239 220.96863 
L 258.431977 220.511172 
L 258.700542 220.338447 
L 258.91921 220.258148 
L 259.155901 220.108889 
L 259.211023 220.108889 
L 259.388581 221.988185 
L 259.495969 221.988185 
L 259.685662 223.220593 
L 259.792414 223.220593 
L 259.978111 226.243535 
L 260.118084 226.243535 
L 260.343647 228.225899 
L 260.394847 228.225899 
L 260.924935 233.404365 
L 260.974833 233.404365 
L 261.163475 235.142952 
L 261.281014 235.142952 
L 261.455125 238.548854 
L 261.603192 238.548854 
L 261.860807 240.782367 
L 261.883611 240.782367 
L 262.056419 242.247036 
L 262.160315 242.247036 
L 262.341973 245.125038 
L 262.456937 245.125038 
L 262.600994 246.167885 
L 262.855294 247.696236 
L 262.897734 247.696236 
L 263.112125 250.450103 
L 263.18863 250.450103 
L 263.408125 252.256035 
L 263.472777 252.256035 
L 263.700057 253.440289 
L 263.756851 253.440289 
L 263.877334 254.728832 
L 263.937058 254.728832 
L 264.130466 256.617244 
L 264.233414 256.617244 
L 264.42 257.855627 
L 264.527521 257.855627 
L 265.078103 260.988703 
L 265.134586 260.988703 
L 265.307735 262.035039 
L 265.421871 262.035039 
L 265.947533 264.731375 
L 266.011489 264.731375 
L 266.130849 265.230444 
L 266.633737 266.770048 
L 266.851768 267.954477 
L 266.915414 267.954477 
L 267.101082 268.73117 
L 267.199117 268.73117 
L 267.392465 269.240534 
L 267.494378 269.240534 
L 267.68638 270.249271 
L 267.795277 270.249271 
L 267.935249 270.614828 
L 268.170164 271.150536 
L 268.248489 271.150536 
L 269.217835 272.829236 
L 269.274821 272.829236 
L 269.519162 273.22345 
L 269.577525 273.22345 
L 269.77364 273.603444 
L 269.880776 273.603444 
L 270.111667 273.852629 
L 270.278586 273.942961 
L 270.94357 274.408314 
L 271.349578 274.510204 
L 271.551316 274.657195 
L 271.944523 274.753589 
L 272.443683 274.889588 
L 272.93978 274.989166 
L 273.535229 275.061833 
L 274.236142 275.116703 
L 277.384465 275.019175 
L 280.220391 274.272839 
L 280.454581 274.176793 
L 280.633369 274.132129 
L 280.873345 273.991856 
L 281.114075 273.926692 
L 281.346993 273.805523 
L 281.696843 273.695563 
L 281.933223 273.474598 
L 282.13215 273.371967 
L 282.538083 273.092336 
L 282.707208 273.007849 
L 282.947761 272.680632 
L 283.004747 272.680632 
L 283.240151 272.38386 
L 283.299416 272.38386 
L 283.535826 272.11461 
L 283.588654 272.11461 
L 283.704624 271.880908 
L 283.776409 271.880908 
L 284.00832 271.446305 
L 284.068991 271.446305 
L 284.249347 271.052048 
L 284.362372 271.052048 
L 284.559464 270.69443 
L 284.665609 270.69443 
L 284.847326 270.111964 
L 284.951606 270.111964 
L 285.137955 269.583584 
L 285.246867 269.583584 
L 285.427918 269.104273 
L 285.54309 269.104273 
L 285.724999 268.366137 
L 285.838276 268.366137 
L 286.028828 267.696524 
L 286.134114 267.696524 
L 286.319649 267.089109 
L 286.427451 267.089109 
L 286.672059 266.366544 
L 286.725701 266.366544 
L 286.906989 265.547716 
L 287.019911 265.547716 
L 287.208879 264.804957 
L 287.314979 264.804957 
L 287.552677 263.942468 
L 287.61132 263.942468 
L 287.793393 262.980401 
L 287.904361 262.980401 
L 288.090681 262.107662 
L 288.208397 262.107662 
L 288.390321 261.315964 
L 288.500462 261.315964 
L 288.734445 260.201192 
L 288.796758 260.201192 
L 288.980902 259.189924 
L 289.095999 259.189924 
L 289.277095 258.272565 
L 289.387723 258.272565 
L 289.577491 257.131187 
L 289.684094 257.131187 
L 289.869747 256.095799 
L 289.986502 256.095799 
L 290.167346 255.156543 
L 290.303086 255.156543 
L 290.476576 254.577043 
L 290.582395 254.577043 
L 290.77231 254.051367 
L 290.876191 254.051367 
L 291.113932 253.574456 
L 291.292202 253.492717 
L 291.530313 253.340798 
L 291.78815 253.270181 
L 292.05639 253.138893 
L 292.236524 253.596395 
L 292.347093 253.596395 
L 292.534759 253.896439 
L 292.760455 254.005133 
L 292.88782 254.492513 
L 292.943711 254.492513 
L 293.122883 255.20679 
L 293.233556 255.20679 
L 293.419402 255.675197 
L 293.531806 255.675197 
L 294.064616 256.98725 
L 294.124044 256.98725 
L 294.320662 257.432495 
L 294.420444 257.432495 
L 294.900367 258.519744 
L 295.01098 258.519744 
L 295.207747 258.880634 
L 295.30923 258.880634 
L 295.542606 259.260628 
L 295.601546 259.260628 
L 295.785172 259.625836 
L 295.899455 259.625836 
L 296.081306 259.865382 
L 296.353955 259.952137 
L 296.533956 260.119235 
L 296.78614 260.364146 
L 296.913091 260.452864 
L 297.322295 260.731099 
L 297.380731 260.731099 
L 297.634232 260.94827 
L 297.800116 261.026955 
L 298.009283 261.09068 
L 298.749603 261.50993 
L 299.160538 261.594547 
L 299.39637 261.716153 
L 299.868391 261.824803 
L 300.573092 261.948633 
L 305.072204 261.840506 
L 306.560715 261.312605 
L 306.791961 261.160075 
L 306.969461 261.089197 
L 307.209836 260.797223 
L 307.268628 260.797223 
L 307.506399 260.532378 
L 307.567736 260.532378 
L 307.797087 260.292134 
L 307.852875 260.292134 
L 308.090217 259.854085 
L 308.150015 259.854085 
L 308.389236 259.456732 
L 308.44899 259.456732 
L 308.685355 259.096234 
L 308.754284 259.096234 
L 308.992129 258.463783 
L 309.047991 258.463783 
L 309.282935 257.890041 
L 309.343118 257.890041 
L 309.578448 257.369599 
L 309.640125 257.369599 
L 310.049595 256.322216 
L 310.112945 256.322216 
L 310.306796 255.591452 
L 310.403174 255.591452 
L 310.646036 254.711123 
L 310.706411 254.711123 
L 310.950293 253.705526 
L 311.051481 253.705526 
L 311.378631 252.369396 
L 311.428189 252.369396 
L 311.600302 251.710382 
L 311.792999 250.48491 
L 312.19624 250.48491 
L 312.278589 248.856675 
L 312.432561 248.856675 
L 312.548635 247.317201 
L 312.623733 247.317201 
L 312.83296 245.920618 
L 312.894593 245.920618 
L 313.124417 244.65371 
L 313.182469 244.65371 
L 313.337876 243.731203 
L 313.393575 243.731203 
L 313.659447 242.015647 
L 313.71047 242.015647 
L 314.240912 238.33875 
L 314.310314 238.33875 
L 314.544785 236.415008 
L 314.58613 236.415008 
L 314.788712 234.328965 
L 314.845166 234.328965 
L 315.035303 232.111941 
L 315.146287 232.111941 
L 315.327279 230.100702 
L 315.436338 230.100702 
L 315.676995 227.990409 
L 315.733863 227.990409 
L 315.920108 225.803785 
L 316.039127 225.803785 
L 316.266185 223.587414 
L 316.324784 223.587414 
L 316.515084 221.35521 
L 316.619349 221.35521 
L 316.810167 219.330189 
L 316.918901 219.330189 
L 317.100041 217.112335 
L 317.206142 217.112335 
L 317.400526 215.100355 
L 317.507677 215.100355 
L 317.686834 213.125101 
L 317.797581 213.125101 
L 317.992941 211.19028 
L 318.118915 211.19028 
L 318.357648 209.435119 
L 318.421575 209.435119 
L 318.656564 207.616844 
L 318.716066 207.616844 
L 318.954636 205.967367 
L 319.01032 205.967367 
L 319.249912 204.271002 
L 319.327408 204.271002 
L 319.545483 202.73214 
L 319.593665 202.73214 
L 319.77994 201.254036 
L 319.88897 201.254036 
L 320.076739 199.834946 
L 320.177586 199.834946 
L 320.409379 198.475787 
L 320.469015 198.475787 
L 320.667867 197.174376 
L 320.775122 197.174376 
L 320.958526 195.92426 
L 321.072188 195.92426 
L 321.26052 194.723999 
L 321.358052 194.723999 
L 321.603651 193.57128 
L 321.663627 193.57128 
L 321.863323 192.464665 
L 321.957038 192.464665 
L 322.186715 191.386009 
L 322.249295 191.386009 
L 322.428615 190.33627 
L 322.538414 190.33627 
L 322.728196 189.383973 
L 322.852942 189.383973 
L 323.071624 188.36721 
L 323.13339 188.36721 
L 323.363229 187.444878 
L 323.426031 187.444878 
L 323.611714 186.448528 
L 323.720597 186.448528 
L 323.903808 185.544646 
L 324.020933 185.544646 
L 324.199395 184.546463 
L 324.31057 184.546463 
L 324.492791 183.640968 
L 324.608909 183.640968 
L 324.834635 182.618185 
L 324.91879 182.618185 
L 325.10545 181.690357 
L 325.212275 181.690357 
L 325.435441 180.607732 
L 325.502534 180.607732 
L 325.715578 179.625644 
L 325.80287 179.625644 
L 326.023654 178.477898 
L 326.098028 178.477898 
L 326.274699 177.436665 
L 326.409359 177.436665 
L 326.620257 176.206351 
L 326.680099 176.206351 
L 326.862512 175.090227 
L 326.981309 175.090227 
L 327.093047 174.414508 
L 327.522169 172.403575 
L 327.57294 172.403575 
L 327.753281 171.000798 
L 327.880779 171.000798 
L 328.099875 169.545724 
L 328.160088 169.545724 
L 328.358275 168.051831 
L 328.456162 168.051831 
L 328.68396 166.497658 
L 328.783401 166.497658 
L 328.989919 164.898254 
L 329.049155 164.898254 
L 329.25153 163.234733 
L 329.359583 163.234733 
L 329.53038 161.523189 
L 329.643257 161.523189 
L 329.825714 159.532102 
L 329.939968 159.532102 
L 330.170666 157.725865 
L 330.243545 157.725865 
L 330.415955 155.638645 
L 330.529572 155.638645 
L 330.712059 153.514176 
L 330.820793 153.514176 
L 331.004745 151.366808 
L 331.12107 151.366808 
L 331.352094 149.186247 
L 331.415473 149.186247 
L 331.60009 146.986582 
L 331.714847 146.986582 
L 331.903356 144.535027 
L 332.004973 144.535027 
L 332.195776 142.311023 
L 332.303075 142.311023 
L 332.500833 139.832207 
L 332.597611 139.832207 
L 332.83627 137.346281 
L 332.897059 137.346281 
L 333.081617 134.865153 
L 333.189449 134.865153 
L 333.372024 132.480987 
L 333.486411 132.480987 
L 333.670925 130.318134 
L 333.780577 130.318134 
L 333.963345 128.819443 
L 334.080765 128.819443 
L 334.260707 127.701444 
L 334.380747 127.701444 
L 334.607257 126.917379 
L 334.680713 126.917379 
L 334.862889 126.686469 
L 335.081615 126.57917 
L 335.320807 127.654293 
L 335.38392 127.654293 
L 335.587656 128.04384 
L 335.821787 130.465474 
L 335.869258 130.465474 
L 336.21458 134.51761 
L 336.269258 134.51761 
L 336.395868 135.66793 
L 336.454615 135.66793 
L 336.686275 138.419747 
L 336.74045 138.419747 
L 336.927701 141.087513 
L 337.038567 141.087513 
L 337.232729 144.809162 
L 337.338296 144.809162 
L 337.567337 148.364977 
L 337.629354 148.364977 
L 337.783755 150.152458 
L 338.012366 152.772115 
L 338.06404 152.772115 
L 338.231344 154.863958 
L 338.466481 157.929733 
L 338.546212 157.929733 
L 338.71069 162.061471 
L 338.829856 162.061471 
L 339.013749 164.770979 
L 339.114655 164.770979 
L 339.304452 168.726852 
L 339.40962 168.726852 
L 339.601828 171.320993 
L 339.711865 171.320993 
L 339.888847 175.263955 
L 340.001517 175.263955 
L 340.236151 179.125746 
L 340.299501 179.125746 
L 340.476542 182.69168 
L 340.586726 182.69168 
L 340.950738 188.227329 
L 341.003181 188.227329 
L 341.244829 191.010115 
L 341.300114 191.010115 
L 341.444274 193.332868 
L 341.503628 193.332868 
L 341.715844 196.736982 
L 341.815921 196.736982 
L 342.019968 198.969317 
L 342.124056 198.969317 
L 342.374287 202.806812 
L 342.562737 205.323314 
L 342.668823 205.323314 
L 342.848794 209.259647 
L 342.957365 209.259647 
L 343.146363 211.841007 
L 343.254106 211.841007 
L 343.45284 215.638288 
L 343.556025 215.638288 
L 343.731542 218.128488 
L 343.866439 218.128488 
L 344.645396 225.160081 
L 344.747234 225.160081 
L 344.931349 228.020548 
L 345.028008 228.020548 
L 345.216665 229.896355 
L 345.325178 229.896355 
L 345.600964 231.956314 
L 345.64851 231.956314 
L 345.869382 233.979198 
L 345.926339 233.979198 
L 346.114434 235.305775 
L 346.220075 235.305775 
L 346.408525 237.447168 
L 346.531717 237.447168 
L 346.756244 238.851471 
L 346.810449 238.851471 
L 347.158315 241.160398 
L 347.218809 241.160398 
L 347.393556 241.812695 
L 347.510725 242.340901 
L 347.78737 243.115021 
L 347.828937 243.115021 
L 347.932996 243.87405 
L 348.006378 243.87405 
L 348.183952 244.986466 
L 348.299034 244.986466 
L 348.471961 245.715966 
L 348.589367 245.715966 
L 348.774059 246.853506 
L 348.874136 246.853506 
L 349.063578 247.599449 
L 349.180747 247.599449 
L 349.355184 248.088617 
L 349.466537 248.088617 
L 349.663333 248.84817 
L 349.769715 248.84817 
L 349.94757 249.346236 
L 350.066825 249.346236 
L 350.322916 249.905628 
L 350.379843 249.905628 
L 350.603971 250.460964 
L 350.703723 250.460964 
L 351.489857 251.736989 
L 351.554715 251.736989 
L 351.739451 252.041001 
L 351.964378 252.151135 
L 352.199633 252.623511 
L 352.261548 252.623511 
L 352.495131 252.933281 
L 352.554248 252.933281 
L 353.248473 253.859757 
L 353.341418 253.859757 
L 353.547729 254.071213 
L 353.648901 254.071213 
L 353.862996 254.500146 
L 353.923001 254.500146 
L 354.147454 254.863129 
L 354.204263 254.863129 
L 354.397345 255.167317 
L 354.619268 255.277538 
L 354.859185 255.439096 
L 354.915431 255.439096 
L 355.147801 255.719774 
L 355.390633 255.821446 
L 355.567349 255.970486 
L 355.86662 256.024484 
L 356.097954 256.260934 
L 356.335488 256.415993 
L 356.686892 256.517665 
L 356.925743 256.699288 
L 357.190669 256.76515 
L 357.528325 256.896569 
L 357.764986 256.996671 
L 357.947266 257.1434 
L 358.343196 257.239619 
L 359.126281 257.585505 
L 359.353324 257.617127 
L 359.59256 257.768043 
L 359.950046 257.867055 
L 360.386211 257.98975 
L 360.742513 258.074455 
L 361.089418 258.150131 
L 362.906663 258.254376 
L 365.34259 258.413754 
L 372.975922 258.310817 
L 377.705332 257.400436 
L 378.886374 256.629151 
L 379.126055 256.318814 
L 379.179593 256.318814 
L 379.41624 256.037264 
L 379.477799 256.037264 
L 379.890066 255.432772 
L 379.951254 255.432772 
L 380.225621 255.003097 
L 380.278863 255.003097 
L 380.489717 254.613333 
L 380.546822 254.613333 
L 380.777993 253.970457 
L 380.837407 253.970457 
L 381.036245 253.387294 
L 381.141324 253.387294 
L 381.319386 252.858259 
L 381.433522 252.858259 
L 381.801647 251.671824 
L 381.857982 251.671824 
L 382.105875 250.971941 
L 382.152769 250.971941 
L 382.38505 249.973104 
L 382.442954 249.973104 
L 382.553923 249.508972 
L 382.615304 249.508972 
L 382.805604 248.64596 
L 382.937645 248.64596 
L 383.207098 247.863029 
L 383.245454 247.863029 
L 383.446838 246.730941 
L 383.504919 246.730941 
L 383.759471 245.703928 
L 383.807075 245.703928 
L 384.035065 244.536815 
L 384.092377 244.536815 
L 384.283106 243.253768 
L 384.388496 243.253768 
L 384.582066 242.08984 
L 384.729956 242.08984 
L 385.187149 239.064368 
L 385.290867 239.064368 
L 385.467405 237.758901 
L 385.581836 237.758901 
L 385.778247 236.054947 
L 385.875706 236.054947 
L 386.061596 234.509236 
L 386.169709 234.509236 
L 386.403529 232.857012 
L 386.472265 232.857012 
L 386.652487 231.120039 
L 386.77411 231.120039 
L 386.949612 229.544363 
L 387.056763 229.544363 
L 387.243734 227.622453 
L 387.378571 227.622453 
L 387.780036 225.06892 
L 387.831488 225.06892 
L 388.189136 222.35697 
L 388.280542 222.35697 
L 388.524795 220.596749 
L 388.56654 220.596749 
L 388.785947 218.509224 
L 388.845656 218.509224 
L 389.034446 216.61549 
L 389.141035 216.61549 
L 389.330033 214.415781 
L 389.435497 214.415781 
L 389.633506 212.420289 
L 389.723521 212.420289 
L 389.959665 210.36286 
L 390.022836 210.36286 
L 390.205501 208.261028 
L 390.316381 208.261028 
L 390.548632 206.354297 
L 390.636975 206.354297 
L 391.018241 203.138958 
L 391.079888 203.138958 
L 391.487257 199.910971 
L 391.540707 199.910971 
L 391.735727 197.863966 
L 391.794223 197.863966 
L 392.029819 195.56071 
L 392.093805 195.56071 
L 392.277964 193.471309 
L 392.386017 193.471309 
L 392.616197 191.353383 
L 392.701063 191.353383 
L 392.932293 189.220147 
L 393.02 189.220147 
L 393.230528 187.062747 
L 393.288684 187.062747 
L 393.524546 184.894093 
L 393.573127 184.894093 
L 393.804535 182.720642 
L 393.866597 182.720642 
L 394.051925 180.552599 
L 394.16467 180.552599 
L 394.367799 178.391274 
L 394.457844 178.391274 
L 394.650837 176.245214 
L 394.755709 176.245214 
L 394.985904 174.100245 
L 395.045539 174.100245 
L 395.287853 171.9657 
L 395.35721 171.9657 
L 395.536693 169.654331 
L 395.641165 169.654331 
L 395.845745 167.557515 
L 395.935598 167.557515 
L 396.125749 165.296829 
L 396.230118 165.296829 
L 396.423067 163.245987 
L 396.528383 163.245987 
L 396.763061 161.025996 
L 396.833292 161.025996 
L 397.010851 158.826112 
L 397.129751 158.826112 
L 397.322064 156.653315 
L 397.415201 156.653315 
L 397.621127 154.501803 
L 397.711971 154.501803 
L 397.900614 152.37825 
L 398.004864 152.37825 
L 398.192855 150.112156 
L 398.312629 150.112156 
L 398.487273 148.056428 
L 398.487273 148.056428 
" clip-path="url(#pe1ae34a040)" style="fill: none; stroke: #ff7f0e; stroke-width: 1.5; stroke-linecap: square"/>
   </g>
   <g id="patch_3">
    <path d="M 57.6 307.584 
L 57.6 41.472 
" style="fill: none; stroke: #000000; stroke-width: 0.8; stroke-linejoin: miter; stroke-linecap: square"/>
   </g>
   <g id="patch_4">
    <path d="M 414.72 307.584 
L 414.72 41.472 
" style="fill: none; stroke: #000000; stroke-width: 0.8; stroke-linejoin: miter; stroke-linecap: square"/>
   </g>
   <g id="patch_5">
    <path d="M 57.6 307.584 
L 414.72 307.584 
" style="fill: none; stroke: #000000; stroke-width: 0.8; stroke-linejoin: miter; stroke-linecap: square"/>
   </g>
   <g id="patch_6">
    <path d="M 57.6 41.472 
L 414.72 41.472 
" style="fill: none; stroke: #000000; stroke-width: 0.8; stroke-linejoin: miter; stroke-linecap: square"/>
   </g>
   <g id="legend_1">
    <g id="patch_7">
     <path d="M 307.080938 302.584 
L 407.72 302.584 
Q 409.72 302.584 409.72 300.584 
L 409.72 272.22775 
Q 409.72 270.22775 407.72 270.22775 
L 307.080938 270.22775 
Q 305.080938 270.22775 305.080938 272.22775 
L 305.080938 300.584 
Q 305.080938 302.584 307.080938 302.584 
z
" style="fill: #ffffff; opacity: 0.8; stroke: #cccccc; stroke-linejoin: miter"/>
    </g>
    <g id="line2d_14">
     <path d="M 309.080938 278.326187 
L 319.080938 278.326187 
L 329.080938 278.326187 
" style="fill: none; stroke: #1f77b4; stroke-width: 1.5; stroke-linecap: square"/>
    </g>
    <g id="text_12">
     <!-- Speed Profile -->
     <g transform="translate(337.080938 281.826187) scale(0.1 -0.1)">
      <defs>
       <path id="DejaVuSans-53" d="M 3425 4513 
L 3425 3897 
Q 3066 4069 2747 4153 
Q 2428 4238 2131 4238 
Q 1616 4238 1336 4038 
Q 1056 3838 1056 3469 
Q 1056 3159 1242 3001 
Q 1428 2844 1947 2747 
L 2328 2669 
Q 3034 2534 3370 2195 
Q 3706 1856 3706 1288 
Q 3706 609 3251 259 
Q 2797 -91 1919 -91 
Q 1588 -91 1214 -16 
Q 841 59 441 206 
L 441 856 
Q 825 641 1194 531 
Q 1563 422 1919 422 
Q 2459 422 2753 634 
Q 3047 847 3047 1241 
Q 3047 1584 2836 1778 
Q 2625 1972 2144 2069 
L 1759 2144 
Q 1053 2284 737 2584 
Q 422 2884 422 3419 
Q 422 4038 858 4394 
Q 1294 4750 2059 4750 
Q 2388 4750 2728 4690 
Q 3069 4631 3425 4513 
z
" transform="scale(0.015625)"/>
       <path id="DejaVuSans-70" d="M 1159 525 
L 1159 -1331 
L 581 -1331 
L 581 3500 
L 1159 3500 
L 1159 2969 
Q 1341 3281 1617 3432 
Q 1894 3584 2278 3584 
Q 2916 3584 3314 3078 
Q 3713 2572 3713 1747 
Q 3713 922 3314 415 
Q 2916 -91 2278 -91 
Q 1894 -91 1617 61 
Q 1341 213 1159 525 
z
M 3116 1747 
Q 3116 2381 2855 2742 
Q 2594 3103 2138 3103 
Q 1681 3103 1420 2742 
Q 1159 2381 1159 1747 
Q 1159 1113 1420 752 
Q 1681 391 2138 391 
Q 2594 391 2855 752 
Q 3116 1113 3116 1747 
z
" transform="scale(0.015625)"/>
       <path id="DejaVuSans-65" d="M 3597 1894 
L 3597 1613 
L 953 1613 
Q 991 1019 1311 708 
Q 1631 397 2203 397 
Q 2534 397 2845 478 
Q 3156 559 3463 722 
L 3463 178 
Q 3153 47 2828 -22 
Q 2503 -91 2169 -91 
Q 1331 -91 842 396 
Q 353 884 353 1716 
Q 353 2575 817 3079 
Q 1281 3584 2069 3584 
Q 2775 3584 3186 3129 
Q 3597 2675 3597 1894 
z
M 3022 2063 
Q 3016 2534 2758 2815 
Q 2500 3097 2075 3097 
Q 1594 3097 1305 2825 
Q 1016 2553 972 2059 
L 3022 2063 
z
" transform="scale(0.015625)"/>
       <path id="DejaVuSans-64" d="M 2906 2969 
L 2906 4863 
L 3481 4863 
L 3481 0 
L 2906 0 
L 2906 525 
Q 2725 213 2448 61 
Q 2172 -91 1784 -91 
Q 1150 -91 751 415 
Q 353 922 353 1747 
Q 353 2572 751 3078 
Q 1150 3584 1784 3584 
Q 2172 3584 2448 3432 
Q 2725 3281 2906 2969 
z
M 947 1747 
Q 947 1113 1208 752 
Q 1469 391 1925 391 
Q 2381 391 2643 752 
Q 2906 1113 2906 1747 
Q 2906 2381 2643 2742 
Q 2381 3103 1925 3103 
Q 1469 3103 1208 2742 
Q 947 2381 947 1747 
z
" transform="scale(0.015625)"/>
       <path id="DejaVuSans-20" transform="scale(0.015625)"/>
       <path id="DejaVuSans-50" d="M 1259 4147 
L 1259 2394 
L 2053 2394 
Q 2494 2394 2734 2622 
Q 2975 2850 2975 3272 
Q 2975 3691 2734 3919 
Q 2494 4147 2053 4147 
L 1259 4147 
z
M 628 4666 
L 2053 4666 
Q 2838 4666 3239 4311 
Q 3641 3956 3641 3272 
Q 3641 2581 3239 2228 
Q 2838 1875 2053 1875 
L 1259 1875 
L 1259 0 
L 628 0 
L 628 4666 
z
" transform="scale(0.015625)"/>
       <path id="DejaVuSans-72" d="M 2631 2963 
Q 2534 3019 2420 3045 
Q 2306 3072 2169 3072 
Q 1681 3072 1420 2755 
Q 1159 2438 1159 1844 
L 1159 0 
L 581 0 
L 581 3500 
L 1159 3500 
L 1159 2956 
Q 1341 3275 1631 3429 
Q 1922 3584 2338 3584 
Q 2397 3584 2469 3576 
Q 2541 3569 2628 3553 
L 2631 2963 
z
" transform="scale(0.015625)"/>
       <path id="DejaVuSans-6f" d="M 1959 3097 
Q 1497 3097 1228 2736 
Q 959 2375 959 1747 
Q 959 1119 1226 758 
Q 1494 397 1959 397 
Q 2419 397 2687 759 
Q 2956 1122 2956 1747 
Q 2956 2369 2687 2733 
Q 2419 3097 1959 3097 
z
M 1959 3584 
Q 2709 3584 3137 3096 
Q 3566 2609 3566 1747 
Q 3566 888 3137 398 
Q 2709 -91 1959 -91 
Q 1206 -91 779 398 
Q 353 888 353 1747 
Q 353 2609 779 3096 
Q 1206 3584 1959 3584 
z
" transform="scale(0.015625)"/>
       <path id="DejaVuSans-66" d="M 2375 4863 
L 2375 4384 
L 1825 4384 
Q 1516 4384 1395 4259 
Q 1275 4134 1275 3809 
L 1275 3500 
L 2222 3500 
L 2222 3053 
L 1275 3053 
L 1275 0 
L 697 0 
L 697 3053 
L 147 3053 
L 147 3500 
L 697 3500 
L 697 3744 
Q 697 4328 969 4595 
Q 1241 4863 1831 4863 
L 2375 4863 
z
" transform="scale(0.015625)"/>
       <path id="DejaVuSans-69" d="M 603 3500 
L 1178 3500 
L 1178 0 
L 603 0 
L 603 3500 
z
M 603 4863 
L 1178 4863 
L 1178 4134 
L 603 4134 
L 603 4863 
z
" transform="scale(0.015625)"/>
       <path id="DejaVuSans-6c" d="M 603 4863 
L 1178 4863 
L 1178 0 
L 603 0 
L 603 4863 
z
" transform="scale(0.015625)"/>
      </defs>
      <use xlink:href="#DejaVuSans-53"/>
      <use xlink:href="#DejaVuSans-70" x="63.476562"/>
      <use xlink:href="#DejaVuSans-65" x="126.953125"/>
      <use xlink:href="#DejaVuSans-65" x="188.476562"/>
      <use xlink:href="#DejaVuSans-64" x="250"/>
      <use xlink:href="#DejaVuSans-20" x="313.476562"/>
      <use xlink:href="#DejaVuSans-50" x="345.263672"/>
      <use xlink:href="#DejaVuSans-72" x="403.816406"/>
      <use xlink:href="#DejaVuSans-6f" x="442.679688"/>
      <use xlink:href="#DejaVuSans-66" x="503.861328"/>
      <use xlink:href="#DejaVuSans-69" x="539.066406"/>
      <use xlink:href="#DejaVuSans-6c" x="566.849609"/>
      <use xlink:href="#DejaVuSans-65" x="594.632812"/>
     </g>
    </g>
    <g id="line2d_15">
     <path d="M 309.080938 293.004312 
L 319.080938 293.004312 
L 329.080938 293.004312 
" style="fill: none; stroke: #ff7f0e; stroke-width: 1.5; stroke-linecap: square"/>
    </g>
    <g id="text_13">
     <!-- Acttual speed -->
     <g transform="translate(337.080938 296.504312) scale(0.1 -0.1)">
      <defs>
       <path id="DejaVuSans-41" d="M 2188 4044 
L 1331 1722 
L 3047 1722 
L 2188 4044 
z
M 1831 4666 
L 2547 4666 
L 4325 0 
L 3669 0 
L 3244 1197 
L 1141 1197 
L 716 0 
L 50 0 
L 1831 4666 
z
" transform="scale(0.015625)"/>
       <path id="DejaVuSans-63" d="M 3122 3366 
L 3122 2828 
Q 2878 2963 2633 3030 
Q 2388 3097 2138 3097 
Q 1578 3097 1268 2742 
Q 959 2388 959 1747 
Q 959 1106 1268 751 
Q 1578 397 2138 397 
Q 2388 397 2633 464 
Q 2878 531 3122 666 
L 3122 134 
Q 2881 22 2623 -34 
Q 2366 -91 2075 -91 
Q 1284 -91 818 406 
Q 353 903 353 1747 
Q 353 2603 823 3093 
Q 1294 3584 2113 3584 
Q 2378 3584 2631 3529 
Q 2884 3475 3122 3366 
z
" transform="scale(0.015625)"/>
       <path id="DejaVuSans-74" d="M 1172 4494 
L 1172 3500 
L 2356 3500 
L 2356 3053 
L 1172 3053 
L 1172 1153 
Q 1172 725 1289 603 
Q 1406 481 1766 481 
L 2356 481 
L 2356 0 
L 1766 0 
Q 1100 0 847 248 
Q 594 497 594 1153 
L 594 3053 
L 172 3053 
L 172 3500 
L 594 3500 
L 594 4494 
L 1172 4494 
z
" transform="scale(0.015625)"/>
       <path id="DejaVuSans-75" d="M 544 1381 
L 544 3500 
L 1119 3500 
L 1119 1403 
Q 1119 906 1312 657 
Q 1506 409 1894 409 
Q 2359 409 2629 706 
Q 2900 1003 2900 1516 
L 2900 3500 
L 3475 3500 
L 3475 0 
L 2900 0 
L 2900 538 
Q 2691 219 2414 64 
Q 2138 -91 1772 -91 
Q 1169 -91 856 284 
Q 544 659 544 1381 
z
M 1991 3584 
L 1991 3584 
z
" transform="scale(0.015625)"/>
       <path id="DejaVuSans-61" d="M 2194 1759 
Q 1497 1759 1228 1600 
Q 959 1441 959 1056 
Q 959 750 1161 570 
Q 1363 391 1709 391 
Q 2188 391 2477 730 
Q 2766 1069 2766 1631 
L 2766 1759 
L 2194 1759 
z
M 3341 1997 
L 3341 0 
L 2766 0 
L 2766 531 
Q 2569 213 2275 61 
Q 1981 -91 1556 -91 
Q 1019 -91 701 211 
Q 384 513 384 1019 
Q 384 1609 779 1909 
Q 1175 2209 1959 2209 
L 2766 2209 
L 2766 2266 
Q 2766 2663 2505 2880 
Q 2244 3097 1772 3097 
Q 1472 3097 1187 3025 
Q 903 2953 641 2809 
L 641 3341 
Q 956 3463 1253 3523 
Q 1550 3584 1831 3584 
Q 2591 3584 2966 3190 
Q 3341 2797 3341 1997 
z
" transform="scale(0.015625)"/>
       <path id="DejaVuSans-73" d="M 2834 3397 
L 2834 2853 
Q 2591 2978 2328 3040 
Q 2066 3103 1784 3103 
Q 1356 3103 1142 2972 
Q 928 2841 928 2578 
Q 928 2378 1081 2264 
Q 1234 2150 1697 2047 
L 1894 2003 
Q 2506 1872 2764 1633 
Q 3022 1394 3022 966 
Q 3022 478 2636 193 
Q 2250 -91 1575 -91 
Q 1294 -91 989 -36 
Q 684 19 347 128 
L 347 722 
Q 666 556 975 473 
Q 1284 391 1588 391 
Q 1994 391 2212 530 
Q 2431 669 2431 922 
Q 2431 1156 2273 1281 
Q 2116 1406 1581 1522 
L 1381 1569 
Q 847 1681 609 1914 
Q 372 2147 372 2553 
Q 372 3047 722 3315 
Q 1072 3584 1716 3584 
Q 2034 3584 2315 3537 
Q 2597 3491 2834 3397 
z
" transform="scale(0.015625)"/>
      </defs>
      <use xlink:href="#DejaVuSans-41"/>
      <use xlink:href="#DejaVuSans-63" x="66.658203"/>
      <use xlink:href="#DejaVuSans-74" x="121.638672"/>
      <use xlink:href="#DejaVuSans-74" x="160.847656"/>
      <use xlink:href="#DejaVuSans-75" x="200.056641"/>
      <use xlink:href="#DejaVuSans-61" x="263.435547"/>
      <use xlink:href="#DejaVuSans-6c" x="324.714844"/>
      <use xlink:href="#DejaVuSans-20" x="352.498047"/>
      <use xlink:href="#DejaVuSans-73" x="384.285156"/>
      <use xlink:href="#DejaVuSans-70" x="436.384766"/>
      <use xlink:href="#DejaVuSans-65" x="499.861328"/>
      <use xlink:href="#DejaVuSans-65" x="561.384766"/>
      <use xlink:href="#DejaVuSans-64" x="622.908203"/>
     </g>
    </g>
   </g>
  </g>
 </g>
 <defs>
  <clipPath id="pe1ae34a040">
   <rect x="57.6" y="41.472" width="357.12" height="266.112"/>
  </clipPath>
 </defs>
</svg>
