<?xml version="1.0" encoding="utf-8" standalone="no"?>
<!DOCTYPE svg PUBLIC "-//W3C//DTD SVG 1.1//EN"
  "http://www.w3.org/Graphics/SVG/1.1/DTD/svg11.dtd">
<svg xmlns:xlink="http://www.w3.org/1999/xlink" width="460.8pt" height="345.6pt" viewBox="0 0 460.8 345.6" xmlns="http://www.w3.org/2000/svg" version="1.1">
 <metadata>
  <rdf:RDF xmlns:dc="http://purl.org/dc/elements/1.1/" xmlns:cc="http://creativecommons.org/ns#" xmlns:rdf="http://www.w3.org/1999/02/22-rdf-syntax-ns#">
   <cc:Work>
    <dc:type rdf:resource="http://purl.org/dc/dcmitype/StillImage"/>
    <dc:date>2023-06-05T13:56:08.560048</dc:date>
    <dc:format>image/svg+xml</dc:format>
    <dc:creator>
     <cc:Agent>
      <dc:title>Matplotlib v3.7.1, https://matplotlib.org/</dc:title>
     </cc:Agent>
    </dc:creator>
   </cc:Work>
  </rdf:RDF>
 </metadata>
 <defs>
  <style type="text/css">*{stroke-linejoin: round; stroke-linecap: butt}</style>
 </defs>
 <g id="figure_1">
  <g id="patch_1">
   <path d="M 0 345.6 
L 460.8 345.6 
L 460.8 0 
L 0 0 
z
" style="fill: #ffffff"/>
  </g>
  <g id="axes_1">
   <g id="patch_2">
    <path d="M 57.6 307.584 
L 414.72 307.584 
L 414.72 41.472 
L 57.6 41.472 
z
" style="fill: #ffffff"/>
   </g>
   <g id="matplotlib.axis_1">
    <g id="xtick_1">
     <g id="line2d_1">
      <defs>
       <path id="mdbddeb7485" d="M 0 0 
L 0 3.5 
" style="stroke: #000000; stroke-width: 0.8"/>
      </defs>
      <g>
       <use xlink:href="#mdbddeb7485" x="73.820842" y="307.584" style="stroke: #000000; stroke-width: 0.8"/>
      </g>
     </g>
     <g id="text_1">
      <!-- 0 -->
      <g transform="translate(70.639592 322.182437) scale(0.1 -0.1)">
       <defs>
        <path id="DejaVuSans-30" d="M 2034 4250 
Q 1547 4250 1301 3770 
Q 1056 3291 1056 2328 
Q 1056 1369 1301 889 
Q 1547 409 2034 409 
Q 2525 409 2770 889 
Q 3016 1369 3016 2328 
Q 3016 3291 2770 3770 
Q 2525 4250 2034 4250 
z
M 2034 4750 
Q 2819 4750 3233 4129 
Q 3647 3509 3647 2328 
Q 3647 1150 3233 529 
Q 2819 -91 2034 -91 
Q 1250 -91 836 529 
Q 422 1150 422 2328 
Q 422 3509 836 4129 
Q 1250 4750 2034 4750 
z
" transform="scale(0.015625)"/>
       </defs>
       <use xlink:href="#DejaVuSans-30"/>
      </g>
     </g>
    </g>
    <g id="xtick_2">
     <g id="line2d_2">
      <g>
       <use xlink:href="#mdbddeb7485" x="147.827464" y="307.584" style="stroke: #000000; stroke-width: 0.8"/>
      </g>
     </g>
     <g id="text_2">
      <!-- 5 -->
      <g transform="translate(144.646214 322.182437) scale(0.1 -0.1)">
       <defs>
        <path id="DejaVuSans-35" d="M 691 4666 
L 3169 4666 
L 3169 4134 
L 1269 4134 
L 1269 2991 
Q 1406 3038 1543 3061 
Q 1681 3084 1819 3084 
Q 2600 3084 3056 2656 
Q 3513 2228 3513 1497 
Q 3513 744 3044 326 
Q 2575 -91 1722 -91 
Q 1428 -91 1123 -41 
Q 819 9 494 109 
L 494 744 
Q 775 591 1075 516 
Q 1375 441 1709 441 
Q 2250 441 2565 725 
Q 2881 1009 2881 1497 
Q 2881 1984 2565 2268 
Q 2250 2553 1709 2553 
Q 1456 2553 1204 2497 
Q 953 2441 691 2322 
L 691 4666 
z
" transform="scale(0.015625)"/>
       </defs>
       <use xlink:href="#DejaVuSans-35"/>
      </g>
     </g>
    </g>
    <g id="xtick_3">
     <g id="line2d_3">
      <g>
       <use xlink:href="#mdbddeb7485" x="221.834087" y="307.584" style="stroke: #000000; stroke-width: 0.8"/>
      </g>
     </g>
     <g id="text_3">
      <!-- 10 -->
      <g transform="translate(215.471587 322.182437) scale(0.1 -0.1)">
       <defs>
        <path id="DejaVuSans-31" d="M 794 531 
L 1825 531 
L 1825 4091 
L 703 3866 
L 703 4441 
L 1819 4666 
L 2450 4666 
L 2450 531 
L 3481 531 
L 3481 0 
L 794 0 
L 794 531 
z
" transform="scale(0.015625)"/>
       </defs>
       <use xlink:href="#DejaVuSans-31"/>
       <use xlink:href="#DejaVuSans-30" x="63.623047"/>
      </g>
     </g>
    </g>
    <g id="xtick_4">
     <g id="line2d_4">
      <g>
       <use xlink:href="#mdbddeb7485" x="295.840709" y="307.584" style="stroke: #000000; stroke-width: 0.8"/>
      </g>
     </g>
     <g id="text_4">
      <!-- 15 -->
      <g transform="translate(289.478209 322.182437) scale(0.1 -0.1)">
       <use xlink:href="#DejaVuSans-31"/>
       <use xlink:href="#DejaVuSans-35" x="63.623047"/>
      </g>
     </g>
    </g>
    <g id="xtick_5">
     <g id="line2d_5">
      <g>
       <use xlink:href="#mdbddeb7485" x="369.847332" y="307.584" style="stroke: #000000; stroke-width: 0.8"/>
      </g>
     </g>
     <g id="text_5">
      <!-- 20 -->
      <g transform="translate(363.484832 322.182437) scale(0.1 -0.1)">
       <defs>
        <path id="DejaVuSans-32" d="M 1228 531 
L 3431 531 
L 3431 0 
L 469 0 
L 469 531 
Q 828 903 1448 1529 
Q 2069 2156 2228 2338 
Q 2531 2678 2651 2914 
Q 2772 3150 2772 3378 
Q 2772 3750 2511 3984 
Q 2250 4219 1831 4219 
Q 1534 4219 1204 4116 
Q 875 4013 500 3803 
L 500 4441 
Q 881 4594 1212 4672 
Q 1544 4750 1819 4750 
Q 2544 4750 2975 4387 
Q 3406 4025 3406 3419 
Q 3406 3131 3298 2873 
Q 3191 2616 2906 2266 
Q 2828 2175 2409 1742 
Q 1991 1309 1228 531 
z
" transform="scale(0.015625)"/>
       </defs>
       <use xlink:href="#DejaVuSans-32"/>
       <use xlink:href="#DejaVuSans-30" x="63.623047"/>
      </g>
     </g>
    </g>
   </g>
   <g id="matplotlib.axis_2">
    <g id="ytick_1">
     <g id="line2d_6">
      <defs>
       <path id="m056cf3af45" d="M 0 0 
L -3.5 0 
" style="stroke: #000000; stroke-width: 0.8"/>
      </defs>
      <g>
       <use xlink:href="#m056cf3af45" x="57.6" y="274.201702" style="stroke: #000000; stroke-width: 0.8"/>
      </g>
     </g>
     <g id="text_6">
      <!-- 3 -->
      <g transform="translate(44.2375 278.00092) scale(0.1 -0.1)">
       <defs>
        <path id="DejaVuSans-33" d="M 2597 2516 
Q 3050 2419 3304 2112 
Q 3559 1806 3559 1356 
Q 3559 666 3084 287 
Q 2609 -91 1734 -91 
Q 1441 -91 1130 -33 
Q 819 25 488 141 
L 488 750 
Q 750 597 1062 519 
Q 1375 441 1716 441 
Q 2309 441 2620 675 
Q 2931 909 2931 1356 
Q 2931 1769 2642 2001 
Q 2353 2234 1838 2234 
L 1294 2234 
L 1294 2753 
L 1863 2753 
Q 2328 2753 2575 2939 
Q 2822 3125 2822 3475 
Q 2822 3834 2567 4026 
Q 2313 4219 1838 4219 
Q 1578 4219 1281 4162 
Q 984 4106 628 3988 
L 628 4550 
Q 988 4650 1302 4700 
Q 1616 4750 1894 4750 
Q 2613 4750 3031 4423 
Q 3450 4097 3450 3541 
Q 3450 3153 3228 2886 
Q 3006 2619 2597 2516 
z
" transform="scale(0.015625)"/>
       </defs>
       <use xlink:href="#DejaVuSans-33"/>
      </g>
     </g>
    </g>
    <g id="ytick_2">
     <g id="line2d_7">
      <g>
       <use xlink:href="#m056cf3af45" x="57.6" y="230.074961" style="stroke: #000000; stroke-width: 0.8"/>
      </g>
     </g>
     <g id="text_7">
      <!-- 4 -->
      <g transform="translate(44.2375 233.87418) scale(0.1 -0.1)">
       <defs>
        <path id="DejaVuSans-34" d="M 2419 4116 
L 825 1625 
L 2419 1625 
L 2419 4116 
z
M 2253 4666 
L 3047 4666 
L 3047 1625 
L 3713 1625 
L 3713 1100 
L 3047 1100 
L 3047 0 
L 2419 0 
L 2419 1100 
L 313 1100 
L 313 1709 
L 2253 4666 
z
" transform="scale(0.015625)"/>
       </defs>
       <use xlink:href="#DejaVuSans-34"/>
      </g>
     </g>
    </g>
    <g id="ytick_3">
     <g id="line2d_8">
      <g>
       <use xlink:href="#m056cf3af45" x="57.6" y="185.948221" style="stroke: #000000; stroke-width: 0.8"/>
      </g>
     </g>
     <g id="text_8">
      <!-- 5 -->
      <g transform="translate(44.2375 189.74744) scale(0.1 -0.1)">
       <use xlink:href="#DejaVuSans-35"/>
      </g>
     </g>
    </g>
    <g id="ytick_4">
     <g id="line2d_9">
      <g>
       <use xlink:href="#m056cf3af45" x="57.6" y="141.821481" style="stroke: #000000; stroke-width: 0.8"/>
      </g>
     </g>
     <g id="text_9">
      <!-- 6 -->
      <g transform="translate(44.2375 145.620699) scale(0.1 -0.1)">
       <defs>
        <path id="DejaVuSans-36" d="M 2113 2584 
Q 1688 2584 1439 2293 
Q 1191 2003 1191 1497 
Q 1191 994 1439 701 
Q 1688 409 2113 409 
Q 2538 409 2786 701 
Q 3034 994 3034 1497 
Q 3034 2003 2786 2293 
Q 2538 2584 2113 2584 
z
M 3366 4563 
L 3366 3988 
Q 3128 4100 2886 4159 
Q 2644 4219 2406 4219 
Q 1781 4219 1451 3797 
Q 1122 3375 1075 2522 
Q 1259 2794 1537 2939 
Q 1816 3084 2150 3084 
Q 2853 3084 3261 2657 
Q 3669 2231 3669 1497 
Q 3669 778 3244 343 
Q 2819 -91 2113 -91 
Q 1303 -91 875 529 
Q 447 1150 447 2328 
Q 447 3434 972 4092 
Q 1497 4750 2381 4750 
Q 2619 4750 2861 4703 
Q 3103 4656 3366 4563 
z
" transform="scale(0.015625)"/>
       </defs>
       <use xlink:href="#DejaVuSans-36"/>
      </g>
     </g>
    </g>
    <g id="ytick_5">
     <g id="line2d_10">
      <g>
       <use xlink:href="#m056cf3af45" x="57.6" y="97.69474" style="stroke: #000000; stroke-width: 0.8"/>
      </g>
     </g>
     <g id="text_10">
      <!-- 7 -->
      <g transform="translate(44.2375 101.493959) scale(0.1 -0.1)">
       <defs>
        <path id="DejaVuSans-37" d="M 525 4666 
L 3525 4666 
L 3525 4397 
L 1831 0 
L 1172 0 
L 2766 4134 
L 525 4134 
L 525 4666 
z
" transform="scale(0.015625)"/>
       </defs>
       <use xlink:href="#DejaVuSans-37"/>
      </g>
     </g>
    </g>
    <g id="ytick_6">
     <g id="line2d_11">
      <g>
       <use xlink:href="#m056cf3af45" x="57.6" y="53.568" style="stroke: #000000; stroke-width: 0.8"/>
      </g>
     </g>
     <g id="text_11">
      <!-- 8 -->
      <g transform="translate(44.2375 57.367219) scale(0.1 -0.1)">
       <defs>
        <path id="DejaVuSans-38" d="M 2034 2216 
Q 1584 2216 1326 1975 
Q 1069 1734 1069 1313 
Q 1069 891 1326 650 
Q 1584 409 2034 409 
Q 2484 409 2743 651 
Q 3003 894 3003 1313 
Q 3003 1734 2745 1975 
Q 2488 2216 2034 2216 
z
M 1403 2484 
Q 997 2584 770 2862 
Q 544 3141 544 3541 
Q 544 4100 942 4425 
Q 1341 4750 2034 4750 
Q 2731 4750 3128 4425 
Q 3525 4100 3525 3541 
Q 3525 3141 3298 2862 
Q 3072 2584 2669 2484 
Q 3125 2378 3379 2068 
Q 3634 1759 3634 1313 
Q 3634 634 3220 271 
Q 2806 -91 2034 -91 
Q 1263 -91 848 271 
Q 434 634 434 1313 
Q 434 1759 690 2068 
Q 947 2378 1403 2484 
z
M 1172 3481 
Q 1172 3119 1398 2916 
Q 1625 2713 2034 2713 
Q 2441 2713 2670 2916 
Q 2900 3119 2900 3481 
Q 2900 3844 2670 4047 
Q 2441 4250 2034 4250 
Q 1625 4250 1398 4047 
Q 1172 3844 1172 3481 
z
" transform="scale(0.015625)"/>
       </defs>
       <use xlink:href="#DejaVuSans-38"/>
      </g>
     </g>
    </g>
   </g>
   <g id="line2d_12">
    <path d="M 73.832727 53.568 
L 73.846167 53.568 
L 73.920248 55.299666 
L 74.384802 55.299666 
L 74.532134 57.448638 
L 75.292064 57.448638 
L 75.459186 59.729461 
L 76.045362 59.729461 
L 76.193716 62.328702 
L 76.778487 62.328702 
L 76.94512 65.286518 
L 77.355783 65.286518 
L 77.533206 68.54541 
L 77.968188 68.54541 
L 78.120197 71.990782 
L 78.531807 71.990782 
L 78.651713 75.813437 
L 79.006826 75.813437 
L 79.126954 79.820189 
L 79.598983 79.820189 
L 79.720176 83.972339 
L 80.01863 83.972339 
L 80.188875 88.555519 
L 80.484798 88.555519 
L 80.600366 93.014879 
L 80.901825 93.014879 
L 81.014833 97.619239 
L 81.385991 97.619239 
L 81.494766 102.526574 
L 81.821076 102.526574 
L 81.976357 107.395916 
L 82.261578 107.395916 
L 82.407756 112.340185 
L 82.706032 112.340185 
L 82.861121 117.439559 
L 83.152899 117.439559 
L 83.29554 122.620656 
L 83.588295 122.620656 
L 83.744049 127.903377 
L 84.043998 127.903377 
L 84.194261 133.288649 
L 84.457088 133.288649 
L 84.630264 138.781457 
L 85.062063 138.781457 
L 85.226047 144.38723 
L 85.518832 144.38723 
L 85.667037 150.112454 
L 85.93953 150.112454 
L 86.109434 155.960483 
L 86.530858 155.960483 
L 86.707807 161.825721 
L 87.00188 161.825721 
L 87.122733 167.726922 
L 87.594525 167.726922 
L 87.712581 173.639464 
L 88.033266 173.639464 
L 88.206027 179.509424 
L 88.620938 179.509424 
L 88.786535 185.272199 
L 89.190226 185.272199 
L 89.363565 190.968432 
L 89.80981 190.968432 
L 89.985028 196.58559 
L 90.371742 196.58559 
L 90.500484 202.23774 
L 90.969671 202.23774 
L 91.151772 207.435428 
L 91.565706 207.435428 
L 91.741486 212.131043 
L 92.325043 212.131043 
L 92.443247 216.336895 
L 92.917496 216.336895 
L 93.04014 220.006431 
L 93.630298 220.006431 
L 93.80824 223.316686 
L 94.250592 223.316686 
L 94.415878 226.09548 
L 94.996756 226.09548 
L 95.108314 228.341178 
L 95.700855 228.341178 
L 95.822152 230.128487 
L 96.477348 230.128487 
L 96.620447 231.444391 
L 97.181654 231.444391 
L 97.356354 232.153507 
L 97.959123 232.153507 
L 98.071968 232.59782 
L 98.662763 232.59782 
L 98.842037 232.918312 
L 99.428347 232.918312 
L 99.54729 233.120059 
L 103.874236 233.075094 
L 104.011636 232.926078 
L 104.578838 232.926078 
L 104.701511 232.701076 
L 105.360599 232.701076 
L 105.476212 232.415223 
L 106.088055 232.415223 
L 106.252912 231.684881 
L 106.832295 231.684881 
L 106.951179 230.475588 
L 107.542107 230.475588 
L 107.661598 228.686072 
L 108.432022 228.686072 
L 108.551084 226.475323 
L 109.204962 226.475323 
L 109.315276 224.020552 
L 109.91365 224.020552 
L 110.031646 221.047469 
L 110.682638 221.047469 
L 110.80016 217.755835 
L 111.270383 217.755835 
L 111.389149 214.269425 
L 111.985998 214.269425 
L 112.158167 210.235005 
L 112.751123 210.235005 
L 112.87763 205.844748 
L 113.464339 205.844748 
L 113.582809 201.487364 
L 114.052766 201.487364 
L 114.232424 197.13382 
L 114.8321 197.13382 
L 114.945182 192.83058 
L 115.415405 192.83058 
L 115.534023 188.556376 
L 116.155797 188.556376 
L 116.336892 184.106989 
L 116.726196 184.106989 
L 116.89542 179.800042 
L 117.346949 179.800042 
L 117.562767 175.419978 
L 117.925399 175.419978 
L 118.093824 170.999185 
L 118.674509 170.999185 
L 118.825468 166.456646 
L 119.263454 166.456646 
L 119.383803 161.888072 
L 119.858008 161.888072 
L 119.976937 157.427873 
L 120.271602 157.427873 
L 120.451379 152.869581 
L 120.863285 152.869581 
L 121.043224 148.387451 
L 121.457691 148.387451 
L 121.633087 143.829998 
L 122.0493 143.829998 
L 122.232377 139.179833 
L 122.522572 139.179833 
L 122.642123 134.491367 
L 123.146759 134.491367 
L 123.288704 129.686009 
L 123.530972 129.686009 
L 123.710142 124.84941 
L 124.125778 124.84941 
L 124.301543 119.956593 
L 124.625145 119.956593 
L 124.78454 115.076528 
L 125.020651 115.076528 
L 125.194315 110.206789 
L 125.629089 110.206789 
L 125.807519 105.236971 
L 126.073943 105.236971 
L 126.194751 100.509011 
L 126.52081 100.509011 
L 126.695732 95.758547 
L 126.967928 95.758547 
L 127.079811 91.081686 
L 127.405174 91.081686 
L 127.586283 86.582524 
L 127.853491 86.582524 
L 127.991617 82.225847 
L 128.263429 82.225847 
L 128.379797 77.774165 
L 128.743021 77.774165 
L 128.877328 73.291991 
L 129.155697 73.291991 
L 129.334053 68.982309 
L 129.626098 68.982309 
L 129.740705 64.651711 
L 130.03796 64.651711 
L 130.154831 61.525022 
L 130.548413 61.525022 
L 130.712323 65.84097 
L 130.815666 65.84097 
L 130.932581 70.147917 
L 131.224641 70.147917 
L 131.350008 74.380156 
L 131.698713 74.380156 
L 131.814844 78.939993 
L 132.10791 78.939993 
L 132.22789 83.546648 
L 132.404395 83.546648 
L 132.584942 87.977679 
L 132.914405 87.977679 
L 133.08163 92.333209 
L 133.303487 92.333209 
L 133.477077 96.323943 
L 133.781496 96.323943 
L 133.910667 100.427156 
L 134.070876 100.427156 
L 134.188103 104.486993 
L 134.477957 104.486993 
L 134.59548 108.256079 
L 134.950356 108.256079 
L 135.070321 112.012985 
L 135.394381 112.012985 
L 135.567616 115.599342 
L 135.844726 115.599342 
L 135.994812 119.236268 
L 136.258956 119.236268 
L 136.435062 122.939251 
L 136.729638 122.939251 
L 136.845622 126.612847 
L 137.143454 126.612847 
L 137.260695 130.340321 
L 137.616401 130.340321 
L 137.734441 134.157284 
L 138.035219 134.157284 
L 138.14984 138.068546 
L 138.622639 138.068546 
L 138.748554 142.058309 
L 139.096607 142.058309 
L 139.24237 146.279208 
L 139.523788 146.279208 
L 139.698873 150.470234 
L 140.001012 150.470234 
L 140.109713 154.931447 
L 140.580144 154.931447 
L 140.696749 159.69837 
L 141.022422 159.69837 
L 141.213211 164.30379 
L 141.590201 164.30379 
L 141.759957 169.308424 
L 142.1758 169.308424 
L 142.358567 174.778772 
L 142.652048 174.778772 
L 142.769526 180.383045 
L 143.245226 180.383045 
L 143.362245 186.528311 
L 143.871218 186.528311 
L 144.011846 193.222779 
L 144.433935 193.222779 
L 144.553308 199.914202 
L 145.048604 199.914202 
L 145.187278 206.572839 
L 145.614415 206.572839 
L 145.755397 213.229799 
L 146.204795 213.229799 
L 146.319328 219.945624 
L 146.911825 219.945624 
L 147.093985 226.744231 
L 147.698041 226.744231 
L 147.811316 233.736907 
L 148.401326 233.736907 
L 148.578321 241.020643 
L 149.170714 241.020643 
L 149.284373 248.437731 
L 149.887143 248.437731 
L 150.059178 255.463105 
L 150.771004 255.463105 
L 150.946148 261.917832 
L 151.540524 261.917832 
L 151.655072 267.727603 
L 152.424844 267.727603 
L 152.543418 272.620155 
L 153.42719 272.620155 
L 153.548827 276.570778 
L 154.320746 276.570778 
L 154.495476 279.579207 
L 155.381335 279.579207 
L 155.505104 281.684847 
L 156.392709 281.684847 
L 156.567336 282.968979 
L 157.462653 282.968979 
L 157.574033 283.46867 
L 159.527586 283.551496 
L 159.710145 283.601889 
L 166.770111 283.536493 
L 167.013681 283.473745 
L 169.115662 283.397626 
L 169.295024 283.324949 
L 170.180809 283.324949 
L 170.29774 283.124835 
L 171.362207 283.124835 
L 171.482423 282.279455 
L 172.580134 282.279455 
L 172.754552 280.618436 
L 173.73961 280.618436 
L 173.859501 278.366781 
L 174.73901 278.366781 
L 174.916804 275.228046 
L 175.817524 275.228046 
L 175.931849 271.02665 
L 176.811521 271.02665 
L 176.988442 266.032077 
L 177.882412 266.032077 
L 178.021382 260.407153 
L 178.767827 260.407153 
L 178.882197 254.183385 
L 179.784145 254.183385 
L 179.950498 247.386367 
L 180.662856 247.386367 
L 180.8372 240.386145 
L 181.566802 240.386145 
L 181.74168 234.450745 
L 182.466308 234.450745 
L 182.626029 228.269781 
L 183.221235 228.269781 
L 183.332778 222.222343 
L 184.101041 222.222343 
L 184.212746 216.671596 
L 184.82817 216.671596 
L 184.994582 211.29793 
L 185.579382 211.29793 
L 185.729615 206.034184 
L 186.284443 206.034184 
L 186.403239 200.95118 
L 187.062593 200.95118 
L 187.175557 196.071116 
L 187.644626 196.071116 
L 187.769475 191.2414 
L 188.36468 191.2414 
L 188.477763 186.304324 
L 188.992168 186.304324 
L 189.163715 181.454221 
L 189.736896 181.454221 
L 189.83796 176.782965 
L 190.333553 176.782965 
L 190.449891 171.979592 
L 190.904381 171.979592 
L 191.019461 167.153892 
L 191.499142 167.153892 
L 191.612698 162.384145 
L 192.084801 162.384145 
L 192.235094 157.54781 
L 192.684817 157.54781 
L 192.822425 152.669422 
L 193.267131 152.669422 
L 193.386355 147.899233 
L 193.860901 147.899233 
L 193.97943 143.051293 
L 194.275501 143.051293 
L 194.454685 138.201676 
L 194.905297 138.201676 
L 195.062857 133.347161 
L 195.35582 133.347161 
L 195.487033 128.289839 
L 195.934107 128.289839 
L 196.072929 123.344732 
L 196.354036 123.344732 
L 196.467666 118.392741 
L 196.946192 118.392741 
L 197.125851 113.281452 
L 197.418976 113.281452 
L 197.560906 108.446132 
L 197.844825 108.446132 
L 198.014937 103.739001 
L 198.449711 103.739001 
L 198.615382 99.150261 
L 198.899242 99.150261 
L 199.017963 95.762651 
L 199.311888 95.762651 
L 199.490259 100.213804 
L 199.786448 100.213804 
L 199.904207 104.737103 
L 200.201078 104.737103 
L 200.378398 109.338066 
L 200.672722 109.338066 
L 200.792109 114.034652 
L 201.088284 114.034652 
L 201.266906 118.711733 
L 201.563392 118.711733 
L 201.683001 123.655384 
L 201.980759 123.655384 
L 202.154897 128.842041 
L 202.455571 128.842041 
L 202.593727 133.824303 
L 202.881183 133.824303 
L 203.044279 139.010916 
L 203.45472 139.010916 
L 203.572227 144.454523 
L 203.940277 144.454523 
L 204.050473 149.831631 
L 204.350126 149.831631 
L 204.460721 155.376642 
L 204.833359 155.376642 
L 204.938996 161.2237 
L 205.412787 161.2237 
L 205.524818 167.256354 
L 205.822709 167.256354 
L 205.99923 173.495434 
L 206.413845 173.495434 
L 206.594628 179.922715 
L 207.007659 179.922715 
L 207.19124 186.432512 
L 207.596633 186.432512 
L 207.774915 193.220087 
L 208.190877 193.220087 
L 208.311759 200.13691 
L 208.800218 200.13691 
L 208.976102 207.076987 
L 209.376907 207.076987 
L 209.553961 214.485337 
L 209.966932 214.485337 
L 210.141425 221.95392 
L 210.743454 221.95392 
L 210.865447 229.443905 
L 211.458447 229.443905 
L 211.627537 236.749219 
L 212.225526 236.749219 
L 212.337246 243.545267 
L 212.932363 243.545267 
L 213.105464 250.244324 
L 213.701425 250.244324 
L 213.822189 256.670236 
L 214.587477 256.670236 
L 214.704481 262.298734 
L 215.478324 262.298734 
L 215.592472 267.381164 
L 216.367129 267.381164 
L 216.509133 272.038785 
L 217.246313 272.038785 
L 217.366692 276.177079 
L 218.323079 276.177079 
L 218.462079 279.860074 
L 219.168042 279.860074 
L 219.342965 283.017783 
L 220.2105 283.017783 
L 220.327075 285.900627 
L 221.394798 285.900627 
L 221.509553 288.232681 
L 222.398224 288.232681 
L 222.515717 290.035435 
L 223.612643 290.035435 
L 223.778951 291.795872 
L 224.472808 291.795872 
L 224.587237 293.116188 
L 225.358859 293.116188 
L 225.478158 294.214502 
L 226.555902 294.214502 
L 226.724637 295.064648 
L 227.725724 295.064648 
L 227.902082 295.469732 
L 232.046838 295.488 
L 232.195769 295.248657 
L 233.269797 295.248657 
L 233.428083 294.773456 
L 234.419801 294.773456 
L 234.536717 294.202103 
L 235.136718 294.202103 
L 235.303307 293.236565 
L 236.310285 293.236565 
L 236.428977 291.875873 
L 237.502443 291.875873 
L 237.675367 290.171301 
L 238.703689 290.171301 
L 238.88838 287.965317 
L 239.872609 287.965317 
L 239.983885 285.679508 
L 240.931999 285.679508 
L 241.077052 283.189083 
L 242.125874 283.189083 
L 242.248044 279.951328 
L 243.119945 279.951328 
L 243.299559 276.789647 
L 244.228905 276.789647 
L 244.389041 273.339906 
L 245.192072 273.339906 
L 245.310245 269.423482 
L 246.261393 269.423482 
L 246.376488 265.458076 
L 247.262747 265.458076 
L 247.385376 261.719262 
L 248.155489 261.719262 
L 248.271546 257.30597 
L 249.223538 257.30597 
L 249.343962 252.949911 
L 250.111277 252.949911 
L 250.257677 248.430362 
L 251.001133 248.430362 
L 251.121453 243.38341 
L 251.880539 243.38341 
L 251.998579 238.646051 
L 252.79418 238.646051 
L 252.918644 233.885791 
L 253.482131 233.885791 
L 253.605781 228.942493 
L 254.370195 228.942493 
L 254.494112 224.068429 
L 255.163398 224.068429 
L 255.34393 218.875595 
L 255.852992 218.875595 
L 256.027692 213.42528 
L 256.620085 213.42528 
L 256.739162 207.643971 
L 257.332 207.643971 
L 257.508801 213.191453 
L 258.111067 213.191453 
L 258.254788 220.578446 
L 258.819858 220.578446 
L 258.984745 227.577255 
L 259.58488 227.577255 
L 259.700567 234.086435 
L 260.174772 234.086435 
L 260.290977 240.614501 
L 261.06667 240.614501 
L 261.182461 247.273579 
L 261.78113 247.273579 
L 261.952618 252.909182 
L 262.545648 252.909182 
L 262.661557 258.057139 
L 263.43386 258.057139 
L 263.554758 262.628361 
L 264.319335 262.628361 
L 264.437893 266.48645 
L 265.207888 266.48645 
L 265.328282 269.852217 
L 266.094857 269.852217 
L 266.210826 272.741062 
L 267.104766 272.741062 
L 267.220883 274.724206 
L 267.98771 274.724206 
L 268.165074 276.107624 
L 269.056884 276.107624 
L 269.173488 276.9057 
L 270.065831 276.9057 
L 270.23794 277.286999 
L 270.958365 277.286999 
L 271.13946 277.522636 
L 272.021026 277.522636 
L 272.134316 277.689303 
L 276.277266 277.588826 
L 276.394921 277.264848 
L 277.354402 277.264848 
L 277.489835 276.807209 
L 278.248846 276.807209 
L 278.35851 276.328169 
L 279.23605 276.328169 
L 279.361832 275.803591 
L 280.332148 275.803591 
L 280.457737 275.179683 
L 281.306075 275.179683 
L 281.42487 273.858616 
L 282.382738 273.858616 
L 282.497966 272.005381 
L 283.386815 272.005381 
L 283.56156 269.694773 
L 284.268116 269.694773 
L 284.445687 266.883238 
L 285.339969 266.883238 
L 285.452873 263.578057 
L 286.250324 263.578057 
L 286.350411 259.929172 
L 287.233265 259.929172 
L 287.407344 255.915801 
L 288.117511 255.915801 
L 288.293247 251.594602 
L 289.005901 251.594602 
L 289.128945 248.225878 
L 289.899724 248.225878 
L 290.013916 251.196093 
L 290.813898 251.196093 
L 290.969623 254.17178 
L 291.69286 254.17178 
L 291.856045 256.814354 
L 292.440342 256.814354 
L 292.582197 258.938439 
L 293.32999 258.938439 
L 293.471713 260.671693 
L 294.220704 260.671693 
L 294.343511 261.974138 
L 295.122297 261.974138 
L 295.229118 262.736383 
L 295.997825 262.736383 
L 296.116621 263.251342 
L 296.886748 263.251342 
L 297.004064 263.78885 
L 297.888132 263.78885 
L 298.006513 264.187226 
L 298.771342 264.187226 
L 298.951474 264.38156 
L 303.102609 264.385885 
L 303.21689 264.220586 
L 303.996416 264.220586 
L 304.110949 263.88637 
L 304.870731 263.88637 
L 304.989408 263.252269 
L 305.765708 263.252269 
L 305.880551 262.076512 
L 306.764753 262.076512 
L 306.884036 260.331432 
L 307.659804 260.331432 
L 307.833379 257.933187 
L 308.56187 257.933187 
L 308.727023 254.604707 
L 309.431892 254.604707 
L 309.550717 250.726982 
L 310.342203 250.726982 
L 310.510524 246.10197 
L 311.268929 246.10197 
L 311.405797 240.670321 
L 311.980562 240.670321 
L 312.096323 234.361521 
L 312.867753 234.361521 
L 312.991241 227.257646 
L 313.756262 227.257646 
L 313.868856 219.533348 
L 314.464298 219.533348 
L 314.640256 212.280677 
L 315.249242 212.280677 
L 315.412234 206.199615 
L 315.950292 206.199615 
L 316.072062 201.248109 
L 316.723261 201.248109 
L 316.83288 197.097636 
L 317.31194 197.097636 
L 317.430765 193.904802 
L 318.024357 193.904802 
L 318.201425 191.441515 
L 318.625602 191.441515 
L 318.79259 189.26183 
L 319.393746 189.26183 
L 319.49814 187.515073 
L 319.971752 187.515073 
L 320.098896 185.986391 
L 320.680307 185.986391 
L 320.798066 184.507704 
L 321.279731 184.507704 
L 321.45039 183.147541 
L 321.868542 183.147541 
L 322.040741 181.556287 
L 322.453653 181.556287 
L 322.634792 179.890767 
L 323.058539 179.890767 
L 323.16875 178.150805 
L 323.644642 178.150805 
L 323.763585 176.208832 
L 324.230123 176.208832 
L 324.408183 174.014762 
L 324.832567 174.014762 
L 324.942644 171.389309 
L 325.439969 171.389309 
L 325.635568 168.590526 
L 326.052314 168.590526 
L 326.234948 165.47637 
L 326.628604 165.47637 
L 326.803792 162.132401 
L 327.233356 162.132401 
L 327.387793 158.505404 
L 327.784247 158.505404 
L 327.904537 154.62128 
L 328.258614 154.62128 
L 328.378298 150.387672 
L 328.85009 150.387672 
L 328.968915 145.864373 
L 329.443446 145.864373 
L 329.595204 141.086947 
L 329.928396 141.086947 
L 330.045164 136.197792 
L 330.455649 136.197792 
L 330.629239 131.281544 
L 330.934235 131.281544 
L 331.039842 126.333039 
L 331.513722 126.333039 
L 331.640169 121.362426 
L 331.931223 121.362426 
L 332.105923 116.335641 
L 332.428295 116.335641 
L 332.546218 111.287586 
L 332.996459 111.287586 
L 333.115462 109.833962 
L 333.411222 109.833962 
L 333.616857 114.882856 
L 333.902004 114.882856 
L 334.022295 120.023003 
L 334.302054 120.023003 
L 334.416276 125.257626 
L 334.898355 125.257626 
L 335.016722 130.591667 
L 335.365456 130.591667 
L 335.488395 136.030861 
L 335.784451 136.030861 
L 335.903513 141.581696 
L 336.259589 141.581696 
L 336.380264 147.251276 
L 336.675684 147.251276 
L 336.848948 153.047676 
L 337.263725 153.047676 
L 337.440557 158.979678 
L 337.733505 158.979678 
L 337.852034 165.057342 
L 338.328533 165.057342 
L 338.441926 171.291877 
L 338.737656 171.291877 
L 338.916723 177.696035 
L 339.333543 177.696035 
L 339.44809 184.284643 
L 339.919882 184.284643 
L 340.037568 191.072395 
L 340.561801 191.072395 
L 340.724541 197.978759 
L 341.124429 197.978759 
L 341.291551 204.969979 
L 341.701059 204.969979 
L 341.87345 211.945931 
L 342.288242 211.945931 
L 342.405187 218.664625 
L 343.10643 218.664625 
L 343.254621 224.84987 
L 343.666838 224.84987 
L 343.777847 230.477397 
L 344.38223 230.477397 
L 344.551779 235.571123 
L 345.135884 235.571123 
L 345.252281 239.985033 
L 345.840634 239.985033 
L 346.018738 243.72195 
L 346.773044 243.72195 
L 346.919369 246.820795 
L 347.510164 246.820795 
L 347.647935 249.366069 
L 348.216794 249.366069 
L 348.389082 251.303277 
L 349.117188 251.303277 
L 349.221035 252.592749 
L 349.995114 252.592749 
L 350.188286 253.830813 
L 350.766678 253.830813 
L 350.877214 254.944925 
L 351.648023 254.944925 
L 351.761948 255.858701 
L 352.536531 255.858701 
L 352.650931 256.820532 
L 353.429184 256.820532 
L 353.545508 257.673502 
L 353.834607 257.673502 
L 354.049819 258.10815 
L 354.613009 258.10815 
L 354.727127 258.621653 
L 355.502569 258.621653 
L 355.613786 259.083925 
L 356.384831 259.083925 
L 356.499245 259.421847 
L 357.274376 259.421847 
L 357.41373 259.803808 
L 358.279993 259.803808 
L 358.463559 260.136391 
L 359.045961 260.136391 
L 359.18912 260.443867 
L 360.077969 260.443867 
L 360.246482 260.626198 
L 363.643771 260.685769 
L 363.805372 260.797145 
L 370.711877 260.769831 
L 370.953938 260.659955 
L 371.496495 260.659955 
L 371.607076 260.548712 
L 372.186636 260.548712 
L 372.363601 260.415493 
L 373.081051 260.415493 
L 373.269398 260.214275 
L 374.183587 260.214275 
L 374.373029 260.011689 
L 375.053964 260.011689 
L 375.156359 259.725925 
L 375.920848 259.725925 
L 376.062052 259.470122 
L 376.806322 259.470122 
L 376.963453 258.82746 
L 377.699153 258.82746 
L 377.813227 257.502202 
L 378.584139 257.502202 
L 378.700581 255.618784 
L 379.477251 255.618784 
L 379.595129 253.108105 
L 380.412487 253.108105 
L 380.589852 249.956088 
L 381.247741 249.956088 
L 381.379206 246.358611 
L 381.967248 246.358611 
L 382.135139 242.392764 
L 382.848578 242.392764 
L 383.02504 237.795508 
L 383.761109 237.795508 
L 383.927876 232.785844 
L 384.507836 232.785844 
L 384.625462 227.004667 
L 385.40154 227.004667 
L 385.539844 221.342103 
L 386.109029 221.342103 
L 386.283492 216.023286 
L 386.88897 216.023286 
L 386.999476 210.656283 
L 387.586911 210.656283 
L 387.758829 205.146883 
L 388.355307 205.146883 
L 388.470462 199.799384 
L 388.942476 199.799384 
L 389.065534 194.549052 
L 389.663478 194.549052 
L 389.835765 189.290071 
L 390.439526 189.290071 
L 390.546303 184.215893 
L 391.020685 184.215893 
L 391.135366 179.313677 
L 391.65729 179.313677 
L 391.782983 174.450602 
L 392.201964 174.450602 
L 392.347535 169.716288 
L 392.915714 169.716288 
L 393.101855 164.989564 
L 393.530783 164.989564 
L 393.693745 160.603851 
L 394.093677 160.603851 
L 394.302953 156.463351 
L 394.569051 156.463351 
L 394.687047 152.24735 
L 395.160201 152.24735 
L 395.279026 148.161081 
L 395.754149 148.161081 
L 395.894554 144.253658 
L 396.34894 144.253658 
L 396.462318 140.33516 
L 396.7591 140.33516 
L 396.93605 136.378271 
L 397.362698 136.378271 
L 397.475661 132.539686 
L 397.823922 132.539686 
L 397.967924 128.838379 
L 398.43125 128.838379 
L 398.487273 53.568 
L 398.487273 53.568 
" clip-path="url(#p0917966adb)" style="fill: none; stroke: #1f77b4; stroke-width: 1.5; stroke-linecap: square"/>
   </g>
   <g id="line2d_13">
    <path d="M 73.832727 281.527623 
L 73.846167 281.527623 
L 73.901169 294.116982 
L 73.920248 289.920529 
L 73.973517 289.920529 
L 74.20797 281.527623 
L 74.274014 281.527623 
L 74.450757 273.134717 
L 74.609678 273.134717 
L 74.940177 260.545358 
L 74.991168 260.545358 
L 75.103081 256.348905 
L 75.180358 256.348905 
L 75.402822 247.955999 
L 75.459186 247.955999 
L 75.638074 239.563093 
L 75.748581 239.563093 
L 75.934086 231.170187 
L 76.045362 231.170187 
L 76.193716 226.973734 
L 76.540911 214.384375 
L 76.639221 214.384375 
L 76.845714 205.991469 
L 76.94512 205.991469 
L 77.120768 197.598563 
L 77.25583 197.598563 
L 77.4301 189.205657 
L 77.533206 189.205657 
L 77.710837 180.812751 
L 77.849274 180.812751 
L 78.063671 172.419845 
L 78.120197 172.419845 
L 78.326202 164.026939 
L 78.421508 164.026939 
L 78.59902 155.653713 
L 78.712265 155.653713 
L 78.894085 148.241436 
L 79.006826 148.241436 
L 79.190289 141.70781 
L 79.303238 141.70781 
L 79.4949 135.9622 
L 79.598983 135.9622 
L 79.792821 130.94746 
L 79.902366 130.94746 
L 80.079153 126.586371 
L 80.188875 126.586371 
L 80.371494 123.055614 
L 80.484798 123.055614 
L 80.67017 120.064703 
L 80.779078 120.064703 
L 80.966684 117.553406 
L 81.100636 117.553406 
L 81.440593 114.842877 
L 81.494766 114.842877 
L 81.615604 114.257227 
L 81.675135 114.257227 
L 81.821076 113.699465 
L 82.03198 112.893711 
L 82.088225 112.893711 
L 82.318356 112.383297 
L 82.861121 112.377428 
L 83.043384 114.119949 
L 83.152899 114.119949 
L 83.437854 116.248049 
L 83.477315 116.248049 
L 83.691682 118.441677 
L 83.744049 118.441677 
L 83.929258 121.698584 
L 84.043998 121.698584 
L 84.245548 124.85872 
L 84.344598 124.85872 
L 84.526462 127.760495 
L 84.630264 127.760495 
L 84.838785 131.554159 
L 84.936755 131.554159 
L 85.130386 134.04198 
L 85.226047 134.04198 
L 85.416495 137.603053 
L 85.518832 137.603053 
L 85.779069 141.027243 
L 85.823576 141.027243 
L 86.00433 144.154594 
L 86.109434 144.154594 
L 86.330255 148.21849 
L 86.422068 148.21849 
L 86.599462 150.883436 
L 86.707807 150.883436 
L 86.907388 154.650051 
L 87.00188 154.650051 
L 87.235534 158.242497 
L 87.311065 158.242497 
L 87.5331 161.507258 
L 87.594525 161.507258 
L 87.834973 164.772813 
L 87.888272 164.772813 
L 88.033266 166.459249 
L 88.419477 171.846992 
L 88.476625 171.846992 
L 88.69083 174.484579 
L 88.786535 174.484579 
L 88.978656 178.197933 
L 89.074376 178.197933 
L 89.259615 180.633067 
L 89.363565 180.633067 
L 89.560037 184.190741 
L 89.667066 184.190741 
L 89.80981 185.47986 
L 90.678574 193.697141 
L 90.79136 195.321579 
L 90.852652 195.321579 
L 91.044122 197.702305 
L 91.151772 197.702305 
L 91.289794 199.55351 
L 91.52364 202.266643 
L 91.565706 202.266643 
L 91.967458 206.306887 
L 92.027892 206.306887 
L 92.210895 208.311697 
L 92.325043 208.311697 
L 92.566408 210.426383 
L 92.618524 210.426383 
L 92.803688 212.46089 
L 92.917496 212.46089 
L 93.152955 214.493059 
L 93.212679 214.493059 
L 93.398228 216.390906 
L 93.515381 216.390906 
L 93.698991 217.635457 
L 93.80824 217.635457 
L 93.992161 219.591066 
L 94.130109 219.591066 
L 94.324465 220.873521 
L 94.415878 220.873521 
L 94.587811 222.671024 
L 94.710706 222.671024 
L 94.888781 223.849826 
L 94.996756 223.849826 
L 95.228249 225.049941 
L 95.286566 225.049941 
L 95.475624 226.182895 
L 95.581113 226.182895 
L 95.769045 226.925812 
L 95.881654 226.925812 
L 96.061667 228.028231 
L 96.199246 228.028231 
L 96.434557 228.751203 
L 96.477348 228.751203 
L 96.72114 229.475588 
L 96.779813 229.475588 
L 96.960936 230.153286 
L 97.061882 230.153286 
L 97.247076 230.597731 
L 97.356354 230.597731 
L 97.50268 230.893645 
L 97.742757 231.327322 
L 97.78759 231.327322 
L 98.009433 231.611675 
L 98.071968 231.611675 
L 98.309248 231.951142 
L 98.363258 231.951142 
L 98.601219 232.173762 
L 98.842037 232.254381 
L 99.023975 232.482913 
L 99.253277 232.565739 
L 99.486901 232.687088 
L 99.732973 232.769428 
L 99.963148 232.890115 
L 100.320349 232.969278 
L 100.557377 233.053516 
L 101.32225 233.158141 
L 102.292462 233.201297 
L 104.933818 233.100335 
L 105.590523 233.000432 
L 106.252912 232.896822 
L 106.485485 232.784299 
L 106.832295 232.682234 
L 107.484042 232.252484 
L 107.725022 232.167981 
L 107.958025 231.844753 
L 108.017008 231.844753 
L 108.254806 231.551486 
L 108.312975 231.551486 
L 108.499265 231.28549 
L 108.610778 231.28549 
L 108.844047 230.838884 
L 108.902023 230.838884 
L 109.093671 230.4338 
L 109.204962 230.4338 
L 109.443056 229.949553 
L 109.495542 229.949553 
L 109.687189 229.399116 
L 109.792353 229.399116 
L 109.980078 228.899778 
L 110.09131 228.899778 
L 110.277066 228.17076 
L 110.384953 228.17076 
L 110.573552 227.509477 
L 110.682638 227.509477 
L 110.921087 226.753012 
L 110.97415 226.753012 
L 111.164421 225.917737 
L 111.270383 225.917737 
L 111.512163 224.994208 
L 111.567372 224.994208 
L 111.754268 223.998533 
L 111.861918 223.998533 
L 112.05062 223.095302 
L 112.158167 223.095302 
L 112.345714 221.901365 
L 112.459418 221.901365 
L 112.643709 220.818274 
L 112.751123 220.818274 
L 112.991037 219.626941 
L 113.047208 219.626941 
L 113.23705 218.347442 
L 113.347438 218.347442 
L 113.533609 217.186688 
L 113.644989 217.186688 
L 113.834698 215.729182 
L 113.935317 215.729182 
L 114.134158 214.406968 
L 114.232424 214.406968 
L 114.42015 212.803358 
L 114.5315 212.803358 
L 114.717064 211.348632 
L 114.8321 211.348632 
L 115.064081 209.824318 
L 115.123227 209.824318 
L 115.308555 208.246654 
L 115.415405 208.246654 
L 115.653174 206.6122 
L 115.712098 206.6122 
L 115.897485 204.935913 
L 116.00996 204.935913 
L 116.155797 204.157076 
L 116.410972 202.497117 
L 116.455213 202.497117 
L 116.680223 200.789809 
L 116.726196 200.789809 
L 116.955039 199.036212 
L 117.013697 199.036212 
L 117.13375 198.121509 
L 117.19525 198.121509 
L 117.346949 197.250359 
L 118.04378 192.702216 
L 118.093824 192.702216 
L 118.269071 190.687345 
L 118.377979 190.687345 
L 118.561901 188.859527 
L 118.674509 188.859527 
L 118.905632 186.985376 
L 118.97915 186.985376 
L 119.163486 185.079498 
L 119.263454 185.079498 
L 119.502347 183.133376 
L 119.564424 183.133376 
L 119.749204 181.160955 
L 119.858008 181.160955 
L 120.094711 179.159587 
L 120.151356 179.159587 
L 120.34284 177.142068 
L 120.451379 177.142068 
L 120.644166 174.888604 
L 120.746058 174.888604 
L 120.936388 172.844388 
L 121.043224 172.844388 
L 121.229469 170.573847 
L 121.339251 170.573847 
L 121.532008 168.514055 
L 121.633087 168.514055 
L 121.826318 166.222421 
L 121.936233 166.222421 
L 122.121619 164.143522 
L 122.232377 164.143522 
L 122.414389 161.825941 
L 122.522572 161.825941 
L 122.711112 159.50055 
L 122.819812 159.50055 
L 123.006975 157.178734 
L 123.146759 157.178734 
L 123.477746 153.865345 
L 123.530972 153.865345 
L 123.769184 151.390541 
L 123.829455 151.390541 
L 123.942019 150.128516 
L 124.008625 150.128516 
L 124.202256 147.781635 
L 124.301543 147.781635 
L 124.485702 145.198412 
L 124.625145 145.198412 
L 125.127591 140.27603 
L 125.194315 140.27603 
L 125.419399 137.48444 
L 125.484228 137.48444 
L 125.629089 136.187378 
L 126.308899 129.465905 
L 126.372293 129.465905 
L 126.52081 128.088974 
L 126.907835 123.897772 
L 126.967928 123.897772 
L 127.152264 121.062982 
L 127.256021 121.062982 
L 127.405174 119.63738 
L 127.800133 115.336832 
L 127.853491 115.336832 
L 128.056462 112.460165 
L 128.154225 112.460165 
L 128.330804 109.653219 
L 128.458214 109.653219 
L 128.649995 106.693595 
L 128.743021 106.693595 
L 128.947117 103.795615 
L 129.047114 103.795615 
L 129.231051 100.963693 
L 129.334053 100.963693 
L 129.516228 97.994582 
L 129.626098 97.994582 
L 129.80808 95.09519 
L 129.91946 95.09519 
L 130.103337 92.268828 
L 130.244394 92.268828 
L 130.484945 89.414622 
L 130.548413 89.414622 
L 130.758577 87.030587 
L 130.815666 87.030587 
L 130.995117 85.268165 
L 131.104025 85.268165 
L 131.288079 83.864405 
L 131.40424 83.864405 
L 131.59312 82.9839 
L 131.698713 82.9839 
L 131.884499 82.401957 
L 131.990654 82.401957 
L 132.22789 82.080582 
L 132.291136 82.080582 
L 132.476907 82.585215 
L 132.584942 82.585215 
L 132.729699 83.610853 
L 132.982032 85.11403 
L 133.009695 85.11403 
L 133.2399 87.599028 
L 133.303487 87.599028 
L 133.533307 89.987696 
L 133.617364 89.987696 
L 133.837785 92.168793 
L 133.910667 92.168793 
L 134.127195 95.011526 
L 134.188103 95.011526 
L 134.421031 98.273198 
L 134.477957 98.273198 
L 134.59548 99.455044 
L 134.661879 99.455044 
L 134.847976 102.484566 
L 134.950356 102.484566 
L 135.193631 105.185828 
L 135.250956 105.185828 
L 135.394381 106.484346 
L 135.758331 110.311546 
L 135.844726 110.311546 
L 136.096852 112.823461 
L 136.151188 112.823461 
L 136.32722 115.030901 
L 136.435062 115.030901 
L 136.623868 117.753124 
L 136.729638 117.753124 
L 136.968265 120.237062 
L 137.028818 120.237062 
L 137.20892 122.43175 
L 137.320714 122.43175 
L 137.51291 125.154061 
L 137.616401 125.154061 
L 137.852245 127.665314 
L 137.911953 127.665314 
L 138.097399 129.89998 
L 138.21134 129.89998 
L 138.390998 132.711824 
L 138.507588 132.711824 
L 138.688919 134.555704 
L 138.80246 134.555704 
L 138.987758 137.13831 
L 139.096607 137.13831 
L 139.357317 139.634692 
L 139.422902 139.634692 
L 139.639431 141.921913 
L 139.698873 141.921913 
L 139.907216 144.864417 
L 140.001012 144.864417 
L 140.228597 147.642592 
L 140.282726 147.642592 
L 140.469237 150.151594 
L 140.580144 150.151594 
L 140.814375 152.70362 
L 140.876821 152.70362 
L 141.022422 154.033997 
L 141.417736 158.275636 
L 141.474499 158.275636 
L 141.654128 160.350652 
L 141.759957 160.350652 
L 141.948408 163.43414 
L 142.057375 163.43414 
L 142.24775 165.456204 
L 142.358567 165.456204 
L 142.537441 168.665277 
L 142.652048 168.665277 
L 142.885346 171.835607 
L 142.950354 171.835607 
L 143.130752 174.777846 
L 143.245226 174.777846 
L 143.480034 177.876116 
L 143.5373 177.876116 
L 143.727083 180.854407 
L 143.871218 180.854407 
L 144.490594 188.367955 
L 144.553308 188.367955 
L 144.724618 190.564055 
L 144.870026 192.34245 
L 145.048604 193.782571 
L 146.260714 208.21731 
L 146.319328 208.21731 
L 146.436214 210.448049 
L 146.502405 210.448049 
L 146.687673 213.717355 
L 146.797721 213.717355 
L 146.984055 215.861253 
L 147.093985 215.861253 
L 147.239452 217.931194 
L 147.389345 219.607437 
L 147.449601 219.607437 
L 147.751504 222.954273 
L 147.811316 222.954273 
L 148.045429 226.665906 
L 148.103094 226.665906 
L 148.342091 229.099893 
L 148.401326 229.099893 
L 148.934189 235.158538 
L 148.988569 235.158538 
L 149.228883 237.17641 
L 149.284373 237.17641 
L 149.532074 241.052812 
L 149.589429 241.052812 
L 149.760384 242.457454 
L 149.948716 244.516011 
L 150.059178 244.516011 
L 150.243662 248.284258 
L 150.356803 248.284258 
L 150.541702 250.755355 
L 150.649056 250.755355 
L 150.843145 252.375866 
L 150.946148 252.375866 
L 151.142028 255.66044 
L 151.240561 255.66044 
L 151.424482 257.814398 
L 151.540524 257.814398 
L 151.887482 261.738589 
L 151.946821 261.738589 
L 152.066312 262.877677 
L 152.128137 262.877677 
L 152.310578 264.547168 
L 152.424844 264.547168 
L 152.775192 267.722749 
L 152.834219 267.722749 
L 153.011732 268.654264 
L 153.205215 270.019413 
L 153.30687 270.019413 
L 153.495735 270.914657 
L 153.612902 270.914657 
L 153.793242 272.861617 
L 153.904266 272.861617 
L 154.094093 274.13838 
L 154.196563 274.13838 
L 154.391171 274.975685 
L 154.495476 274.975685 
L 154.682505 276.56032 
L 154.788646 276.56032 
L 154.977407 277.599461 
L 155.091451 277.599461 
L 155.273537 278.280954 
L 155.381335 278.280954 
L 155.865605 280.008339 
L 155.977355 280.008339 
L 156.19415 280.585429 
L 156.28133 280.585429 
L 156.464422 280.96386 
L 156.567336 280.96386 
L 156.750206 281.65409 
L 156.859913 281.65409 
L 157.017222 281.904157 
L 157.288441 282.270673 
L 157.324616 282.270673 
L 157.519357 282.511032 
L 157.574033 282.511032 
L 157.806843 282.840703 
L 157.867795 282.840703 
L 158.104113 283.056879 
L 158.341807 283.135204 
L 158.576245 283.249978 
L 158.933401 283.353764 
L 159.229443 283.421808 
L 159.710145 283.505295 
L 170.769902 283.405039 
L 172.847209 282.887433 
L 173.082609 282.676772 
L 173.286423 282.578899 
L 173.679458 282.312329 
L 173.859501 282.231798 
L 174.097521 281.872959 
L 174.171572 281.872959 
L 174.391283 281.547436 
L 174.450518 281.547436 
L 174.679213 281.252184 
L 174.73901 281.252184 
L 175.154439 280.56844 
L 175.24677 280.56844 
L 175.572147 279.842291 
L 175.652696 279.842291 
L 175.870631 279.413908 
L 175.931849 279.413908 
L 176.15754 278.635248 
L 176.216967 278.635248 
L 176.339448 278.273453 
L 176.40111 278.273453 
L 176.581731 277.600652 
L 176.692341 277.600652 
L 176.878941 276.990335 
L 176.988442 276.990335 
L 177.171549 275.972993 
L 177.322848 275.972993 
L 177.667482 274.621259 
L 177.706794 274.621259 
L 177.939708 273.823844 
L 178.021382 273.823844 
L 178.239568 272.578279 
L 178.299069 272.578279 
L 178.526107 271.448326 
L 178.587976 271.448326 
L 178.707734 270.923306 
L 178.767827 270.923306 
L 179.004515 269.651043 
L 179.063513 269.651043 
L 179.250188 268.215027 
L 179.356476 268.215027 
L 179.503823 267.547831 
L 179.737684 266.307075 
L 179.784145 266.307075 
L 180.008622 264.85835 
L 180.067857 264.85835 
L 180.304634 263.236251 
L 180.363514 263.236251 
L 180.600335 261.764756 
L 180.662856 261.764756 
L 180.89608 260.09703 
L 180.977428 260.09703 
L 181.332231 257.41686 
L 181.437143 257.41686 
L 181.566802 256.607047 
L 181.987471 253.850361 
L 182.032925 253.850361 
L 182.240632 252.049328 
L 182.33428 252.049328 
L 182.533151 250.415491 
L 182.626029 250.415491 
L 182.802239 248.359494 
L 182.909327 248.359494 
L 183.063586 247.404238 
L 183.271678 245.627828 
L 183.332778 245.627828 
L 183.559179 243.454895 
L 183.645411 243.454895 
L 183.86712 241.483665 
L 183.92304 241.483665 
L 184.153038 239.695473 
L 184.212746 239.695473 
L 184.331394 238.600689 
L 184.392079 238.600689 
L 184.628412 236.564813 
L 184.715547 236.564813 
L 184.943354 234.717933 
L 184.994582 234.717933 
L 185.170377 232.543632 
L 185.276976 232.543632 
L 185.514878 230.571211 
L 185.579382 230.571211 
L 185.729615 229.654787 
L 185.981342 227.461864 
L 186.013194 227.461864 
L 186.234607 225.472542 
L 186.284443 225.472542 
L 186.403239 224.548264 
L 186.491765 224.548264 
L 186.70184 222.357503 
L 186.760839 222.357503 
L 186.970943 220.370167 
L 187.062593 220.370167 
L 187.292783 218.335307 
L 187.34965 218.335307 
L 187.537553 216.268322 
L 187.644626 216.268322 
L 187.882365 214.163565 
L 187.942813 214.163565 
L 188.129162 212.035509 
L 188.24476 212.035509 
L 188.427912 210.105008 
L 188.540639 210.105008 
L 188.725862 207.895361 
L 188.863988 207.895361 
L 189.115137 205.89086 
L 189.163715 205.89086 
L 189.380629 203.622172 
L 189.429429 203.622172 
L 189.574348 202.568117 
L 189.916925 199.475053 
L 190.018862 199.475053 
L 190.159815 198.396021 
L 190.41163 196.38949 
L 190.449891 196.38949 
L 190.669543 194.123317 
L 190.726084 194.123317 
L 190.960241 192.067497 
L 191.019461 192.067497 
L 191.258621 189.75455 
L 191.31713 189.75455 
L 191.436118 188.679887 
L 191.499142 188.679887 
L 191.683581 186.45462 
L 191.79138 186.45462 
L 191.976914 184.219953 
L 192.084801 184.219953 
L 192.320675 181.962782 
L 192.416972 181.962782 
L 192.629268 179.696124 
L 192.684817 179.696124 
L 192.887196 177.407888 
L 192.984573 177.407888 
L 193.208932 175.111223 
L 193.267131 175.111223 
L 193.508422 172.800924 
L 193.563128 172.800924 
L 193.751119 170.489079 
L 193.860901 170.489079 
L 194.097677 168.16135 
L 194.155802 168.16135 
L 194.3497 165.830134 
L 194.454685 165.830134 
L 194.638503 163.265135 
L 194.775193 163.265135 
L 194.992048 160.938288 
L 195.062857 160.938288 
L 195.254194 158.37673 
L 195.35582 158.37673 
L 195.553107 155.812526 
L 195.649448 155.812526 
L 195.835886 153.257367 
L 195.934107 153.257367 
L 196.144449 150.704282 
L 196.238852 150.704282 
L 196.467666 148.164214 
L 196.551693 148.164214 
L 196.752695 145.400292 
L 196.83795 145.400292 
L 197.017357 142.892922 
L 197.125851 142.892922 
L 197.319807 140.143826 
L 197.418976 140.143826 
L 197.63922 137.420015 
L 197.743836 137.420015 
L 197.960882 134.730137 
L 198.014937 134.730137 
L 198.196993 131.852941 
L 198.328843 131.852941 
L 198.534597 129.242844 
L 198.615382 129.242844 
L 198.795573 126.449092 
L 198.899242 126.449092 
L 199.139675 123.75361 
L 199.194928 123.75361 
L 199.380699 121.154987 
L 199.490259 121.154987 
L 199.685118 119.210807 
L 199.786448 119.210807 
L 199.980819 117.662223 
L 200.085983 117.662223 
L 200.270244 116.462284 
L 200.378398 116.462284 
L 200.567662 115.800869 
L 200.672722 115.800869 
L 200.792109 115.49357 
L 201.030929 115.358145 
L 201.266906 115.295176 
L 201.466014 116.471242 
L 201.563392 116.471242 
L 202.273071 121.73565 
L 202.391807 123.087297 
L 202.455571 123.087297 
L 202.712581 126.015856 
L 202.770484 126.015856 
L 202.944977 128.703704 
L 203.044279 128.703704 
L 203.226883 132.251715 
L 203.337656 132.251715 
L 203.521799 134.578385 
L 203.654108 134.578385 
L 203.887333 137.977997 
L 203.940277 137.977997 
L 204.167048 141.230094 
L 204.224699 141.230094 
L 204.410944 144.190954 
L 204.545192 144.190954 
L 204.771031 148.041321 
L 204.833359 148.041321 
L 205.051398 151.678424 
L 205.107717 151.678424 
L 205.300282 154.964145 
L 205.412787 154.964145 
L 205.644901 158.266237 
L 205.706445 158.266237 
L 205.890322 161.360845 
L 205.99923 161.360845 
L 206.18657 165.537883 
L 206.298646 165.537883 
L 206.486727 168.27705 
L 206.594628 168.27705 
L 206.777232 172.285744 
L 206.886584 172.285744 
L 207.080733 174.914594 
L 207.19124 174.914594 
L 207.37824 178.879338 
L 207.480843 178.879338 
L 207.67437 181.47933 
L 207.774915 181.47933 
L 207.958141 185.520765 
L 208.074465 185.520765 
L 208.258489 188.171061 
L 208.371394 188.171061 
L 208.522131 190.446986 
L 208.761483 193.782483 
L 208.800218 193.782483 
L 209.218193 199.151339 
L 209.266016 199.151339 
L 209.444046 201.879519 
L 209.553961 201.879519 
L 209.733885 206.218766 
L 209.845103 206.218766 
L 210.035018 209.064323 
L 210.141425 209.064323 
L 210.331104 213.501222 
L 210.469186 213.501222 
L 210.682532 216.410851 
L 210.743454 216.410851 
L 211.277738 223.082638 
L 211.335951 223.082638 
L 211.527791 225.272339 
L 211.627537 225.272339 
L 211.764598 227.455245 
L 211.997541 230.654434 
L 212.050056 230.654434 
L 212.277922 232.752395 
L 212.337246 232.752395 
L 212.574038 236.467558 
L 212.632444 236.467558 
L 212.81117 237.813777 
L 213.007406 239.786683 
L 213.105464 239.786683 
L 213.30617 243.386455 
L 213.400484 243.386455 
L 213.586034 245.747103 
L 213.701425 245.747103 
L 214.051965 250.068037 
L 214.11154 250.068037 
L 214.229921 251.323796 
L 214.292693 251.323796 
L 214.481914 253.164146 
L 214.587477 253.164146 
L 215.064982 257.801955 
L 215.186205 257.801955 
L 215.365168 259.349832 
L 215.478324 259.349832 
L 215.919685 262.482213 
L 216.282021 264.779584 
L 216.367129 264.779584 
L 216.863654 268.44656 
L 216.958427 268.44656 
L 217.143488 269.683079 
L 217.246313 269.683079 
L 217.778198 272.966418 
L 217.837374 272.966418 
L 217.986112 273.577044 
L 218.178293 274.071572 
L 218.56215 275.759464 
L 218.730501 276.539404 
L 218.916331 277.682463 
L 219.029014 277.682463 
L 219.168042 278.096637 
L 220.153115 281.724561 
L 220.2105 281.724561 
L 220.909004 284.210529 
L 220.947147 284.210529 
L 221.161011 284.792296 
L 221.221208 284.792296 
L 221.394798 285.003089 
L 222.221038 287.167418 
L 222.283618 287.167418 
L 222.464031 287.534111 
L 222.575219 287.534111 
L 222.762219 288.395112 
L 222.874043 288.395112 
L 223.063233 288.959758 
L 223.174495 288.959758 
L 223.357691 289.330025 
L 223.484449 289.330025 
L 223.729278 289.572855 
L 223.778951 289.572855 
L 223.979701 290.338056 
L 224.069516 290.338056 
L 224.256797 290.839866 
L 224.352014 290.839866 
L 224.535684 291.168963 
L 224.6481 291.168963 
L 224.791243 291.539319 
L 225.011694 292.082122 
L 225.069908 292.082122 
L 225.301593 292.438048 
L 225.358859 292.438048 
L 225.890656 293.339601 
L 225.949713 293.339601 
L 226.187615 293.640766 
L 226.455608 293.749892 
L 226.670745 293.909807 
L 226.724637 293.909807 
L 226.932729 294.307345 
L 227.027176 294.307345 
L 227.253458 294.568046 
L 227.437602 294.662477 
L 227.793751 294.851075 
L 227.902082 294.851075 
L 228.09296 295.06403 
L 228.321256 295.141208 
L 228.555028 295.254305 
L 229.094743 295.361621 
L 229.503423 295.420883 
L 230.336041 295.46907 
L 233.532861 295.379492 
L 233.887516 295.297064 
L 234.536717 295.204353 
L 234.94137 295.06809 
L 235.303307 294.987691 
L 235.548298 294.825128 
L 235.72174 294.749583 
L 235.956992 294.609128 
L 236.193888 294.543864 
L 236.428977 294.422472 
L 236.521382 294.422472 
L 236.759668 294.186041 
L 236.911189 294.076209 
L 237.142727 293.871946 
L 237.395518 293.77703 
L 237.617745 293.600523 
L 237.675367 293.600523 
L 237.859362 293.282148 
L 237.972163 293.282148 
L 238.155344 292.993339 
L 238.265215 292.993339 
L 238.456818 292.731358 
L 238.561848 292.731358 
L 238.784682 292.493692 
L 238.88838 292.493692 
L 239.175999 292.073296 
L 239.517037 291.514696 
L 239.604572 291.514696 
L 239.813078 291.185202 
L 239.872609 291.185202 
L 239.983885 291.032082 
L 240.066343 291.032082 
L 240.242805 290.535171 
L 240.346207 290.535171 
L 240.526576 290.084372 
L 240.635291 290.084372 
L 240.825666 289.675405 
L 240.931999 289.675405 
L 241.200184 289.18604 
L 241.256888 289.18604 
L 241.471418 288.629248 
L 241.526657 288.629248 
L 241.711525 288.124218 
L 241.826162 288.124218 
L 241.978171 287.889552 
L 243.23846 285.285456 
L 243.299559 285.285456 
L 243.483688 284.496691 
L 243.59159 284.496691 
L 243.830749 283.781176 
L 243.919454 283.781176 
L 244.167776 283.132071 
L 244.228905 283.132071 
L 244.549739 281.949431 
L 244.609299 281.949431 
L 244.722633 281.540023 
L 244.783289 281.540023 
L 244.96866 280.778748 
L 245.079685 280.778748 
L 245.25699 280.088121 
L 245.37062 280.088121 
L 245.559648 279.098049 
L 245.703916 279.098049 
L 246.157621 277.385049 
L 246.261393 277.385049 
L 246.497756 276.457372 
L 246.554104 276.457372 
L 246.714062 275.934338 
L 247.044961 274.509839 
L 247.152093 274.509839 
L 247.330848 273.669489 
L 247.448149 273.669489 
L 247.627778 272.560055 
L 247.740786 272.560055 
L 247.92823 271.553612 
L 248.034888 271.553612 
L 248.2206 270.640586 
L 248.35994 270.640586 
L 248.576587 269.40261 
L 248.681824 269.40261 
L 248.98836 267.757786 
L 249.043894 267.757786 
L 249.281308 266.787439 
L 249.343962 266.787439 
L 249.579214 265.502777 
L 249.637457 265.502777 
L 249.760056 264.905874 
L 249.822503 264.905874 
L 250.001954 263.79591 
L 250.111277 263.79591 
L 250.34533 262.574085 
L 250.438253 262.574085 
L 250.643829 261.261006 
L 250.703478 261.261006 
L 250.908166 260.069804 
L 251.001133 260.069804 
L 251.234668 258.749223 
L 251.29266 258.749223 
L 251.472999 257.322694 
L 251.587443 257.322694 
L 251.769292 256.028589 
L 251.880539 256.028589 
L 252.122081 254.62933 
L 252.181849 254.62933 
L 252.360146 253.14548 
L 252.472236 253.14548 
L 252.662685 251.79935 
L 252.79418 251.79935 
L 253.035856 250.35186 
L 253.098717 250.35186 
L 253.30786 248.823178 
L 253.368545 248.823178 
L 253.54998 247.436407 
L 253.662648 247.436407 
L 253.848301 245.719435 
L 253.959207 245.719435 
L 254.194696 244.161894 
L 254.252288 244.161894 
L 254.436002 242.748955 
L 254.550135 242.748955 
L 254.698918 241.860684 
L 254.990519 240.208888 
L 255.054446 240.208888 
L 255.970293 234.422328 
L 256.027692 234.422328 
L 256.218067 232.472985 
L 256.325998 232.472985 
L 256.506426 230.704606 
L 256.620085 230.704606 
L 256.85923 228.825513 
L 256.921973 228.825513 
L 257.104577 226.859049 
L 257.214891 226.859049 
L 257.402202 225.075137 
L 257.508801 225.075137 
L 257.732405 223.97188 
L 257.855567 223.97188 
L 258.052054 222.971042 
L 258.111067 222.971042 
L 258.254788 222.50599 
L 258.46365 222.327056 
L 258.689888 222.243921 
L 258.926295 222.089301 
L 258.984745 222.089301 
L 259.179989 223.978367 
L 259.288246 223.978367 
L 259.470362 225.217181 
L 259.58488 225.217181 
L 260.290977 230.465307 
L 260.468785 232.395675 
L 260.661409 235.224817 
L 260.76792 235.224817 
L 260.952729 237.080037 
L 261.06667 237.080037 
L 261.584716 242.217317 
L 261.694897 242.217317 
L 261.895366 243.957808 
L 261.952618 243.957808 
L 262.140905 247.03909 
L 262.243804 247.03909 
L 262.430597 249.059697 
L 262.545648 249.059697 
L 262.898186 252.636964 
L 262.956932 252.636964 
L 263.194597 254.502731 
L 263.253003 254.502731 
L 263.491763 255.726233 
L 263.554758 255.726233 
L 263.72629 257.039003 
L 263.911662 258.963017 
L 264.028592 258.963017 
L 264.211788 260.224689 
L 264.319335 260.224689 
L 264.858014 263.403932 
L 264.912054 263.403932 
L 265.101008 264.465004 
L 265.207888 264.465004 
L 265.692143 267.195523 
L 265.801939 267.195523 
L 265.995008 268.110049 
L 266.094857 268.110049 
L 266.579068 270.457768 
L 266.685933 270.457768 
L 266.875479 271.24371 
L 266.983026 271.24371 
L 267.171491 271.759154 
L 267.285653 271.759154 
L 267.466407 272.779806 
L 267.577077 272.779806 
L 267.764047 273.44912 
L 267.872067 273.44912 
L 268.059348 273.888005 
L 268.165074 273.888005 
L 268.353969 274.652059 
L 268.462773 274.652059 
L 268.649521 275.153118 
L 268.760694 275.153118 
L 268.946451 275.481686 
L 269.056884 275.481686 
L 269.408948 276.049906 
L 269.467087 276.049906 
L 269.710836 276.344496 
L 269.945392 276.451239 
L 270.180171 276.607668 
L 270.23794 276.607668 
L 270.457933 276.841496 
L 270.69055 276.926219 
L 270.896807 277.050436 
L 271.13946 277.095401 
L 271.374993 277.242475 
L 271.731779 277.338936 
L 272.021026 277.40217 
L 272.668111 277.575676 
L 273.640099 277.678139 
L 274.529348 277.718162 
L 276.483981 277.683346 
L 277.402892 277.562394 
L 277.937767 277.459711 
L 278.297794 277.371017 
L 278.647994 277.274203 
L 279.012343 277.145573 
L 279.417722 277.069675 
L 279.653107 276.952121 
L 280.006696 276.845511 
L 280.240705 276.748785 
L 280.457737 276.70382 
L 280.837835 276.496557 
L 281.013364 276.433941 
L 281.372844 276.263391 
L 281.486 276.263391 
L 281.713096 276.040154 
L 281.917754 275.936412 
L 282.142024 275.743534 
L 282.382738 275.653913 
L 282.908555 275.084016 
L 282.968545 275.084016 
L 283.191453 274.798207 
L 283.2904 274.798207 
L 283.456737 274.538918 
L 283.56156 274.538918 
L 283.795894 274.089179 
L 283.854685 274.089179 
L 284.092158 273.681227 
L 284.152503 273.681227 
L 284.337653 273.311136 
L 284.445687 273.311136 
L 284.628676 272.714366 
L 284.741566 272.714366 
L 284.926582 272.173019 
L 285.037637 272.173019 
L 285.223201 271.681932 
L 285.339969 271.681932 
L 285.57303 271.079249 
L 285.631185 271.079249 
L 285.824919 270.382841 
L 285.958146 270.382841 
L 286.193324 269.751079 
L 286.250324 269.751079 
L 286.461983 269.004498 
L 286.521928 269.004498 
L 286.737302 268.161942 
L 286.830817 268.161942 
L 287.055842 267.397623 
L 287.110903 267.397623 
L 287.299353 266.70426 
L 287.407344 266.70426 
L 287.598976 265.702671 
L 287.708536 265.702671 
L 287.894988 264.794057 
L 287.999056 264.794057 
L 288.187092 263.969814 
L 288.293247 263.969814 
L 288.479566 262.82093 
L 288.593329 262.82093 
L 288.777961 261.778656 
L 288.887417 261.778656 
L 289.075793 260.833197 
L 289.188402 260.833197 
L 289.368016 259.662735 
L 289.479544 259.662735 
L 289.667832 258.600957 
L 289.775733 258.600957 
L 289.961608 257.637759 
L 290.076244 257.637759 
L 290.219625 257.331431 
L 290.465075 256.761843 
L 290.509331 256.761843 
L 290.783555 256.245119 
L 290.813898 256.245119 
L 290.969623 256.005025 
L 291.195284 255.834829 
L 291.400445 255.755753 
L 291.856045 255.540371 
L 292.035718 255.978902 
L 292.143827 255.978902 
L 292.324462 256.266476 
L 292.582197 256.370704 
L 292.809131 257.254562 
L 292.87297 257.254562 
L 293.092251 257.834211 
L 293.150924 257.834211 
L 293.32999 258.044254 
L 294.10888 259.815899 
L 294.220704 259.815899 
L 294.450998 260.358217 
L 294.541034 260.358217 
L 294.763483 260.914434 
L 294.819832 260.914434 
L 295.014632 261.27923 
L 295.122297 261.27923 
L 295.346167 261.663397 
L 295.402901 261.663397 
L 295.591973 262.032738 
L 295.704122 262.032738 
L 295.895385 262.27495 
L 296.116621 262.362718 
L 296.350556 262.668604 
L 296.591462 262.779451 
L 296.826596 262.941881 
L 297.004064 263.000746 
L 297.241817 263.272038 
L 297.479171 263.370308 
L 297.66629 263.514382 
L 298.069167 263.608857 
L 298.250276 263.807957 
L 298.477846 263.880104 
L 298.771342 263.985832 
L 299.484203 264.227867 
L 299.981824 264.314664 
L 300.384893 264.382355 
L 304.870731 264.274862 
L 306.352595 263.74009 
L 306.590378 263.585646 
L 306.764753 263.513896 
L 307.231276 263.156426 
L 307.276642 263.156426 
L 307.481433 262.894136 
L 307.540904 262.894136 
L 307.778022 262.656249 
L 307.833379 262.656249 
L 308.019653 262.217762 
L 308.13093 262.217762 
L 308.353956 261.819959 
L 308.45237 261.819959 
L 308.668469 261.459135 
L 308.727023 261.459135 
L 308.910367 260.822783 
L 309.019113 260.822783 
L 309.203123 260.245473 
L 309.31135 260.245473 
L 309.50131 259.721821 
L 309.631858 259.721821 
L 309.865689 258.886722 
L 309.918545 258.886722 
L 310.093319 258.129198 
L 310.200362 258.129198 
L 310.427947 257.441969 
L 310.510524 257.441969 
L 310.68737 256.389193 
L 310.795494 256.389193 
L 310.979282 255.434114 
L 311.125415 255.434114 
L 311.405797 254.567729 
L 312.096323 251.775786 
L 312.3364 250.159071 
L 312.395606 250.159071 
L 312.511855 249.407901 
L 312.577233 249.407901 
L 312.771248 248.011025 
L 312.867753 248.011025 
L 313.105566 246.406003 
L 313.164934 246.406003 
L 313.396516 244.628313 
L 313.461997 244.628313 
L 313.648671 243.015613 
L 313.756262 243.015613 
L 313.993453 241.185369 
L 314.05365 241.185369 
L 314.246141 239.175219 
L 314.358054 239.175219 
L 314.579956 237.351681 
L 314.640256 237.351681 
L 314.879534 235.024128 
L 314.945134 235.024128 
L 315.202322 232.912664 
L 315.249242 232.912664 
L 315.641492 229.818055 
L 315.679709 229.818055 
L 315.907827 227.625354 
L 315.950292 227.625354 
L 316.072062 226.606555 
L 316.136374 226.606555 
L 316.328939 224.252306 
L 316.424127 224.252306 
L 316.627896 222.116616 
L 316.723261 222.116616 
L 316.912097 219.981852 
L 317.012242 219.981852 
L 317.252453 217.857326 
L 317.31194 217.857326 
L 317.501175 215.778206 
L 317.608632 215.778206 
L 317.842019 213.747494 
L 317.910209 213.747494 
L 318.111744 211.905291 
L 318.201425 211.905291 
L 318.41489 210.005458 
L 318.499346 210.005458 
L 318.693806 208.282 
L 318.79259 208.282 
L 319.044301 206.51618 
L 319.112728 206.51618 
L 319.281848 204.914335 
L 319.393746 204.914335 
L 319.572057 203.378107 
L 319.681336 203.378107 
L 319.876565 201.905377 
L 319.971752 201.905377 
L 320.209773 200.496719 
L 320.265677 200.496719 
L 320.507842 199.149574 
L 320.571976 199.149574 
L 320.745255 197.927528 
L 320.869142 197.927528 
L 321.040497 196.681653 
L 321.155074 196.681653 
L 321.355217 195.551435 
L 321.45039 195.551435 
L 321.63699 194.39986 
L 321.746416 194.39986 
L 321.986908 193.355203 
L 322.040741 193.355203 
L 322.239759 192.259801 
L 322.343369 192.259801 
L 322.528074 191.266111 
L 322.634792 191.266111 
L 322.829163 190.210026 
L 322.928021 190.210026 
L 323.117389 189.25199 
L 323.22871 189.25199 
L 323.461712 188.221366 
L 323.524396 188.221366 
L 323.709279 187.286453 
L 323.826979 187.286453 
L 324.007097 186.257991 
L 324.11932 186.257991 
L 324.318191 185.325063 
L 324.408183 185.325063 
L 324.606476 184.275023 
L 324.707821 184.275023 
L 324.890188 183.322459 
L 325.001775 183.322459 
L 325.237797 182.214613 
L 325.295226 182.214613 
L 325.439969 181.699875 
L 325.730903 180.609547 
L 325.789901 180.609547 
L 326.006519 179.493714 
L 326.052314 179.493714 
L 326.313543 178.333402 
L 326.361247 178.333402 
L 326.584881 177.139774 
L 326.628604 177.139774 
L 327.010996 175.243383 
L 327.13731 175.243383 
L 327.337646 174.026191 
L 327.387793 174.026191 
L 327.564003 172.585232 
L 327.669581 172.585232 
L 327.850527 171.278066 
L 327.966111 171.278066 
L 328.148108 169.731688 
L 328.258614 169.731688 
L 328.496871 168.127549 
L 328.553546 168.127549 
L 328.741374 166.480606 
L 328.85009 166.480606 
L 329.087459 164.771445 
L 329.147552 164.771445 
L 329.332051 163.016128 
L 329.443446 163.016128 
L 329.595204 162.200577 
L 329.883785 160.240423 
L 329.928396 160.240423 
L 330.103229 158.229744 
L 330.1643 158.229744 
L 330.519887 155.233936 
L 330.629239 155.233936 
L 330.819318 153.010257 
L 330.934235 153.010257 
L 331.160932 150.757675 
L 331.220404 150.757675 
L 331.402889 148.49009 
L 331.513722 148.49009 
L 331.754228 146.196735 
L 331.811628 146.196735 
L 331.996778 143.891113 
L 332.105923 143.891113 
L 332.290702 141.332909 
L 332.428295 141.332909 
L 332.649871 138.772146 
L 332.716122 138.772146 
L 332.885878 136.220518 
L 332.996459 136.220518 
L 333.185176 133.836615 
L 333.294898 133.836615 
L 333.411222 132.695321 
L 333.703948 130.812962 
L 333.747227 130.812962 
L 334.08597 128.891287 
L 334.19023 128.891287 
L 334.365685 128.06797 
L 334.482009 128.06797 
L 334.712421 127.807049 
L 334.774809 127.807049 
L 335.016722 127.570353 
L 335.081137 127.570353 
L 335.261609 128.610376 
L 335.365456 128.610376 
L 335.979799 132.290325 
L 336.151865 135.488632 
L 336.259589 135.488632 
L 336.614199 140.297608 
L 336.675684 140.297608 
L 337.08531 145.553809 
L 337.146973 145.553809 
L 337.329947 148.13337 
L 337.440557 148.13337 
L 337.624818 151.866933 
L 337.733505 151.866933 
L 337.967173 155.471294 
L 338.027888 155.471294 
L 338.218529 158.771047 
L 338.328533 158.771047 
L 338.560277 162.120752 
L 338.619053 162.120752 
L 338.808924 165.277667 
L 338.916723 165.277667 
L 339.102923 169.552357 
L 339.214866 169.552357 
L 339.39482 172.355596 
L 339.509871 172.355596 
L 339.693392 176.461854 
L 339.815429 176.461854 
L 339.98523 179.154645 
L 340.128729 179.154645 
L 340.336628 183.257019 
L 340.427642 183.257019 
L 340.63301 185.947294 
L 340.724541 185.947294 
L 340.944978 190.08881 
L 341.040372 190.08881 
L 341.124429 191.589472 
L 341.408481 195.118552 
L 341.638878 198.509648 
L 341.701059 198.509648 
L 341.932241 202.060262 
L 341.991579 202.060262 
L 342.112195 203.940502 
L 342.179053 203.940502 
L 342.354108 206.696173 
L 342.467664 206.696173 
L 342.719301 210.815978 
L 342.777485 210.815978 
L 343.006713 213.517682 
L 343.10643 213.517682 
L 343.338544 215.28937 
L 343.387995 215.28937 
L 343.606951 218.580299 
L 343.666838 218.580299 
L 343.896436 221.808787 
L 343.956085 221.808787 
L 344.165435 224.792726 
L 344.265092 224.792726 
L 344.458176 226.749526 
L 344.551779 226.749526 
L 344.724466 229.786152 
L 344.836423 229.786152 
L 345.023571 231.777459 
L 345.135884 231.777459 
L 345.371565 233.922857 
L 345.433346 233.922857 
L 345.624387 236.009611 
L 345.725347 236.009611 
L 345.908261 237.378025 
L 346.018738 237.378025 
L 346.206523 239.561769 
L 346.316023 239.561769 
L 346.562776 240.993814 
L 346.658718 240.993814 
L 346.865493 241.932876 
L 346.919369 241.932876 
L 347.093403 243.615428 
L 347.20502 243.615428 
L 347.459929 244.718773 
L 347.510164 244.718773 
L 347.746038 245.926478 
L 347.81149 245.926478 
L 348.01674 247.110487 
L 348.113007 247.110487 
L 348.282053 247.886897 
L 348.389082 247.886897 
L 348.574098 249.062918 
L 348.682503 249.062918 
L 348.924564 249.834077 
L 349.012647 249.834077 
L 349.221035 250.339814 
L 349.288647 250.339814 
L 349.463169 251.115341 
L 349.577835 251.115341 
L 349.723155 251.39634 
L 350.122198 251.957412 
L 350.188286 251.957412 
L 350.28972 252.313735 
L 350.525801 252.835931 
L 350.599674 252.835931 
L 350.82236 253.178399 
L 350.877214 253.178399 
L 351.054193 253.51438 
L 351.240927 254.00679 
L 351.349435 254.00679 
L 351.535236 254.32971 
L 351.648023 254.32971 
L 351.998636 254.93279 
L 352.058315 254.93279 
L 352.295107 255.251517 
L 352.353557 255.251517 
L 352.593028 255.460501 
L 352.650931 255.460501 
L 352.890268 255.928642 
L 352.987912 255.928642 
L 353.182328 256.098309 
L 353.491276 256.436982 
L 353.545508 256.436982 
L 353.774958 256.862629 
L 353.834607 256.862629 
L 354.563573 257.638862 
L 354.727127 257.728131 
L 354.962424 258.035694 
L 355.041404 258.035694 
L 355.26366 258.237397 
L 355.502569 258.310471 
L 356.028297 258.704611 
L 356.212721 258.776758 
L 356.440825 258.882486 
L 356.67806 258.985081 
L 356.910397 259.135421 
L 357.274376 259.234 
L 358.058432 259.617814 
L 358.463559 259.681842 
L 358.712458 259.838315 
L 359.045961 259.94091 
L 359.706515 260.243575 
L 360.246482 260.337477 
L 360.469138 260.436895 
L 361.143013 260.544784 
L 361.649958 260.600649 
L 363.910165 260.697728 
L 364.562163 260.762506 
L 366.863074 260.870484 
L 368.488822 260.896077 
L 371.898603 260.793659 
L 373.218096 260.672929 
L 373.990104 260.573776 
L 377.813227 259.73603 
L 378.053704 259.528678 
L 378.286988 259.432305 
L 378.523616 259.253107 
L 378.700581 259.169839 
L 378.93644 258.840168 
L 378.996208 258.840168 
L 379.237173 258.541122 
L 379.296749 258.541122 
L 379.534754 258.269786 
L 379.595129 258.269786 
L 379.832512 257.790614 
L 379.892384 257.790614 
L 380.184355 257.355877 
L 380.237832 257.355877 
L 380.487515 256.961517 
L 380.532585 256.961517 
L 380.903714 256.144907 
L 380.963615 256.144907 
L 381.139913 255.570377 
L 381.247741 255.570377 
L 381.793688 254.087145 
L 381.854566 254.087145 
L 382.0323 253.369644 
L 382.135139 253.369644 
L 382.323797 252.350537 
L 382.438034 252.350537 
L 382.62789 251.426082 
L 382.730538 251.426082 
L 382.919506 250.587453 
L 383.02504 250.587453 
L 383.288429 249.39987 
L 383.335719 249.39987 
L 383.512373 248.322516 
L 383.615657 248.322516 
L 383.761109 247.821942 
L 384.153433 245.993506 
L 384.213571 245.993506 
L 384.414469 244.767313 
L 384.507836 244.767313 
L 384.737198 243.3801 
L 384.844507 243.3801 
L 385.041661 241.859802 
L 385.104433 241.859802 
L 385.284121 240.480665 
L 385.40154 240.480665 
L 385.622613 238.960322 
L 385.722581 238.960322 
L 385.933825 237.324676 
L 386.0106 237.324676 
L 386.227913 235.84087 
L 386.283492 235.84087 
L 386.465445 234.001006 
L 386.575774 234.001006 
L 386.841324 232.332 
L 386.88897 232.332 
L 387.115963 230.562694 
L 387.17465 230.562694 
L 387.357506 228.714622 
L 387.462625 228.714622 
L 387.653695 227.038115 
L 387.758829 227.038115 
L 388.242684 223.162066 
L 388.355307 223.162066 
L 388.591166 221.235272 
L 388.64676 221.235272 
L 388.830741 219.2452 
L 388.942476 219.2452 
L 389.179889 217.190218 
L 389.238532 217.190218 
L 389.503698 215.088241 
L 389.557722 215.088241 
L 389.729255 213.181392 
L 389.835765 213.181392 
L 390.048949 210.963361 
L 390.135699 210.963361 
L 390.3387 208.951226 
L 390.439526 208.951226 
L 390.653317 206.884638 
L 390.73052 206.884638 
L 390.911141 204.780058 
L 391.020685 204.780058 
L 391.250624 202.637837 
L 391.316179 202.637837 
L 391.432221 201.528755 
L 391.600216 200.472449 
L 391.65729 200.472449 
L 392.09242 196.064806 
L 392.201964 196.064806 
L 392.434937 193.833052 
L 392.51254 193.833052 
L 392.726331 191.594105 
L 392.8087 191.594105 
L 393.016141 189.562995 
L 393.101855 189.562995 
L 393.277325 187.281599 
L 393.386174 187.281599 
L 393.530783 186.22163 
L 393.871554 182.927437 
L 393.975859 182.927437 
L 394.202112 180.854936 
L 394.302953 180.854936 
L 394.512673 178.59044 
L 394.569051 178.59044 
L 394.804452 176.335696 
L 394.862621 176.335696 
L 395.04891 174.099397 
L 395.160201 174.099397 
L 395.399169 171.876336 
L 395.459381 171.876336 
L 395.64533 169.674632 
L 395.754149 169.674632 
L 395.979706 167.49155 
L 396.086039 167.49155 
L 396.290283 165.33415 
L 396.34894 165.33415 
L 396.531144 163.190737 
L 396.645041 163.190737 
L 396.826016 161.068859 
L 396.93605 161.068859 
L 397.199498 158.776607 
L 397.248653 158.776607 
L 397.428208 156.697179 
L 397.540891 156.697179 
L 397.713089 154.454437 
L 397.823922 154.454437 
L 398.05577 152.243864 
L 398.152348 152.243864 
L 398.373036 150.070931 
L 398.43125 150.070931 
L 398.487273 149.061311 
L 398.487273 149.061311 
" clip-path="url(#p0917966adb)" style="fill: none; stroke: #ff7f0e; stroke-width: 1.5; stroke-linecap: square"/>
   </g>
   <g id="patch_3">
    <path d="M 57.6 307.584 
L 57.6 41.472 
" style="fill: none; stroke: #000000; stroke-width: 0.8; stroke-linejoin: miter; stroke-linecap: square"/>
   </g>
   <g id="patch_4">
    <path d="M 414.72 307.584 
L 414.72 41.472 
" style="fill: none; stroke: #000000; stroke-width: 0.8; stroke-linejoin: miter; stroke-linecap: square"/>
   </g>
   <g id="patch_5">
    <path d="M 57.6 307.584 
L 414.72 307.584 
" style="fill: none; stroke: #000000; stroke-width: 0.8; stroke-linejoin: miter; stroke-linecap: square"/>
   </g>
   <g id="patch_6">
    <path d="M 57.6 41.472 
L 414.72 41.472 
" style="fill: none; stroke: #000000; stroke-width: 0.8; stroke-linejoin: miter; stroke-linecap: square"/>
   </g>
   <g id="legend_1">
    <g id="patch_7">
     <path d="M 307.080938 302.584 
L 407.72 302.584 
Q 409.72 302.584 409.72 300.584 
L 409.72 272.22775 
Q 409.72 270.22775 407.72 270.22775 
L 307.080938 270.22775 
Q 305.080938 270.22775 305.080938 272.22775 
L 305.080938 300.584 
Q 305.080938 302.584 307.080938 302.584 
z
" style="fill: #ffffff; opacity: 0.8; stroke: #cccccc; stroke-linejoin: miter"/>
    </g>
    <g id="line2d_14">
     <path d="M 309.080938 278.326187 
L 319.080938 278.326187 
L 329.080938 278.326187 
" style="fill: none; stroke: #1f77b4; stroke-width: 1.5; stroke-linecap: square"/>
    </g>
    <g id="text_12">
     <!-- Speed Profile -->
     <g transform="translate(337.080938 281.826187) scale(0.1 -0.1)">
      <defs>
       <path id="DejaVuSans-53" d="M 3425 4513 
L 3425 3897 
Q 3066 4069 2747 4153 
Q 2428 4238 2131 4238 
Q 1616 4238 1336 4038 
Q 1056 3838 1056 3469 
Q 1056 3159 1242 3001 
Q 1428 2844 1947 2747 
L 2328 2669 
Q 3034 2534 3370 2195 
Q 3706 1856 3706 1288 
Q 3706 609 3251 259 
Q 2797 -91 1919 -91 
Q 1588 -91 1214 -16 
Q 841 59 441 206 
L 441 856 
Q 825 641 1194 531 
Q 1563 422 1919 422 
Q 2459 422 2753 634 
Q 3047 847 3047 1241 
Q 3047 1584 2836 1778 
Q 2625 1972 2144 2069 
L 1759 2144 
Q 1053 2284 737 2584 
Q 422 2884 422 3419 
Q 422 4038 858 4394 
Q 1294 4750 2059 4750 
Q 2388 4750 2728 4690 
Q 3069 4631 3425 4513 
z
" transform="scale(0.015625)"/>
       <path id="DejaVuSans-70" d="M 1159 525 
L 1159 -1331 
L 581 -1331 
L 581 3500 
L 1159 3500 
L 1159 2969 
Q 1341 3281 1617 3432 
Q 1894 3584 2278 3584 
Q 2916 3584 3314 3078 
Q 3713 2572 3713 1747 
Q 3713 922 3314 415 
Q 2916 -91 2278 -91 
Q 1894 -91 1617 61 
Q 1341 213 1159 525 
z
M 3116 1747 
Q 3116 2381 2855 2742 
Q 2594 3103 2138 3103 
Q 1681 3103 1420 2742 
Q 1159 2381 1159 1747 
Q 1159 1113 1420 752 
Q 1681 391 2138 391 
Q 2594 391 2855 752 
Q 3116 1113 3116 1747 
z
" transform="scale(0.015625)"/>
       <path id="DejaVuSans-65" d="M 3597 1894 
L 3597 1613 
L 953 1613 
Q 991 1019 1311 708 
Q 1631 397 2203 397 
Q 2534 397 2845 478 
Q 3156 559 3463 722 
L 3463 178 
Q 3153 47 2828 -22 
Q 2503 -91 2169 -91 
Q 1331 -91 842 396 
Q 353 884 353 1716 
Q 353 2575 817 3079 
Q 1281 3584 2069 3584 
Q 2775 3584 3186 3129 
Q 3597 2675 3597 1894 
z
M 3022 2063 
Q 3016 2534 2758 2815 
Q 2500 3097 2075 3097 
Q 1594 3097 1305 2825 
Q 1016 2553 972 2059 
L 3022 2063 
z
" transform="scale(0.015625)"/>
       <path id="DejaVuSans-64" d="M 2906 2969 
L 2906 4863 
L 3481 4863 
L 3481 0 
L 2906 0 
L 2906 525 
Q 2725 213 2448 61 
Q 2172 -91 1784 -91 
Q 1150 -91 751 415 
Q 353 922 353 1747 
Q 353 2572 751 3078 
Q 1150 3584 1784 3584 
Q 2172 3584 2448 3432 
Q 2725 3281 2906 2969 
z
M 947 1747 
Q 947 1113 1208 752 
Q 1469 391 1925 391 
Q 2381 391 2643 752 
Q 2906 1113 2906 1747 
Q 2906 2381 2643 2742 
Q 2381 3103 1925 3103 
Q 1469 3103 1208 2742 
Q 947 2381 947 1747 
z
" transform="scale(0.015625)"/>
       <path id="DejaVuSans-20" transform="scale(0.015625)"/>
       <path id="DejaVuSans-50" d="M 1259 4147 
L 1259 2394 
L 2053 2394 
Q 2494 2394 2734 2622 
Q 2975 2850 2975 3272 
Q 2975 3691 2734 3919 
Q 2494 4147 2053 4147 
L 1259 4147 
z
M 628 4666 
L 2053 4666 
Q 2838 4666 3239 4311 
Q 3641 3956 3641 3272 
Q 3641 2581 3239 2228 
Q 2838 1875 2053 1875 
L 1259 1875 
L 1259 0 
L 628 0 
L 628 4666 
z
" transform="scale(0.015625)"/>
       <path id="DejaVuSans-72" d="M 2631 2963 
Q 2534 3019 2420 3045 
Q 2306 3072 2169 3072 
Q 1681 3072 1420 2755 
Q 1159 2438 1159 1844 
L 1159 0 
L 581 0 
L 581 3500 
L 1159 3500 
L 1159 2956 
Q 1341 3275 1631 3429 
Q 1922 3584 2338 3584 
Q 2397 3584 2469 3576 
Q 2541 3569 2628 3553 
L 2631 2963 
z
" transform="scale(0.015625)"/>
       <path id="DejaVuSans-6f" d="M 1959 3097 
Q 1497 3097 1228 2736 
Q 959 2375 959 1747 
Q 959 1119 1226 758 
Q 1494 397 1959 397 
Q 2419 397 2687 759 
Q 2956 1122 2956 1747 
Q 2956 2369 2687 2733 
Q 2419 3097 1959 3097 
z
M 1959 3584 
Q 2709 3584 3137 3096 
Q 3566 2609 3566 1747 
Q 3566 888 3137 398 
Q 2709 -91 1959 -91 
Q 1206 -91 779 398 
Q 353 888 353 1747 
Q 353 2609 779 3096 
Q 1206 3584 1959 3584 
z
" transform="scale(0.015625)"/>
       <path id="DejaVuSans-66" d="M 2375 4863 
L 2375 4384 
L 1825 4384 
Q 1516 4384 1395 4259 
Q 1275 4134 1275 3809 
L 1275 3500 
L 2222 3500 
L 2222 3053 
L 1275 3053 
L 1275 0 
L 697 0 
L 697 3053 
L 147 3053 
L 147 3500 
L 697 3500 
L 697 3744 
Q 697 4328 969 4595 
Q 1241 4863 1831 4863 
L 2375 4863 
z
" transform="scale(0.015625)"/>
       <path id="DejaVuSans-69" d="M 603 3500 
L 1178 3500 
L 1178 0 
L 603 0 
L 603 3500 
z
M 603 4863 
L 1178 4863 
L 1178 4134 
L 603 4134 
L 603 4863 
z
" transform="scale(0.015625)"/>
       <path id="DejaVuSans-6c" d="M 603 4863 
L 1178 4863 
L 1178 0 
L 603 0 
L 603 4863 
z
" transform="scale(0.015625)"/>
      </defs>
      <use xlink:href="#DejaVuSans-53"/>
      <use xlink:href="#DejaVuSans-70" x="63.476562"/>
      <use xlink:href="#DejaVuSans-65" x="126.953125"/>
      <use xlink:href="#DejaVuSans-65" x="188.476562"/>
      <use xlink:href="#DejaVuSans-64" x="250"/>
      <use xlink:href="#DejaVuSans-20" x="313.476562"/>
      <use xlink:href="#DejaVuSans-50" x="345.263672"/>
      <use xlink:href="#DejaVuSans-72" x="403.816406"/>
      <use xlink:href="#DejaVuSans-6f" x="442.679688"/>
      <use xlink:href="#DejaVuSans-66" x="503.861328"/>
      <use xlink:href="#DejaVuSans-69" x="539.066406"/>
      <use xlink:href="#DejaVuSans-6c" x="566.849609"/>
      <use xlink:href="#DejaVuSans-65" x="594.632812"/>
     </g>
    </g>
    <g id="line2d_15">
     <path d="M 309.080938 293.004312 
L 319.080938 293.004312 
L 329.080938 293.004312 
" style="fill: none; stroke: #ff7f0e; stroke-width: 1.5; stroke-linecap: square"/>
    </g>
    <g id="text_13">
     <!-- Acttual speed -->
     <g transform="translate(337.080938 296.504312) scale(0.1 -0.1)">
      <defs>
       <path id="DejaVuSans-41" d="M 2188 4044 
L 1331 1722 
L 3047 1722 
L 2188 4044 
z
M 1831 4666 
L 2547 4666 
L 4325 0 
L 3669 0 
L 3244 1197 
L 1141 1197 
L 716 0 
L 50 0 
L 1831 4666 
z
" transform="scale(0.015625)"/>
       <path id="DejaVuSans-63" d="M 3122 3366 
L 3122 2828 
Q 2878 2963 2633 3030 
Q 2388 3097 2138 3097 
Q 1578 3097 1268 2742 
Q 959 2388 959 1747 
Q 959 1106 1268 751 
Q 1578 397 2138 397 
Q 2388 397 2633 464 
Q 2878 531 3122 666 
L 3122 134 
Q 2881 22 2623 -34 
Q 2366 -91 2075 -91 
Q 1284 -91 818 406 
Q 353 903 353 1747 
Q 353 2603 823 3093 
Q 1294 3584 2113 3584 
Q 2378 3584 2631 3529 
Q 2884 3475 3122 3366 
z
" transform="scale(0.015625)"/>
       <path id="DejaVuSans-74" d="M 1172 4494 
L 1172 3500 
L 2356 3500 
L 2356 3053 
L 1172 3053 
L 1172 1153 
Q 1172 725 1289 603 
Q 1406 481 1766 481 
L 2356 481 
L 2356 0 
L 1766 0 
Q 1100 0 847 248 
Q 594 497 594 1153 
L 594 3053 
L 172 3053 
L 172 3500 
L 594 3500 
L 594 4494 
L 1172 4494 
z
" transform="scale(0.015625)"/>
       <path id="DejaVuSans-75" d="M 544 1381 
L 544 3500 
L 1119 3500 
L 1119 1403 
Q 1119 906 1312 657 
Q 1506 409 1894 409 
Q 2359 409 2629 706 
Q 2900 1003 2900 1516 
L 2900 3500 
L 3475 3500 
L 3475 0 
L 2900 0 
L 2900 538 
Q 2691 219 2414 64 
Q 2138 -91 1772 -91 
Q 1169 -91 856 284 
Q 544 659 544 1381 
z
M 1991 3584 
L 1991 3584 
z
" transform="scale(0.015625)"/>
       <path id="DejaVuSans-61" d="M 2194 1759 
Q 1497 1759 1228 1600 
Q 959 1441 959 1056 
Q 959 750 1161 570 
Q 1363 391 1709 391 
Q 2188 391 2477 730 
Q 2766 1069 2766 1631 
L 2766 1759 
L 2194 1759 
z
M 3341 1997 
L 3341 0 
L 2766 0 
L 2766 531 
Q 2569 213 2275 61 
Q 1981 -91 1556 -91 
Q 1019 -91 701 211 
Q 384 513 384 1019 
Q 384 1609 779 1909 
Q 1175 2209 1959 2209 
L 2766 2209 
L 2766 2266 
Q 2766 2663 2505 2880 
Q 2244 3097 1772 3097 
Q 1472 3097 1187 3025 
Q 903 2953 641 2809 
L 641 3341 
Q 956 3463 1253 3523 
Q 1550 3584 1831 3584 
Q 2591 3584 2966 3190 
Q 3341 2797 3341 1997 
z
" transform="scale(0.015625)"/>
       <path id="DejaVuSans-73" d="M 2834 3397 
L 2834 2853 
Q 2591 2978 2328 3040 
Q 2066 3103 1784 3103 
Q 1356 3103 1142 2972 
Q 928 2841 928 2578 
Q 928 2378 1081 2264 
Q 1234 2150 1697 2047 
L 1894 2003 
Q 2506 1872 2764 1633 
Q 3022 1394 3022 966 
Q 3022 478 2636 193 
Q 2250 -91 1575 -91 
Q 1294 -91 989 -36 
Q 684 19 347 128 
L 347 722 
Q 666 556 975 473 
Q 1284 391 1588 391 
Q 1994 391 2212 530 
Q 2431 669 2431 922 
Q 2431 1156 2273 1281 
Q 2116 1406 1581 1522 
L 1381 1569 
Q 847 1681 609 1914 
Q 372 2147 372 2553 
Q 372 3047 722 3315 
Q 1072 3584 1716 3584 
Q 2034 3584 2315 3537 
Q 2597 3491 2834 3397 
z
" transform="scale(0.015625)"/>
      </defs>
      <use xlink:href="#DejaVuSans-41"/>
      <use xlink:href="#DejaVuSans-63" x="66.658203"/>
      <use xlink:href="#DejaVuSans-74" x="121.638672"/>
      <use xlink:href="#DejaVuSans-74" x="160.847656"/>
      <use xlink:href="#DejaVuSans-75" x="200.056641"/>
      <use xlink:href="#DejaVuSans-61" x="263.435547"/>
      <use xlink:href="#DejaVuSans-6c" x="324.714844"/>
      <use xlink:href="#DejaVuSans-20" x="352.498047"/>
      <use xlink:href="#DejaVuSans-73" x="384.285156"/>
      <use xlink:href="#DejaVuSans-70" x="436.384766"/>
      <use xlink:href="#DejaVuSans-65" x="499.861328"/>
      <use xlink:href="#DejaVuSans-65" x="561.384766"/>
      <use xlink:href="#DejaVuSans-64" x="622.908203"/>
     </g>
    </g>
   </g>
  </g>
 </g>
 <defs>
  <clipPath id="p0917966adb">
   <rect x="57.6" y="41.472" width="357.12" height="266.112"/>
  </clipPath>
 </defs>
</svg>
