<?xml version="1.0" encoding="utf-8" standalone="no"?>
<!DOCTYPE svg PUBLIC "-//W3C//DTD SVG 1.1//EN"
  "http://www.w3.org/Graphics/SVG/1.1/DTD/svg11.dtd">
<svg xmlns:xlink="http://www.w3.org/1999/xlink" width="460.8pt" height="345.6pt" viewBox="0 0 460.8 345.6" xmlns="http://www.w3.org/2000/svg" version="1.1">
 <metadata>
  <rdf:RDF xmlns:dc="http://purl.org/dc/elements/1.1/" xmlns:cc="http://creativecommons.org/ns#" xmlns:rdf="http://www.w3.org/1999/02/22-rdf-syntax-ns#">
   <cc:Work>
    <dc:type rdf:resource="http://purl.org/dc/dcmitype/StillImage"/>
    <dc:date>2023-06-05T13:56:08.930653</dc:date>
    <dc:format>image/svg+xml</dc:format>
    <dc:creator>
     <cc:Agent>
      <dc:title>Matplotlib v3.7.1, https://matplotlib.org/</dc:title>
     </cc:Agent>
    </dc:creator>
   </cc:Work>
  </rdf:RDF>
 </metadata>
 <defs>
  <style type="text/css">*{stroke-linejoin: round; stroke-linecap: butt}</style>
 </defs>
 <g id="figure_1">
  <g id="patch_1">
   <path d="M 0 345.6 
L 460.8 345.6 
L 460.8 0 
L 0 0 
z
" style="fill: #ffffff"/>
  </g>
  <g id="axes_1">
   <g id="patch_2">
    <path d="M 57.6 307.584 
L 414.72 307.584 
L 414.72 41.472 
L 57.6 41.472 
z
" style="fill: #ffffff"/>
   </g>
   <g id="matplotlib.axis_1">
    <g id="xtick_1">
     <g id="line2d_1">
      <defs>
       <path id="m9a1838c0eb" d="M 0 0 
L 0 3.5 
" style="stroke: #000000; stroke-width: 0.8"/>
      </defs>
      <g>
       <use xlink:href="#m9a1838c0eb" x="73.822407" y="307.584" style="stroke: #000000; stroke-width: 0.8"/>
      </g>
     </g>
     <g id="text_1">
      <!-- 0 -->
      <g transform="translate(70.641157 322.182437) scale(0.1 -0.1)">
       <defs>
        <path id="DejaVuSans-30" d="M 2034 4250 
Q 1547 4250 1301 3770 
Q 1056 3291 1056 2328 
Q 1056 1369 1301 889 
Q 1547 409 2034 409 
Q 2525 409 2770 889 
Q 3016 1369 3016 2328 
Q 3016 3291 2770 3770 
Q 2525 4250 2034 4250 
z
M 2034 4750 
Q 2819 4750 3233 4129 
Q 3647 3509 3647 2328 
Q 3647 1150 3233 529 
Q 2819 -91 2034 -91 
Q 1250 -91 836 529 
Q 422 1150 422 2328 
Q 422 3509 836 4129 
Q 1250 4750 2034 4750 
z
" transform="scale(0.015625)"/>
       </defs>
       <use xlink:href="#DejaVuSans-30"/>
      </g>
     </g>
    </g>
    <g id="xtick_2">
     <g id="line2d_2">
      <g>
       <use xlink:href="#m9a1838c0eb" x="147.854732" y="307.584" style="stroke: #000000; stroke-width: 0.8"/>
      </g>
     </g>
     <g id="text_2">
      <!-- 5 -->
      <g transform="translate(144.673482 322.182437) scale(0.1 -0.1)">
       <defs>
        <path id="DejaVuSans-35" d="M 691 4666 
L 3169 4666 
L 3169 4134 
L 1269 4134 
L 1269 2991 
Q 1406 3038 1543 3061 
Q 1681 3084 1819 3084 
Q 2600 3084 3056 2656 
Q 3513 2228 3513 1497 
Q 3513 744 3044 326 
Q 2575 -91 1722 -91 
Q 1428 -91 1123 -41 
Q 819 9 494 109 
L 494 744 
Q 775 591 1075 516 
Q 1375 441 1709 441 
Q 2250 441 2565 725 
Q 2881 1009 2881 1497 
Q 2881 1984 2565 2268 
Q 2250 2553 1709 2553 
Q 1456 2553 1204 2497 
Q 953 2441 691 2322 
L 691 4666 
z
" transform="scale(0.015625)"/>
       </defs>
       <use xlink:href="#DejaVuSans-35"/>
      </g>
     </g>
    </g>
    <g id="xtick_3">
     <g id="line2d_3">
      <g>
       <use xlink:href="#m9a1838c0eb" x="221.887056" y="307.584" style="stroke: #000000; stroke-width: 0.8"/>
      </g>
     </g>
     <g id="text_3">
      <!-- 10 -->
      <g transform="translate(215.524556 322.182437) scale(0.1 -0.1)">
       <defs>
        <path id="DejaVuSans-31" d="M 794 531 
L 1825 531 
L 1825 4091 
L 703 3866 
L 703 4441 
L 1819 4666 
L 2450 4666 
L 2450 531 
L 3481 531 
L 3481 0 
L 794 0 
L 794 531 
z
" transform="scale(0.015625)"/>
       </defs>
       <use xlink:href="#DejaVuSans-31"/>
       <use xlink:href="#DejaVuSans-30" x="63.623047"/>
      </g>
     </g>
    </g>
    <g id="xtick_4">
     <g id="line2d_4">
      <g>
       <use xlink:href="#m9a1838c0eb" x="295.919381" y="307.584" style="stroke: #000000; stroke-width: 0.8"/>
      </g>
     </g>
     <g id="text_4">
      <!-- 15 -->
      <g transform="translate(289.556881 322.182437) scale(0.1 -0.1)">
       <use xlink:href="#DejaVuSans-31"/>
       <use xlink:href="#DejaVuSans-35" x="63.623047"/>
      </g>
     </g>
    </g>
    <g id="xtick_5">
     <g id="line2d_5">
      <g>
       <use xlink:href="#m9a1838c0eb" x="369.951706" y="307.584" style="stroke: #000000; stroke-width: 0.8"/>
      </g>
     </g>
     <g id="text_5">
      <!-- 20 -->
      <g transform="translate(363.589206 322.182437) scale(0.1 -0.1)">
       <defs>
        <path id="DejaVuSans-32" d="M 1228 531 
L 3431 531 
L 3431 0 
L 469 0 
L 469 531 
Q 828 903 1448 1529 
Q 2069 2156 2228 2338 
Q 2531 2678 2651 2914 
Q 2772 3150 2772 3378 
Q 2772 3750 2511 3984 
Q 2250 4219 1831 4219 
Q 1534 4219 1204 4116 
Q 875 4013 500 3803 
L 500 4441 
Q 881 4594 1212 4672 
Q 1544 4750 1819 4750 
Q 2544 4750 2975 4387 
Q 3406 4025 3406 3419 
Q 3406 3131 3298 2873 
Q 3191 2616 2906 2266 
Q 2828 2175 2409 1742 
Q 1991 1309 1228 531 
z
" transform="scale(0.015625)"/>
       </defs>
       <use xlink:href="#DejaVuSans-32"/>
       <use xlink:href="#DejaVuSans-30" x="63.623047"/>
      </g>
     </g>
    </g>
   </g>
   <g id="matplotlib.axis_2">
    <g id="ytick_1">
     <g id="line2d_6">
      <defs>
       <path id="mc69367560e" d="M 0 0 
L -3.5 0 
" style="stroke: #000000; stroke-width: 0.8"/>
      </defs>
      <g>
       <use xlink:href="#mc69367560e" x="57.6" y="271.654622" style="stroke: #000000; stroke-width: 0.8"/>
      </g>
     </g>
     <g id="text_6">
      <!-- 3 -->
      <g transform="translate(44.2375 275.45384) scale(0.1 -0.1)">
       <defs>
        <path id="DejaVuSans-33" d="M 2597 2516 
Q 3050 2419 3304 2112 
Q 3559 1806 3559 1356 
Q 3559 666 3084 287 
Q 2609 -91 1734 -91 
Q 1441 -91 1130 -33 
Q 819 25 488 141 
L 488 750 
Q 750 597 1062 519 
Q 1375 441 1716 441 
Q 2309 441 2620 675 
Q 2931 909 2931 1356 
Q 2931 1769 2642 2001 
Q 2353 2234 1838 2234 
L 1294 2234 
L 1294 2753 
L 1863 2753 
Q 2328 2753 2575 2939 
Q 2822 3125 2822 3475 
Q 2822 3834 2567 4026 
Q 2313 4219 1838 4219 
Q 1578 4219 1281 4162 
Q 984 4106 628 3988 
L 628 4550 
Q 988 4650 1302 4700 
Q 1616 4750 1894 4750 
Q 2613 4750 3031 4423 
Q 3450 4097 3450 3541 
Q 3450 3153 3228 2886 
Q 3006 2619 2597 2516 
z
" transform="scale(0.015625)"/>
       </defs>
       <use xlink:href="#DejaVuSans-33"/>
      </g>
     </g>
    </g>
    <g id="ytick_2">
     <g id="line2d_7">
      <g>
       <use xlink:href="#mc69367560e" x="57.6" y="228.037297" style="stroke: #000000; stroke-width: 0.8"/>
      </g>
     </g>
     <g id="text_7">
      <!-- 4 -->
      <g transform="translate(44.2375 231.836516) scale(0.1 -0.1)">
       <defs>
        <path id="DejaVuSans-34" d="M 2419 4116 
L 825 1625 
L 2419 1625 
L 2419 4116 
z
M 2253 4666 
L 3047 4666 
L 3047 1625 
L 3713 1625 
L 3713 1100 
L 3047 1100 
L 3047 0 
L 2419 0 
L 2419 1100 
L 313 1100 
L 313 1709 
L 2253 4666 
z
" transform="scale(0.015625)"/>
       </defs>
       <use xlink:href="#DejaVuSans-34"/>
      </g>
     </g>
    </g>
    <g id="ytick_3">
     <g id="line2d_8">
      <g>
       <use xlink:href="#mc69367560e" x="57.6" y="184.419973" style="stroke: #000000; stroke-width: 0.8"/>
      </g>
     </g>
     <g id="text_8">
      <!-- 5 -->
      <g transform="translate(44.2375 188.219192) scale(0.1 -0.1)">
       <use xlink:href="#DejaVuSans-35"/>
      </g>
     </g>
    </g>
    <g id="ytick_4">
     <g id="line2d_9">
      <g>
       <use xlink:href="#mc69367560e" x="57.6" y="140.802649" style="stroke: #000000; stroke-width: 0.8"/>
      </g>
     </g>
     <g id="text_9">
      <!-- 6 -->
      <g transform="translate(44.2375 144.601867) scale(0.1 -0.1)">
       <defs>
        <path id="DejaVuSans-36" d="M 2113 2584 
Q 1688 2584 1439 2293 
Q 1191 2003 1191 1497 
Q 1191 994 1439 701 
Q 1688 409 2113 409 
Q 2538 409 2786 701 
Q 3034 994 3034 1497 
Q 3034 2003 2786 2293 
Q 2538 2584 2113 2584 
z
M 3366 4563 
L 3366 3988 
Q 3128 4100 2886 4159 
Q 2644 4219 2406 4219 
Q 1781 4219 1451 3797 
Q 1122 3375 1075 2522 
Q 1259 2794 1537 2939 
Q 1816 3084 2150 3084 
Q 2853 3084 3261 2657 
Q 3669 2231 3669 1497 
Q 3669 778 3244 343 
Q 2819 -91 2113 -91 
Q 1303 -91 875 529 
Q 447 1150 447 2328 
Q 447 3434 972 4092 
Q 1497 4750 2381 4750 
Q 2619 4750 2861 4703 
Q 3103 4656 3366 4563 
z
" transform="scale(0.015625)"/>
       </defs>
       <use xlink:href="#DejaVuSans-36"/>
      </g>
     </g>
    </g>
    <g id="ytick_5">
     <g id="line2d_10">
      <g>
       <use xlink:href="#mc69367560e" x="57.6" y="97.185324" style="stroke: #000000; stroke-width: 0.8"/>
      </g>
     </g>
     <g id="text_10">
      <!-- 7 -->
      <g transform="translate(44.2375 100.984543) scale(0.1 -0.1)">
       <defs>
        <path id="DejaVuSans-37" d="M 525 4666 
L 3525 4666 
L 3525 4397 
L 1831 0 
L 1172 0 
L 2766 4134 
L 525 4134 
L 525 4666 
z
" transform="scale(0.015625)"/>
       </defs>
       <use xlink:href="#DejaVuSans-37"/>
      </g>
     </g>
    </g>
    <g id="ytick_6">
     <g id="line2d_11">
      <g>
       <use xlink:href="#mc69367560e" x="57.6" y="53.568" style="stroke: #000000; stroke-width: 0.8"/>
      </g>
     </g>
     <g id="text_11">
      <!-- 8 -->
      <g transform="translate(44.2375 57.367219) scale(0.1 -0.1)">
       <defs>
        <path id="DejaVuSans-38" d="M 2034 2216 
Q 1584 2216 1326 1975 
Q 1069 1734 1069 1313 
Q 1069 891 1326 650 
Q 1584 409 2034 409 
Q 2484 409 2743 651 
Q 3003 894 3003 1313 
Q 3003 1734 2745 1975 
Q 2488 2216 2034 2216 
z
M 1403 2484 
Q 997 2584 770 2862 
Q 544 3141 544 3541 
Q 544 4100 942 4425 
Q 1341 4750 2034 4750 
Q 2731 4750 3128 4425 
Q 3525 4100 3525 3541 
Q 3525 3141 3298 2862 
Q 3072 2584 2669 2484 
Q 3125 2378 3379 2068 
Q 3634 1759 3634 1313 
Q 3634 634 3220 271 
Q 2806 -91 2034 -91 
Q 1263 -91 848 271 
Q 434 634 434 1313 
Q 434 1759 690 2068 
Q 947 2378 1403 2484 
z
M 1172 3481 
Q 1172 3119 1398 2916 
Q 1625 2713 2034 2713 
Q 2441 2713 2670 2916 
Q 2900 3119 2900 3481 
Q 2900 3844 2670 4047 
Q 2441 4250 2034 4250 
Q 1625 4250 1398 4047 
Q 1172 3844 1172 3481 
z
" transform="scale(0.015625)"/>
       </defs>
       <use xlink:href="#DejaVuSans-38"/>
      </g>
     </g>
    </g>
   </g>
   <g id="line2d_12">
    <path d="M 73.832727 53.568 
L 73.86425 53.568 
L 73.97407 55.279675 
L 74.625273 55.279675 
L 74.745724 57.403838 
L 75.514001 57.403838 
L 75.689887 59.658331 
L 76.436415 59.658331 
L 76.596561 62.227565 
L 76.996839 62.227565 
L 77.115306 65.151235 
L 77.610997 65.151235 
L 77.715056 68.372505 
L 78.189811 68.372505 
L 78.309906 71.778102 
L 78.775377 71.778102 
L 78.916897 75.556627 
L 79.369842 75.556627 
L 79.512902 79.517124 
L 79.847942 79.517124 
L 79.96364 83.62134 
L 80.262538 83.62134 
L 80.373202 88.151609 
L 80.672352 88.151609 
L 80.846979 92.559489 
L 81.169982 92.559489 
L 81.27151 97.110695 
L 81.559881 97.110695 
L 81.734449 101.961378 
L 82.051056 101.961378 
L 82.159054 106.774506 
L 82.463194 106.774506 
L 82.64173 111.661696 
L 82.923541 111.661696 
L 83.040394 116.702201 
L 83.356023 116.702201 
L 83.520331 121.823486 
L 83.818133 121.823486 
L 83.927124 127.045221 
L 84.222453 127.045221 
L 84.343082 132.368323 
L 84.693891 132.368323 
L 84.84428 137.79772 
L 85.30408 137.79772 
L 85.416713 143.338778 
L 85.70153 143.338778 
L 85.820589 148.997908 
L 86.188885 148.997908 
L 86.305679 154.778424 
L 86.773829 154.778424 
L 86.885855 160.575952 
L 87.208888 160.575952 
L 87.381575 166.409028 
L 87.777486 166.409028 
L 87.980749 172.253313 
L 88.254046 172.253313 
L 88.36508 178.055507 
L 88.860564 178.055507 
L 88.97407 183.751756 
L 89.450601 183.751756 
L 89.556793 189.382229 
L 90.02946 189.382229 
L 90.148267 194.93454 
L 90.628011 194.93454 
L 90.740333 200.521439 
L 91.211268 200.521439 
L 91.329497 205.659124 
L 91.813743 205.659124 
L 91.945328 210.30053 
L 92.518456 210.30053 
L 92.635339 214.457828 
L 93.105696 214.457828 
L 93.284262 218.085002 
L 93.872745 218.085002 
L 93.991152 221.357042 
L 94.588208 221.357042 
L 94.80644 224.103756 
L 95.180555 224.103756 
L 95.298962 226.323529 
L 95.950699 226.323529 
L 96.069165 228.090205 
L 96.686165 228.090205 
L 96.849273 229.390917 
L 97.433877 229.390917 
L 97.551529 230.091848 
L 98.162474 230.091848 
L 98.322309 230.531031 
L 98.922889 230.531031 
L 99.104816 230.847823 
L 99.628062 230.847823 
L 99.800439 231.047242 
L 104.085504 231.002796 
L 104.252195 230.8555 
L 104.846038 230.8555 
L 104.957664 230.633095 
L 105.54357 230.633095 
L 105.745975 230.350542 
L 106.431958 230.350542 
L 106.6078 229.628632 
L 107.213088 229.628632 
L 107.318258 228.433299 
L 107.917994 228.433299 
L 108.099003 226.664442 
L 108.692476 226.664442 
L 108.801629 224.479214 
L 109.417919 224.479214 
L 109.593775 222.052782 
L 110.191186 222.052782 
L 110.375675 219.114021 
L 110.873927 219.114021 
L 111.052952 215.860387 
L 111.659144 215.860387 
L 111.83543 212.414226 
L 112.408232 212.414226 
L 112.547295 208.426381 
L 112.94775 208.426381 
L 113.123903 204.086806 
L 113.738001 204.086806 
L 113.845644 199.779727 
L 114.45573 199.779727 
L 114.631275 195.476441 
L 115.04248 195.476441 
L 115.205322 191.22288 
L 115.805294 191.22288 
L 115.918653 186.998019 
L 116.383294 186.998019 
L 116.503301 182.599997 
L 117.012895 182.599997 
L 117.183969 178.342771 
L 117.696613 178.342771 
L 117.876837 174.013272 
L 118.273532 174.013272 
L 118.452305 169.643514 
L 118.874156 169.643514 
L 119.054529 165.153416 
L 119.512315 165.153416 
L 119.650504 160.637583 
L 120.06735 160.637583 
L 120.237491 156.228875 
L 120.653301 156.228875 
L 120.772345 151.723205 
L 121.127789 151.723205 
L 121.261418 147.292819 
L 121.714495 147.292819 
L 121.835523 142.787978 
L 122.305792 142.787978 
L 122.424125 138.191498 
L 122.89383 138.191498 
L 123.011675 133.557157 
L 123.315296 133.557157 
L 123.436206 128.807274 
L 123.905897 128.807274 
L 124.079192 124.02651 
L 124.379748 124.02651 
L 124.503027 119.190177 
L 124.836646 119.190177 
L 125.023785 114.36645 
L 125.393399 114.36645 
L 125.564709 109.552929 
L 125.863119 109.552929 
L 125.97858 104.640485 
L 126.277034 104.640485 
L 126.457613 99.967106 
L 126.747864 99.967106 
L 126.863133 95.271483 
L 127.338968 95.271483 
L 127.457968 90.648614 
L 127.783399 90.648614 
L 127.961965 86.201392 
L 128.237439 86.201392 
L 128.357786 81.89501 
L 128.65014 81.89501 
L 128.822058 77.494719 
L 129.113849 77.494719 
L 129.230375 73.06429 
L 129.554237 73.06429 
L 129.728968 68.80436 
L 129.837056 68.80436 
L 130.008115 64.523756 
L 130.299743 64.523756 
L 130.423703 61.433163 
L 130.714413 61.433163 
L 130.843377 65.699286 
L 131.225872 65.699286 
L 131.394592 69.956512 
L 131.49113 69.956512 
L 131.605022 74.139893 
L 131.911234 74.139893 
L 132.078932 78.647089 
L 132.372974 78.647089 
L 132.491262 83.200563 
L 132.790472 83.200563 
L 132.961916 87.580441 
L 133.103051 87.580441 
L 133.292929 91.885689 
L 133.566567 91.885689 
L 133.679511 95.830352 
L 133.972013 95.830352 
L 134.132115 99.886196 
L 134.448662 99.886196 
L 134.567173 103.899165 
L 134.858609 103.899165 
L 135.071659 107.624738 
L 135.169219 107.624738 
L 135.335777 111.338274 
L 135.632173 111.338274 
L 135.748152 114.883228 
L 136.045851 114.883228 
L 136.221648 118.478168 
L 136.538921 118.478168 
L 136.713918 122.138403 
L 136.935556 122.138403 
L 137.110672 125.769589 
L 137.435437 125.769589 
L 137.639781 129.454032 
L 138.005412 129.454032 
L 138.116786 133.22693 
L 138.414559 133.22693 
L 138.591733 137.093039 
L 138.926567 137.093039 
L 139.096426 141.036743 
L 139.308988 141.036743 
L 139.480136 145.208914 
L 139.774444 145.208914 
L 139.898759 149.351557 
L 140.369279 149.351557 
L 140.484296 153.761268 
L 140.81254 153.761268 
L 141.007897 158.473161 
L 141.385728 158.473161 
L 141.555677 163.025414 
L 141.863296 163.025414 
L 141.97048 167.972273 
L 142.457183 167.972273 
L 142.569905 173.379469 
L 143.050567 173.379469 
L 143.160579 178.919043 
L 143.446966 178.919043 
L 143.592513 184.993366 
L 144.052535 184.993366 
L 144.232671 191.610551 
L 144.639567 191.610551 
L 144.823952 198.224725 
L 145.229931 198.224725 
L 145.40672 204.806492 
L 145.820101 204.806492 
L 145.974296 211.386602 
L 146.597559 211.386602 
L 146.713227 218.024897 
L 147.195133 218.024897 
L 147.308506 224.745018 
L 147.892962 224.745018 
L 148.081123 231.656968 
L 148.656694 231.656968 
L 148.773725 238.856618 
L 149.371521 238.856618 
L 149.545378 246.18808 
L 150.138037 246.18808 
L 150.258606 253.13235 
L 151.024293 253.13235 
L 151.142863 259.512562 
L 151.928509 259.512562 
L 152.039616 265.255262 
L 152.838795 265.255262 
L 153.012327 270.091333 
L 153.694017 270.091333 
L 153.811521 273.996349 
L 154.700767 273.996349 
L 154.84328 276.970047 
L 155.603059 276.970047 
L 155.771378 279.051378 
L 156.658226 279.051378 
L 156.774205 280.320686 
L 157.667568 280.320686 
L 157.841574 280.814609 
L 159.925984 280.896478 
L 160.111109 280.946289 
L 167.043155 280.881649 
L 167.267044 280.819625 
L 169.390024 280.744385 
L 169.530108 280.672547 
L 170.40098 280.672547 
L 170.578139 280.474742 
L 171.616576 280.474742 
L 171.794535 279.639122 
L 172.766076 279.639122 
L 172.942865 277.997278 
L 173.953939 277.997278 
L 174.126198 275.771617 
L 175.021263 275.771617 
L 175.134207 272.669117 
L 176.077142 272.669117 
L 176.204877 268.516224 
L 177.090038 268.516224 
L 177.204921 263.57931 
L 178.122033 263.57931 
L 178.311852 258.019323 
L 178.983918 258.019323 
L 179.099541 251.867404 
L 180.053063 251.867404 
L 180.172018 245.148853 
L 180.936831 245.148853 
L 181.055609 238.229445 
L 181.828817 238.229445 
L 181.945433 232.362566 
L 182.538757 232.362566 
L 182.716583 226.252956 
L 183.49333 226.252956 
L 183.631771 220.275333 
L 184.205625 220.275333 
L 184.318894 214.788666 
L 185.082168 214.788666 
L 185.2013 209.477035 
L 185.79159 209.477035 
L 185.909257 204.274056 
L 186.560001 204.274056 
L 186.6855 199.249732 
L 187.154288 199.249732 
L 187.312554 194.426005 
L 187.869055 194.426005 
L 188.045371 189.652046 
L 188.636119 189.652046 
L 188.755237 184.771965 
L 189.229814 184.771965 
L 189.347333 179.977854 
L 189.861768 179.977854 
L 189.994331 175.360524 
L 190.532013 175.360524 
L 190.708743 170.612604 
L 191.131438 170.612604 
L 191.303918 165.842613 
L 191.722112 165.842613 
L 191.837365 161.127929 
L 192.335425 161.127929 
L 192.518463 156.347427 
L 192.901847 156.347427 
L 193.08099 151.525357 
L 193.515353 151.525357 
L 193.689551 146.810237 
L 193.975937 146.810237 
L 194.092227 142.018263 
L 194.560541 142.018263 
L 194.677231 137.224632 
L 195.178829 137.224632 
L 195.293742 132.42616 
L 195.585237 132.42616 
L 195.751558 127.427222 
L 196.160291 127.427222 
L 196.338783 122.539203 
L 196.656944 122.539203 
L 196.774507 117.644379 
L 197.233537 117.644379 
L 197.362427 112.592097 
L 197.642832 112.592097 
L 197.818348 107.812598 
L 198.111338 107.812598 
L 198.254369 103.159807 
L 198.539749 103.159807 
L 198.712392 98.624042 
L 199.131844 98.624042 
L 199.304488 95.27554 
L 199.60189 95.27554 
L 199.739694 99.675307 
L 200.02038 99.675307 
L 200.190655 104.146388 
L 200.485688 104.146388 
L 200.602378 108.694235 
L 200.907095 108.694235 
L 201.02189 113.336601 
L 201.366762 113.336601 
L 201.49007 117.959689 
L 201.784171 117.959689 
L 201.906872 122.846269 
L 202.260909 122.846269 
L 202.384884 127.973049 
L 202.672781 127.973049 
L 202.796208 132.897794 
L 203.189586 132.897794 
L 203.354737 138.02453 
L 203.560932 138.02453 
L 203.683144 143.405294 
L 204.159054 143.405294 
L 204.336346 148.720327 
L 204.626331 148.720327 
L 204.747389 154.201324 
L 205.092764 154.201324 
L 205.258019 159.980881 
L 205.641151 159.980881 
L 205.818326 165.943892 
L 206.118216 165.943892 
L 206.236268 172.110946 
L 206.714102 172.110946 
L 206.826335 178.464027 
L 207.294841 178.464027 
L 207.440107 184.898673 
L 207.921673 184.898673 
L 208.076993 191.60789 
L 208.377771 191.60789 
L 208.549467 198.444862 
L 209.108751 198.444862 
L 209.278226 205.30482 
L 209.671471 205.30482 
L 209.806906 212.627646 
L 210.259939 212.627646 
L 210.378376 220.010009 
L 210.973433 220.010009 
L 211.148875 227.413526 
L 211.56313 227.413526 
L 211.741193 234.634505 
L 212.329483 234.634505 
L 212.446158 241.352096 
L 213.216465 241.352096 
L 213.341846 247.973817 
L 213.925591 247.973817 
L 214.044664 254.325546 
L 214.817073 254.325546 
L 214.992974 259.889066 
L 215.614831 259.889066 
L 215.732897 264.912823 
L 216.607945 264.912823 
L 216.770845 269.516675 
L 217.486516 269.516675 
L 217.661898 273.607195 
L 218.371276 273.607195 
L 218.494022 277.247671 
L 219.461017 277.247671 
L 219.569504 280.368927 
L 220.462808 280.368927 
L 220.620571 283.21849 
L 221.508307 283.21849 
L 221.624715 285.523622 
L 222.691862 285.523622 
L 222.814385 287.305564 
L 223.704106 287.305564 
L 223.878733 289.045678 
L 224.799903 289.045678 
L 224.937529 290.350752 
L 225.479238 290.350752 
L 225.657893 291.436387 
L 226.660009 291.436387 
L 226.837228 292.276718 
L 227.852093 292.276718 
L 228.026231 292.677125 
L 232.290123 292.695183 
L 232.404636 292.458602 
L 233.472789 292.458602 
L 233.647728 291.988887 
L 234.59047 291.988887 
L 234.75189 291.42413 
L 235.452088 291.42413 
L 235.582459 290.46974 
L 236.622806 290.46974 
L 236.732729 289.124756 
L 237.805679 289.124756 
L 237.920755 287.439862 
L 238.98112 287.439862 
L 239.099764 285.259345 
L 239.999435 285.259345 
L 240.17042 282.999924 
L 241.169012 282.999924 
L 241.34632 280.538249 
L 242.23758 280.538249 
L 242.358342 277.337872 
L 243.424303 277.337872 
L 243.545183 274.21269 
L 244.428581 274.21269 
L 244.615261 270.802775 
L 245.504108 270.802775 
L 245.616208 266.931563 
L 246.503841 266.931563 
L 246.619494 263.011936 
L 247.386795 263.011936 
L 247.565079 259.316284 
L 248.492009 259.316284 
L 248.660195 254.953941 
L 249.347822 254.953941 
L 249.464038 250.648169 
L 250.349124 250.648169 
L 250.467443 246.180796 
L 251.249935 246.180796 
L 251.361783 241.192108 
L 252.007715 241.192108 
L 252.125619 236.509439 
L 252.933563 236.509439 
L 253.061269 231.804133 
L 253.783424 231.804133 
L 253.90389 226.917902 
L 254.499436 226.917902 
L 254.675159 222.100107 
L 255.384951 222.100107 
L 255.504602 216.96722 
L 256.154384 216.96722 
L 256.275323 211.579827 
L 256.889377 211.579827 
L 257.051093 205.865259 
L 257.633209 205.865259 
L 257.75474 211.348698 
L 258.348228 211.348698 
L 258.462652 218.650413 
L 258.93834 218.650413 
L 259.116299 225.568426 
L 259.732632 225.568426 
L 259.840809 232.002461 
L 260.419534 232.002461 
L 260.535898 238.455164 
L 261.206187 238.455164 
L 261.316302 245.037368 
L 262.077962 245.037368 
L 262.1944 250.607911 
L 262.79338 250.607911 
L 262.968689 255.696438 
L 263.675979 255.696438 
L 263.793868 260.214888 
L 264.607972 260.214888 
L 264.763603 264.028438 
L 265.466021 264.028438 
L 265.633557 267.355349 
L 266.342801 267.355349 
L 266.51654 270.210845 
L 267.227902 270.210845 
L 267.351876 272.171094 
L 268.309262 272.171094 
L 268.416328 273.538541 
L 269.306715 273.538541 
L 269.490345 274.327404 
L 270.199915 274.327404 
L 270.38159 274.704301 
L 271.257555 274.704301 
L 271.378124 274.937218 
L 272.326286 274.937218 
L 272.486285 275.10196 
L 276.294448 275.002644 
L 276.408873 274.682405 
L 277.301317 274.682405 
L 277.475205 274.23005 
L 278.362008 274.23005 
L 278.482636 273.75654 
L 279.378576 273.75654 
L 279.494851 273.238018 
L 280.43826 273.238018 
L 280.593831 272.621312 
L 281.446772 272.621312 
L 281.628018 271.315497 
L 282.565134 271.315497 
L 282.72845 269.483657 
L 283.397139 269.483657 
L 283.518019 267.199723 
L 284.406851 267.199723 
L 284.523807 264.420645 
L 285.375357 264.420645 
L 285.52046 261.15362 
L 286.369033 261.15362 
L 286.486582 257.54686 
L 287.263907 257.54686 
L 287.370158 253.579821 
L 288.253556 253.579821 
L 288.371164 249.308507 
L 289.200577 249.308507 
L 289.375368 245.978673 
L 289.942855 245.978673 
L 290.131105 248.914599 
L 290.804665 248.914599 
L 290.924627 251.855933 
L 291.695363 251.855933 
L 291.811431 254.468 
L 292.584965 254.468 
L 292.701522 256.567564 
L 293.48391 256.567564 
L 293.59219 258.280809 
L 294.372979 258.280809 
L 294.481303 259.568217 
L 295.258761 259.568217 
L 295.37172 260.321663 
L 296.157262 260.321663 
L 296.263972 260.830677 
L 297.020567 260.830677 
L 297.14007 261.36198 
L 297.917351 261.36198 
L 298.029835 261.755757 
L 298.919941 261.755757 
L 299.035283 261.947848 
L 303.263506 261.952122 
L 303.366574 261.788732 
L 304.124724 261.788732 
L 304.2467 261.458374 
L 305.01292 261.458374 
L 305.132941 260.831593 
L 305.903558 260.831593 
L 306.02121 259.66941 
L 306.794715 259.66941 
L 306.909583 257.944475 
L 307.689055 257.944475 
L 307.822135 255.573917 
L 308.572956 255.573917 
L 308.684434 252.283863 
L 309.457139 252.283863 
L 309.573977 248.450903 
L 310.348015 248.450903 
L 310.469206 243.879284 
L 311.237913 243.879284 
L 311.354958 238.51034 
L 312.130165 238.51034 
L 312.246692 232.274371 
L 313.019915 232.274371 
L 313.134458 225.252506 
L 313.729397 225.252506 
L 313.902381 217.61738 
L 314.509075 217.61738 
L 314.61469 210.448437 
L 315.205986 210.448437 
L 315.320633 204.437577 
L 315.985058 204.437577 
L 316.099453 199.543233 
L 316.684811 199.543233 
L 316.804655 195.440675 
L 317.460315 195.440675 
L 317.577375 192.2847 
L 318.079136 192.2847 
L 318.212468 189.84985 
L 318.778534 189.84985 
L 318.951977 187.695329 
L 319.386133 187.695329 
L 319.558524 185.968737 
L 320.129313 185.968737 
L 320.241028 184.457702 
L 320.717545 184.457702 
L 320.835182 182.996085 
L 321.313668 182.996085 
L 321.434326 181.651625 
L 321.90224 181.651625 
L 322.064696 180.078741 
L 322.688433 180.078741 
L 322.810187 178.432448 
L 323.211516 178.432448 
L 323.391429 176.712574 
L 323.790419 176.712574 
L 323.907627 174.793019 
L 324.383048 174.793019 
L 324.56077 172.624278 
L 324.977468 172.624278 
L 325.156256 170.029135 
L 325.593639 170.029135 
L 325.795807 167.262662 
L 326.2355 167.262662 
L 326.362184 164.184457 
L 326.670129 164.184457 
L 326.782169 160.879092 
L 327.25374 160.879092 
L 327.359266 157.293966 
L 327.827106 157.293966 
L 327.944447 153.454682 
L 328.418565 153.454682 
L 328.53484 149.269949 
L 329.006367 149.269949 
L 329.162723 144.798868 
L 329.470238 144.798868 
L 329.652491 140.076595 
L 330.054294 140.076595 
L 330.213182 135.243882 
L 330.492018 135.243882 
L 330.609788 130.384389 
L 331.079494 130.384389 
L 331.195399 125.493011 
L 331.497821 125.493011 
L 331.672256 120.579782 
L 332.089428 120.579782 
L 332.207761 115.611027 
L 332.559815 115.611027 
L 332.70628 110.621249 
L 333.056616 110.621249 
L 333.206502 109.184407 
L 333.479829 109.184407 
L 333.613753 114.175014 
L 334.067083 114.175014 
L 334.214437 119.255821 
L 334.465762 119.255821 
L 334.63614 124.430014 
L 334.926406 124.430014 
L 335.052468 129.702476 
L 335.360946 129.702476 
L 335.527933 135.078878 
L 335.813787 135.078878 
L 335.933956 140.565632 
L 336.405853 140.565632 
L 336.529058 146.16976 
L 336.825157 146.16976 
L 336.94663 151.899245 
L 337.324402 151.899245 
L 337.447266 157.762765 
L 337.917726 157.762765 
L 338.050126 163.770267 
L 338.341813 163.770267 
L 338.518425 169.932828 
L 338.902045 169.932828 
L 339.02063 176.263054 
L 339.378636 176.263054 
L 339.492749 182.7756 
L 339.967681 182.7756 
L 340.084875 189.484991 
L 340.560577 189.484991 
L 340.672025 196.311626 
L 341.140975 196.311626 
L 341.264935 203.222137 
L 341.743154 203.222137 
L 341.881832 210.117556 
L 342.457196 210.117556 
L 342.627382 216.758686 
L 343.039919 216.758686 
L 343.216531 222.872526 
L 343.811055 222.872526 
L 343.962258 228.435087 
L 344.523394 228.435087 
L 344.699146 233.47001 
L 345.288962 233.47001 
L 345.407266 237.832963 
L 346.019128 237.832963 
L 346.181348 241.52674 
L 346.768853 241.52674 
L 346.896159 244.58981 
L 347.480038 244.58981 
L 347.598904 247.105701 
L 348.372704 247.105701 
L 348.490579 249.020545 
L 349.258842 249.020545 
L 349.434432 250.295131 
L 350.026942 250.295131 
L 350.14686 251.518902 
L 350.914471 251.518902 
L 351.05611 252.620152 
L 351.812676 252.620152 
L 351.924613 253.52338 
L 352.516383 253.52338 
L 352.69252 254.474107 
L 353.407376 254.474107 
L 353.58418 255.317229 
L 353.876179 255.317229 
L 353.997059 255.74686 
L 354.771659 255.74686 
L 354.884055 256.254435 
L 355.652614 256.254435 
L 355.801523 256.71137 
L 356.54534 256.71137 
L 356.660608 257.045391 
L 357.433358 257.045391 
L 357.548019 257.422943 
L 358.344755 257.422943 
L 358.462585 257.751687 
L 359.213939 257.751687 
L 359.326764 258.055612 
L 360.117326 258.055612 
L 360.30023 258.235839 
L 363.655538 258.294722 
L 363.775959 258.404813 
L 370.88241 258.377813 
L 371.056964 258.269206 
L 372.236906 258.159247 
L 372.353966 258.027566 
L 373.243968 258.027566 
L 373.421231 257.828671 
L 374.132578 257.828671 
L 374.314105 257.628424 
L 375.021143 257.628424 
L 375.197888 257.345958 
L 375.911826 257.345958 
L 376.088971 257.093109 
L 376.802376 257.093109 
L 376.976455 256.457866 
L 377.719947 256.457866 
L 377.893968 255.147907 
L 378.571408 255.147907 
L 378.694005 253.286232 
L 379.462994 253.286232 
L 379.581223 250.804537 
L 380.347858 250.804537 
L 380.470292 247.688908 
L 381.242005 247.688908 
L 381.424451 244.132962 
L 382.131074 244.132962 
L 382.307256 240.212899 
L 382.901484 240.212899 
L 383.017878 235.668715 
L 383.785045 235.668715 
L 383.93844 230.716884 
L 384.497725 230.716884 
L 384.67444 225.002448 
L 385.436292 225.002448 
L 385.570216 219.405254 
L 386.171877 219.405254 
L 386.279105 214.14784 
L 386.862525 214.14784 
L 386.982531 208.842796 
L 387.663702 208.842796 
L 387.84865 203.396998 
L 388.345614 203.396998 
L 388.464273 198.111233 
L 389.153603 198.111233 
L 389.323418 192.921513 
L 389.707143 192.921513 
L 389.82595 187.723244 
L 390.429002 187.723244 
L 390.594539 182.707644 
L 391.014139 182.707644 
L 391.189225 177.862021 
L 391.646005 177.862021 
L 391.791197 173.055087 
L 392.384329 173.055087 
L 392.50019 168.375427 
L 392.977772 168.375427 
L 393.111963 163.703271 
L 393.560806 163.703271 
L 393.678992 159.368188 
L 394.152976 159.368188 
L 394.270125 155.275488 
L 394.747604 155.275488 
L 394.861599 151.108157 
L 395.189532 151.108157 
L 395.351219 147.069062 
L 395.752711 147.069062 
L 395.873399 143.206748 
L 396.343993 143.206748 
L 396.518531 139.333486 
L 396.966027 139.333486 
L 397.145185 135.422277 
L 397.420023 135.422277 
L 397.52617 131.628006 
L 397.996276 131.628006 
L 398.123019 127.969429 
L 398.414765 127.969429 
L 398.487273 53.568 
L 398.487273 53.568 
" clip-path="url(#p6fdff82d26)" style="fill: none; stroke: #1f77b4; stroke-width: 1.5; stroke-linecap: square"/>
   </g>
   <g id="line2d_13">
    <path d="M 73.832727 278.89597 
L 73.895314 295.488 
L 73.927607 291.339992 
L 74.039277 291.339992 
L 74.228623 283.043977 
L 74.328936 283.043977 
L 74.519273 274.747962 
L 74.625273 274.747962 
L 74.814129 266.451947 
L 74.930523 266.451947 
L 75.11396 258.155932 
L 75.217857 258.155932 
L 75.405751 249.859917 
L 75.514001 249.859917 
L 76.051254 233.267887 
L 76.112316 233.267887 
L 76.228591 229.119879 
L 77.234572 200.083826 
L 77.291221 200.083826 
L 77.520988 191.787811 
L 77.610997 191.787811 
L 77.831198 183.491796 
L 77.887789 183.491796 
L 78.104067 175.195781 
L 78.189811 175.195781 
L 78.369221 166.899766 
L 78.47639 166.899766 
L 78.660523 158.603751 
L 78.775377 158.603751 
L 79.0303 150.722624 
L 79.082804 150.722624 
L 79.265456 143.744288 
L 79.369842 143.744288 
L 79.512902 140.501951 
L 79.70315 137.60214 
L 80.020186 129.89919 
L 80.095373 129.89919 
L 80.316434 125.602796 
L 80.373202 125.602796 
L 80.609158 122.125885 
L 80.672352 122.125885 
L 80.846979 120.51043 
L 80.986441 119.181323 
L 81.230067 116.709791 
L 81.27151 116.709791 
L 81.503379 114.890251 
L 81.559881 114.890251 
L 81.734449 114.044816 
L 81.959448 112.923022 
L 82.051056 112.923022 
L 82.248529 112.134203 
L 82.336539 112.134203 
L 82.534753 111.636616 
L 83.040394 111.648393 
L 83.282524 113.388026 
L 83.356023 113.388026 
L 83.757027 116.70508 
L 83.818133 116.70508 
L 84.047189 119.460125 
L 84.101425 119.460125 
L 84.290667 122.071101 
L 84.401848 122.071101 
L 84.590809 125.61562 
L 84.693891 125.61562 
L 85.248304 132.01053 
L 85.30408 132.01053 
L 85.527702 135.056502 
L 85.589386 135.056502 
L 85.765568 137.907462 
L 85.881177 137.907462 
L 86.021957 140.016883 
L 86.247696 143.108348 
L 86.305679 143.108348 
L 86.531684 147.12546 
L 86.591044 147.12546 
L 86.709169 148.581057 
L 86.773829 148.581057 
L 87.00635 151.817026 
L 87.064821 151.817026 
L 87.30815 154.832074 
L 87.381575 154.832074 
L 87.553449 158.817127 
L 87.6593 158.817127 
L 87.777486 160.261122 
L 88.36508 166.505858 
L 88.486464 168.702601 
L 88.544831 168.702601 
L 88.689475 170.481534 
L 88.909958 173.088672 
L 88.97407 173.088672 
L 89.149512 175.11679 
L 89.363391 178.089136 
L 89.450601 178.089136 
L 89.790824 182.682782 
L 89.848555 182.682782 
L 90.02946 183.957019 
L 90.284324 186.880557 
L 90.362072 186.880557 
L 90.567112 189.652918 
L 90.628011 189.652918 
L 90.857097 192.533624 
L 90.918633 192.533624 
L 91.151227 195.283217 
L 91.211268 195.283217 
L 91.44401 198.063516 
L 91.544073 198.063516 
L 91.870718 201.625481 
L 91.945328 201.625481 
L 92.166048 204.611654 
L 92.221172 204.611654 
L 92.394186 205.693669 
L 92.582021 207.279464 
L 92.697496 207.279464 
L 92.878253 209.750429 
L 92.989376 209.750429 
L 93.175878 211.370812 
L 93.284262 211.370812 
L 93.472363 213.682007 
L 93.574987 213.682007 
L 93.759712 215.197622 
L 93.872745 215.197622 
L 94.109396 216.813862 
L 94.174708 216.813862 
L 94.362839 218.377717 
L 94.466647 218.377717 
L 94.588208 218.944394 
L 94.939861 220.297316 
L 95.125756 221.60758 
L 95.180555 221.60758 
L 95.298962 222.082355 
L 95.361016 222.082355 
L 95.507941 222.889014 
L 95.716786 224.071261 
L 95.774872 224.071261 
L 96.010724 224.846559 
L 96.069165 224.846559 
L 96.441489 226.36767 
L 96.544764 226.36767 
L 96.752202 226.960604 
L 96.849273 226.960604 
L 97.046658 227.797184 
L 97.144129 227.797184 
L 97.32807 228.345803 
L 97.433877 228.345803 
L 97.668974 228.838853 
L 97.768725 228.838853 
L 98.086102 229.426422 
L 98.162474 229.426422 
L 98.503614 229.889638 
L 98.616306 229.889638 
L 98.842742 230.110429 
L 99.032042 230.190423 
L 99.265822 230.41671 
L 99.514926 230.49871 
L 99.739821 230.618876 
L 99.918328 230.700353 
L 100.350218 230.863002 
L 100.701279 230.944087 
L 100.923539 231.011606 
L 102.286859 231.120911 
L 104.550634 231.078995 
L 105.54357 230.975055 
L 106.946764 230.695424 
L 107.146429 230.596413 
L 107.318258 230.550397 
L 108.011571 230.092676 
L 108.099003 230.092676 
L 108.280101 229.774401 
L 108.3873 229.774401 
L 108.634094 229.485698 
L 108.692476 229.485698 
L 108.919918 229.119879 
L 108.981217 229.119879 
L 109.168356 228.689027 
L 109.27474 228.689027 
L 109.524762 228.298173 
L 109.593775 228.298173 
L 109.759089 227.718367 
L 109.867384 227.718367 
L 110.126956 227.192386 
L 110.191186 227.192386 
L 110.697701 225.882776 
L 110.756482 225.882776 
L 110.944569 225.254381 
L 111.052952 225.254381 
L 111.320016 224.382253 
L 111.363696 224.382253 
L 111.567995 223.591078 
L 111.659144 223.591078 
L 111.885594 222.709528 
L 111.95018 222.709528 
L 112.088028 222.219968 
L 112.512174 220.88663 
L 112.547295 220.88663 
L 112.722514 219.729854 
L 112.82844 219.729854 
L 113.017074 218.680422 
L 113.123903 218.680422 
L 113.267614 217.986514 
L 113.533968 216.696095 
L 113.571754 216.696095 
L 113.795968 215.52545 
L 113.845644 215.52545 
L 114.076847 214.063615 
L 114.131202 214.063615 
L 114.254702 213.384406 
L 114.313188 213.384406 
L 114.45573 212.737518 
L 114.839395 210.576061 
L 114.929048 210.576061 
L 115.14352 209.174244 
L 115.205322 209.174244 
L 115.388078 207.50767 
L 115.496787 207.50767 
L 115.65763 206.733331 
L 115.865187 205.293349 
L 115.918653 205.293349 
L 116.144925 203.594847 
L 116.207246 203.594847 
L 116.442683 202.053977 
L 116.503301 202.053977 
L 116.619739 201.128941 
L 116.680845 201.128941 
L 116.826926 200.247915 
L 117.217757 197.645793 
L 117.276124 197.645793 
L 117.411618 196.727953 
L 117.818604 194.228026 
L 117.876837 194.228026 
L 118.06137 192.351304 
L 118.158338 192.351304 
L 118.341272 190.648832 
L 118.452305 190.648832 
L 118.699825 188.698702 
L 118.750893 188.698702 
L 118.94428 186.92967 
L 119.054529 186.92967 
L 119.23305 184.907964 
L 119.342855 184.907964 
L 119.732295 182.221878 
L 119.777913 182.221878 
L 120.005237 180.218011 
L 120.06735 180.218011 
L 120.298524 178.190547 
L 120.352789 178.190547 
L 120.597096 176.151655 
L 120.653301 176.151655 
L 120.772345 175.204287 
L 120.83437 175.204287 
L 121.021049 173.024336 
L 121.127789 173.024336 
L 121.328876 170.836099 
L 121.427783 170.836099 
L 121.617957 168.650347 
L 121.714495 168.650347 
L 121.904714 166.453343 
L 122.011232 166.453343 
L 122.19954 164.256295 
L 122.305792 164.256295 
L 122.53923 162.044635 
L 122.598323 162.044635 
L 122.788793 159.830139 
L 122.89383 159.830139 
L 123.129712 157.600858 
L 123.198355 157.600858 
L 123.38351 155.368654 
L 123.496217 155.368654 
L 123.674975 152.902705 
L 123.792686 152.902705 
L 123.968173 150.665747 
L 124.079192 150.665747 
L 124.267574 148.192557 
L 124.379748 148.192557 
L 124.611869 145.719063 
L 124.705327 145.719063 
L 124.966824 143.256123 
L 125.023785 143.256123 
L 125.358899 139.32786 
L 125.393399 139.32786 
L 125.754114 135.486874 
L 125.863119 135.486874 
L 126.048318 132.845584 
L 126.163897 132.845584 
L 126.347305 130.227061 
L 126.457613 130.227061 
L 126.646307 127.417757 
L 126.747864 127.417757 
L 126.94479 124.646007 
L 127.044497 124.646007 
L 127.275981 121.918877 
L 127.338968 121.918877 
L 127.575087 119.225158 
L 127.662549 119.225158 
L 127.915843 116.572135 
L 127.961965 116.572135 
L 128.194397 113.752536 
L 128.237439 113.752536 
L 128.451659 110.989946 
L 128.54642 110.989946 
L 128.761751 108.288812 
L 128.822058 108.288812 
L 129.007686 105.429915 
L 129.113849 105.429915 
L 129.348546 102.625757 
L 129.411918 102.625757 
L 129.638664 99.881311 
L 129.728968 99.881311 
L 129.949407 96.996156 
L 130.008115 96.996156 
L 130.189938 93.981457 
L 130.299743 93.981457 
L 130.53977 91.099661 
L 130.598522 91.099661 
L 130.786224 88.345488 
L 130.899375 88.345488 
L 131.081021 86.243003 
L 131.225872 86.243003 
L 131.431653 84.538176 
L 131.49113 84.538176 
L 131.671103 83.383364 
L 131.797713 83.383364 
L 132.020669 82.525193 
L 132.078932 82.525193 
L 132.277502 82.165175 
L 132.372974 82.165175 
L 132.491262 81.997859 
L 132.728965 82.411875 
L 132.790472 82.411875 
L 132.961916 82.561875 
L 133.103051 83.516396 
L 134.132115 91.593322 
L 134.174728 91.593322 
L 134.390473 94.447901 
L 134.448662 94.447901 
L 134.684115 97.083173 
L 134.743 97.083173 
L 134.858609 98.379567 
L 135.454865 103.978941 
L 135.689918 106.512191 
L 135.748152 106.512191 
L 135.985499 109.393726 
L 136.045851 109.393726 
L 136.280118 111.967061 
L 136.372733 111.967061 
L 136.604113 114.208337 
L 136.645882 114.208337 
L 136.87482 116.938084 
L 136.935556 116.938084 
L 137.170772 119.418819 
L 137.255479 119.418819 
L 137.435437 120.626714 
L 138.061321 126.078574 
L 138.116786 126.078574 
L 138.353586 128.539202 
L 138.414559 128.539202 
L 138.648783 130.888169 
L 138.706883 130.888169 
L 139.131725 133.797968 
L 139.188478 133.797968 
L 139.380237 136.289739 
L 139.480136 136.289739 
L 139.662344 139.359918 
L 139.774444 139.359918 
L 140.012873 142.161197 
L 140.07278 142.161197 
L 140.251923 144.636306 
L 140.369279 144.636306 
L 140.601578 147.098112 
L 140.660389 147.098112 
L 140.81254 148.365457 
L 141.495992 154.567753 
L 141.555677 154.567753 
L 141.671493 156.176403 
L 142.0994 160.329165 
L 142.153532 160.329165 
L 142.272532 161.782887 
L 142.523931 163.913419 
L 142.569905 163.913419 
L 142.805609 167.171851 
L 142.860452 167.171851 
L 143.003912 168.352572 
L 143.050567 168.352572 
L 143.271317 171.136579 
L 143.330839 171.136579 
L 143.514616 173.815511 
L 143.652198 173.815511 
L 143.870608 177.66317 
L 143.92862 177.66317 
L 144.128152 180.186388 
L 144.232671 180.186388 
L 144.430352 184.118883 
L 144.522344 184.118883 
L 144.71511 186.69767 
L 144.823952 186.69767 
L 145.002711 190.665581 
L 145.111109 190.665581 
L 145.302186 193.267616 
L 145.40672 193.267616 
L 145.609035 197.239584 
L 145.700791 197.239584 
L 145.887426 199.84428 
L 146.025763 199.84428 
L 146.24136 203.817426 
L 146.298957 203.817426 
L 146.414226 205.257103 
L 146.653409 207.367004 
L 146.713227 207.367004 
L 146.952367 211.0357 
L 147.010304 211.0357 
L 147.14297 212.365069 
L 147.195133 212.365069 
L 147.429979 215.591486 
L 147.486599 215.591486 
L 147.596907 217.332472 
L 147.892962 219.884042 
L 148.597468 226.991703 
L 148.656694 226.991703 
L 149.135224 233.026988 
L 149.248835 233.026988 
L 149.434656 235.033691 
L 149.545378 235.033691 
L 149.728919 238.873324 
L 149.844721 238.873324 
L 150.029224 241.391221 
L 150.138037 241.391221 
L 150.495465 246.031101 
L 150.552114 246.031101 
L 150.669811 247.381755 
L 150.731717 247.381755 
L 150.913037 249.36124 
L 151.024293 249.36124 
L 151.561708 254.502632 
L 151.620031 254.502632 
L 151.873828 256.227174 
L 151.928509 256.227174 
L 152.401442 260.792774 
L 152.512209 260.792774 
L 152.701998 262.328845 
L 152.838795 262.328845 
L 153.583279 267.581898 
L 153.694017 267.581898 
L 154.175005 270.843427 
L 154.28626 270.843427 
L 154.475161 271.928713 
L 154.586417 271.928713 
L 154.764021 272.64046 
L 154.91398 272.64046 
L 155.244342 274.670803 
L 155.297853 274.670803 
L 155.440572 275.108111 
L 155.483748 275.108111 
L 155.712626 275.749023 
L 155.771378 275.749023 
L 155.956222 276.885778 
L 156.063984 276.885778 
L 156.246488 277.631242 
L 156.406576 277.631242 
L 156.603561 278.120061 
L 156.658226 278.120061 
L 157.017535 278.993716 
L 157.073341 278.993716 
L 157.30903 279.450477 
L 157.375807 279.450477 
L 157.606506 279.750041 
L 157.841574 279.858561 
L 157.960944 280.040401 
L 158.342491 280.403472 
L 158.549323 280.481678 
L 158.784612 280.596304 
L 159.163554 280.687028 
L 159.439517 280.759084 
L 160.344518 280.874888 
L 161.166632 280.926967 
L 169.981158 280.821718 
L 172.766076 280.387639 
L 173.652199 279.842989 
L 173.891308 279.671617 
L 174.126198 279.592015 
L 174.309532 279.237319 
L 174.46229 279.237319 
L 174.745996 278.915554 
L 175.08157 278.488061 
L 175.134207 278.488061 
L 175.371037 277.94786 
L 175.433994 277.94786 
L 175.667018 277.457776 
L 175.753917 277.457776 
L 176.032471 277.013184 
L 176.077142 277.013184 
L 176.398783 276.036985 
L 176.496994 276.036985 
L 176.679824 275.338759 
L 176.793997 275.338759 
L 176.9862 274.705348 
L 177.090038 274.705348 
L 177.327948 273.896029 
L 177.384745 273.896029 
L 177.569278 272.938236 
L 177.67969 272.938236 
L 177.865956 272.069335 
L 177.977641 272.069335 
L 178.122033 271.665657 
L 178.806062 268.933031 
L 178.864814 268.933031 
L 179.051065 267.919801 
L 179.198996 267.919801 
L 179.650979 265.077565 
L 179.751722 265.077565 
L 179.947596 263.851133 
L 180.053063 263.851133 
L 180.286087 262.419133 
L 180.347415 262.419133 
L 180.530423 260.81576 
L 180.645958 260.81576 
L 180.826523 259.361253 
L 180.936831 259.361253 
L 181.173912 257.71278 
L 181.26931 257.71278 
L 181.72686 254.263086 
L 181.828817 254.263086 
L 182.065809 252.495581 
L 182.123732 252.495581 
L 182.311197 250.626448 
L 182.416797 250.626448 
L 182.608496 248.930824 
L 182.716583 248.930824 
L 182.867727 247.852517 
L 183.068237 246.82546 
L 183.451073 244.028106 
L 183.49333 244.028106 
L 183.799025 241.056196 
L 183.900849 241.056196 
L 184.115128 239.126915 
L 184.205625 239.126915 
L 184.437094 237.115851 
L 184.490442 237.115851 
L 184.672428 235.043025 
L 184.783092 235.043025 
L 184.970334 233.162638 
L 185.082168 233.162638 
L 185.320152 231.20422 
L 185.379837 231.20422 
L 185.566635 229.187094 
L 185.674693 229.187094 
L 185.862527 227.35726 
L 185.975101 227.35726 
L 186.152764 225.21421 
L 186.265826 225.21421 
L 186.449189 223.270142 
L 186.560001 223.270142 
L 186.803241 221.26767 
L 186.866598 221.26767 
L 187.046423 219.223545 
L 187.154288 219.223545 
L 187.409729 217.139814 
L 187.513863 217.139814 
L 187.706673 215.031091 
L 187.759221 215.031091 
L 187.939712 213.118166 
L 188.045371 213.118166 
L 188.23436 210.939568 
L 188.339738 210.939568 
L 188.526595 208.963267 
L 188.636119 208.963267 
L 188.876472 206.938376 
L 188.936986 206.938376 
L 189.127901 204.880467 
L 189.229814 204.880467 
L 189.462601 202.785658 
L 189.52199 202.785658 
L 189.689155 201.701157 
L 189.944285 199.684379 
L 189.994331 199.684379 
L 190.359888 196.576121 
L 190.417514 196.576121 
L 190.602551 194.606494 
L 190.708743 194.606494 
L 190.859502 193.465595 
L 191.197312 190.358166 
L 191.303918 190.358166 
L 191.498149 188.082171 
L 191.600314 188.082171 
L 191.787764 186.017457 
L 191.902277 186.017457 
L 192.084278 183.706742 
L 192.193787 183.706742 
L 192.415958 181.610538 
L 192.518463 181.610538 
L 192.688693 179.265147 
L 192.785187 179.265147 
L 192.975642 177.137494 
L 193.08099 177.137494 
L 193.269447 174.759695 
L 193.379266 174.759695 
L 193.598047 172.602644 
L 193.689551 172.602644 
L 193.919776 170.208097 
L 193.975937 170.208097 
L 194.203809 167.80801 
L 194.26108 167.80801 
L 194.448426 165.41368 
L 194.560541 165.41368 
L 194.747132 163.013768 
L 194.861334 163.013768 
L 195.039871 160.619526 
L 195.178829 160.619526 
L 195.412801 158.219395 
L 195.461337 158.219395 
L 195.656338 155.82476 
L 195.751558 155.82476 
L 195.952778 153.188355 
L 196.04862 153.188355 
L 196.233968 150.79673 
L 196.338783 150.79673 
L 196.519969 148.173322 
L 196.656944 148.173322 
L 196.886459 145.560732 
L 196.935483 145.560732 
L 197.137147 142.96899 
L 197.233537 142.96899 
L 197.431959 140.377641 
L 197.527164 140.377641 
L 197.714125 137.798069 
L 197.818348 137.798069 
L 198.002541 135.014237 
L 198.111338 135.014237 
L 198.342764 132.267654 
L 198.43369 132.267654 
L 198.62339 129.565299 
L 198.712392 129.565299 
L 198.915181 126.69275 
L 199.012401 126.69275 
L 199.203167 124.086876 
L 199.304488 124.086876 
L 199.486785 121.412044 
L 199.60189 121.412044 
L 199.739694 120.169255 
L 199.965596 118.266624 
L 200.02038 118.266624 
L 200.248074 116.753234 
L 200.303939 116.753234 
L 200.425382 116.153757 
L 200.485688 116.153757 
L 200.667912 115.255284 
L 200.780189 115.255284 
L 200.970807 114.646168 
L 201.192993 114.583882 
L 201.433169 114.468078 
L 201.49007 114.468078 
L 201.667526 115.132196 
L 201.850563 116.105473 
L 201.970718 116.105473 
L 202.156628 118.425827 
L 202.260909 118.425827 
L 202.737692 123.349525 
L 202.852058 123.349525 
L 202.995355 125.165576 
L 203.245924 127.827193 
L 203.281238 127.827193 
L 203.506237 131.337384 
L 203.560932 131.337384 
L 203.683144 132.609265 
L 203.744117 132.609265 
L 203.924194 136.325548 
L 204.033214 136.325548 
L 204.230865 138.762579 
L 204.336346 138.762579 
L 204.522923 142.190247 
L 204.626331 142.190247 
L 204.864538 145.480563 
L 204.956382 145.480563 
L 205.186682 148.482438 
L 205.258019 148.482438 
L 205.7652 154.452298 
L 205.818326 154.452298 
L 206.008574 158.407997 
L 206.118216 158.407997 
L 206.350085 162.175007 
L 206.411561 162.175007 
L 206.601439 165.595172 
L 206.714102 165.595172 
L 206.942906 169.046436 
L 207.003435 169.046436 
L 207.186102 172.288207 
L 207.294841 172.288207 
L 207.573306 175.63793 
L 207.623856 175.63793 
L 207.884553 178.825702 
L 207.921673 178.825702 
L 208.164676 180.91615 
L 208.226582 180.91615 
L 208.721859 189.36343 
L 208.784623 189.36343 
L 208.899358 191.090719 
L 209.606175 199.100779 
L 209.671471 199.100779 
L 209.896766 202.629159 
L 209.986627 202.629159 
L 210.162528 206.070871 
L 210.259939 206.070871 
L 210.504646 209.732022 
L 210.556764 209.732022 
L 210.755941 213.269954 
L 210.851028 213.269954 
L 211.040166 215.590047 
L 211.148875 215.590047 
L 211.33329 219.65998 
L 211.443642 219.65998 
L 211.641131 222.328924 
L 211.741193 222.328924 
L 211.926777 226.56482 
L 212.053876 226.56482 
L 212.227659 229.342589 
L 212.329483 229.342589 
L 212.595082 232.441862 
L 212.657165 232.441862 
L 212.825707 235.508989 
L 212.923208 235.508989 
L 213.118105 237.520358 
L 213.216465 237.520358 
L 213.750075 242.809569 
L 213.811166 242.809569 
L 213.994352 244.587193 
L 214.133533 244.587193 
L 214.350048 247.939403 
L 214.421148 247.939403 
L 214.597212 250.137672 
L 214.699495 250.137672 
L 214.88656 251.579225 
L 214.992974 251.579225 
L 215.184777 254.439649 
L 215.28857 254.439649 
L 215.470719 256.315455 
L 215.614831 256.315455 
L 216.122219 260.708156 
L 216.182125 260.708156 
L 216.360277 262.15551 
L 216.504388 262.15551 
L 216.678734 263.104623 
L 216.770845 263.104623 
L 216.887861 264.324207 
L 217.141481 266.111558 
L 217.200633 266.111558 
L 217.367768 266.759231 
L 217.570424 267.708388 
L 217.661898 267.708388 
L 217.849659 269.738905 
L 217.959494 269.738905 
L 218.146455 271.070455 
L 218.252691 271.070455 
L 218.440452 271.943674 
L 218.555454 271.943674 
L 218.737114 273.769408 
L 218.844506 273.769408 
L 219.053958 274.966703 
L 219.170115 274.966703 
L 219.37896 275.751859 
L 219.461017 275.751859 
L 219.978518 278.068157 
L 220.036604 278.068157 
L 220.224364 278.860116 
L 220.359725 278.860116 
L 220.562885 279.379511 
L 220.620571 279.379511 
L 220.808657 280.700986 
L 220.932484 280.700986 
L 221.117431 281.567531 
L 221.209409 281.567531 
L 221.400338 282.135821 
L 221.508307 282.135821 
L 222.156549 284.155303 
L 222.216648 284.155303 
L 222.455121 284.626283 
L 222.513163 284.626283 
L 222.751191 284.935181 
L 222.814385 284.935181 
L 222.988954 285.38601 
L 223.174508 286.046768 
L 223.28834 286.046768 
L 223.467913 286.480063 
L 223.58136 286.480063 
L 223.768425 286.76423 
L 223.878733 286.76423 
L 224.059387 287.54956 
L 224.178016 287.54956 
L 224.363852 288.064549 
L 224.505861 288.064549 
L 224.724005 288.402278 
L 224.799903 288.402278 
L 225.190675 288.952206 
L 225.4217 289.43361 
L 225.479238 289.43361 
L 225.891909 290.23739 
L 225.952838 290.23739 
L 226.137578 290.650141 
L 226.24605 290.650141 
L 226.439985 290.920786 
L 226.660009 291.018838 
L 227.408535 291.769928 
L 227.605461 291.866323 
L 227.852093 292.007599 
L 228.561604 292.411234 
L 228.922881 292.502743 
L 229.267368 292.590763 
L 234.410142 292.481981 
L 235.762861 292.118431 
L 235.961519 291.965378 
L 236.137346 291.894238 
L 236.338166 291.8265 
L 238.685154 290.096724 
L 238.875817 289.850068 
L 238.98112 289.850068 
L 239.218453 289.522633 
L 239.281617 289.522633 
L 239.482615 289.126806 
L 239.54036 289.126806 
L 239.832507 288.767792 
L 239.888608 288.767792 
L 240.064494 288.442057 
L 240.17042 288.442057 
L 240.359454 287.936794 
L 240.466682 287.936794 
L 240.644449 287.478463 
L 240.760694 287.478463 
L 240.938638 287.062703 
L 241.050235 287.062703 
L 241.238158 286.685501 
L 241.34632 286.685501 
L 241.537205 286.114811 
L 241.64464 286.114811 
L 241.833082 285.597074 
L 241.938371 285.597074 
L 242.120772 285.127402 
L 242.23758 285.127402 
L 242.472707 284.549211 
L 242.535738 284.549211 
L 242.719471 283.879685 
L 242.827085 283.879685 
L 243.024855 283.272358 
L 243.130617 283.272358 
L 243.310767 282.721427 
L 243.424303 282.721427 
L 243.663058 282.073012 
L 243.720196 282.073012 
L 243.904003 281.343251 
L 244.020885 281.343251 
L 244.258544 280.681271 
L 244.316882 280.681271 
L 244.507841 280.080704 
L 244.615261 280.080704 
L 244.803985 279.219392 
L 244.905646 279.219392 
L 245.093792 278.437988 
L 245.203448 278.437988 
L 245.384057 277.729163 
L 245.504108 277.729163 
L 245.733194 276.902047 
L 245.793012 276.902047 
L 245.98483 275.976357 
L 246.088534 275.976357 
L 246.276147 275.13668 
L 246.382591 275.13668 
L 246.566679 274.374903 
L 246.680349 274.374903 
L 246.868672 273.319975 
L 246.977248 273.319975 
L 247.157072 272.363011 
L 247.26861 272.363011 
L 247.457614 271.494851 
L 247.565079 271.494851 
L 247.753921 270.364203 
L 247.862127 270.364203 
L 248.091049 269.338542 
L 248.200617 269.338542 
L 248.42917 268.408097 
L 248.492009 268.408097 
L 248.940822 266.205117 
L 249.046422 266.205117 
L 249.238802 265.160569 
L 249.347822 265.160569 
L 249.582964 264.008287 
L 249.642471 264.008287 
L 249.830335 262.767941 
L 249.941191 262.767941 
L 250.124184 261.642745 
L 250.231768 261.642745 
L 250.467443 260.622012 
L 250.529215 260.622012 
L 250.71899 259.281303 
L 250.853255 259.281303 
L 251.091654 258.065077 
L 251.138116 258.065077 
L 251.317941 256.961733 
L 251.452073 256.961733 
L 251.656579 255.497718 
L 251.723327 255.497718 
L 251.898369 254.16957 
L 252.007715 254.16957 
L 252.248187 252.742106 
L 252.302926 252.742106 
L 252.575824 251.235084 
L 252.615017 251.235084 
L 252.847878 249.867986 
L 252.933563 249.867986 
L 253.171873 248.404058 
L 253.217284 248.404058 
L 253.383576 246.862927 
L 253.488865 246.862927 
L 253.671754 245.464905 
L 253.783424 245.464905 
L 254.021542 243.964294 
L 254.082574 243.964294 
L 254.315672 242.381727 
L 254.375402 242.381727 
L 254.570329 240.946063 
L 254.675159 240.946063 
L 254.946917 239.196441 
L 254.995837 239.196441 
L 255.170613 237.60925 
L 255.269224 237.60925 
L 255.459368 236.169398 
L 255.590287 236.169398 
L 255.925698 233.558378 
L 255.991024 233.558378 
L 256.215653 232.018076 
L 256.275323 232.018076 
L 256.391909 231.046238 
L 256.452852 231.046238 
L 256.631167 229.238998 
L 256.773116 229.238998 
L 257.001728 227.599554 
L 257.051093 227.599554 
L 257.231998 225.581729 
L 257.34087 225.581729 
L 257.527506 223.751285 
L 257.633209 223.751285 
L 257.829543 222.351517 
L 257.928006 222.351517 
L 258.112879 221.33 
L 258.223957 221.33 
L 258.409171 220.40335 
L 258.642743 220.319997 
L 258.877041 220.165025 
L 259.116299 220.092969 
L 259.305229 221.977761 
L 259.436577 221.977761 
L 259.635902 223.213745 
L 259.732632 223.213745 
L 260.718077 230.877527 
L 260.891298 232.318817 
L 261.119347 234.431074 
L 261.206187 234.431074 
L 261.675492 239.811358 
L 261.779123 239.811358 
L 261.968542 241.610267 
L 262.077962 241.610267 
L 262.310867 243.849493 
L 262.397589 243.849493 
L 262.62241 246.175911 
L 262.693185 246.175911 
L 262.858795 247.701514 
L 262.968689 247.701514 
L 263.148765 250.453549 
L 263.257519 250.453549 
L 263.441356 252.258259 
L 263.560696 252.258259 
L 263.740891 253.441772 
L 263.85416 253.441772 
L 264.04198 255.773249 
L 264.149223 255.773249 
L 264.334852 257.302167 
L 264.476298 257.302167 
L 264.731784 258.304798 
L 264.763603 258.304798 
L 264.943916 260.274993 
L 265.038544 260.274993 
L 265.241319 261.567025 
L 265.350324 261.567025 
L 265.523752 262.414291 
L 265.633557 262.414291 
L 265.821643 264.115149 
L 265.93546 264.115149 
L 266.112294 265.230488 
L 266.222987 265.230488 
L 266.408394 265.961907 
L 266.51654 265.961907 
L 266.70402 267.424526 
L 266.814002 267.424526 
L 266.998283 268.383628 
L 267.110176 268.383628 
L 267.294975 269.012633 
L 267.440478 269.012633 
L 267.686503 270.099838 
L 267.723134 270.099838 
L 267.908244 270.812807 
L 268.004323 270.812807 
L 268.249252 271.280341 
L 268.309262 271.280341 
L 268.649826 272.168783 
L 268.710414 272.168783 
L 268.949213 272.640286 
L 269.013177 272.640286 
L 269.190262 272.811135 
L 269.429253 273.061542 
L 269.490345 273.061542 
L 269.671576 273.497279 
L 269.779159 273.497279 
L 269.972251 273.783016 
L 270.199915 273.886564 
L 270.727173 274.314581 
L 270.972072 274.388686 
L 271.201928 274.497337 
L 271.378124 274.53668 
L 271.831025 274.72454 
L 272.326286 274.824293 
L 273.391552 275.04347 
L 277.596351 274.94363 
L 278.00498 274.846581 
L 278.482636 274.762749 
L 278.696708 274.7149 
L 280.531377 274.115424 
L 280.742103 274.044371 
L 280.973439 273.912254 
L 281.164665 273.850885 
L 281.524032 273.6837 
L 281.628018 273.6837 
L 281.858762 273.463825 
L 282.038527 273.361673 
L 282.218056 273.264363 
L 282.508973 273.083438 
L 282.664071 272.999387 
L 282.871006 272.672999 
L 282.93035 272.672999 
L 283.162131 272.376881 
L 283.219743 272.376881 
L 283.464701 272.108285 
L 283.518019 272.108285 
L 283.753871 271.652572 
L 283.809988 271.652572 
L 284.04701 271.239167 
L 284.10822 271.239167 
L 284.345952 270.864188 
L 284.406851 270.864188 
L 284.523807 270.689937 
L 284.589726 270.689937 
L 284.768307 270.107908 
L 284.882124 270.107908 
L 285.0622 269.579876 
L 285.20757 269.579876 
L 285.454512 269.100915 
L 285.52046 269.100915 
L 286.426571 266.920441 
L 286.486582 266.920441 
L 286.723559 266.050232 
L 286.785776 266.050232 
L 287.011471 265.260758 
L 287.071038 265.260758 
L 287.198832 264.89398 
L 287.263907 264.89398 
L 287.487662 264.023247 
L 287.55207 264.023247 
L 287.730562 263.053678 
L 287.836976 263.053678 
L 288.021331 262.174134 
L 288.138806 262.174134 
L 288.31869 261.376243 
L 288.460965 261.376243 
L 288.704442 260.255888 
L 288.761699 260.255888 
L 289.028378 259.239561 
L 289.063869 259.239561 
L 289.323382 258.317578 
L 289.375368 258.317578 
L 289.625316 257.172013 
L 289.682498 257.172013 
L 289.942855 256.13283 
L 290.168269 255.329748 
L 290.217989 255.329748 
L 290.450095 254.734153 
L 290.511512 254.734153 
L 290.745499 254.193865 
L 290.804665 254.193865 
L 290.993463 253.843618 
L 291.219839 253.749099 
L 291.423235 253.659073 
L 291.757506 253.4139 
L 291.811431 253.4139 
L 292.052569 253.776753 
L 292.111899 253.776753 
L 292.348832 254.014685 
L 292.584965 254.100917 
L 292.701522 254.170748 
L 292.978166 254.99577 
L 293.015034 254.99577 
L 293.188714 255.294723 
L 293.394538 255.732859 
L 293.48391 255.732859 
L 294.040248 257.012024 
L 294.08526 257.012024 
L 294.253698 257.448764 
L 294.372979 257.448764 
L 294.844846 258.526723 
L 294.964483 258.526723 
L 295.138636 258.885214 
L 295.258761 258.885214 
L 295.599295 259.464888 
L 295.656463 259.464888 
L 295.896002 259.759785 
L 296.157262 259.866647 
L 296.613434 260.364713 
L 296.843586 260.453344 
L 297.078357 260.583236 
L 297.14007 260.583236 
L 297.372058 260.851308 
L 297.638426 260.9484 
L 297.863041 261.090767 
L 298.029835 261.142367 
L 298.265658 261.353518 
L 298.506455 261.430023 
L 298.740205 261.542163 
L 299.097707 261.615702 
L 299.326556 261.730023 
L 299.80291 261.832175 
L 300.501049 261.951206 
L 305.01292 261.840593 
L 306.494913 261.312692 
L 306.732439 261.160119 
L 306.909583 261.089241 
L 307.14927 260.797266 
L 307.234867 260.797266 
L 307.497474 260.532422 
L 307.5299 260.532422 
L 307.744164 260.292178 
L 307.822135 260.292178 
L 308.043225 259.854129 
L 308.102777 259.854129 
L 308.33395 259.456775 
L 308.389356 259.456775 
L 308.628999 259.096278 
L 308.684434 259.096278 
L 308.803967 258.772332 
L 308.865799 258.772332 
L 309.052641 258.169977 
L 309.16064 258.169977 
L 309.345943 257.623495 
L 309.457139 257.623495 
L 309.691126 256.945508 
L 309.797644 256.945508 
L 310.037049 256.156863 
L 310.067551 256.156863 
L 310.238802 255.441452 
L 310.348015 255.441452 
L 310.584059 254.575081 
L 310.642797 254.575081 
L 310.833844 253.582089 
L 310.947617 253.582089 
L 311.125295 252.681304 
L 311.237913 252.681304 
L 311.469945 251.608841 
L 311.558354 251.608841 
L 311.789972 250.39279 
L 311.844134 250.39279 
L 312.076255 249.289621 
L 312.130165 249.289621 
L 312.362479 247.992354 
L 312.423792 247.992354 
L 312.603972 246.533136 
L 312.736046 246.533136 
L 312.960778 245.209351 
L 313.019915 245.209351 
L 313.253532 243.674588 
L 313.325121 243.674588 
L 313.502443 241.964309 
L 313.608221 241.964309 
L 313.802866 240.412797 
L 313.902381 240.412797 
L 314.091548 238.296485 
L 314.201234 238.296485 
L 314.43488 236.376668 
L 314.509075 236.376668 
L 314.687686 234.294202 
L 314.790191 234.294202 
L 314.981254 232.080362 
L 315.083226 232.080362 
L 315.279678 230.072089 
L 315.405918 230.072089 
L 315.667 227.692197 
L 315.724316 227.692197 
L 315.928527 225.53327 
L 315.985058 225.53327 
L 316.169398 223.342023 
L 316.274865 223.342023 
L 316.465454 221.132588 
L 316.576502 221.132588 
L 316.750404 219.128241 
L 316.861823 219.128241 
L 317.061577 216.929142 
L 317.161787 216.929142 
L 317.347149 214.934173 
L 317.460315 214.934173 
L 317.641131 212.974316 
L 317.779054 212.974316 
L 318.025685 211.05354 
L 318.079136 211.05354 
L 318.448143 208.275378 
L 318.491541 208.275378 
L 318.724713 206.564794 
L 318.778534 206.564794 
L 319.034064 204.910563 
L 319.077255 204.910563 
L 319.205523 204.091953 
L 319.263505 204.091953 
L 319.519761 202.569709 
L 319.558524 202.569709 
L 319.769324 201.028491 
L 319.828683 201.028491 
L 320.019494 199.630381 
L 320.129313 199.630381 
L 320.312588 198.290195 
L 320.426968 198.290195 
L 320.609102 197.00597 
L 320.717545 197.00597 
L 320.912116 195.771512 
L 321.010876 195.771512 
L 321.209267 194.58547 
L 321.313668 194.58547 
L 321.54339 193.445575 
L 321.604289 193.445575 
L 321.742803 192.884787 
L 322.007898 191.841897 
L 322.064696 191.841897 
L 322.299201 190.821077 
L 322.349632 190.821077 
L 322.630259 189.823767 
L 322.688433 189.823767 
L 322.872492 188.840763 
L 322.923649 188.840763 
L 323.149877 187.874465 
L 323.211516 187.874465 
L 323.4438 186.916105 
L 323.503026 186.916105 
L 323.741617 185.968824 
L 323.790419 185.968824 
L 324.034933 185.018185 
L 324.090783 185.018185 
L 324.332395 184.068897 
L 324.383048 184.068897 
L 324.622661 183.104605 
L 324.686225 183.104605 
L 324.914852 182.131634 
L 324.977468 182.131634 
L 325.241645 181.125556 
L 325.296429 181.125556 
L 325.55837 180.095403 
L 325.593639 180.095403 
L 325.889769 179.029308 
L 325.938882 179.029308 
L 326.17885 177.936912 
L 326.2355 177.936912 
L 326.568912 176.199721 
L 326.670129 176.199721 
L 326.899614 174.927055 
L 326.956767 174.927055 
L 327.195136 173.622853 
L 327.25374 173.622853 
L 327.476711 172.269277 
L 327.534056 172.269277 
L 327.716013 170.878975 
L 327.827106 170.878975 
L 328.061507 169.435198 
L 328.122213 169.435198 
L 328.307946 167.951598 
L 328.418565 167.951598 
L 328.655601 166.406716 
L 328.710074 166.406716 
L 328.901211 164.815774 
L 329.006367 164.815774 
L 329.244825 163.159886 
L 329.3144 163.159886 
L 329.560676 161.455277 
L 329.652491 161.455277 
L 329.881029 159.470515 
L 329.941365 159.470515 
L 330.159302 157.669991 
L 330.213182 157.669991 
L 330.401432 155.587962 
L 330.492018 155.587962 
L 330.673456 153.46816 
L 330.782965 153.46816 
L 330.980246 151.32511 
L 331.079494 151.32511 
L 331.274732 149.148387 
L 331.37968 149.148387 
L 331.563562 146.952255 
L 331.672256 146.952255 
L 331.862904 144.503884 
L 331.967674 144.503884 
L 332.153747 142.282759 
L 332.277085 142.282759 
L 332.456702 139.806603 
L 332.559815 139.806603 
L 332.795474 137.323033 
L 332.879767 137.323033 
L 333.291757 133.623935 
L 333.340026 133.623935 
L 333.568816 131.355005 
L 333.613753 131.355005 
L 333.870646 129.534026 
L 333.925755 129.534026 
L 334.148681 128.108088 
L 334.214437 128.108088 
L 334.421935 127.056169 
L 334.465762 127.056169 
L 334.63614 126.685247 
L 334.870112 126.475884 
L 335.052468 126.378618 
L 335.228532 127.010807 
L 335.419461 127.937326 
L 335.527933 127.937326 
L 335.712674 130.395599 
L 335.813787 130.395599 
L 336.054747 133.051283 
L 336.107947 133.051283 
L 336.293235 135.637878 
L 336.405853 135.637878 
L 336.645451 138.400032 
L 336.707061 138.400032 
L 336.891934 141.074559 
L 337.010801 141.074559 
L 337.115956 143.133428 
L 337.408088 146.15083 
L 337.447266 146.15083 
L 337.70398 150.147922 
L 337.759119 150.147922 
L 338.429778 157.928162 
L 338.518425 157.928162 
L 338.754514 162.060468 
L 338.784467 162.060468 
L 338.970392 164.770325 
L 339.083706 164.770325 
L 339.266699 168.726372 
L 339.378636 168.726372 
L 339.610283 172.559376 
L 339.670353 172.559376 
L 339.87714 176.076022 
L 339.967681 176.076022 
L 340.203015 179.658313 
L 340.262611 179.658313 
L 340.44901 183.040924 
L 340.560577 183.040924 
L 340.795896 186.557527 
L 340.848696 186.557527 
L 341.02815 189.915145 
L 341.140975 189.915145 
L 341.382676 193.431356 
L 341.441176 193.431356 
L 341.622067 196.801579 
L 341.743154 196.801579 
L 342.005451 200.323198 
L 342.061893 200.323198 
L 342.268961 203.694643 
L 342.355653 203.694643 
L 342.524595 205.905562 
L 342.627382 205.905562 
L 342.83485 209.641473 
L 342.927805 209.641473 
L 343.109613 212.091371 
L 343.216531 212.091371 
L 343.409592 215.802507 
L 343.512319 215.802507 
L 343.699784 218.236179 
L 343.811055 218.236179 
L 344.092748 220.890119 
L 344.139773 220.890119 
L 344.376899 223.487269 
L 344.415973 223.487269 
L 344.592333 225.190438 
L 344.699146 225.190438 
L 344.887351 228.040438 
L 344.99575 228.040438 
L 345.181689 229.90944 
L 345.288962 229.90944 
L 345.531181 231.964907 
L 345.5898 231.964907 
L 345.735466 233.080987 
L 345.987057 234.716724 
L 346.019128 234.716724 
L 346.416874 237.449567 
L 346.477566 237.449567 
L 346.658545 238.853042 
L 346.768853 238.853042 
L 347.00743 240.356007 
L 347.068329 240.356007 
L 347.252966 241.813349 
L 347.36813 241.813349 
L 347.547555 242.769092 
L 347.661061 242.769092 
L 347.849 244.261852 
L 347.955399 244.261852 
L 348.13934 245.240799 
L 348.253764 245.240799 
L 348.437927 245.882759 
L 348.549953 245.882759 
L 348.698151 246.479531 
L 348.969731 247.354233 
L 349.199542 247.9278 
L 349.258842 247.9278 
L 349.672475 248.879007 
L 349.730265 248.879007 
L 349.916412 249.366474 
L 350.026942 249.366474 
L 350.266881 249.918888 
L 350.32658 249.918888 
L 350.508966 250.469644 
L 350.619704 250.469644 
L 350.811418 250.830839 
L 350.914471 250.830839 
L 351.202427 251.277131 
L 351.238007 251.277131 
L 351.459897 251.739431 
L 351.516443 251.739431 
L 351.698133 252.042572 
L 351.924613 252.152444 
L 352.101298 252.413188 
L 352.288022 252.795363 
L 352.396731 252.795363 
L 352.58202 253.045944 
L 352.69252 253.045944 
L 352.876372 253.537555 
L 353.010252 253.537555 
L 353.254692 253.859931 
L 353.306544 253.859931 
L 353.476626 254.071344 
L 353.58418 254.071344 
L 353.763783 254.50019 
L 353.876179 254.50019 
L 354.112253 254.863173 
L 354.171686 254.863173 
L 354.356841 255.16736 
L 354.587689 255.277581 
L 354.82668 255.43914 
L 354.884055 255.43914 
L 355.121343 255.719774 
L 355.357625 255.821446 
L 355.595357 255.970486 
L 355.801523 256.024528 
L 356.079307 256.260934 
L 356.307933 256.415993 
L 356.660608 256.517665 
L 356.903538 256.699288 
L 357.159823 256.76515 
L 357.379832 256.861588 
L 357.548019 256.896569 
L 357.793688 257.077755 
L 358.026638 257.1434 
L 358.265289 257.239619 
L 358.462585 257.274513 
L 358.806169 257.49827 
L 359.213939 257.585505 
L 359.856006 257.867055 
L 360.229958 257.931957 
L 360.453669 258.036551 
L 360.98648 258.130023 
L 361.488167 258.198023 
L 363.952467 258.306455 
L 364.486551 258.362504 
L 366.738925 258.470675 
L 368.151032 258.501163 
L 372.06638 258.3967 
L 373.361575 258.274353 
L 374.132578 258.178002 
L 375.734711 257.90583 
L 376.209954 257.81768 
L 376.62378 257.719148 
L 376.976455 257.66105 
L 377.217431 257.549346 
L 377.593026 257.448023 
L 379.054957 256.470515 
L 379.287833 256.174877 
L 379.344157 256.174877 
L 379.581223 255.906718 
L 379.64418 255.906718 
L 379.785612 255.664118 
L 380.142077 255.003316 
L 380.235018 255.003316 
L 380.415775 254.613507 
L 380.530525 254.613507 
L 380.76423 253.970632 
L 380.849353 253.970632 
L 381.084613 253.387468 
L 381.136243 253.387468 
L 381.315371 252.85839 
L 381.424451 252.85839 
L 381.614018 252.048329 
L 381.714879 252.048329 
L 381.899649 251.313508 
L 382.01551 251.313508 
L 382.203374 250.646861 
L 382.307256 250.646861 
L 382.493374 249.678164 
L 382.599995 249.678164 
L 382.792168 248.799449 
L 382.901484 248.799449 
L 383.13245 247.786175 
L 383.195704 247.786175 
L 383.381169 246.661241 
L 383.488324 246.661241 
L 383.675744 245.640682 
L 383.785045 245.640682 
L 384.02106 244.479415 
L 384.131576 244.479415 
L 384.328813 243.201732 
L 384.387965 243.201732 
L 384.575 242.042646 
L 384.67444 242.042646 
L 384.86186 240.460645 
L 384.999575 240.460645 
L 385.217082 239.025548 
L 385.314183 239.025548 
L 385.627947 236.85262 
L 385.710967 236.85262 
L 385.92221 235.232804 
L 385.995562 235.232804 
L 386.221893 233.76338 
L 386.279105 233.76338 
L 386.509124 231.942313 
L 386.568898 231.942313 
L 386.689422 231.09618 
L 386.749462 231.09618 
L 386.929613 229.522729 
L 387.041253 229.522729 
L 387.231339 227.602825 
L 387.34181 227.602825 
L 387.48527 226.710764 
L 387.739482 225.051953 
L 387.779311 225.051953 
L 387.993442 223.0415 
L 388.051425 223.0415 
L 388.288935 221.217729 
L 388.345614 221.217729 
L 388.464273 220.370375 
L 388.529229 220.370375 
L 388.708758 218.30383 
L 388.821464 218.30383 
L 388.969958 217.343682 
L 389.238888 215.558163 
L 389.272603 215.558163 
L 389.475821 213.456593 
L 389.532723 213.456593 
L 389.766383 211.550167 
L 389.82595 211.550167 
L 389.944061 210.417163 
L 390.003731 210.417163 
L 390.18822 208.310316 
L 390.302688 208.310316 
L 390.489946 206.399004 
L 390.594539 206.399004 
L 390.778746 204.199514 
L 390.892889 204.199514 
L 391.078725 202.204239 
L 391.189225 202.204239 
L 391.340992 201.046766 
L 391.610232 198.894338 
L 391.646005 198.894338 
L 391.846514 196.713123 
L 391.905444 196.713123 
L 392.019824 195.588189 
L 392.101244 195.588189 
L 392.281025 193.496258 
L 392.384329 193.496258 
L 392.61534 191.375977 
L 392.675513 191.375977 
L 392.871506 189.240647 
L 392.977772 189.240647 
L 393.198566 187.081371 
L 393.27516 187.081371 
L 393.45842 184.910973 
L 393.560806 184.910973 
L 393.797902 182.735952 
L 393.858535 182.735952 
L 394.039366 180.566513 
L 394.152976 180.566513 
L 394.341862 178.403879 
L 394.449668 178.403879 
L 394.634645 176.256642 
L 394.747604 176.256642 
L 394.978585 174.110626 
L 395.060464 174.110626 
L 395.278697 171.975078 
L 395.351219 171.975078 
L 395.526972 169.662836 
L 395.634171 169.662836 
L 395.816468 167.565279 
L 395.932817 167.565279 
L 396.113693 165.303852 
L 396.227939 165.303852 
L 396.409393 163.252355 
L 396.518531 163.252355 
L 396.708335 161.031753 
L 396.815179 161.031753 
L 396.966027 160.000029 
L 397.232662 157.895362 
L 397.270803 157.895362 
L 397.469639 155.808971 
L 397.52617 155.808971 
L 397.760201 153.564031 
L 397.819945 153.564031 
L 398.059025 151.527538 
L 398.123019 151.527538 
L 398.354666 149.340435 
L 398.414765 149.340435 
L 398.487273 148.324238 
L 398.487273 148.324238 
" clip-path="url(#p6fdff82d26)" style="fill: none; stroke: #ff7f0e; stroke-width: 1.5; stroke-linecap: square"/>
   </g>
   <g id="patch_3">
    <path d="M 57.6 307.584 
L 57.6 41.472 
" style="fill: none; stroke: #000000; stroke-width: 0.8; stroke-linejoin: miter; stroke-linecap: square"/>
   </g>
   <g id="patch_4">
    <path d="M 414.72 307.584 
L 414.72 41.472 
" style="fill: none; stroke: #000000; stroke-width: 0.8; stroke-linejoin: miter; stroke-linecap: square"/>
   </g>
   <g id="patch_5">
    <path d="M 57.6 307.584 
L 414.72 307.584 
" style="fill: none; stroke: #000000; stroke-width: 0.8; stroke-linejoin: miter; stroke-linecap: square"/>
   </g>
   <g id="patch_6">
    <path d="M 57.6 41.472 
L 414.72 41.472 
" style="fill: none; stroke: #000000; stroke-width: 0.8; stroke-linejoin: miter; stroke-linecap: square"/>
   </g>
   <g id="legend_1">
    <g id="patch_7">
     <path d="M 307.080938 302.584 
L 407.72 302.584 
Q 409.72 302.584 409.72 300.584 
L 409.72 272.22775 
Q 409.72 270.22775 407.72 270.22775 
L 307.080938 270.22775 
Q 305.080938 270.22775 305.080938 272.22775 
L 305.080938 300.584 
Q 305.080938 302.584 307.080938 302.584 
z
" style="fill: #ffffff; opacity: 0.8; stroke: #cccccc; stroke-linejoin: miter"/>
    </g>
    <g id="line2d_14">
     <path d="M 309.080938 278.326187 
L 319.080938 278.326187 
L 329.080938 278.326187 
" style="fill: none; stroke: #1f77b4; stroke-width: 1.5; stroke-linecap: square"/>
    </g>
    <g id="text_12">
     <!-- Speed Profile -->
     <g transform="translate(337.080938 281.826187) scale(0.1 -0.1)">
      <defs>
       <path id="DejaVuSans-53" d="M 3425 4513 
L 3425 3897 
Q 3066 4069 2747 4153 
Q 2428 4238 2131 4238 
Q 1616 4238 1336 4038 
Q 1056 3838 1056 3469 
Q 1056 3159 1242 3001 
Q 1428 2844 1947 2747 
L 2328 2669 
Q 3034 2534 3370 2195 
Q 3706 1856 3706 1288 
Q 3706 609 3251 259 
Q 2797 -91 1919 -91 
Q 1588 -91 1214 -16 
Q 841 59 441 206 
L 441 856 
Q 825 641 1194 531 
Q 1563 422 1919 422 
Q 2459 422 2753 634 
Q 3047 847 3047 1241 
Q 3047 1584 2836 1778 
Q 2625 1972 2144 2069 
L 1759 2144 
Q 1053 2284 737 2584 
Q 422 2884 422 3419 
Q 422 4038 858 4394 
Q 1294 4750 2059 4750 
Q 2388 4750 2728 4690 
Q 3069 4631 3425 4513 
z
" transform="scale(0.015625)"/>
       <path id="DejaVuSans-70" d="M 1159 525 
L 1159 -1331 
L 581 -1331 
L 581 3500 
L 1159 3500 
L 1159 2969 
Q 1341 3281 1617 3432 
Q 1894 3584 2278 3584 
Q 2916 3584 3314 3078 
Q 3713 2572 3713 1747 
Q 3713 922 3314 415 
Q 2916 -91 2278 -91 
Q 1894 -91 1617 61 
Q 1341 213 1159 525 
z
M 3116 1747 
Q 3116 2381 2855 2742 
Q 2594 3103 2138 3103 
Q 1681 3103 1420 2742 
Q 1159 2381 1159 1747 
Q 1159 1113 1420 752 
Q 1681 391 2138 391 
Q 2594 391 2855 752 
Q 3116 1113 3116 1747 
z
" transform="scale(0.015625)"/>
       <path id="DejaVuSans-65" d="M 3597 1894 
L 3597 1613 
L 953 1613 
Q 991 1019 1311 708 
Q 1631 397 2203 397 
Q 2534 397 2845 478 
Q 3156 559 3463 722 
L 3463 178 
Q 3153 47 2828 -22 
Q 2503 -91 2169 -91 
Q 1331 -91 842 396 
Q 353 884 353 1716 
Q 353 2575 817 3079 
Q 1281 3584 2069 3584 
Q 2775 3584 3186 3129 
Q 3597 2675 3597 1894 
z
M 3022 2063 
Q 3016 2534 2758 2815 
Q 2500 3097 2075 3097 
Q 1594 3097 1305 2825 
Q 1016 2553 972 2059 
L 3022 2063 
z
" transform="scale(0.015625)"/>
       <path id="DejaVuSans-64" d="M 2906 2969 
L 2906 4863 
L 3481 4863 
L 3481 0 
L 2906 0 
L 2906 525 
Q 2725 213 2448 61 
Q 2172 -91 1784 -91 
Q 1150 -91 751 415 
Q 353 922 353 1747 
Q 353 2572 751 3078 
Q 1150 3584 1784 3584 
Q 2172 3584 2448 3432 
Q 2725 3281 2906 2969 
z
M 947 1747 
Q 947 1113 1208 752 
Q 1469 391 1925 391 
Q 2381 391 2643 752 
Q 2906 1113 2906 1747 
Q 2906 2381 2643 2742 
Q 2381 3103 1925 3103 
Q 1469 3103 1208 2742 
Q 947 2381 947 1747 
z
" transform="scale(0.015625)"/>
       <path id="DejaVuSans-20" transform="scale(0.015625)"/>
       <path id="DejaVuSans-50" d="M 1259 4147 
L 1259 2394 
L 2053 2394 
Q 2494 2394 2734 2622 
Q 2975 2850 2975 3272 
Q 2975 3691 2734 3919 
Q 2494 4147 2053 4147 
L 1259 4147 
z
M 628 4666 
L 2053 4666 
Q 2838 4666 3239 4311 
Q 3641 3956 3641 3272 
Q 3641 2581 3239 2228 
Q 2838 1875 2053 1875 
L 1259 1875 
L 1259 0 
L 628 0 
L 628 4666 
z
" transform="scale(0.015625)"/>
       <path id="DejaVuSans-72" d="M 2631 2963 
Q 2534 3019 2420 3045 
Q 2306 3072 2169 3072 
Q 1681 3072 1420 2755 
Q 1159 2438 1159 1844 
L 1159 0 
L 581 0 
L 581 3500 
L 1159 3500 
L 1159 2956 
Q 1341 3275 1631 3429 
Q 1922 3584 2338 3584 
Q 2397 3584 2469 3576 
Q 2541 3569 2628 3553 
L 2631 2963 
z
" transform="scale(0.015625)"/>
       <path id="DejaVuSans-6f" d="M 1959 3097 
Q 1497 3097 1228 2736 
Q 959 2375 959 1747 
Q 959 1119 1226 758 
Q 1494 397 1959 397 
Q 2419 397 2687 759 
Q 2956 1122 2956 1747 
Q 2956 2369 2687 2733 
Q 2419 3097 1959 3097 
z
M 1959 3584 
Q 2709 3584 3137 3096 
Q 3566 2609 3566 1747 
Q 3566 888 3137 398 
Q 2709 -91 1959 -91 
Q 1206 -91 779 398 
Q 353 888 353 1747 
Q 353 2609 779 3096 
Q 1206 3584 1959 3584 
z
" transform="scale(0.015625)"/>
       <path id="DejaVuSans-66" d="M 2375 4863 
L 2375 4384 
L 1825 4384 
Q 1516 4384 1395 4259 
Q 1275 4134 1275 3809 
L 1275 3500 
L 2222 3500 
L 2222 3053 
L 1275 3053 
L 1275 0 
L 697 0 
L 697 3053 
L 147 3053 
L 147 3500 
L 697 3500 
L 697 3744 
Q 697 4328 969 4595 
Q 1241 4863 1831 4863 
L 2375 4863 
z
" transform="scale(0.015625)"/>
       <path id="DejaVuSans-69" d="M 603 3500 
L 1178 3500 
L 1178 0 
L 603 0 
L 603 3500 
z
M 603 4863 
L 1178 4863 
L 1178 4134 
L 603 4134 
L 603 4863 
z
" transform="scale(0.015625)"/>
       <path id="DejaVuSans-6c" d="M 603 4863 
L 1178 4863 
L 1178 0 
L 603 0 
L 603 4863 
z
" transform="scale(0.015625)"/>
      </defs>
      <use xlink:href="#DejaVuSans-53"/>
      <use xlink:href="#DejaVuSans-70" x="63.476562"/>
      <use xlink:href="#DejaVuSans-65" x="126.953125"/>
      <use xlink:href="#DejaVuSans-65" x="188.476562"/>
      <use xlink:href="#DejaVuSans-64" x="250"/>
      <use xlink:href="#DejaVuSans-20" x="313.476562"/>
      <use xlink:href="#DejaVuSans-50" x="345.263672"/>
      <use xlink:href="#DejaVuSans-72" x="403.816406"/>
      <use xlink:href="#DejaVuSans-6f" x="442.679688"/>
      <use xlink:href="#DejaVuSans-66" x="503.861328"/>
      <use xlink:href="#DejaVuSans-69" x="539.066406"/>
      <use xlink:href="#DejaVuSans-6c" x="566.849609"/>
      <use xlink:href="#DejaVuSans-65" x="594.632812"/>
     </g>
    </g>
    <g id="line2d_15">
     <path d="M 309.080938 293.004312 
L 319.080938 293.004312 
L 329.080938 293.004312 
" style="fill: none; stroke: #ff7f0e; stroke-width: 1.5; stroke-linecap: square"/>
    </g>
    <g id="text_13">
     <!-- Acttual speed -->
     <g transform="translate(337.080938 296.504312) scale(0.1 -0.1)">
      <defs>
       <path id="DejaVuSans-41" d="M 2188 4044 
L 1331 1722 
L 3047 1722 
L 2188 4044 
z
M 1831 4666 
L 2547 4666 
L 4325 0 
L 3669 0 
L 3244 1197 
L 1141 1197 
L 716 0 
L 50 0 
L 1831 4666 
z
" transform="scale(0.015625)"/>
       <path id="DejaVuSans-63" d="M 3122 3366 
L 3122 2828 
Q 2878 2963 2633 3030 
Q 2388 3097 2138 3097 
Q 1578 3097 1268 2742 
Q 959 2388 959 1747 
Q 959 1106 1268 751 
Q 1578 397 2138 397 
Q 2388 397 2633 464 
Q 2878 531 3122 666 
L 3122 134 
Q 2881 22 2623 -34 
Q 2366 -91 2075 -91 
Q 1284 -91 818 406 
Q 353 903 353 1747 
Q 353 2603 823 3093 
Q 1294 3584 2113 3584 
Q 2378 3584 2631 3529 
Q 2884 3475 3122 3366 
z
" transform="scale(0.015625)"/>
       <path id="DejaVuSans-74" d="M 1172 4494 
L 1172 3500 
L 2356 3500 
L 2356 3053 
L 1172 3053 
L 1172 1153 
Q 1172 725 1289 603 
Q 1406 481 1766 481 
L 2356 481 
L 2356 0 
L 1766 0 
Q 1100 0 847 248 
Q 594 497 594 1153 
L 594 3053 
L 172 3053 
L 172 3500 
L 594 3500 
L 594 4494 
L 1172 4494 
z
" transform="scale(0.015625)"/>
       <path id="DejaVuSans-75" d="M 544 1381 
L 544 3500 
L 1119 3500 
L 1119 1403 
Q 1119 906 1312 657 
Q 1506 409 1894 409 
Q 2359 409 2629 706 
Q 2900 1003 2900 1516 
L 2900 3500 
L 3475 3500 
L 3475 0 
L 2900 0 
L 2900 538 
Q 2691 219 2414 64 
Q 2138 -91 1772 -91 
Q 1169 -91 856 284 
Q 544 659 544 1381 
z
M 1991 3584 
L 1991 3584 
z
" transform="scale(0.015625)"/>
       <path id="DejaVuSans-61" d="M 2194 1759 
Q 1497 1759 1228 1600 
Q 959 1441 959 1056 
Q 959 750 1161 570 
Q 1363 391 1709 391 
Q 2188 391 2477 730 
Q 2766 1069 2766 1631 
L 2766 1759 
L 2194 1759 
z
M 3341 1997 
L 3341 0 
L 2766 0 
L 2766 531 
Q 2569 213 2275 61 
Q 1981 -91 1556 -91 
Q 1019 -91 701 211 
Q 384 513 384 1019 
Q 384 1609 779 1909 
Q 1175 2209 1959 2209 
L 2766 2209 
L 2766 2266 
Q 2766 2663 2505 2880 
Q 2244 3097 1772 3097 
Q 1472 3097 1187 3025 
Q 903 2953 641 2809 
L 641 3341 
Q 956 3463 1253 3523 
Q 1550 3584 1831 3584 
Q 2591 3584 2966 3190 
Q 3341 2797 3341 1997 
z
" transform="scale(0.015625)"/>
       <path id="DejaVuSans-73" d="M 2834 3397 
L 2834 2853 
Q 2591 2978 2328 3040 
Q 2066 3103 1784 3103 
Q 1356 3103 1142 2972 
Q 928 2841 928 2578 
Q 928 2378 1081 2264 
Q 1234 2150 1697 2047 
L 1894 2003 
Q 2506 1872 2764 1633 
Q 3022 1394 3022 966 
Q 3022 478 2636 193 
Q 2250 -91 1575 -91 
Q 1294 -91 989 -36 
Q 684 19 347 128 
L 347 722 
Q 666 556 975 473 
Q 1284 391 1588 391 
Q 1994 391 2212 530 
Q 2431 669 2431 922 
Q 2431 1156 2273 1281 
Q 2116 1406 1581 1522 
L 1381 1569 
Q 847 1681 609 1914 
Q 372 2147 372 2553 
Q 372 3047 722 3315 
Q 1072 3584 1716 3584 
Q 2034 3584 2315 3537 
Q 2597 3491 2834 3397 
z
" transform="scale(0.015625)"/>
      </defs>
      <use xlink:href="#DejaVuSans-41"/>
      <use xlink:href="#DejaVuSans-63" x="66.658203"/>
      <use xlink:href="#DejaVuSans-74" x="121.638672"/>
      <use xlink:href="#DejaVuSans-74" x="160.847656"/>
      <use xlink:href="#DejaVuSans-75" x="200.056641"/>
      <use xlink:href="#DejaVuSans-61" x="263.435547"/>
      <use xlink:href="#DejaVuSans-6c" x="324.714844"/>
      <use xlink:href="#DejaVuSans-20" x="352.498047"/>
      <use xlink:href="#DejaVuSans-73" x="384.285156"/>
      <use xlink:href="#DejaVuSans-70" x="436.384766"/>
      <use xlink:href="#DejaVuSans-65" x="499.861328"/>
      <use xlink:href="#DejaVuSans-65" x="561.384766"/>
      <use xlink:href="#DejaVuSans-64" x="622.908203"/>
     </g>
    </g>
   </g>
  </g>
 </g>
 <defs>
  <clipPath id="p6fdff82d26">
   <rect x="57.6" y="41.472" width="357.12" height="266.112"/>
  </clipPath>
 </defs>
</svg>
